<svg width="222" height="406" viewBox="0 0 222 406" fill="none" xmlns="http://www.w3.org/2000/svg">
<path d="M171.443 391.38C171.443 391.38 154.763 381.439 143.166 363.464C139.616 366.697 140.211 372.689 141.394 374.604C142.578 376.518 168.845 393.536 168.845 393.536L171.443 391.38Z" fill="#E8390A"/>
<path d="M175.165 389.941C175.165 389.941 169.664 390.678 161.737 386.828C152.196 382.195 143.039 369.335 139.02 369.456C135 369.576 125.572 371.136 119.066 368.619C118.121 377.402 120.567 381.914 119.972 386.232C119.377 390.544 118.312 397.854 120.56 400.612C122.808 403.371 162.332 401.449 162.332 401.449L178.781 397.734L175.165 389.941Z" fill="#FC643A"/>
<path d="M139.02 369.456C143.039 369.335 152.196 382.195 161.737 386.828C169.671 390.678 175.165 389.941 175.165 389.941L176.91 393.71L173.644 395.451C173.644 395.451 162.834 395.611 149.651 385.864C144.282 381.901 138.035 376.331 133.585 369.837C135.787 369.69 137.697 369.496 139.02 369.456Z" fill="#F4502A"/>
<path d="M119.9 386.755C124.118 387.344 133.698 390.015 137.85 402.092C129.282 402.105 121.526 401.784 120.561 400.606C118.399 397.961 119.298 391.113 119.9 386.755Z" fill="#F4502A"/>
<path d="M184.362 392.652C184.362 392.652 181.923 389.111 172.065 389.673C170.617 393 173.024 398.249 174.28 398.41C177.281 397.372 184.362 392.652 184.362 392.652Z" fill="#E2E2E2"/>
<path d="M134.611 405.111C139.616 405.111 144.945 405.024 149.983 404.944C154.683 404.87 159.126 404.797 162.921 404.797C174.174 404.797 186.63 398.979 187.159 398.731C187.159 398.731 187.536 394.554 184.362 392.653C183.45 393.001 172.693 398.089 162.921 398.089C159.073 398.089 154.604 398.162 149.877 398.236C138.75 398.41 121.037 398.43 119.378 397.868C116.773 400.184 118.664 404.535 118.664 404.535C122.644 404.977 128.37 405.111 134.611 405.111Z" fill="#E2E2E2"/>
<path d="M118.009 401.556C117.995 401.242 118.009 400.92 118.042 400.599C125.414 401.342 139.126 401.195 151.251 401.061C155.509 401.014 159.522 400.974 162.921 400.974C173.34 400.974 185.439 395.324 185.558 395.27L185.955 396.14C185.829 396.201 173.552 401.938 162.921 401.938C159.529 401.938 155.516 401.978 151.265 402.025C146.398 402.078 141.275 402.132 136.409 402.132C129.149 402.125 122.458 401.998 118.009 401.556Z" fill="#232323"/>
<path d="M184.362 392.653C184.448 392.612 184.534 392.572 184.62 392.532C187.74 394.52 187.41 398.584 187.397 398.758L187.383 398.892L187.258 398.952C186.775 399.18 176.256 404.087 165.81 404.917C165.631 403.746 165.109 399.381 164.944 398.015C174.121 397.412 183.516 392.974 184.362 392.653Z" fill="#C1C1C1"/>
<path d="M135.76 398.704C140.93 398.704 146.233 398.658 149.882 398.597C154.596 398.524 159.052 398.45 162.92 398.45C166.986 398.45 173.935 397.54 183.978 393.201C184.229 393.094 184.401 393.021 184.48 392.987C184.665 392.92 184.758 392.713 184.685 392.525C184.619 392.338 184.414 392.244 184.229 392.318C184.143 392.351 183.958 392.432 183.693 392.545C173.763 396.837 166.913 397.734 162.913 397.734C159.046 397.734 154.583 397.807 149.869 397.881C138.114 398.068 121.016 398.048 119.489 397.533C119.304 397.473 119.106 397.573 119.04 397.76C118.98 397.948 119.079 398.149 119.264 398.216C120.388 398.591 127.932 398.704 135.76 398.704Z" fill="#232323"/>
<path d="M160.5 389.539C160.09 390.088 160.196 390.878 160.738 391.3C161.287 391.722 162.061 391.608 162.477 391.059C162.894 390.51 162.781 389.72 162.239 389.298C161.69 388.877 160.91 388.984 160.5 389.539Z" fill="black"/>
<path d="M157.017 386.862C156.6 387.411 156.713 388.201 157.255 388.622C157.803 389.044 158.577 388.93 158.994 388.381C159.403 387.826 159.298 387.043 158.756 386.621C158.207 386.206 157.433 386.313 157.017 386.862Z" fill="black"/>
<path d="M153.533 384.191C153.116 384.746 153.229 385.529 153.771 385.951C154.32 386.373 155.093 386.259 155.51 385.71C155.92 385.155 155.814 384.371 155.272 383.95C154.723 383.528 153.949 383.642 153.533 384.191Z" fill="black"/>
<path d="M150.047 381.513C149.631 382.068 149.743 382.852 150.286 383.273C150.834 383.695 151.608 383.581 152.024 383.032C152.434 382.477 152.328 381.693 151.786 381.272C151.244 380.857 150.464 380.964 150.047 381.513Z" fill="black"/>
<path d="M146.571 378.842C146.154 379.391 146.266 380.181 146.809 380.602C147.357 381.024 148.131 380.917 148.547 380.361C148.964 379.812 148.852 379.022 148.309 378.601C147.761 378.179 146.98 378.293 146.571 378.842Z" fill="black"/>
<path d="M143.086 376.17C142.676 376.726 142.782 377.509 143.324 377.931C143.873 378.353 144.646 378.239 145.063 377.69C145.48 377.141 145.367 376.351 144.825 375.929C144.276 375.508 143.503 375.615 143.086 376.17Z" fill="black"/>
<path d="M148.435 369.971C148.726 370.339 149.023 370.701 149.314 371.056L144.732 377.175C144.507 377.476 144.084 377.536 143.787 377.308C143.489 377.081 143.43 376.652 143.655 376.351L148.435 369.971Z" fill="#E2E2E2"/>
<path d="M151.337 373.426C151.641 373.774 151.952 374.115 152.256 374.457L148.216 379.852C147.991 380.154 147.568 380.214 147.271 379.986C146.973 379.759 146.914 379.33 147.139 379.029L151.337 373.426Z" fill="#E2E2E2"/>
<path d="M154.365 376.699C154.689 377.034 155.006 377.355 155.323 377.676L151.694 382.523C151.469 382.825 151.046 382.885 150.748 382.657C150.451 382.43 150.391 382.001 150.616 381.7L154.365 376.699Z" fill="#E2E2E2"/>
<path d="M157.52 379.819C157.857 380.134 158.187 380.448 158.518 380.75L155.186 385.202C154.961 385.503 154.538 385.563 154.24 385.335C153.943 385.108 153.883 384.679 154.108 384.378L157.52 379.819Z" fill="#E2E2E2"/>
<path d="M160.785 382.778C161.136 383.079 161.48 383.374 161.817 383.662L158.663 387.873C158.438 388.174 158.015 388.234 157.718 388C157.42 387.772 157.361 387.344 157.586 387.042L160.785 382.778Z" fill="#E2E2E2"/>
<path d="M164.163 385.59C164.527 385.877 164.884 386.159 165.228 386.426L162.14 390.55C161.915 390.852 161.492 390.912 161.195 390.684C160.897 390.457 160.838 390.028 161.062 389.727L164.163 385.59Z" fill="#E2E2E2"/>
<path d="M124.62 381.479C124.62 384.92 127.377 387.712 130.775 387.712C134.174 387.712 136.931 384.92 136.931 381.479C136.931 378.038 134.174 375.247 130.775 375.247C127.377 375.247 124.62 378.038 124.62 381.479Z" fill="#C1C1C1"/>
<path d="M125.882 381.479C125.882 384.217 128.071 386.433 130.775 386.433C133.472 386.433 135.667 384.217 135.667 381.479C135.667 378.741 133.479 376.525 130.775 376.525C128.077 376.525 125.882 378.741 125.882 381.479Z" fill="#E2E2E2"/>
<path d="M127.661 381.479C127.661 383.22 129.056 384.632 130.775 384.632C132.494 384.632 133.889 383.22 133.889 381.479C133.889 379.739 132.494 378.326 130.775 378.326C129.056 378.319 127.661 379.732 127.661 381.479Z" fill="#FC643A"/>
<g clip-path="url(#clip0_201_3065)">
<path d="M50.6738 391.381C50.6738 391.381 67.3557 381.439 78.9531 363.464C82.5037 366.697 81.9086 372.689 80.7251 374.604C79.5415 376.518 53.2723 393.536 53.2723 393.536L50.6738 391.381Z" fill="#E8390A"/>
<path d="M46.9517 389.941C46.9517 389.941 52.4528 390.678 60.3805 386.828C69.9215 382.195 79.0791 369.335 83.0991 369.456C87.1192 369.576 96.5478 371.136 103.054 368.619C103.999 377.402 101.553 381.914 102.148 386.232C102.743 390.544 103.808 397.854 101.56 400.612C99.3116 403.371 59.7854 401.449 59.7854 401.449L43.335 397.734L46.9517 389.941Z" fill="#FC643A"/>
<path d="M83.099 369.456C79.079 369.335 69.9214 382.196 60.3804 386.828C52.4461 390.678 46.9516 389.941 46.9516 389.941L45.2061 393.71L48.4723 395.451C48.4723 395.451 59.2829 395.612 72.467 385.864C77.8359 381.901 84.0842 376.331 88.534 369.837C86.3323 369.69 84.4214 369.496 83.099 369.456Z" fill="#F4502A"/>
<path d="M102.221 386.755C98.0025 387.344 88.4218 390.015 84.2695 402.092C92.8386 402.105 100.594 401.784 101.56 400.606C103.722 397.961 102.823 391.113 102.221 386.755Z" fill="#F4502A"/>
<path d="M37.7549 392.653C37.7549 392.653 40.1947 389.111 50.0531 389.673C51.5011 393.001 49.0943 398.249 47.8381 398.41C44.8363 397.372 37.7549 392.653 37.7549 392.653Z" fill="#E2E2E2"/>
<path d="M87.5093 405.111C82.5041 405.111 77.1749 405.024 72.1366 404.944C67.4355 404.87 62.9923 404.797 59.1971 404.797C47.9436 404.797 35.4867 398.979 34.9577 398.731C34.9577 398.731 34.5808 394.554 37.7546 392.653C38.667 393.001 49.4246 398.089 59.1971 398.089C63.0452 398.089 67.5149 398.162 72.2424 398.236C83.3703 398.41 101.084 398.43 102.743 397.868C105.348 400.184 103.457 404.535 103.457 404.535C99.4769 404.977 93.751 405.111 87.5093 405.111Z" fill="#E2E2E2"/>
<path d="M104.112 401.556C104.125 401.242 104.112 400.92 104.079 400.599C96.7066 401.342 82.9934 401.195 70.8671 401.061C66.6091 401.014 62.5956 400.974 59.1971 400.974C48.7767 400.974 36.6769 395.324 36.5578 395.27L36.1611 396.14C36.2868 396.201 48.5651 401.938 59.1971 401.938C62.589 401.938 66.6025 401.978 70.8539 402.025C75.7203 402.079 80.8446 402.132 85.7109 402.132C92.9708 402.125 99.6621 401.998 104.112 401.556Z" fill="#232323"/>
<path d="M37.7546 392.653C37.6686 392.612 37.5826 392.572 37.4967 392.532C34.3759 394.52 34.7065 398.584 34.7197 398.758L34.7329 398.892L34.8585 398.952C35.3412 399.18 45.8608 404.087 56.3076 404.917C56.4862 403.745 57.0085 399.381 57.1738 398.015C47.9964 397.412 38.6009 392.974 37.7546 392.653Z" fill="#C1C1C1"/>
<path d="M86.3589 398.704C81.1884 398.704 75.8856 398.658 72.2358 398.597C67.5215 398.524 63.0651 398.45 59.1971 398.45C55.1307 398.45 48.1816 397.54 38.1381 393.201C37.8868 393.094 37.7149 393.021 37.6356 392.987C37.4504 392.92 37.3579 392.713 37.4306 392.525C37.4967 392.338 37.7017 392.244 37.8868 392.318C37.9728 392.351 38.1579 392.432 38.4224 392.545C48.3535 396.837 55.2035 397.734 59.2037 397.734C63.0717 397.734 67.5347 397.807 72.249 397.881C84.005 398.068 101.103 398.048 102.631 397.533C102.816 397.473 103.014 397.573 103.08 397.76C103.14 397.948 103.041 398.149 102.856 398.216C101.732 398.591 94.1874 398.704 86.3589 398.704Z" fill="#232323"/>
<path d="M61.6171 389.54C62.027 390.088 61.9213 390.878 61.3791 391.3C60.8303 391.722 60.0567 391.608 59.6401 391.059C59.2236 390.51 59.336 389.72 59.8782 389.299C60.427 388.877 61.2072 388.984 61.6171 389.54Z" fill="black"/>
<path d="M65.1016 386.862C65.5181 387.411 65.4057 388.201 64.8635 388.622C64.3148 389.044 63.5412 388.93 63.1246 388.381C62.7147 387.826 62.8205 387.042 63.3626 386.621C63.9114 386.206 64.685 386.313 65.1016 386.862Z" fill="black"/>
<path d="M68.586 384.19C69.0025 384.746 68.8901 385.529 68.3479 385.951C67.7991 386.373 67.0255 386.259 66.609 385.71C66.199 385.155 66.3048 384.371 66.847 383.949C67.3958 383.528 68.1694 383.642 68.586 384.19Z" fill="black"/>
<path d="M72.0703 381.513C72.4869 382.068 72.3745 382.852 71.8323 383.273C71.2835 383.695 70.5099 383.581 70.0934 383.032C69.6834 382.477 69.7892 381.693 70.3314 381.272C70.8736 380.857 71.6538 380.964 72.0703 381.513Z" fill="black"/>
<path d="M75.5483 378.841C75.9648 379.39 75.8524 380.18 75.3102 380.602C74.7614 381.024 73.9878 380.917 73.5713 380.361C73.1547 379.812 73.2671 379.022 73.8093 378.6C74.3581 378.179 75.1383 378.293 75.5483 378.841Z" fill="black"/>
<path d="M79.0321 376.17C79.4421 376.726 79.3363 377.509 78.7941 377.931C78.2453 378.353 77.4717 378.239 77.0552 377.69C76.6386 377.141 76.751 376.351 77.2932 375.929C77.842 375.508 78.6156 375.615 79.0321 376.17Z" fill="black"/>
<path d="M73.6841 369.971C73.3931 370.339 73.0956 370.701 72.8047 371.056L77.3868 377.175C77.6116 377.476 78.0347 377.536 78.3323 377.308C78.6298 377.081 78.6893 376.652 78.4645 376.351L73.6841 369.971Z" fill="#E2E2E2"/>
<path d="M70.7809 373.426C70.4767 373.774 70.166 374.115 69.8618 374.457L73.9017 379.852C74.1265 380.154 74.5497 380.214 74.8472 379.986C75.1448 379.759 75.2043 379.33 74.9795 379.029L70.7809 373.426Z" fill="#E2E2E2"/>
<path d="M67.7532 376.699C67.4292 377.034 67.1118 377.355 66.7944 377.677L70.4244 382.524C70.6492 382.825 71.0724 382.885 71.3699 382.657C71.6674 382.43 71.7269 382.001 71.5021 381.7L67.7532 376.699Z" fill="#E2E2E2"/>
<path d="M64.599 379.819C64.2618 380.134 63.9312 380.448 63.6006 380.749L66.933 385.201C67.1578 385.503 67.581 385.563 67.8785 385.335C68.176 385.108 68.2355 384.679 68.0107 384.378L64.599 379.819Z" fill="#E2E2E2"/>
<path d="M61.3327 382.778C60.9823 383.079 60.6385 383.374 60.3013 383.662L63.4552 387.873C63.68 388.174 64.1031 388.234 64.4007 388C64.6982 387.772 64.7577 387.344 64.5329 387.042L61.3327 382.778Z" fill="#E2E2E2"/>
<path d="M57.9542 385.59C57.5905 385.878 57.2335 386.159 56.8896 386.427L59.9774 390.55C60.2022 390.852 60.6254 390.912 60.9229 390.684C61.2205 390.457 61.28 390.028 61.0552 389.727L57.9542 385.59Z" fill="#E2E2E2"/>
<path d="M97.5004 381.479C97.5004 384.92 94.7432 387.712 91.3447 387.712C87.9461 387.712 85.189 384.92 85.189 381.479C85.189 378.038 87.9461 375.247 91.3447 375.247C94.7432 375.247 97.5004 378.038 97.5004 381.479Z" fill="#C1C1C1"/>
<path d="M96.2368 381.479C96.2368 384.217 94.0483 386.433 91.344 386.433C88.6463 386.433 86.4512 384.217 86.4512 381.479C86.4512 378.741 88.6397 376.525 91.344 376.525C94.0417 376.525 96.2368 378.741 96.2368 381.479Z" fill="#E2E2E2"/>
<path d="M94.4584 381.479C94.4584 383.22 93.0633 384.632 91.3442 384.632C89.6251 384.632 88.23 383.22 88.23 381.479C88.23 379.739 89.6251 378.326 91.3442 378.326C93.0633 378.319 94.4584 379.732 94.4584 381.479Z" fill="#FC643A"/>
</g>
<path d="M152.898 239.777C143.726 212.306 132.485 205.633 131.658 196.476C130.876 187.93 130.669 178.352 130.669 178.352H89.0622C89.0622 178.352 88.8324 187.93 88.0738 196.476C87.2462 205.633 75.9825 212.306 66.8336 239.777C56.2595 271.458 53.2021 308.288 53.2021 308.288C53.2021 308.288 75.3159 312.548 109.889 312.548C144.461 312.548 166.575 307.223 166.575 307.223C166.575 307.223 163.472 271.458 152.898 239.777Z" fill="#FFC8AC"/>
<path d="M24.4665 105.215C24.4665 105.215 6.32683 102.97 5.95663 67.2924C5.44761 21.0177 69.4224 -27.7558 140.801 18.9122C180.065 10.1432 207.506 40.1986 205.262 81.4062C202.67 128.884 203.48 171.943 168.034 182.609C132.587 193.275 107.576 186.589 107.576 186.589L24.4665 105.215Z" fill="#6C3D3D"/>
<path d="M91.3795 200.332C84.6928 197.417 69.7924 199.546 48.7605 223.122C42.6985 229.925 36.7754 236.82 30.991 243.83C26.6644 249.083 22.4071 254.381 18.2655 259.772C16.7384 261.762 15.3039 263.867 13.3835 265.51C11.2318 267.361 8.40899 268.055 5.7482 268.772C4.05917 269.212 1.97681 269.513 0.704258 270.809C-0.614571 272.151 0.0332752 274.163 1.69916 274.834C3.50388 275.552 5.7482 275.066 7.64546 275.228C7.96939 275.251 8.27017 275.367 8.47841 275.621C8.77919 276.014 8.45527 276.57 8.27017 276.871C6.99762 278.745 6.21095 279.693 5.44741 280.804C4.22114 282.585 0.681121 286.496 2.23132 288.833C2.83289 289.758 4.47565 290.059 5.30859 289.665C6.65056 289.018 7.83056 288.138 8.91802 287.144C9.47331 286.658 10.0055 286.125 10.5145 285.593C10.931 285.154 11.5094 284.39 12.2035 284.46C12.782 284.529 12.782 285.246 12.6894 285.686C12.5969 286.172 12.3423 286.635 12.111 287.051C11.2086 288.694 10.1443 290.313 9.45018 292.049C9.12625 292.905 8.80233 293.761 8.73292 294.686C8.66351 295.404 8.77919 296.167 9.28821 296.676C9.65841 297.046 10.1674 297.208 10.6996 297.231C11.8565 297.324 12.9671 296.815 13.8694 296.098C15.0031 295.195 15.9055 294.062 16.7616 292.928C17.6871 291.748 18.5894 290.568 19.5612 289.411C19.7694 289.156 20.0239 288.902 20.3247 288.879C20.6718 288.856 20.9726 289.156 21.0651 289.48C21.1577 289.804 21.1114 290.175 21.042 290.498C20.8338 291.401 20.4404 292.164 20.0934 293.02C19.7463 293.9 19.4224 294.802 19.1679 295.727C18.8902 296.722 18.6357 297.81 19.029 298.758C19.7463 300.517 21.8055 300.864 23.3557 299.707C24.8828 298.573 28.2377 292.141 28.7699 291.146C32.1016 285.015 36.4283 279.508 40.5005 273.816C46.9095 264.839 63.661 241.887 67.6869 241.933C71.7128 241.979 91.3795 200.332 91.3795 200.332Z" fill="#FFC8AC"/>
<path d="M131.871 200.332C138.557 197.417 152.185 199.546 173.217 223.122C179.279 229.925 185.202 236.82 190.986 243.83C195.313 249.083 199.57 254.381 203.712 259.772C205.239 261.762 206.673 263.867 208.594 265.51C210.746 267.361 213.568 268.055 216.252 268.772C217.918 269.212 220.024 269.513 221.296 270.809C222.615 272.151 221.967 274.163 220.301 274.834C218.497 275.552 216.252 275.066 214.355 275.228C214.031 275.251 213.73 275.367 213.522 275.621C213.221 276.014 213.545 276.57 213.73 276.871C215.003 278.745 215.79 279.693 216.553 280.804C217.779 282.585 221.319 286.496 219.769 288.833C219.168 289.758 217.525 290.059 216.692 289.665C215.373 289.018 214.17 288.138 213.082 287.144C212.527 286.658 211.995 286.125 211.486 285.593C211.07 285.154 210.491 284.39 209.797 284.46C209.219 284.529 209.219 285.246 209.311 285.686C209.404 286.172 209.658 286.635 209.889 287.051C210.792 288.694 211.856 290.313 212.55 292.049C212.874 292.905 213.175 293.761 213.268 294.686C213.337 295.404 213.221 296.167 212.712 296.676C212.342 297.046 211.833 297.208 211.301 297.231C210.144 297.324 209.033 296.815 208.131 296.098C206.997 295.195 206.118 294.062 205.239 292.928C204.313 291.748 203.411 290.568 202.439 289.411C202.231 289.156 202 288.902 201.676 288.879C201.329 288.856 201.028 289.156 200.935 289.48C200.843 289.804 200.889 290.175 200.958 290.498C201.167 291.401 201.583 292.164 201.907 293.02C202.254 293.9 202.578 294.802 202.833 295.727C203.11 296.722 203.365 297.81 202.971 298.758C202.254 300.517 200.195 300.864 198.645 299.707C197.118 298.573 193.763 292.141 193.231 291.146C189.899 285.015 186.359 278.907 182.31 273.215C171.505 258.083 157.391 247.162 151.537 241.979L131.871 200.332Z" fill="#FFC8AC"/>
<path d="M188.788 187.722C187.099 195.589 182.981 206.371 176.271 210.513C169.561 214.631 152.74 195.52 158.941 181.406C162.435 173.47 170.278 169.698 174.327 169.143C178.4 168.588 190.986 177.519 188.788 187.722Z" fill="#6C3D3D"/>
<path d="M189.597 216.575C187.908 224.441 183.789 235.246 177.08 239.365C170.37 243.483 153.549 224.372 159.75 210.258C163.243 202.322 171.087 198.551 175.136 197.995C179.208 197.44 191.795 206.371 189.597 216.575Z" fill="#6C3D3D"/>
<path d="M132.055 177.889H90.0611C90.0611 177.889 89.876 186.38 89.2744 194.941C93.578 195.196 97.8352 195.288 101.954 195.288C111.833 195.288 125.392 191.887 132.287 188.116C131.917 180.365 132.055 177.889 132.055 177.889Z" fill="#F49282"/>
<path d="M101.976 182.586C124.258 182.586 150.287 179.925 166.206 165.071C182.124 150.217 183.721 111.994 174.165 74.303C164.609 36.6123 127.983 28.1209 101.976 28.1209C75.97 28.1209 39.3436 36.6123 29.7879 74.303C20.2322 111.994 21.8286 150.217 37.7471 165.071C53.6656 179.948 79.672 182.586 101.976 182.586Z" fill="#FFC8AC"/>
<path d="M27.1504 141.702C27.1504 132.864 34.323 125.691 43.1614 125.691C51.9999 125.691 59.1725 132.864 59.1725 141.702C59.1725 150.541 51.9999 157.713 43.1614 157.713C34.323 157.736 27.1504 150.564 27.1504 141.702Z" fill="#FCA39A"/>
<path d="M141.17 141.702C141.17 132.864 148.343 125.691 157.181 125.691C166.02 125.691 173.193 132.864 173.193 141.702C173.193 150.541 166.02 157.713 157.181 157.713C148.343 157.736 141.17 150.564 141.17 141.702Z" fill="#FCA39A"/>
<path d="M105.585 28.1903C105.585 28.1903 118.635 65.0944 177.658 98.3659C177.658 98.3659 189.759 65.0018 167.061 44.1088C144.364 23.1926 105.585 28.1903 105.585 28.1903Z" fill="#6C3D3D"/>
<path d="M105.586 28.1903C105.586 28.1903 93.8319 73.9328 20.6484 96.5843C20.6484 96.5843 21.412 65.025 44.1097 44.1088C66.8074 23.1926 105.586 28.1903 105.586 28.1903Z" fill="#6C3D3D"/>
<path d="M98.1354 133.164C92.3048 132.956 87.0526 136.658 87.0758 138.393C87.1683 142.443 107.784 143.252 107.575 138.393C107.46 135.663 103.133 133.326 98.1354 133.164Z" fill="#FCA39A"/>
<path d="M86.5436 139.481C90.1993 136.751 92.8601 134.021 97.8578 133.997C102.439 133.974 104.892 136.45 107.414 139.874C107.853 140.453 108.964 140.476 108.848 139.573C107.575 129.231 89.0193 130.18 86.3354 139.203C86.3123 139.296 86.3817 139.597 86.5436 139.481Z" fill="#9E5147"/>
<path d="M81.0833 157.112C94.5029 165.071 116.668 161.647 127.127 150.286C128.237 149.083 125.831 147.903 124.836 148.99C114.332 160.443 94.8731 161.554 81.2452 156.024C80.5048 155.723 80.6205 156.834 81.0833 157.112Z" fill="#9E5147"/>
<path d="M124.651 145.126C123.355 146.468 124.697 148.852 125.762 149.846C126.988 151.003 129.14 152.068 130.852 151.489C131.43 151.281 132.055 150.587 131.43 150.008C130.921 149.569 129.695 149.939 129.047 149.823C126.641 149.314 125.947 147.325 125.206 145.312C125.114 145.057 124.859 144.941 124.651 145.126Z" fill="#9E5147"/>
<path d="M140.384 88.116C132.68 88.0929 121.342 92.7204 118.08 103.78C114.1 117.246 122.36 130.319 140.384 129.671C159.727 128.977 166.576 117.477 164.517 106.811C162.272 95.4043 153.873 88.1623 140.384 88.116Z" fill="white"/>
<path d="M117.756 106.163C121.343 95.3117 133.744 88.6019 144.781 90.8231C149.246 91.7254 154.059 94.178 157.02 97.718C160.329 101.651 160.792 106.765 163.892 110.698C164.378 111.323 165.674 111.693 166.113 110.814C169.006 105.168 164.494 97.8106 160.468 93.7615C156.28 89.5274 149.987 86.6815 144.087 86.0105C138.071 85.3164 131.384 86.6584 126.248 89.9207C120.07 93.8541 118.288 99.0137 117.224 106.001C117.201 106.395 117.594 106.626 117.756 106.163Z" fill="#002030"/>
<path d="M119.376 112.364C119.376 102.785 127.15 95.0109 136.729 95.0109C146.331 95.0109 154.105 102.785 154.105 112.364C154.105 121.966 146.331 129.74 136.729 129.74C127.15 129.717 119.376 121.943 119.376 112.364Z" fill="#19313A"/>
<path d="M122.037 110.767C122.037 107.69 124.512 105.215 127.59 105.215C130.667 105.215 133.143 107.69 133.143 110.767C133.143 113.845 130.667 116.32 127.59 116.32C124.512 116.32 122.037 113.845 122.037 110.767Z" fill="white"/>
<path d="M60.5367 88.116C68.2414 88.0929 79.5787 92.7204 82.8411 103.78C86.8207 117.246 78.5606 130.319 60.5367 129.671C41.1938 128.977 34.3452 117.477 36.4044 106.811C38.6487 95.4043 47.0476 88.1623 60.5367 88.116Z" fill="white"/>
<path d="M83.6514 105.862C82.4945 98.6204 79.5098 92.9749 72.9388 89.2035C66.8305 85.6866 59.0795 84.8999 52.3697 86.9129C47.6265 88.3243 42.7677 90.9851 39.5053 94.7564C36.1967 98.5741 31.6618 105.469 34.901 110.351C35.4331 111.138 36.7288 111.878 37.3998 110.814C39.4822 107.528 40.0143 103.641 42.0504 100.309C44.341 96.5843 47.534 94.1317 51.4905 92.3733C63.6607 86.936 79.0008 93.2525 83.1192 106.209C83.3275 106.742 83.7208 106.209 83.6514 105.862Z" fill="#002030"/>
<path d="M81.5461 112.364C81.5461 102.785 73.7719 95.0109 64.1699 95.0109C54.591 95.0109 46.8169 102.785 46.8169 112.364C46.8169 121.966 54.591 129.74 64.1699 129.74C73.7719 129.717 81.5461 121.943 81.5461 112.364Z" fill="#19313A"/>
<path d="M60.9301 110.767C60.9301 107.69 58.4544 105.215 55.3772 105.215C52.2999 105.215 49.8242 107.69 49.8242 110.767C49.8242 113.845 52.2999 116.32 55.3772 116.32C58.4544 116.32 60.9301 113.845 60.9301 110.767Z" fill="white"/>
<path d="M156.234 70.1846C156.349 69.8144 156.442 69.4442 156.349 69.074C155.933 67.1304 154.845 65.6959 153.527 64.2383C151.745 62.2716 149.524 60.7214 147.233 59.4257C142.745 56.9037 137.562 55.6312 132.425 55.9088C131.454 55.9551 130.459 56.0708 129.603 56.5335C128.492 57.1351 127.728 58.3151 127.636 59.5645C127.474 61.8783 129.325 62.9657 131.361 63.2665C132.911 63.4979 134.461 63.7293 135.988 63.9606C137.122 64.1226 138.256 64.3077 139.367 64.5391C143.115 65.3026 146.747 66.6908 150.056 68.6112C151.421 69.421 152.786 70.3234 154.336 70.6473C154.915 70.763 155.979 70.8787 156.234 70.1846Z" fill="#4B3030"/>
<path d="M44.2944 68.4956C44.2019 68.1254 44.1556 67.7552 44.2713 67.3618C44.8497 65.4646 46.0297 64.0995 47.4642 62.7575C49.3846 60.9297 51.7215 59.5414 54.1046 58.4308C58.7784 56.2791 64.0306 55.3998 69.1439 56.0708C70.1157 56.1865 71.0875 56.3947 71.8973 56.9038C72.9616 57.5747 73.6326 58.8242 73.6326 60.0736C73.6326 62.4104 71.689 63.3359 69.6298 63.4979C68.0796 63.6136 66.5063 63.7293 64.9561 63.845C63.8223 63.9375 62.6655 64.0069 61.5317 64.1458C57.7372 64.6085 54.0121 65.7191 50.5415 67.385C49.107 68.0791 47.6956 68.8658 46.1223 69.074C45.567 69.1666 44.5026 69.2128 44.2944 68.4956Z" fill="#4B3030"/>
<path d="M178.422 96.0753C180.99 87.8847 192.258 76.3854 205.261 81.3831C218.264 86.3807 221.272 105.909 214.03 120.416C206.765 134.923 186.983 140.244 179.602 129.694L178.422 96.0753Z" fill="#FFC8AC"/>
<path d="M177.682 106.302C177.52 106.788 178.191 107.829 178.746 107.459C181.199 105.839 182.957 103.502 185.502 102.045C188.279 100.471 191.333 100.032 194.41 100.356C195.845 102.345 197.14 103.873 196.84 106.927C196.585 109.564 195.451 112.503 193.623 114.446C192.189 115.973 190.014 116.436 188.256 117.477C188.117 117.547 187.978 117.986 188.209 118.033C196.585 120.069 202.184 108.431 199.616 101.698C204.336 103.687 208.246 107.644 207.992 113.174C207.992 113.428 208.246 113.382 208.339 113.197C215.211 95.8439 183.119 89.7356 177.682 106.302Z" fill="#9E5147"/>
<path d="M195.451 80.527C192.466 102.068 178.19 113.914 175.807 109.865C173.447 105.816 176.964 87.1211 175.807 81.4062L195.451 80.527Z" fill="#6C3D3D"/>
<path d="M165.371 371.465C165.371 371.511 165.371 371.511 165.371 371.535C165.048 374.242 164.725 376.692 164.432 378.77C163.757 383.601 163.258 386.494 163.258 386.494L119.144 385.431C119.144 385.431 118.18 367.118 116.83 357.666C115.451 348.214 107.85 310.614 108.291 314.473C108.732 318.333 107.575 325.89 107.575 326.431C107.575 326.971 102.128 386.588 102.128 386.588L57.1385 385.328C57.1385 385.328 56.757 381.85 56.1701 376.319C54.8494 363.577 52.5897 339.889 52.1201 322.665C52.0028 318.301 52.0321 313.587 52.1495 308.709C52.1495 308.312 52.1788 307.915 52.1788 307.495C52.2082 306.375 52.2375 305.255 52.2962 304.135C52.2962 303.855 52.3256 303.575 52.3256 303.271C52.4723 299.607 52.6484 295.896 52.8832 292.256C53.5875 281.053 54.556 270.551 55.2896 263.62C55.2896 263.597 55.319 263.55 55.319 263.527C55.6712 260.493 55.9353 258.136 56.1407 256.735C56.1701 256.455 56.2288 256.199 56.2581 255.988C56.2581 255.988 88.2172 254.542 107.939 254.728C120.235 254.845 138.401 254.798 150.345 254.752C157.506 254.752 158.477 254.705 158.477 254.705C158.477 254.705 162.495 255.312 162.583 256.432C162.7 257.762 162.877 259.816 163.111 262.43C163.17 262.92 163.199 263.41 163.258 263.923C163.874 270.831 164.725 280.937 165.518 291.742C165.899 296.993 166.281 302.408 166.604 307.705C166.604 307.915 166.604 308.149 166.662 308.359C166.78 310.459 166.897 312.536 167.014 314.567C167.044 314.824 167.044 315.08 167.044 315.337C167.367 321.381 167.601 327.076 167.689 331.93C167.924 346.12 166.633 360.893 165.371 371.465Z" fill="url(#paint0_linear_201_3065)"/>
<path d="M77.0073 264.577C77.0073 264.577 76.4497 283.691 52.8545 292.279C53.5588 281.077 54.5273 270.575 55.261 263.643C55.261 263.62 55.2903 263.573 55.2903 263.55L77.0073 264.577Z" fill="#8FBFBF"/>
<path d="M165.518 291.742C163.141 291.299 144.036 287.098 138.225 264.67L163.141 262.453C163.2 262.943 163.229 263.433 163.288 263.947C163.875 270.831 164.726 280.937 165.518 291.742Z" fill="#8FBFBF"/>
<path d="M52.7954 293.539L52.8835 292.278C64.9745 287.518 69.582 282.29 72.7809 276.572C76.2732 270.341 77.0069 264.716 77.0069 264.67L78.3568 264.786C78.3275 264.996 75.7156 287.751 52.7954 293.539Z" fill="#BEE7E8"/>
<path d="M165.342 292.863C139.34 286.631 138.225 264.88 138.225 264.67L139.663 264.647C139.663 264.857 140.778 285.814 165.782 291.812L165.342 292.863Z" fill="#BEE7E8"/>
<path d="M104.241 299.584L101.688 265.744L103.126 265.767L105.503 298.417C107.528 298.16 113.574 296.597 114.689 287.145C116.039 275.546 114.689 266.047 114.689 265.954L116.068 265.931C116.068 266.024 117.418 275.522 116.039 287.238C114.63 299.397 104.946 299.537 104.857 299.537H104.241V299.584Z" fill="#BEE7E8"/>
<g opacity="0.4">
<path opacity="0.4" d="M89.5689 304.135H52.2686C52.2686 303.855 52.2979 303.575 52.2979 303.271C60.3684 301.708 74.3377 299.887 89.5689 304.135Z" fill="#4B869B"/>
<path opacity="0.4" d="M83.8752 307.659C83.8752 307.659 63.1854 309.386 52.1509 308.686C52.1509 308.289 52.1802 307.892 52.1802 307.472C57.7269 306.585 68.8494 305.488 83.8752 307.659Z" fill="#4B869B"/>
</g>
<g opacity="0.4">
<path opacity="0.4" d="M166.664 308.359C158.358 308.569 132.063 309.176 123.318 308.289C120.999 308.056 142.423 302.664 166.605 307.705C166.605 307.916 166.634 308.126 166.664 308.359Z" fill="#4B869B"/>
<path opacity="0.4" d="M167.045 315.337C160.559 315.664 141.718 316.527 131.505 315.944C131.505 315.944 149.231 309.923 166.986 314.567C167.016 314.824 167.045 315.08 167.045 315.337Z" fill="#4B869B"/>
</g>
<path d="M163.259 263.923C125.107 268.148 69.23 264.624 55.2607 263.62C55.6129 260.539 55.9064 258.159 56.1118 256.735C56.1412 256.455 56.1999 256.199 56.2292 255.989C56.2292 255.989 88.1883 254.542 107.91 254.728C127.602 254.892 158.477 254.705 158.477 254.705C158.477 254.705 162.495 255.312 162.584 256.432C162.73 258.019 162.965 260.609 163.259 263.923Z" fill="#B0D7DA"/>
<path d="M102.598 380.38L102.128 386.588L96.5227 386.424L57.1388 385.328L56.229 378.956C56.229 378.956 74.0134 375.829 91.2109 377.999C95.1141 378.49 98.9586 379.26 102.598 380.38Z" fill="#C1E5E6"/>
<path d="M164.726 380.217V386.611L134.322 386.541L122.231 386.518L119.144 381.96C119.144 381.96 125.371 379.236 131.945 378.56C140.514 377.603 152.928 377.206 164.726 380.217Z" fill="#C1E5E6"/>
<path d="M57.1396 385.328C57.1396 385.328 82.7304 379.703 102.129 386.588L57.1396 385.328Z" fill="#81B3AB"/>
<path d="M122.231 386.494C122.231 386.494 145.973 380.053 164.697 386.588L122.231 386.494Z" fill="#81B3AB"/>
<path d="M99.8398 259.069V265.884L101.689 266.164V259.233L99.8398 259.069Z" fill="#C1E5E6"/>
<path opacity="0.5" d="M110.394 262.853C110.394 264.147 109.355 265.167 108.092 265.167C106.83 265.167 105.791 264.147 105.791 262.853C105.791 261.584 106.83 260.539 108.092 260.539C109.355 260.539 110.394 261.584 110.394 262.853Z" fill="#5B9394"/>
<path d="M109.924 262.853C109.924 263.998 109.009 264.943 107.87 264.943C107.375 264.943 106.93 264.769 106.583 264.495C106.113 264.122 105.791 263.525 105.791 262.878C105.791 261.734 106.707 260.788 107.87 260.788C107.92 260.788 107.969 260.788 108.043 260.813C109.108 260.863 109.924 261.759 109.924 262.853Z" fill="#EAB200"/>
<path opacity="0.3" d="M108.787 262.403C108.787 263.548 107.871 264.493 106.708 264.493C106.659 264.493 106.609 264.493 106.56 264.493C106.089 264.12 105.768 263.523 105.768 262.876C105.768 261.731 106.683 260.786 107.847 260.786C107.896 260.786 107.946 260.786 108.02 260.811C108.49 261.184 108.787 261.756 108.787 262.403Z" fill="#EAB200"/>
<path d="M76.9778 256.969L75.4224 265.884L80.6168 266.164L81.5853 256.969H76.9778Z" fill="#BEE7E8"/>
<path d="M135.702 256.969V267.611H141.248L139.81 256.969H135.702Z" fill="#BEE7E8"/>
<path opacity="0.5" d="M82.0257 258.439L82.3191 265.137L80.7344 265.067L81.4094 258.439H82.0257Z" fill="#5B9394"/>
<path opacity="0.5" d="M140.955 258.509L142.687 265.464L140.955 265.534L140.016 258.556L140.955 258.509Z" fill="#5B9394"/>
<path d="M163.405 265.767L163.317 264.74L163.258 263.923C164.52 260.586 162.583 256.432 162.583 256.432L162.655 256.595L162.565 256.207C169.403 262.719 163.405 265.767 163.405 265.767Z" fill="#6FA5A5"/>
<path d="M56.2292 255.989L56.1412 256.572L56.1118 256.735C56.1118 256.735 53.6466 259.466 55.2607 263.643L55.1727 264.764L55.026 265.954C55.026 265.954 50.0663 258.882 56.2292 255.989Z" fill="#6FA5A5"/>
<path opacity="0.5" d="M56.1114 256.735C56.1114 256.735 53.6462 259.466 55.2603 263.643L55.1723 264.764C54.9375 264.484 54.3212 263.55 53.881 261.216C53.294 258.089 56.1407 256.572 56.1407 256.572L56.1114 256.735Z" fill="#5B9394"/>
<path d="M102.599 380.38L102.129 386.588L96.5238 386.424C93.9119 385.141 91.7402 384.044 91.7402 384.044L91.2119 377.999C95.1151 378.49 98.9596 379.26 102.599 380.38Z" fill="#C1E5E6"/>
<path d="M132.35 387.628H119.144V381.327C119.144 381.327 123.399 380.323 129.973 379.647C130.589 381.887 131.734 385.691 132.35 387.628Z" fill="#C1E5E6"/>
<path d="M135.048 289.222C133.015 289.269 130.547 289.317 127.836 289.364C120.704 289.507 111.783 289.697 103.649 289.793C101.479 289.816 99.3645 289.84 97.3579 289.84L110.536 205.293C99.5 200.583 93.8872 195.421 91.04 191.163C91.8264 191.4 93.5889 191.9 96.1106 192.4C103.269 193.827 117.129 193.331 130.714 188.763C129.656 190.476 127.537 194.303 125.721 196.206C122.738 199.346 118.616 202.51 112.895 205.032C112.895 205.032 119.376 239.026 122.711 251.492C125.205 260.865 132.093 280.063 135.048 289.222Z" fill="url(#paint1_linear_201_3065)"/>
<path opacity="0.4" d="M135.049 289.222C133.015 289.269 130.548 289.317 127.836 289.364C125.64 283.774 121.654 273.164 118.915 257.487C115.119 235.839 112.163 215.88 112.163 215.88C112.163 215.88 107.31 240.097 105.195 258.415C103.785 270.809 103.595 283.132 103.649 289.793C101.48 289.816 99.365 289.84 97.3584 289.84L110.537 205.293C99.5005 200.583 93.8876 195.421 91.0405 191.163C91.8269 191.401 93.5894 191.9 96.1111 192.4C101.426 195.968 113.546 199.489 124.609 196.468L125.748 196.182C122.766 199.322 118.644 202.486 112.923 205.008C112.923 205.008 119.403 239.003 122.738 251.468C125.206 260.865 132.093 280.063 135.049 289.222Z" fill="#B38484"/>
<path d="M110.563 205.317L96.1644 298.523C96.1644 298.523 95.2967 298.571 93.7511 298.618C86.457 298.809 64.0055 298.809 44.3197 292.29L47.7091 273.307L49.8512 261.222C49.8512 261.222 37.3239 261.483 30.7891 253.847C30.7077 253.752 25.5193 250.149 25.438 250.077C25.438 250.077 48.1158 218.092 58.2299 205.626C65.551 196.586 75.5838 192.352 80.6001 190.711C81.2509 192.971 84.3963 201.891 94.9984 209.575C94.9984 209.575 103.052 203.128 105.438 202.914C106.577 203.509 107.77 204.08 109.071 204.675C109.261 204.77 109.451 204.841 109.641 204.936C109.912 205.032 110.237 205.174 110.563 205.317Z" fill="url(#paint2_linear_201_3065)"/>
<path d="M191.448 258.795C185.781 261.745 179.842 261.84 179.842 261.84L185.509 272.26L192.451 285.035C174.636 294.241 147.656 296.905 139.63 297.5C138.112 297.619 137.271 297.667 137.271 297.667C137.271 297.667 125.205 260.865 122.71 251.492C119.782 240.525 114.44 212.953 113.193 206.435C113.003 205.531 112.921 205.032 112.921 205.032C113.382 204.818 113.843 204.603 114.304 204.389C122.629 200.369 127.374 194.993 130.004 190.687C130.058 190.687 130.085 190.663 130.113 190.663C130.113 190.663 130.519 190.068 131.034 189.093C131.414 188.403 131.821 187.547 132.2 186.571C132.58 185.643 132.905 184.621 133.122 183.55C133.149 183.455 133.149 183.407 133.149 183.407C133.149 183.407 144.158 187.332 153.188 192.614C162.19 197.871 171.572 205.603 178.215 215.451C184.75 225.133 199.528 250.635 200.016 251.492V251.516C200.016 251.516 197.657 255.56 191.448 258.795Z" fill="url(#paint3_linear_201_3065)"/>
<path d="M83.2036 282.418C65.1719 283.155 53.0513 279.682 53.0513 279.682C54.1088 273.663 55.2747 264.433 55.2747 264.433C55.8713 264.647 56.522 264.861 57.1728 265.052C64.6838 267.169 76.0994 267.05 80.0582 266.931C80.953 266.907 81.4682 266.883 81.4682 266.883L83.2036 282.418Z" fill="url(#paint4_linear_201_3065)"/>
<path opacity="0.4" d="M83.2036 282.418C65.1719 283.155 53.0513 279.682 53.0513 279.682C54.1088 273.663 55.2747 264.433 55.2747 264.433C55.8713 264.647 56.522 264.861 57.1728 265.052L55.0578 278.683C63.4365 281.323 80.6819 280.776 80.6819 280.776C80.2752 275.757 80.1125 269.024 80.0582 266.955C80.953 266.931 81.4682 266.907 81.4682 266.907L83.2036 282.418Z" fill="#8F1C1C"/>
<path d="M177.945 271.38C177.945 271.38 176.589 273.592 165.201 276.922C153.812 280.253 147.549 280.634 147.549 280.634C147.115 278.302 143.59 265.789 143.59 265.789C144.132 265.718 144.674 265.646 145.217 265.575C156.415 264.053 165.391 261.269 168.753 260.127C169.675 259.818 170.163 259.628 170.163 259.628C173.01 262.863 177.945 271.38 177.945 271.38Z" fill="url(#paint5_linear_201_3065)"/>
<path opacity="0.4" d="M177.945 271.38C177.945 271.38 176.589 273.592 165.201 276.922C153.812 280.253 147.549 280.634 147.549 280.634C147.115 278.302 143.59 265.789 143.59 265.789C144.132 265.718 144.674 265.646 145.217 265.575C146.247 268.977 149.121 278.54 149.121 278.54C149.121 278.54 163.032 277.422 175.044 271.332L168.726 260.127C169.648 259.818 170.136 259.628 170.136 259.628C173.01 262.863 177.945 271.38 177.945 271.38Z" fill="#8F1C1C"/>
<path opacity="0.6" d="M138.219 254.466L140.903 269.262C140.903 269.262 164.927 267.193 173.631 260.104C173.631 260.104 161.348 265.979 142.449 266.86L138.219 254.466Z" fill="#8F1C1C"/>
<path d="M173.737 259.628C173.737 259.628 166.172 263.791 153.916 265.789C150.445 266.36 146.595 266.741 142.446 266.836L138.216 254.442C138.216 254.442 138.569 254.394 139.22 254.323C143.07 253.847 157.387 251.968 167.42 248.709L173.737 259.628Z" fill="#B32929"/>
<path opacity="0.4" d="M153.894 265.813C150.423 266.384 146.573 266.765 142.424 266.86L138.194 254.466C138.194 254.466 138.546 254.418 139.197 254.347C141.149 257.701 145.515 263.934 153.894 265.813Z" fill="#A61F1F"/>
<path d="M105.412 202.846C103.053 203.061 94.7559 210.17 94.7559 210.17C84.1267 202.439 81.2253 192.817 80.5745 190.543C80.4661 190.208 80.439 189.992 80.439 189.992L82.0117 188.508L90.2243 182.979C90.1972 183.362 89.2786 187.479 91.4478 191.165C91.9901 192.075 92.5596 192.96 93.1832 193.75C93.6171 194.325 94.078 194.851 94.539 195.306C95.2169 195.976 96.0303 196.646 96.8438 197.293C97.0607 197.46 97.2776 197.628 97.4946 197.795C99.6096 199.471 102.213 201.17 105.412 202.846Z" fill="#C22C2C"/>
<path opacity="0.3" d="M96.8165 197.293C89.4411 197.029 83.6384 191.835 81.9844 188.508L90.2242 182.979C90.1971 183.362 89.2513 187.479 91.4205 191.165C91.9628 192.075 92.5323 192.96 93.1559 193.75C93.5898 194.325 94.0507 194.851 94.5117 195.306C95.1896 195.976 96.003 196.646 96.8165 197.293Z" fill="#C22C2C"/>
<path opacity="0.3" d="M64.8468 203.914C64.8468 203.914 64.8468 214.19 62.6233 221.113C60.3998 228.036 55.3564 234.15 55.3564 234.15L44.6187 260.651C46.5167 261.769 49.8248 261.198 49.8248 261.198L56.4681 234.292C67.8566 225.157 65.4975 207.244 64.8468 203.914Z" fill="#A32A28"/>
<path d="M131.144 260.532C130.385 260.675 129.625 260.532 129.056 260.199C128.514 259.866 128.107 259.39 127.944 258.795C127.646 257.558 128.568 256.345 130.032 256.059C131.008 255.869 131.984 256.178 132.608 256.749C132.906 257.035 133.123 257.392 133.232 257.796C133.557 259.009 132.608 260.246 131.144 260.532Z" fill="#39323F"/>
<path d="M130.845 259.675C130.14 259.818 129.462 259.556 129.082 259.104C128.947 258.938 128.838 258.771 128.784 258.557C128.594 257.748 129.191 256.963 130.14 256.773C130.655 256.678 131.17 256.773 131.55 257.035C131.875 257.225 132.119 257.534 132.201 257.891C132.391 258.7 131.794 259.509 130.845 259.675Z" fill="#4B4651"/>
<path opacity="0.1" d="M130.492 259.366C129.977 259.461 129.489 259.366 129.082 259.104C128.947 258.938 128.838 258.771 128.784 258.557C128.594 257.748 129.191 256.963 130.14 256.773C130.655 256.678 131.17 256.773 131.55 257.035C131.686 257.201 131.794 257.368 131.848 257.582C132.038 258.391 131.414 259.176 130.492 259.366Z" fill="#4B4651"/>
<path opacity="0.4" d="M131.144 260.532C130.385 260.675 129.626 260.532 129.056 260.199C130.168 260.341 131.524 260.199 132.364 259.509C133.313 258.724 133.015 257.558 132.635 256.749C132.934 257.035 133.151 257.392 133.259 257.796C133.557 259.009 132.608 260.246 131.144 260.532Z" fill="#39323F"/>
<path d="M138.357 282.584C137.598 282.727 136.866 282.584 136.269 282.251C135.727 281.918 135.32 281.442 135.158 280.848C134.859 279.611 135.781 278.397 137.245 278.112C138.222 277.922 139.198 278.207 139.821 278.802C140.12 279.087 140.337 279.444 140.445 279.849C140.743 281.062 139.821 282.299 138.357 282.584Z" fill="#39323F"/>
<path d="M138.058 281.728C137.353 281.871 136.648 281.609 136.296 281.157C136.16 280.991 136.052 280.824 135.998 280.61C135.808 279.801 136.404 279.016 137.353 278.849C137.869 278.754 138.384 278.849 138.763 279.111C139.089 279.301 139.333 279.611 139.414 279.968C139.604 280.753 138.98 281.561 138.058 281.728Z" fill="#4B4651"/>
<path opacity="0.1" d="M137.679 281.419C137.164 281.514 136.675 281.419 136.296 281.157C136.16 280.991 136.052 280.824 135.998 280.61C135.808 279.801 136.404 279.016 137.353 278.849C137.869 278.754 138.384 278.849 138.763 279.111C138.899 279.278 139.007 279.444 139.062 279.658C139.224 280.443 138.628 281.228 137.679 281.419Z" fill="#4B4651"/>
<path opacity="0.4" d="M138.357 282.584C137.598 282.727 136.866 282.584 136.27 282.251C137.381 282.394 138.737 282.251 139.578 281.561C140.527 280.776 140.228 279.611 139.849 278.802C140.147 279.087 140.364 279.444 140.472 279.849C140.744 281.062 139.822 282.299 138.357 282.584Z" fill="#39323F"/>
<path d="M125.585 237.361C124.826 237.504 124.067 237.361 123.497 237.028C122.955 236.695 122.548 236.219 122.386 235.625C122.087 234.388 123.009 233.174 124.473 232.889C125.45 232.698 126.426 232.984 127.049 233.579C127.348 233.864 127.565 234.221 127.673 234.625C127.998 235.862 127.049 237.076 125.585 237.361Z" fill="#39323F"/>
<path d="M125.286 236.527C124.581 236.67 123.876 236.409 123.524 235.957C123.388 235.79 123.28 235.623 123.226 235.409C123.036 234.601 123.632 233.815 124.581 233.649C125.097 233.554 125.612 233.649 125.991 233.911C126.317 234.101 126.561 234.41 126.642 234.767C126.832 235.552 126.235 236.337 125.286 236.527Z" fill="#4B4651"/>
<path opacity="0.1" d="M124.934 236.195C124.419 236.291 123.931 236.195 123.524 235.934C123.388 235.767 123.28 235.601 123.226 235.387C123.036 234.578 123.632 233.793 124.581 233.626C125.097 233.531 125.612 233.626 125.991 233.888C126.127 234.054 126.208 234.221 126.263 234.435C126.479 235.22 125.856 236.029 124.934 236.195Z" fill="#4B4651"/>
<path opacity="0.4" d="M125.586 237.361C124.827 237.504 124.067 237.361 123.498 237.028C124.61 237.171 125.966 237.028 126.806 236.338C127.755 235.553 127.457 234.388 127.077 233.579C127.376 233.864 127.592 234.221 127.701 234.625C127.999 235.862 127.05 237.076 125.586 237.361Z" fill="#39323F"/>
<path d="M120.651 215.642C119.891 215.784 119.159 215.642 118.563 215.309C118.02 214.999 117.614 214.5 117.451 213.905C117.153 212.668 118.075 211.455 119.539 211.169C120.515 210.979 121.491 211.264 122.115 211.859C122.413 212.145 122.63 212.501 122.739 212.906C123.037 214.119 122.115 215.356 120.651 215.642Z" fill="#39323F"/>
<path d="M120.346 214.785C119.641 214.928 118.936 214.666 118.584 214.214C118.448 214.048 118.34 213.881 118.286 213.667C118.096 212.858 118.692 212.073 119.641 211.883C120.157 211.788 120.672 211.883 121.051 212.145C121.377 212.335 121.621 212.644 121.702 213.001C121.892 213.81 121.295 214.619 120.346 214.785Z" fill="#4B4651"/>
<path opacity="0.1" d="M119.972 214.476C119.457 214.571 118.969 214.476 118.562 214.214C118.426 214.048 118.318 213.881 118.264 213.667C118.074 212.858 118.67 212.073 119.619 211.883C120.135 211.788 120.65 211.883 121.029 212.145C121.165 212.287 121.273 212.478 121.328 212.692C121.518 213.501 120.921 214.286 119.972 214.476Z" fill="#4B4651"/>
<path opacity="0.4" d="M120.651 215.642C119.892 215.784 119.16 215.642 118.563 215.309C119.675 215.451 121.03 215.309 121.871 214.619C122.793 213.834 122.522 212.668 122.142 211.859C122.44 212.145 122.657 212.501 122.766 212.906C123.037 214.119 122.115 215.356 120.651 215.642Z" fill="#39323F"/>
<path d="M49.8516 258.498L47.7095 270.583C45.2149 270.678 42.8558 270.535 40.6595 270.226C30.6268 268.823 17.8301 258.474 17.8301 258.474L25.439 248.921L28.9096 250.077L30.5454 250.886C30.5454 250.886 30.6268 250.981 30.7624 251.123C34.6939 253.548 38.4903 256.666 42.3678 257.594C44.9708 258.213 47.2485 258.403 48.6043 258.474C49.3906 258.522 49.8516 258.498 49.8516 258.498Z" fill="#A61F1F"/>
<path opacity="0.3" d="M49.8513 258.499L47.7092 270.584C45.2146 270.679 42.8555 270.536 40.6592 270.227C41.2015 266.325 41.9878 260.83 42.3675 257.595C44.9705 258.213 47.2482 258.404 48.604 258.475C49.3903 258.523 49.8513 258.499 49.8513 258.499Z" fill="#A61F1F"/>
<path opacity="0.4" d="M48.6046 258.475C38.382 261.02 31.1151 253.503 29.2441 250.41L29.3526 250.077L30.5728 250.862C30.5728 250.862 30.6541 250.958 30.7897 251.1C36.0501 257.309 45.2422 258.308 48.6046 258.475Z" fill="#A61F1F"/>
<path d="M207.068 263.576C207.068 263.576 202.404 267.81 196.872 269.808C195.869 270.165 194.866 270.475 193.862 270.76C190.012 271.807 186.46 272.187 185.511 272.283L179.844 261.863C179.844 261.863 180.549 261.863 181.688 261.72C183.179 261.53 185.43 261.149 187.897 260.317C189.063 259.912 190.256 259.413 191.449 258.818C197.659 255.583 200.045 251.515 200.045 251.515C200.045 251.515 200.045 251.515 200.045 251.491C200.479 251.039 200.75 250.777 200.75 250.777L201.319 251.943L207.068 263.576Z" fill="#A61F1F"/>
<path opacity="0.4" d="M201.291 251.92C198.824 256.416 192.533 263.053 181.714 261.697C183.91 261.436 187.733 260.722 191.448 258.795C197.658 255.56 200.044 251.492 200.044 251.492C200.044 251.492 200.044 251.492 200.044 251.468C200.478 251.016 200.749 250.754 200.749 250.754L201.291 251.92Z" fill="#A61F1F"/>
<path opacity="0.3" d="M193.862 270.761C190.012 271.808 186.459 272.188 185.51 272.284L179.843 261.864C179.843 261.864 180.548 261.864 181.687 261.721C183.178 261.531 185.429 261.15 187.897 260.318L193.862 270.761Z" fill="#A61F1F"/>
<path opacity="0.6" d="M83.3115 256.393L85.2096 268.24C85.2096 268.24 78.8917 271.38 54.4336 266.384L55.2742 264.433C55.2742 264.433 69.8352 268.596 82.9861 267.122L83.3115 256.393Z" fill="#8F1C1C"/>
<path d="M83.0949 255.845L82.9864 267.122C79.8953 267.574 76.9126 267.74 74.1197 267.692C62.1889 267.55 53.4849 263.791 53.4849 263.791C54.1085 260.461 57.3895 252.777 57.3895 252.777C66.7714 254.489 78.7022 255.489 82.1459 255.75C82.7424 255.822 83.0949 255.845 83.0949 255.845Z" fill="#B32929"/>
<path opacity="0.4" d="M83.0948 255.845L82.9864 267.122C79.8952 267.574 76.9125 267.74 74.1196 267.692C79.9766 265.647 81.6848 261.174 82.1187 255.75C82.7423 255.822 83.0948 255.845 83.0948 255.845Z" fill="#A61F1F"/>
<defs>
<linearGradient id="paint0_linear_201_3065" x1="126.847" y1="258.764" x2="103.051" y2="396.189" gradientUnits="userSpaceOnUse">
<stop stop-color="#9DCDCE"/>
<stop offset="1" stop-color="#95C1B9"/>
</linearGradient>
<linearGradient id="paint1_linear_201_3065" x1="121.5" y1="193.705" x2="111.71" y2="263.731" gradientUnits="userSpaceOnUse">
<stop offset="0.00510204" stop-color="#B38484"/>
<stop offset="1" stop-color="#A57979"/>
</linearGradient>
<linearGradient id="paint2_linear_201_3065" x1="75.9712" y1="191.284" x2="64.7363" y2="294.1" gradientUnits="userSpaceOnUse">
<stop offset="0.00510204" stop-color="#B32929"/>
<stop offset="1" stop-color="#A31B1F"/>
</linearGradient>
<linearGradient id="paint3_linear_201_3065" x1="151.131" y1="190.155" x2="162.528" y2="295.745" gradientUnits="userSpaceOnUse">
<stop offset="0.00510204" stop-color="#B32929"/>
<stop offset="1" stop-color="#A31B1F"/>
</linearGradient>
<linearGradient id="paint4_linear_201_3065" x1="86.624" y1="262.122" x2="69.6638" y2="276.458" gradientUnits="userSpaceOnUse">
<stop offset="0.00510204" stop-color="#B32929"/>
<stop offset="1" stop-color="#A31B1F"/>
</linearGradient>
<linearGradient id="paint5_linear_201_3065" x1="143.59" y1="270.131" x2="177.95" y2="270.131" gradientUnits="userSpaceOnUse">
<stop offset="0.00510204" stop-color="#B32929"/>
<stop offset="1" stop-color="#A31B1F"/>
</linearGradient>
<clipPath id="clip0_201_3065">
<rect width="69.412" height="41.6472" fill="white" transform="translate(34.7061 363.464)"/>
</clipPath>
</defs>
</svg>
