<svg width="114" height="31" viewBox="0 0 114 31" fill="none" xmlns="http://www.w3.org/2000/svg">
<path d="M101.78 20.7796C101.78 20.7796 89.3635 13.3797 80.7316 0C78.0889 2.40684 78.5318 6.86673 79.4127 8.2919C80.2936 9.71707 99.8457 22.3841 99.8457 22.3841L101.78 20.7796Z" fill="#E8390A"/>
<path d="M104.55 19.7082C104.55 19.7082 100.455 20.2564 94.5547 17.3911C87.4534 13.9428 80.6374 4.37021 77.6453 4.4599C74.6532 4.5496 67.6355 5.71066 62.793 3.83701C62.0892 10.3749 63.9101 13.7335 63.4672 16.9476C63.0243 20.1567 62.2319 25.5983 63.9052 27.6513C65.5784 29.7043 94.9976 28.2742 94.9976 28.2742L107.242 25.5086L104.55 19.7082Z" fill="#FC643A"/>
<path d="M77.6454 4.45992C80.6376 4.37022 87.4535 13.9428 94.5549 17.3911C100.46 20.2564 104.55 19.7082 104.55 19.7082L105.849 22.5137L103.418 23.8093C103.418 23.8093 95.3718 23.9289 85.5588 16.6735C81.5628 13.7235 76.9122 9.57757 73.6002 4.74395C75.2389 4.63432 76.6612 4.48981 77.6454 4.45992Z" fill="#F4502A"/>
<path d="M63.4137 17.3363C66.5535 17.7748 73.6844 19.7631 76.7749 28.7526C70.397 28.7626 64.6243 28.5234 63.9058 27.6464C62.2966 25.678 62.9659 20.5803 63.4137 17.3363Z" fill="#F4502A"/>
<path d="M111.396 21.7263C111.396 21.7263 109.58 19.0903 102.242 19.5088C101.165 21.9854 102.956 25.8922 103.891 26.0118C106.125 25.2394 111.396 21.7263 111.396 21.7263Z" fill="#E2E2E2"/>
<path d="M74.3638 31C78.0892 31 82.0558 30.9352 85.8058 30.8754C89.3048 30.8206 92.6118 30.7658 95.4366 30.7658C103.813 30.7658 113.084 26.4355 113.478 26.2511C113.478 26.2511 113.758 23.1416 111.396 21.7264C110.717 21.9855 102.71 25.7727 95.4366 25.7727C92.5725 25.7727 89.2457 25.8275 85.727 25.8823C77.4446 26.0119 64.2605 26.0269 63.0253 25.6083C61.0863 27.3324 62.4938 30.5715 62.4938 30.5715C65.4564 30.9003 69.7182 31 74.3638 31Z" fill="#E2E2E2"/>
<path d="M62.0059 28.3539C61.996 28.1197 62.0059 27.8805 62.0305 27.6413C67.5177 28.1945 77.7243 28.0848 86.7499 27.9852C89.9192 27.9503 92.9064 27.9204 95.4359 27.9204C103.192 27.9204 112.198 23.7147 112.286 23.6748L112.582 24.3226C112.488 24.3674 103.349 28.638 95.4359 28.638C92.9113 28.638 89.9241 28.6679 86.7597 28.7027C83.1377 28.7426 79.3237 28.7825 75.7017 28.7825C70.2982 28.7775 65.3179 28.6828 62.0059 28.3539Z" fill="#232323"/>
<path d="M111.396 21.7265C111.46 21.6966 111.524 21.6667 111.588 21.6368C113.91 23.1167 113.664 26.1415 113.655 26.2711L113.645 26.3707L113.551 26.4156C113.192 26.585 105.362 30.2376 97.5867 30.8555C97.4538 29.9835 97.065 26.7345 96.942 25.7179C103.773 25.2694 110.766 21.9656 111.396 21.7265Z" fill="#C1C1C1"/>
<path d="M75.219 26.2311C79.0675 26.2311 83.0143 26.1963 85.7308 26.1514C89.2397 26.0966 92.5566 26.0418 95.4355 26.0418C98.4621 26.0418 103.634 25.3641 111.11 22.135C111.297 22.0553 111.425 22.0005 111.484 21.9756C111.622 21.9257 111.69 21.7713 111.636 21.6317C111.587 21.4922 111.435 21.4224 111.297 21.4773C111.233 21.5022 111.095 21.562 110.898 21.6467C103.506 24.8409 98.408 25.5086 95.4306 25.5086C92.5517 25.5086 89.2298 25.5634 85.721 25.6182C76.971 25.7578 64.2447 25.7428 63.1078 25.3591C62.9701 25.3143 62.8224 25.389 62.7732 25.5285C62.7289 25.6681 62.8027 25.8175 62.9405 25.8674C63.7771 26.1464 69.3923 26.2311 75.219 26.2311Z" fill="#232323"/>
<path d="M93.6346 19.4091C93.3295 19.8177 93.4082 20.4057 93.8118 20.7197C94.2202 21.0336 94.796 20.9489 95.1061 20.5403C95.4161 20.1317 95.3324 19.5436 94.9289 19.2297C94.5204 18.9158 93.9397 18.9955 93.6346 19.4091Z" fill="black"/>
<path d="M91.0415 17.4161C90.7315 17.8247 90.8151 18.4128 91.2187 18.7267C91.6271 19.0406 92.2029 18.9559 92.5129 18.5473C92.8181 18.1337 92.7393 17.5507 92.3358 17.2367C91.9273 16.9278 91.3515 17.0075 91.0415 17.4161Z" fill="black"/>
<path d="M88.4482 15.4278C88.1382 15.8414 88.2219 16.4244 88.6254 16.7383C89.0339 17.0523 89.6096 16.9675 89.9197 16.5589C90.2248 16.1453 90.1461 15.5623 89.7425 15.2484C89.3341 14.9344 88.7583 15.0192 88.4482 15.4278Z" fill="black"/>
<path d="M85.854 13.4345C85.544 13.8481 85.6276 14.4311 86.0312 14.745C86.4396 15.0589 87.0154 14.9742 87.3254 14.5656C87.6306 14.152 87.5518 13.569 87.1483 13.2551C86.7447 12.9461 86.164 13.0258 85.854 13.4345Z" fill="black"/>
<path d="M83.2659 11.4463C82.9559 11.855 83.0396 12.443 83.4431 12.7569C83.8516 13.0708 84.4274 12.9911 84.7374 12.5775C85.0474 12.1689 84.9638 11.5809 84.5602 11.2669C84.1518 10.953 83.5711 11.0377 83.2659 11.4463Z" fill="black"/>
<path d="M80.6727 9.458C80.3676 9.8716 80.4463 10.4546 80.8499 10.7686C81.2583 11.0825 81.8341 10.9978 82.1441 10.5892C82.4542 10.1806 82.3705 9.59254 81.967 9.27861C81.5585 8.96467 80.9827 9.0444 80.6727 9.458Z" fill="black"/>
<path d="M84.6531 4.84364C84.8696 5.11771 85.0911 5.3868 85.3076 5.65091L81.8972 10.2055C81.7299 10.4297 81.4149 10.4746 81.1935 10.3051C80.972 10.1357 80.9277 9.81679 81.095 9.59255L84.6531 4.84364Z" fill="#E2E2E2"/>
<path d="M86.8135 7.41494C87.0399 7.67406 87.2712 7.9282 87.4976 8.18234L84.4907 12.1987C84.3234 12.423 84.0084 12.4678 83.7869 12.2984C83.5655 12.129 83.5212 11.81 83.6885 11.5858L86.8135 7.41494Z" fill="#E2E2E2"/>
<path d="M89.0672 9.85152C89.3083 10.1007 89.5445 10.3399 89.7808 10.5791L87.079 14.1868C86.9117 14.4111 86.5967 14.4559 86.3753 14.2865C86.1538 14.1171 86.1095 13.7981 86.2768 13.5739L89.0672 9.85152Z" fill="#E2E2E2"/>
<path d="M91.4156 12.1739C91.6666 12.4081 91.9126 12.6423 92.1587 12.8665L89.6784 16.1803C89.5111 16.4045 89.1961 16.4494 88.9746 16.28C88.7532 16.1105 88.7089 15.7916 88.8762 15.5674L91.4156 12.1739Z" fill="#E2E2E2"/>
<path d="M93.8465 14.3764C94.1074 14.6006 94.3633 14.8199 94.6143 15.0341L92.2668 18.1685C92.0995 18.3927 91.7845 18.4376 91.5631 18.2632C91.3416 18.0938 91.2973 17.7748 91.4647 17.5506L93.8465 14.3764Z" fill="#E2E2E2"/>
<path d="M96.361 16.4691C96.6317 16.6834 96.8974 16.8927 97.1533 17.092L94.8551 20.1616C94.6878 20.3859 94.3728 20.4307 94.1514 20.2613C93.9299 20.0919 93.8856 19.773 94.0529 19.5487L96.361 16.4691Z" fill="#E2E2E2"/>
<path d="M66.927 13.4096C66.927 15.9709 68.9791 18.0489 71.5086 18.0489C74.0382 18.0489 76.0903 15.9709 76.0903 13.4096C76.0903 10.8483 74.0382 8.77032 71.5086 8.77032C68.9791 8.77032 66.927 10.8483 66.927 13.4096Z" fill="#C1C1C1"/>
<path d="M67.8669 13.4095C67.8669 15.4476 69.4959 17.097 71.5087 17.097C73.5165 17.097 75.1504 15.4476 75.1504 13.4095C75.1504 11.3714 73.5215 9.72198 71.5087 9.72198C69.5008 9.72198 67.8669 11.3714 67.8669 13.4095Z" fill="#E2E2E2"/>
<path d="M69.1908 13.4095C69.1908 14.7052 70.2292 15.7566 71.5087 15.7566C72.7883 15.7566 73.8267 14.7052 73.8267 13.4095C73.8267 12.1139 72.7883 11.0625 71.5087 11.0625C70.2292 11.0575 69.1908 12.109 69.1908 13.4095Z" fill="#FC643A"/>
<g clip-path="url(#clip0_201_986)">
<path d="M11.9624 20.7796C11.9624 20.7796 24.4596 13.3797 33.1478 0C35.8077 2.40685 35.3619 6.86674 34.4753 8.29191C33.5886 9.71709 13.9091 22.3842 13.9091 22.3842L11.9624 20.7796Z" fill="#E8390A"/>
<path d="M9.17382 19.7082C9.17382 19.7082 13.295 20.2564 19.234 17.3911C26.3817 13.9428 33.242 4.37018 36.2536 4.45988C39.2653 4.54958 46.3287 5.71064 51.2028 3.83699C51.9111 10.3748 50.0784 13.7335 50.5242 16.9476C50.97 20.1567 51.7675 25.5983 50.0833 27.6513C48.3992 29.7044 18.7882 28.2742 18.7882 28.2742L6.46436 25.5086L9.17382 19.7082Z" fill="#FC643A"/>
<path d="M36.2537 4.45992C33.2421 4.37022 26.3817 13.9428 19.2341 17.3911C13.2901 20.2564 9.17389 19.7083 9.17389 19.7083L7.86621 22.5138L10.3132 23.8094C10.3132 23.8094 18.4118 23.929 28.2888 16.6735C32.3109 13.7235 36.9918 9.57758 40.3253 4.74395C38.6759 4.63433 37.2444 4.48981 36.2537 4.45992Z" fill="#F4502A"/>
<path d="M50.5787 17.3363C47.4184 17.7748 40.2411 19.7631 37.1304 28.7526C43.5499 28.7626 49.3601 28.5234 50.0833 27.6464C51.7031 25.6781 51.0294 20.5803 50.5787 17.3363Z" fill="#F4502A"/>
<path d="M2.28369 21.7264C2.28369 21.7264 4.11147 19.0904 11.4969 19.5089C12.5817 21.9856 10.7786 25.8923 9.83751 26.0119C7.5887 25.2395 2.28369 21.7264 2.28369 21.7264Z" fill="#E2E2E2"/>
<path d="M39.5576 31C35.808 31 31.8156 30.9352 28.0412 30.8754C24.5194 30.8206 21.1907 30.7658 18.3475 30.7658C9.91695 30.7658 0.584888 26.4355 0.188622 26.2511C0.188622 26.2511 -0.0937173 23.1416 2.28388 21.7264C2.96744 21.9856 11.0265 25.7727 18.3475 25.7727C21.2303 25.7727 24.5788 25.8275 28.1204 25.8824C36.4569 26.0119 49.7268 26.0269 50.9701 25.6083C52.9217 27.3324 51.5051 30.5715 51.5051 30.5715C48.5232 30.9004 44.2336 31 39.5576 31Z" fill="#E2E2E2"/>
<path d="M51.9952 28.354C52.0051 28.1197 51.9952 27.8806 51.9704 27.6414C46.4474 28.1945 36.1742 28.0849 27.0898 27.9852C23.8999 27.9503 20.8932 27.9204 18.3472 27.9204C10.5408 27.9204 1.4762 23.7147 1.38704 23.6748L1.08984 24.3226C1.18396 24.3675 10.3823 28.638 18.3472 28.638C20.8883 28.638 23.8949 28.6679 27.0799 28.7028C30.7256 28.7426 34.5644 28.7825 38.2101 28.7825C43.6488 28.7775 48.6616 28.6828 51.9952 28.354Z" fill="#232323"/>
<path d="M2.28366 21.7264C2.21927 21.6965 2.15487 21.6666 2.09048 21.6367C-0.247488 23.1167 0.000177772 26.1415 0.0100844 26.271L0.0199911 26.3707L0.114104 26.4155C0.475697 26.585 8.35643 30.2376 16.1827 30.8555C16.3164 29.9835 16.7077 26.7345 16.8316 25.7179C9.95636 25.2694 2.91769 21.9656 2.28366 21.7264Z" fill="#C1C1C1"/>
<path d="M38.6957 26.2311C34.8222 26.2311 30.8496 26.1963 28.1154 26.1514C24.5836 26.0966 21.2451 26.0418 18.3474 26.0418C15.3011 26.0418 10.0952 25.3641 2.57107 22.135C2.38285 22.0553 2.25406 22.0005 2.19462 21.9756C2.05593 21.9257 1.98658 21.7713 2.04107 21.6317C2.0906 21.4922 2.24415 21.4224 2.38285 21.4772C2.44724 21.5022 2.58593 21.562 2.78407 21.6467C10.224 24.8408 15.3556 25.5086 18.3524 25.5086C21.2501 25.5086 24.5936 25.5634 28.1253 25.6182C36.9323 25.7577 49.7416 25.7428 50.8858 25.3591C51.0245 25.3142 51.1731 25.389 51.2226 25.5285C51.2672 25.668 51.1929 25.8175 51.0542 25.8674C50.2121 26.1464 44.5604 26.2311 38.6957 26.2311Z" fill="#232323"/>
<path d="M20.1604 19.4093C20.4675 19.8179 20.3882 20.4059 19.9821 20.7199C19.571 21.0338 18.9914 20.9491 18.6794 20.5405C18.3673 20.1318 18.4515 19.5438 18.8577 19.2299C19.2688 18.916 19.8533 18.9957 20.1604 19.4093Z" fill="black"/>
<path d="M22.7706 17.416C23.0826 17.8247 22.9984 18.4127 22.5923 18.7266C22.1811 19.0405 21.6016 18.9558 21.2895 18.5472C20.9824 18.1336 21.0617 17.5506 21.4679 17.2366C21.879 16.9277 22.4585 17.0074 22.7706 17.416Z" fill="black"/>
<path d="M25.3809 15.4277C25.693 15.8413 25.6088 16.4244 25.2026 16.7383C24.7915 17.0522 24.2119 16.9675 23.8999 16.5589C23.5928 16.1453 23.672 15.5623 24.0782 15.2484C24.4893 14.9344 25.0689 15.0191 25.3809 15.4277Z" fill="black"/>
<path d="M27.9913 13.4345C28.3033 13.8481 28.2191 14.4311 27.813 14.7451C27.4018 15.059 26.8223 14.9743 26.5102 14.5657C26.2031 14.1521 26.2824 13.5691 26.6886 13.2551C27.0947 12.9462 27.6792 13.0259 27.9913 13.4345Z" fill="black"/>
<path d="M30.5969 11.4462C30.909 11.8548 30.8248 12.4428 30.4186 12.7568C30.0075 13.0707 29.4279 12.991 29.1159 12.5774C28.8038 12.1688 28.888 11.5808 29.2942 11.2668C29.7053 10.9529 30.2898 11.0376 30.5969 11.4462Z" fill="black"/>
<path d="M33.2068 9.45795C33.5139 9.87155 33.4346 10.4546 33.0285 10.7685C32.6173 11.0825 32.0378 10.9977 31.7257 10.5891C31.4137 10.1805 31.4979 9.5925 31.9041 9.27856C32.3152 8.96463 32.8947 9.04436 33.2068 9.45795Z" fill="black"/>
<path d="M29.2003 4.84363C28.9823 5.1177 28.7594 5.38679 28.5415 5.65089L31.9742 10.2055C32.1426 10.4297 32.4596 10.4746 32.6825 10.3051C32.9054 10.1357 32.95 9.81678 32.7815 9.59254L29.2003 4.84363Z" fill="#E2E2E2"/>
<path d="M27.0254 7.41488C26.7976 7.674 26.5648 7.92814 26.3369 8.18228L29.3634 12.1987C29.5318 12.4229 29.8488 12.4678 30.0717 12.2983C30.2946 12.1289 30.3392 11.81 30.1708 11.5858L27.0254 7.41488Z" fill="#E2E2E2"/>
<path d="M24.7568 9.85161C24.5141 10.1008 24.2763 10.34 24.0386 10.5791L26.758 14.1869C26.9264 14.4112 27.2434 14.456 27.4663 14.2866C27.6892 14.1172 27.7338 13.7982 27.5653 13.574L24.7568 9.85161Z" fill="#E2E2E2"/>
<path d="M22.3939 12.1738C22.1413 12.408 21.8937 12.6422 21.646 12.8664L24.1425 16.1802C24.3109 16.4044 24.6279 16.4493 24.8508 16.2799C25.0737 16.1104 25.1183 15.7915 24.9499 15.5673L22.3939 12.1738Z" fill="#E2E2E2"/>
<path d="M19.9475 14.3763C19.685 14.6006 19.4274 14.8198 19.1748 15.0341L21.5375 18.1685C21.706 18.3927 22.023 18.4376 22.2459 18.2632C22.4688 18.0937 22.5133 17.7748 22.3449 17.5506L19.9475 14.3763Z" fill="#E2E2E2"/>
<path d="M17.4161 16.4692C17.1437 16.6835 16.8762 16.8928 16.6187 17.0921L18.9319 20.1617C19.1003 20.386 19.4173 20.4308 19.6402 20.2614C19.8631 20.092 19.9077 19.7731 19.7392 19.5488L17.4161 16.4692Z" fill="#E2E2E2"/>
<path d="M47.0419 13.4096C47.0419 15.9709 44.9764 18.0489 42.4304 18.0489C39.8844 18.0489 37.8188 15.9709 37.8188 13.4096C37.8188 10.8483 39.8844 8.77032 42.4304 8.77032C44.9764 8.77032 47.0419 10.8483 47.0419 13.4096Z" fill="#C1C1C1"/>
<path d="M46.0956 13.4096C46.0956 15.4477 44.456 17.0971 42.4301 17.0971C40.4092 17.0971 38.7646 15.4477 38.7646 13.4096C38.7646 11.3715 40.4042 9.72206 42.4301 9.72206C44.4511 9.72206 46.0956 11.3715 46.0956 13.4096Z" fill="#E2E2E2"/>
<path d="M44.7632 13.4096C44.7632 14.7052 43.7181 15.7567 42.4302 15.7567C41.1423 15.7567 40.0972 14.7052 40.0972 13.4096C40.0972 12.114 41.1423 11.0625 42.4302 11.0625C43.7181 11.0576 44.7632 12.109 44.7632 13.4096Z" fill="#FC643A"/>
</g>
<defs>
<clipPath id="clip0_201_986">
<rect width="52" height="31" fill="white"/>
</clipPath>
</defs>
</svg>
