<svg width="100" height="190" viewBox="0 0 100 190" fill="none" xmlns="http://www.w3.org/2000/svg">
<mask id="path-1-inside-1_273_478" fill="white">
<path d="M99.6785 133.079C99.1078 132.498 98.1738 132.373 97.4162 132.166C96.2124 131.844 94.9463 131.533 93.9812 130.702C93.1198 129.965 92.4764 129.021 91.7915 128.128C89.9338 125.709 88.0243 123.332 86.0837 120.976C84.6931 119.294 83.2817 117.623 81.8496 115.962C82.41 114.717 82.6175 113.886 82.6175 113.886C82.6175 113.886 80.5212 111.582 73.5785 104.565C66.6462 97.5478 62.2149 98.2329 60.4299 100.257L60.5959 100.672C60.2742 99.8937 60.0563 99.1359 59.994 98.3367C59.745 95.3472 59.6204 92.1189 59.5789 90.4788C65.3905 89.4408 70.8803 87.4166 74.9172 83.6486C74.9276 83.6486 74.9276 83.6382 74.938 83.6382C82.2024 81.1574 86.7582 75.9153 89.5083 69.6457C92.2585 68.6699 94.8944 66.5731 96.3784 63.6251C99.4917 57.3866 98.3709 49.1032 93.1509 46.4458C92.8915 40.4876 91.9367 35.4012 90.9924 32.6401C88.0139 23.9311 81.7043 22.3429 81.1958 22.2287C81.175 22.2079 81.1646 22.1872 81.1439 22.1664C81.1439 21.2114 80.7599 6.91784 59.7761 2.37129C36.2497 -2.72541 18.5557 4.39544 7.28545 18.907C-1.79508 30.6056 -4.35839 57.6253 11.2186 58.4558C10.5026 69.49 12.3705 79.0605 17.2896 83.6486C23.1842 89.1398 32.1402 90.9148 40.7018 91.3715C40.6395 93.1362 40.515 95.8246 40.3178 98.3367C40.2556 99.1152 40.048 99.8626 39.7263 100.641H39.7159L39.8612 100.267C38.0762 98.2432 33.6449 97.5582 26.7126 104.575C19.7699 111.592 17.6736 113.897 17.6736 113.897C17.6736 113.897 17.8811 114.769 18.4727 116.056C17.0717 117.685 15.681 119.326 14.3216 120.986C12.3809 123.343 10.4714 125.72 8.6138 128.138C7.92887 129.031 7.28545 129.976 6.42409 130.713C5.45896 131.543 4.19288 131.854 2.99944 132.176C2.24186 132.384 1.30786 132.508 0.737088 133.09C0.145557 133.692 0.436134 134.595 1.18333 134.896C1.9928 135.218 2.99944 135 3.85041 135.072C3.9957 135.083 4.13061 135.135 4.22401 135.249C4.35892 135.425 4.21363 135.674 4.13061 135.809C3.55984 136.65 3.20699 137.076 2.86453 137.574C2.31451 138.373 0.72671 140.128 1.42202 141.176C1.69184 141.591 2.42866 141.726 2.80226 141.55C3.40417 141.259 3.93343 140.865 4.42119 140.418C4.67025 140.2 4.90894 139.961 5.13725 139.723C5.32405 139.525 5.5835 139.183 5.89483 139.214C6.15427 139.245 6.15427 139.567 6.11276 139.764C6.07125 139.982 5.9571 140.19 5.85332 140.377C5.44859 141.114 4.97121 141.84 4.65988 142.629C4.51459 143.013 4.37968 143.397 4.33817 143.813C4.30703 144.134 4.35892 144.477 4.58723 144.705C4.75328 144.871 4.98159 144.944 5.22028 144.965C5.73916 145.006 6.23729 144.778 6.64203 144.456C7.15054 144.051 7.54489 143.543 7.93925 143.034C8.35435 142.505 8.75909 141.975 9.19495 141.456C9.28835 141.342 9.39213 141.228 9.53742 141.217C9.69308 141.207 9.828 141.342 9.86951 141.487C9.91102 141.633 9.89026 141.799 9.85913 141.944C9.76573 142.349 9.57893 142.691 9.43364 143.076C9.27798 143.47 9.13269 143.875 9.01853 144.29C8.894 144.736 8.77984 145.224 8.95627 145.65C9.27798 146.439 10.2016 146.594 10.8969 146.075C11.5818 145.567 13.0866 142.681 13.3253 142.224C14.8197 139.474 16.7603 137.003 18.5868 134.45C20.4133 131.896 23.7757 127.765 26.6607 124.485C27.4183 124.869 28.2381 125.211 29.1099 125.512C26.2975 136.598 25.0729 147.207 24.6993 150.881C24.6163 151.297 24.554 151.743 24.554 152.241C24.554 157.265 25.0625 164.044 25.6437 170.095H26.0588L27.2626 184.534C27.2626 184.534 22.2813 186.008 19.7284 187.472C17.1754 188.946 17.7981 190.731 29.1514 190.731C40.5046 190.731 45.6624 190.731 45.6624 190.731L48.8483 155.563C49.2842 155.573 49.7201 155.584 50.1663 155.584C50.6229 155.584 51.0692 155.573 51.5154 155.563L54.7014 190.731C54.7014 190.731 59.8591 190.731 71.2124 190.731C82.5656 190.731 83.1883 188.946 80.6354 187.472C78.0824 186.008 73.1011 184.534 73.1011 184.534L74.3049 170.095H74.7097C75.2908 164.044 75.7993 157.276 75.7993 152.241C75.7993 151.67 75.7267 151.172 75.6125 150.705C75.2182 146.875 73.9625 136.422 71.1916 125.512C72.1983 125.17 73.1323 124.775 73.9729 124.329C76.4324 126.872 79.3485 130.204 82.192 134.18C84.0081 136.733 85.5959 139.474 87.0903 142.224C87.329 142.681 88.8338 145.567 89.5187 146.075C90.214 146.594 91.1376 146.439 91.4594 145.65C91.6358 145.224 91.5216 144.736 91.3971 144.29C91.2829 143.875 91.1376 143.47 90.982 143.076C90.8367 142.691 90.6499 142.349 90.5565 141.944C90.5254 141.799 90.5046 141.633 90.5461 141.487C90.5876 141.342 90.7225 141.207 90.8782 141.217C91.0235 141.228 91.1273 141.342 91.2207 141.456C91.6565 141.975 92.0613 142.505 92.4764 143.034C92.8604 143.543 93.2651 144.051 93.7736 144.456C94.1783 144.778 94.6765 145.006 95.1954 144.965C95.434 144.944 95.6624 144.871 95.8284 144.705C96.0567 144.477 96.1086 144.134 96.0775 143.813C96.0463 143.397 95.901 143.013 95.7557 142.629C95.4444 141.84 94.967 141.114 94.5623 140.377C94.4585 140.19 94.3548 139.982 94.3029 139.764C94.2614 139.567 94.2614 139.245 94.5208 139.214C94.8321 139.183 95.0916 139.525 95.2784 139.723C95.5067 139.961 95.7454 140.2 95.9944 140.418C96.4822 140.865 97.0218 141.259 97.6134 141.55C97.987 141.726 98.7238 141.591 98.9936 141.176C99.6889 140.128 98.1011 138.373 97.5511 137.574C97.2086 137.076 96.8558 136.65 96.285 135.809C96.202 135.674 96.0567 135.425 96.1916 135.249C96.285 135.135 96.4199 135.083 96.5652 135.072C97.4162 135 98.4228 135.218 99.2323 134.896C99.9795 134.584 100.27 133.681 99.6785 133.079Z"/>
</mask>
<path d="M99.6785 133.079C99.1078 132.498 98.1738 132.373 97.4162 132.166C96.2124 131.844 94.9463 131.533 93.9812 130.702C93.1198 129.965 92.4764 129.021 91.7915 128.128C89.9338 125.709 88.0243 123.332 86.0837 120.976C84.6931 119.294 83.2817 117.623 81.8496 115.962C82.41 114.717 82.6175 113.886 82.6175 113.886C82.6175 113.886 80.5212 111.582 73.5785 104.565C66.6462 97.5478 62.2149 98.2329 60.4299 100.257L60.5959 100.672C60.2742 99.8937 60.0563 99.1359 59.994 98.3367C59.745 95.3472 59.6204 92.1189 59.5789 90.4788C65.3905 89.4408 70.8803 87.4166 74.9172 83.6486C74.9276 83.6486 74.9276 83.6382 74.938 83.6382C82.2024 81.1574 86.7582 75.9153 89.5083 69.6457C92.2585 68.6699 94.8944 66.5731 96.3784 63.6251C99.4917 57.3866 98.3709 49.1032 93.1509 46.4458C92.8915 40.4876 91.9367 35.4012 90.9924 32.6401C88.0139 23.9311 81.7043 22.3429 81.1958 22.2287C81.175 22.2079 81.1646 22.1872 81.1439 22.1664C81.1439 21.2114 80.7599 6.91784 59.7761 2.37129C36.2497 -2.72541 18.5557 4.39544 7.28545 18.907C-1.79508 30.6056 -4.35839 57.6253 11.2186 58.4558C10.5026 69.49 12.3705 79.0605 17.2896 83.6486C23.1842 89.1398 32.1402 90.9148 40.7018 91.3715C40.6395 93.1362 40.515 95.8246 40.3178 98.3367C40.2556 99.1152 40.048 99.8626 39.7263 100.641H39.7159L39.8612 100.267C38.0762 98.2432 33.6449 97.5582 26.7126 104.575C19.7699 111.592 17.6736 113.897 17.6736 113.897C17.6736 113.897 17.8811 114.769 18.4727 116.056C17.0717 117.685 15.681 119.326 14.3216 120.986C12.3809 123.343 10.4714 125.72 8.6138 128.138C7.92887 129.031 7.28545 129.976 6.42409 130.713C5.45896 131.543 4.19288 131.854 2.99944 132.176C2.24186 132.384 1.30786 132.508 0.737088 133.09C0.145557 133.692 0.436134 134.595 1.18333 134.896C1.9928 135.218 2.99944 135 3.85041 135.072C3.9957 135.083 4.13061 135.135 4.22401 135.249C4.35892 135.425 4.21363 135.674 4.13061 135.809C3.55984 136.65 3.20699 137.076 2.86453 137.574C2.31451 138.373 0.72671 140.128 1.42202 141.176C1.69184 141.591 2.42866 141.726 2.80226 141.55C3.40417 141.259 3.93343 140.865 4.42119 140.418C4.67025 140.2 4.90894 139.961 5.13725 139.723C5.32405 139.525 5.5835 139.183 5.89483 139.214C6.15427 139.245 6.15427 139.567 6.11276 139.764C6.07125 139.982 5.9571 140.19 5.85332 140.377C5.44859 141.114 4.97121 141.84 4.65988 142.629C4.51459 143.013 4.37968 143.397 4.33817 143.813C4.30703 144.134 4.35892 144.477 4.58723 144.705C4.75328 144.871 4.98159 144.944 5.22028 144.965C5.73916 145.006 6.23729 144.778 6.64203 144.456C7.15054 144.051 7.54489 143.543 7.93925 143.034C8.35435 142.505 8.75909 141.975 9.19495 141.456C9.28835 141.342 9.39213 141.228 9.53742 141.217C9.69308 141.207 9.828 141.342 9.86951 141.487C9.91102 141.633 9.89026 141.799 9.85913 141.944C9.76573 142.349 9.57893 142.691 9.43364 143.076C9.27798 143.47 9.13269 143.875 9.01853 144.29C8.894 144.736 8.77984 145.224 8.95627 145.65C9.27798 146.439 10.2016 146.594 10.8969 146.075C11.5818 145.567 13.0866 142.681 13.3253 142.224C14.8197 139.474 16.7603 137.003 18.5868 134.45C20.4133 131.896 23.7757 127.765 26.6607 124.485C27.4183 124.869 28.2381 125.211 29.1099 125.512C26.2975 136.598 25.0729 147.207 24.6993 150.881C24.6163 151.297 24.554 151.743 24.554 152.241C24.554 157.265 25.0625 164.044 25.6437 170.095H26.0588L27.2626 184.534C27.2626 184.534 22.2813 186.008 19.7284 187.472C17.1754 188.946 17.7981 190.731 29.1514 190.731C40.5046 190.731 45.6624 190.731 45.6624 190.731L48.8483 155.563C49.2842 155.573 49.7201 155.584 50.1663 155.584C50.6229 155.584 51.0692 155.573 51.5154 155.563L54.7014 190.731C54.7014 190.731 59.8591 190.731 71.2124 190.731C82.5656 190.731 83.1883 188.946 80.6354 187.472C78.0824 186.008 73.1011 184.534 73.1011 184.534L74.3049 170.095H74.7097C75.2908 164.044 75.7993 157.276 75.7993 152.241C75.7993 151.67 75.7267 151.172 75.6125 150.705C75.2182 146.875 73.9625 136.422 71.1916 125.512C72.1983 125.17 73.1323 124.775 73.9729 124.329C76.4324 126.872 79.3485 130.204 82.192 134.18C84.0081 136.733 85.5959 139.474 87.0903 142.224C87.329 142.681 88.8338 145.567 89.5187 146.075C90.214 146.594 91.1376 146.439 91.4594 145.65C91.6358 145.224 91.5216 144.736 91.3971 144.29C91.2829 143.875 91.1376 143.47 90.982 143.076C90.8367 142.691 90.6499 142.349 90.5565 141.944C90.5254 141.799 90.5046 141.633 90.5461 141.487C90.5876 141.342 90.7225 141.207 90.8782 141.217C91.0235 141.228 91.1273 141.342 91.2207 141.456C91.6565 141.975 92.0613 142.505 92.4764 143.034C92.8604 143.543 93.2651 144.051 93.7736 144.456C94.1783 144.778 94.6765 145.006 95.1954 144.965C95.434 144.944 95.6624 144.871 95.8284 144.705C96.0567 144.477 96.1086 144.134 96.0775 143.813C96.0463 143.397 95.901 143.013 95.7557 142.629C95.4444 141.84 94.967 141.114 94.5623 140.377C94.4585 140.19 94.3548 139.982 94.3029 139.764C94.2614 139.567 94.2614 139.245 94.5208 139.214C94.8321 139.183 95.0916 139.525 95.2784 139.723C95.5067 139.961 95.7454 140.2 95.9944 140.418C96.4822 140.865 97.0218 141.259 97.6134 141.55C97.987 141.726 98.7238 141.591 98.9936 141.176C99.6889 140.128 98.1011 138.373 97.5511 137.574C97.2086 137.076 96.8558 136.65 96.285 135.809C96.202 135.674 96.0567 135.425 96.1916 135.249C96.285 135.135 96.4199 135.083 96.5652 135.072C97.4162 135 98.4228 135.218 99.2323 134.896C99.9795 134.584 100.27 133.681 99.6785 133.079Z" fill="#FFEDE4" stroke="#555555" stroke-width="2" stroke-dasharray="2 2" mask="url(#path-1-inside-1_273_478)"/>
</svg>
