<svg width="66" height="36" viewBox="0 0 66 36" fill="none" xmlns="http://www.w3.org/2000/svg">
<path d="M65.6555 30.7756C60.9098 31.4513 49.9614 33.009 38.465 34.6698H38.4516C38.104 34.7156 37.7431 34.7728 37.3955 34.8187C36.0988 35.0134 34.8021 35.1966 33.5188 35.3799H33.425L0.580078 32.631C0.620182 32.1271 0.673654 31.6117 0.740494 31.0505C0.927646 29.4355 1.22174 27.477 1.74309 24.6479C2.09066 22.7352 2.55854 20.4331 3.1601 17.5582C3.32052 16.8252 3.46756 16.1265 3.62798 15.4737C3.69482 15.1988 3.74829 14.9468 3.81513 14.6834C4.18944 13.1715 4.57711 11.9002 4.92467 10.8236V10.8121C5.32571 9.66676 5.68665 8.75048 6.02085 8.02891C6.90314 6.08181 7.5047 5.5435 7.5047 5.5435C7.5047 5.42896 7.51807 5.29152 7.53143 5.13117C7.65175 3.53913 8.33351 0.137442 8.33351 0.137442C8.33351 0.137442 25.4579 0.985001 32.6499 0.538315C39.8285 0.0801745 52.9826 0 52.9826 0L53.3836 4.11181L53.4237 4.51268C53.4237 4.51268 53.8649 5.0739 54.5333 6.02454C54.7873 6.3796 55.068 6.80338 55.3755 7.26152C56.6989 9.26589 58.4234 12.1636 59.6532 15.2561C61.2708 19.3221 64.1449 26.8012 65.6555 30.7756Z" fill="url(#paint0_linear_163_3715)"/>
<defs>
<linearGradient id="paint0_linear_163_3715" x1="28.2633" y1="0.605203" x2="32.3384" y2="36.1632" gradientUnits="userSpaceOnUse">
<stop offset="1.993e-05" stop-color="#BC8E22"/>
<stop offset="1" stop-color="#AE801B"/>
</linearGradient>
</defs>
</svg>
