<svg width="54" height="37" viewBox="0 0 54 37" fill="none" xmlns="http://www.w3.org/2000/svg">
<g clip-path="url(#clip0_163_3520)">
<path d="M50.6102 26.87C47.0602 27.46 38.8702 28.82 30.2702 30.27H30.2602C30.0002 30.31 29.7302 30.36 29.4702 30.4C28.5002 30.57 27.5302 30.73 26.5702 30.89H26.5L1.93018 28.49C1.96018 28.05 2.00018 27.6 2.05018 27.11C2.19018 25.7 2.41018 23.99 2.80018 21.52C3.06018 19.85 3.41018 17.84 3.86018 15.33C3.98018 14.69 4.09018 14.08 4.21018 13.51C4.26018 13.27 4.30018 13.05 4.35018 12.82C4.63018 11.5 4.92018 10.39 5.18018 9.45V9.44C5.48018 8.44 5.75018 7.64 6.00018 7.01C6.66018 5.31 7.11018 4.84 7.11018 4.84C7.11018 4.74 7.12018 4.62 7.13018 4.48C7.22018 3.09 7.73018 0.12 7.73018 0.12C7.73018 0.12 20.5402 0.86 25.9202 0.47C31.2902 0.07 41.1302 0 41.1302 0L41.4302 3.59L41.4602 3.94C41.4602 3.94 41.7902 4.43 42.2902 5.26C42.4802 5.57 42.6902 5.94 42.9202 6.34C43.9102 8.09 45.2002 10.62 46.1202 13.32C47.3302 16.87 49.4802 23.4 50.6102 26.87Z" fill="url(#paint0_linear_163_3520)"/>
<path d="M41.4601 3.87C40.0901 3.9 38.5101 4.05 36.5601 4.24C33.2101 4.58 28.7601 5.06 22.3601 5.38C15.8101 5.71 9.32012 4.69 7.12012 4.47C7.21012 3.08 7.72012 0.11 7.72012 0.11C7.72012 0.11 8.09012 0.13 8.73012 0.16C8.86012 0.17 9.01012 0.18 9.16012 0.18C9.51012 0.2 9.92012 0.22 10.3701 0.24C10.5101 0.25 10.6601 0.26 10.8101 0.26C11.1501 0.28 11.5301 0.29 11.9201 0.31C12.0601 0.32 12.2101 0.32 12.3501 0.33C12.8701 0.36 13.4301 0.38 14.0001 0.4C14.1501 0.4 14.2901 0.41 14.4401 0.42C18.3901 0.57 23.1501 0.66 25.9201 0.46C27.2901 0.36 28.9501 0.28 30.6501 0.22C30.7901 0.21 30.9401 0.21 31.0801 0.2C31.7401 0.18 32.4001 0.16 33.0601 0.14C33.2101 0.14 33.3501 0.13 33.4901 0.13C33.9501 0.12 34.4101 0.11 34.8501 0.1C35.0501 0.09 35.2501 0.09 35.4501 0.09C35.6001 0.09 35.7401 0.08 35.8901 0.08C36.7501 0.06 37.5401 0.05 38.2501 0.04C38.4001 0.04 38.5401 0.04 38.6901 0.03C39.2301 0.02 39.7101 0.02 40.0901 0.01C40.2501 0.01 40.4001 0 40.5301 0C40.9201 0 41.1401 0 41.1401 0L41.4601 3.87Z" fill="#5B9394"/>
<g opacity="0.6">
<path opacity="0.6" d="M20.6702 19.4C20.8002 19.53 22.8602 21.15 22.5102 23.77C22.1602 26.39 20.4502 28.36 20.4502 28.36C20.4502 28.36 24.5202 27.79 24.5602 24.51C24.6002 21.23 20.6702 19.4 20.6702 19.4Z" fill="white"/>
<path opacity="0.6" d="M9.21045 14.76C9.21045 14.76 14.2004 19.79 9.82045 23.51C9.82045 23.51 13.8904 22.5 13.6704 19.27C13.4504 16.03 9.21045 14.76 9.21045 14.76Z" fill="white"/>
<path opacity="0.6" d="M18.8305 5.44C18.8305 5.44 21.1905 9.46 18.0005 13.18C18.0005 13.18 21.6305 11.95 21.8005 9.16C21.9805 6.36 18.8305 5.44 18.8305 5.44Z" fill="white"/>
<path opacity="0.6" d="M6.93008 9.69001C6.82008 11.85 5.03008 13.07 4.22008 13.52C3.98008 13.65 3.83008 13.72 3.83008 13.72C4.04008 13.43 4.21008 13.13 4.37008 12.84C4.98008 11.67 5.19008 10.5 5.20008 9.47001V9.46001C5.48008 8.44001 5.75008 7.64001 6.00008 7.01001C6.54008 7.59001 7.00008 8.46001 6.93008 9.69001Z" fill="white"/>
<path opacity="0.6" d="M32.4302 12.27C32.5602 12.36 36.3702 15.9 32.8702 20.54C32.8702 20.54 37.2402 18.4 36.6302 15.38C36.0202 12.35 32.4302 12.27 32.4302 12.27Z" fill="white"/>
<path opacity="0.6" d="M29.3701 23.81C29.3701 23.81 32.9601 27.66 29.4601 30.42C29.4601 30.42 33.5801 30.15 32.8301 26.22C32.3901 23.95 29.3701 23.81 29.3701 23.81Z" fill="white"/>
<path opacity="0.6" d="M2.05029 27.11C2.19029 25.7 2.41029 23.99 2.80029 21.52C3.37029 21.88 3.88029 22.42 4.04029 23.25C4.50029 25.62 3.18029 26.66 2.05029 27.11Z" fill="white"/>
<path opacity="0.6" d="M38.5103 18C38.5103 18 42.3603 20.54 40.0403 25.3C40.0403 25.3 43.2703 23.33 42.4903 20.14C41.9203 17.82 38.5103 18 38.5103 18Z" fill="white"/>
<path opacity="0.6" d="M40.1304 4.39C40.1304 4.39 42.7504 7.45 40.3004 11.52C40.3004 11.52 43.3604 9.73 43.0604 7.02C42.7504 4.31 40.1304 4.39 40.1304 4.39Z" fill="white"/>
</g>
<path d="M9.16008 0.189998L8.77008 4.22L8.33008 4.09L8.73008 0.169998C8.86008 0.169998 9.01008 0.179998 9.16008 0.189998Z" fill="#315095"/>
<path d="M10.8102 0.27L10.4302 4.14L9.99023 4L10.3702 0.25C10.5202 0.25 10.6602 0.26 10.8102 0.27Z" fill="#315095"/>
<path d="M14.7 4.14999L14.25 4.08999L14 0.399994C14.15 0.399994 14.29 0.409994 14.44 0.419994L14.7 4.14999Z" fill="#315095"/>
<path d="M12.3503 0.339998L12.2503 4.08L11.8003 3.98L11.9103 0.309998C12.0603 0.329998 12.2103 0.329998 12.3503 0.339998Z" fill="#315095"/>
<path d="M38.6905 0.0299988L38.6805 3.47L38.2305 3.38L38.2505 0.0399988C38.4005 0.0299988 38.5505 0.0299988 38.6905 0.0299988Z" fill="#315095"/>
<path d="M31.3104 3.53L30.8604 3.47L30.6504 0.210002C30.7904 0.200002 30.9404 0.200002 31.0804 0.190002L31.3104 3.53Z" fill="#315095"/>
<path d="M33.7205 3.36L33.2705 3.3L33.0605 0.140005C33.2105 0.140005 33.3505 0.130005 33.4905 0.130005L33.7205 3.36Z" fill="#315095"/>
<path d="M36.1305 3.4L35.6805 3.35L35.4604 0.0900018C35.6104 0.0900018 35.7505 0.0800018 35.9005 0.0800018L36.1305 3.4Z" fill="#315095"/>
<path d="M40.5303 0L40.5203 3.42L40.0703 3.33L40.0903 0.01C40.2503 0.01 40.4003 0 40.5303 0Z" fill="#315095"/>
<path opacity="0.2" d="M41.4601 3.87C40.0901 3.9 38.5101 4.05 36.5601 4.24C36.1301 3.19 35.3901 1.35 34.8501 0.09C35.0501 0.08 35.2501 0.08 35.4501 0.08C35.6001 0.08 35.7401 0.07 35.8901 0.07C36.7501 0.05 37.5401 0.04 38.2501 0.03C38.4001 0.03 38.5401 0.03 38.6901 0.02C39.2301 0.01 39.7101 0.01 40.0901 0C40.2501 0.01 40.4001 0 40.5301 0C40.9201 0 41.1401 0 41.1401 0L41.4601 3.87Z" fill="#5B9394"/>
<path d="M15.3701 13.05C15.3701 13.05 18.9601 13.62 21.4101 12.96C21.4101 12.96 20.1901 14.45 18.5201 14.45C15.7201 14.46 15.3701 13.05 15.3701 13.05Z" fill="#0880A5"/>
<path d="M29.8501 20.67C29.8501 20.67 32.6901 20.89 35.2701 20.06C35.2701 20.06 34.8301 21.29 33.8301 21.59C32.8201 21.89 30.4601 21.72 30.4601 21.72L29.8501 20.67Z" fill="#0880A5"/>
<path d="M38.0703 25.52C38.0703 25.52 41.1303 25.43 42.9703 24.56C42.9703 24.56 42.2303 25.87 41.9203 26.05C41.6103 26.23 38.9503 26.4 38.9503 26.4L38.0703 25.52Z" fill="#0880A5"/>
<path d="M7.11035 23.2C7.11035 23.2 10.1304 23.99 12.9304 23.03L11.6604 24.21C11.6604 24.21 9.26035 24.69 8.07035 24.43L7.11035 23.2Z" fill="#0880A5"/>
<path d="M17.5601 27.88C17.6901 27.88 21.6701 28.93 24.6001 28.41C24.6001 28.41 23.2401 29.5 23.0701 29.55C22.9001 29.59 19.5301 29.55 18.4801 29.02L17.5601 27.88Z" fill="#0880A5"/>
<path d="M37.77 11.57C37.77 11.57 40.92 11.92 43.28 10.83C43.28 10.83 42.27 12.45 42.14 12.53C42.01 12.62 40.22 13.01 39.21 12.79C38.2 12.57 37.77 11.57 37.77 11.57Z" fill="#0880A5"/>
<path d="M4.22 13.51C4.22 13.51 5.84 14.1 6.67 13.92C6.67 13.92 5.49 15.28 4 14.97L4.22 13.51Z" fill="#0880A5"/>
<path d="M2.05002 27.11C2.05002 27.11 3.25002 27.32 3.73002 27.14C3.73002 27.14 3.25002 28.19 2.02002 28.1L2.05002 27.11Z" fill="#0880A5"/>
</g>
<defs>
<linearGradient id="paint0_linear_163_3520" x1="22.6388" y1="0.5284" x2="26.772" y2="31.4288" gradientUnits="userSpaceOnUse">
<stop offset="1.993e-05" stop-color="#BEE7E8"/>
<stop offset="1" stop-color="#5B9394"/>
</linearGradient>
<clipPath id="clip0_163_3520">
<rect width="53.86" height="36.67" fill="white"/>
</clipPath>
</defs>
</svg>
