<svg width="33" height="38" viewBox="0 0 33 38" fill="none" xmlns="http://www.w3.org/2000/svg">
<g clip-path="url(#clip0_201_2248)">
<path d="M12.0204 31.2585C12.0204 31.2585 12.6126 32.2479 13.0582 33.3879C13.5405 34.62 13.742 35.2745 13.7695 35.3851C13.7939 35.4958 13.7237 35.8399 13.6535 35.7354C13.5833 35.634 12.4416 32.0482 11.9624 31.3077L12.0204 31.2585Z" fill="#FFA422"/>
<path d="M11.9169 31.1663C11.9169 31.1663 12.503 32.1496 12.9456 33.2865C13.4217 34.5125 13.6201 35.1639 13.6476 35.2714C13.672 35.3821 13.5988 35.7231 13.5286 35.6187C13.4584 35.5173 12.3351 31.9529 11.8589 31.2155L11.9169 31.1663Z" fill="#DDD6CE"/>
<path d="M11.0924 31.6027C10.9551 31.9345 10.5888 33.7935 11.1077 36.436C11.1626 36.7218 11.2664 36.9891 11.3794 37.1489C11.4709 37.281 11.5808 37.3547 11.6693 37.1919C11.6693 37.1919 10.891 33.6798 11.1596 31.7594C11.1321 31.7194 11.1199 31.658 11.0924 31.6027Z" fill="#FFA422"/>
<path d="M11.1321 31.999C10.9581 32.5921 10.7078 34.0454 11.2725 36.5773C11.3336 36.857 11.4282 37.1181 11.5381 37.281C11.5839 37.2871 11.6266 37.2625 11.6663 37.1919C11.6694 37.1919 10.952 33.9563 11.1321 31.999Z" fill="#DDD6CE"/>
<path d="M11.3669 36.6603C11.4187 36.8938 11.4951 37.115 11.5836 37.2748C11.6141 37.2656 11.6416 37.2379 11.669 37.1888C11.669 37.1888 11.0769 34.5155 11.1043 32.5613C10.9761 33.3172 10.9151 34.6477 11.3669 36.6603Z" fill="#A8A3CB"/>
<path d="M11.1169 31.6457C11.1169 31.6457 11.0101 32.5183 11.1383 34.2636C11.2634 36.015 11.6267 37.3547 11.8159 37.4315C11.8373 37.4408 11.8587 37.4438 11.8739 37.4438C11.9441 37.4408 11.9533 37.2318 11.8984 37.0444C11.7213 36.4391 11.065 34.0086 11.2054 31.6764L11.1169 31.6457Z" fill="#DDD6CE"/>
<path d="M11.2115 34.1898C11.3703 35.8675 11.7182 37.1919 11.9166 37.4008C11.9441 37.3301 11.9411 37.1826 11.8983 37.0444C11.7274 36.4636 11.1199 34.2021 11.1932 31.9652C11.1474 32.3493 11.1077 33.0775 11.2115 34.1898Z" fill="#FFA422"/>
<path d="M11.1626 31.3691C11.1626 31.3691 11.0649 32.7672 11.3182 34.4141C11.48 35.4466 11.7059 36.5527 11.9043 37.0874C11.9959 37.3394 12.2157 37.3609 12.1699 37.1826C11.9806 36.4606 11.2572 33.4923 11.2419 31.4951L11.1626 31.3691Z" fill="#DDD6CE"/>
<path d="M11.2483 31.5842C11.2483 31.5842 11.1751 32.7826 11.4345 34.2913C11.6054 35.2899 11.8496 36.4022 12.0603 36.9707C12.161 37.2411 12.3808 37.2841 12.3289 37.0936C12.1183 36.3346 11.3643 33.4401 11.3216 31.6918L11.2483 31.5842Z" fill="#A8A3CB"/>
<path d="M11.4342 31.4951C11.4342 31.4951 12.1851 35.3606 12.7376 36.7679C12.7651 36.8355 12.7987 36.8969 12.7803 36.9307C12.7376 37.0198 12.6399 37.195 12.5667 37.0936C12.5239 37.029 12.0752 35.4558 11.7395 33.7136C11.596 32.97 11.4739 32.2264 11.4189 31.5105L11.4342 31.4951Z" fill="#DDD6CE"/>
<path d="M11.2847 31.5197C11.2847 31.5197 11.4129 34.4787 12.2431 36.8631C12.2431 36.8631 12.3713 37.2257 12.4476 36.8508C12.4476 36.8508 11.4342 33.3725 11.3793 31.5258L11.2847 31.5197Z" fill="#DDD6CE"/>
<path d="M11.3521 31.5596C11.3521 31.5596 11.4864 34.5309 12.3227 36.9276C12.3227 36.9276 12.454 37.2933 12.5303 36.9153C12.5303 36.9153 11.5077 33.4217 11.4497 31.5658L11.3521 31.5596Z" fill="#FFA422"/>
<path d="M11.4282 31.2616C11.4282 31.2616 11.6755 34.5033 12.4935 36.8231C12.4935 36.8231 12.6187 37.1734 12.6919 36.8078C12.6919 36.8078 11.59 33.1083 11.5228 31.2646L11.4282 31.2616Z" fill="#DDD6CE"/>
<path d="M11.4614 31.2186C11.4614 31.2186 11.7697 34.4971 12.5969 36.8232C12.5969 36.8232 12.7251 37.1734 12.7953 36.8078C12.7953 36.8078 11.6232 33.0653 11.5561 31.2216L11.4614 31.2186Z" fill="#FFA422"/>
<path d="M11.651 31.5197C11.6083 31.5351 11.6052 31.5596 11.5625 31.5135C11.6083 31.9161 11.9074 33.7259 12.2554 35.0533C12.4935 35.9597 12.7468 36.6572 12.8567 36.8754C12.8567 36.8754 12.9514 37.1274 13.0826 36.5313C13.0826 36.5313 12.0143 33.6829 11.651 31.5197Z" fill="#DDD6CE"/>
<path d="M11.7639 31.492C11.7243 31.5074 11.6785 31.4859 11.6357 31.4398C11.6846 31.8085 11.8464 32.6351 12.1089 33.7474C12.4233 35.0779 12.7194 36.1594 13.0032 36.7187C13.0032 36.7187 13.1009 36.9737 13.2169 36.3838C13.2169 36.3838 12.1394 33.5753 11.7639 31.492Z" fill="#A8A3CB"/>
<path d="M11.761 31.489C11.7549 31.492 11.7488 31.4951 11.7427 31.4982C11.8037 31.9191 11.9472 32.8102 12.1822 33.689C12.5333 34.9857 12.8019 36.0458 13.0827 36.6081C13.0827 36.6081 13.1041 36.6603 13.1346 36.6634C13.159 36.6019 13.1834 36.5159 13.2078 36.3838C13.2109 36.3838 12.1395 33.5692 11.761 31.489Z" fill="#DDD6CE"/>
<path d="M12.4933 34.0178C12.243 33.2404 12.0599 32.5245 11.9439 32.0236C11.8676 31.7624 11.8004 31.5197 11.7516 31.3046L11.6997 31.3138C11.6997 31.3138 11.9317 32.5798 12.4018 34.0639C13.0825 36.2086 13.1985 36.5558 13.3083 36.6204C13.345 36.6419 13.3694 36.6081 13.3877 36.5528C13.287 36.4698 13.1527 36.0673 12.4933 34.0178Z" fill="#FFA422"/>
<path d="M11.7856 31.28C11.7856 31.28 11.9596 32.4538 12.4297 33.9225C13.1074 36.0427 13.2966 36.5005 13.4034 36.565C13.5133 36.6296 13.5316 36.184 13.5316 36.184C13.5316 36.184 12.2038 32.8624 11.8314 31.2708L11.7856 31.28Z" fill="#DDD6CE"/>
<path d="M11.886 31.2001C11.886 31.2001 13.223 34.2882 13.7114 35.9997C13.7114 35.9997 13.6381 36.3715 13.5038 36.2947C13.5038 36.2947 12.5911 33.2343 11.8188 31.2554L11.886 31.2001Z" fill="#A8A3CB"/>
<path d="M11.7608 31.237L11.6753 31.1755C11.6753 31.1755 12.7253 35.0379 13.348 36.2885C13.348 36.2885 13.4182 36.1256 13.4396 35.8891C13.4396 35.8891 12.1301 32.3247 11.7608 31.237Z" fill="#FFA422"/>
<path d="M11.8768 31.1202L11.7944 31.0588C11.7944 31.0588 12.8078 34.7767 13.4275 36.0058C13.4275 36.0058 13.571 36.0488 13.5893 35.8122C13.5893 35.8153 12.2492 32.1957 11.8768 31.1202Z" fill="#DDD6CE"/>
<path d="M13.5619 36.0282C12.9545 34.9036 11.877 31.3639 11.8037 31.1119L11.7793 31.0935C11.7793 31.0935 12.3409 33.1245 12.8873 34.71C13.2475 35.7548 13.4551 36.1327 13.4551 36.1327C13.4978 36.1327 13.5619 36.0282 13.5619 36.0282Z" fill="#FFA422"/>
<path d="M10.8117 31.661C10.8117 31.661 11.3153 32.9239 11.6145 34.2697C11.9197 35.634 12.0174 36.3131 12.0265 36.4237C12.0357 36.5343 11.9075 36.8477 11.8525 36.7371C11.7976 36.6265 11.1566 32.6719 10.7354 31.7132L10.8117 31.661Z" fill="#FFA422"/>
<path d="M10.7047 31.5289C10.7047 31.5289 11.2084 32.7918 11.5075 34.1345C11.8128 35.4957 11.9104 36.1748 11.9166 36.2854C11.9257 36.396 11.7975 36.7095 11.7426 36.5988C11.6876 36.4882 11.0497 32.5367 10.6284 31.5781L10.7047 31.5289Z" fill="#DDD6CE"/>
<path d="M9.74651 31.9314C9.56336 32.3032 9.01087 34.2974 9.30085 36.9491C9.33138 37.2165 9.40158 37.4684 9.49621 37.6282C9.56947 37.7573 9.66409 37.8402 9.76177 37.7142C9.76177 37.7142 9.32832 34.2237 9.80451 32.1219C9.77398 32.0758 9.76788 32.0021 9.74651 31.9314Z" fill="#FFA422"/>
<path d="M9.74639 32.4046C9.50219 33.0529 9.11148 34.577 9.44725 37.1089C9.48082 37.367 9.54798 37.6159 9.6365 37.7726C9.67618 37.7849 9.71891 37.7726 9.7647 37.7173C9.76165 37.7173 9.36483 34.5248 9.74639 32.4046Z" fill="#DDD6CE"/>
<path d="M9.52677 37.198C9.55424 37.4162 9.60613 37.6221 9.67328 37.7757C9.70076 37.7726 9.73128 37.7542 9.76181 37.7173C9.76181 37.7173 9.43825 35.1178 9.65802 33.0468C9.4474 33.8549 9.26426 35.2192 9.52677 37.198Z" fill="#A8A3CB"/>
<path d="M9.76777 31.9867C9.76777 31.9867 9.56326 32.9792 9.52358 34.8689C9.48695 36.5927 9.70672 37.8525 9.87461 37.9508C9.89597 37.9631 9.91124 37.9693 9.9265 37.9693C9.9906 37.9785 10.0242 37.8003 9.9906 37.6251C9.88376 37.0567 9.47474 34.5954 9.85934 32.0359L9.76777 31.9867Z" fill="#DDD6CE"/>
<path d="M9.60306 34.8044C9.60001 36.4698 9.80452 37.7234 9.96935 37.9385C10.0029 37.8801 10.0121 37.7541 9.98767 37.6251C9.88389 37.0782 9.50844 34.8013 9.81063 32.3708C9.72516 32.8102 9.60611 33.6122 9.60306 34.8044Z" fill="#FFA422"/>
<path d="M9.84742 31.661C9.84742 31.661 9.59102 33.265 9.6887 35.0502C9.74669 36.0918 9.85658 37.155 9.99089 37.6651C10.0519 37.8986 10.2534 37.9539 10.229 37.7941C10.1252 37.1212 9.71922 34.0854 9.91763 31.8269L9.84742 31.661Z" fill="#DDD6CE"/>
<path d="M9.91444 31.9314C9.91444 31.9314 9.70687 33.2988 9.81676 34.9457C9.88391 35.9628 10.006 37.0444 10.1464 37.5883C10.2105 37.8402 10.412 37.917 10.3845 37.7419C10.2685 37.029 9.83202 34.0454 9.97854 32.0728L9.91444 31.9314Z" fill="#A8A3CB"/>
<path d="M10.1282 31.8546C10.1282 31.8546 10.4457 36.1256 10.815 37.5268C10.8333 37.5913 10.8547 37.6528 10.8364 37.6804C10.7845 37.7511 10.6685 37.8894 10.6135 37.788C10.58 37.7265 10.3266 36.2055 10.1923 34.4018C10.1313 33.5784 10.0885 32.7242 10.1129 31.8761L10.1282 31.8546Z" fill="#DDD6CE"/>
<path d="M9.96309 31.8638C9.96309 31.8638 9.77689 35.1362 10.3324 37.5298C10.3324 37.5298 10.4149 37.8709 10.5278 37.5544C10.5278 37.5544 9.91425 33.9901 10.0669 31.8884L9.96309 31.8638Z" fill="#DDD6CE"/>
<path d="M10.0333 31.9191C10.0333 31.9191 9.84406 35.1977 10.4027 37.5944C10.4027 37.5944 10.4851 37.9355 10.6011 37.619C10.6011 37.619 9.98448 34.0485 10.1402 31.9437L10.0333 31.9191Z" fill="#FFA422"/>
<path d="M10.1526 31.5719C10.1526 31.5719 10.0366 35.2007 10.5768 37.5329C10.5768 37.5329 10.6562 37.8617 10.7661 37.5544C10.7661 37.5544 10.1068 33.7289 10.2563 31.5903L10.1526 31.5719Z" fill="#DDD6CE"/>
<path d="M10.1954 31.5227C10.1954 31.5227 10.1344 35.2069 10.6777 37.5483C10.6777 37.5483 10.7571 37.8801 10.87 37.5698C10.87 37.5698 10.1496 33.6828 10.3022 31.5412L10.1954 31.5227Z" fill="#FFA422"/>
<path d="M10.3662 31.916C10.3174 31.9283 10.3113 31.956 10.2686 31.8945C10.2686 32.38 10.3632 34.4356 10.5555 35.8399C10.6776 36.7463 10.8363 37.4254 10.9157 37.6405C10.9157 37.6405 10.9737 37.8801 11.1782 37.3701C11.1782 37.3701 10.4792 34.4111 10.3662 31.916Z" fill="#DDD6CE"/>
<path d="M10.4912 31.9038C10.4455 31.913 10.3997 31.8823 10.3569 31.8208C10.363 32.2694 10.4332 33.2435 10.5676 34.494C10.7202 35.8952 10.8728 36.9706 11.0743 37.5268C11.0743 37.5268 11.1323 37.7695 11.3276 37.2625C11.3276 37.2595 10.6225 34.3158 10.4912 31.9038Z" fill="#A8A3CB"/>
<path d="M10.4911 31.8976C10.485 31.9007 10.4758 31.9038 10.4697 31.9038C10.4819 32.4108 10.5186 33.4524 10.6529 34.4418C10.8421 35.8214 10.9703 36.8785 11.1687 37.4408C11.1687 37.4408 11.1809 37.493 11.2115 37.4991C11.242 37.4469 11.2786 37.3732 11.3214 37.2595C11.3214 37.2595 10.6223 34.3097 10.4911 31.8976Z" fill="#DDD6CE"/>
<path d="M10.931 34.8382C10.7753 33.9717 10.6807 33.1513 10.6197 32.5582C10.5708 32.2418 10.5311 31.9406 10.5067 31.6733L10.4487 31.6764C10.4487 31.6764 10.5342 33.1912 10.8333 34.8689C11.2241 37.072 11.2912 37.4131 11.3889 37.4899C11.4194 37.5145 11.4499 37.4899 11.4774 37.4438C11.3858 37.3516 11.3095 36.9583 10.931 34.8382Z" fill="#FFA422"/>
<path d="M10.5464 31.6487C10.5464 31.6487 10.58 33.053 10.8791 34.7276C11.2698 36.9276 11.3919 37.3793 11.4865 37.4561C11.5812 37.5329 11.6697 37.1335 11.6697 37.1335C11.6697 37.1335 10.7906 33.5569 10.6044 31.6457L10.5464 31.6487Z" fill="#DDD6CE"/>
<path d="M10.6684 31.5688C10.6684 31.5688 11.6451 35.2407 11.871 36.9952C11.871 36.9952 11.7398 37.324 11.6207 37.2318C11.6207 37.2318 11.1415 34.027 10.5859 31.6272L10.6684 31.5688Z" fill="#A8A3CB"/>
<path d="M10.5249 31.5934L10.4395 31.5043C10.4395 31.5043 11.0286 35.9044 11.4712 37.1949C11.4712 37.1949 11.5628 37.0567 11.6177 36.8416C11.6177 36.8416 10.7813 32.9362 10.5249 31.5934Z" fill="#FFA422"/>
<path d="M10.6685 31.4674L10.583 31.3783C10.583 31.3783 11.1447 35.6617 11.5873 36.9491C11.5873 36.9491 11.7216 37.0137 11.7765 36.7986C11.7796 36.7986 10.9249 32.8071 10.6685 31.4674Z" fill="#DDD6CE"/>
<path d="M11.7184 36.9931C11.2758 35.8132 10.6348 31.7634 10.5859 31.4438L10.5615 31.4162C10.5615 31.4162 10.8912 33.862 11.2331 35.6043C11.4437 36.6766 11.5932 37.0669 11.5932 37.0669C11.6421 37.0791 11.7184 36.9931 11.7184 36.9931Z" fill="#FFA422"/>
<path d="M9.49294 31.4644C9.49294 31.4644 9.92944 32.7641 10.1401 34.0946C10.3415 35.3667 10.3873 35.9812 10.3873 36.0826C10.3873 36.184 10.253 36.4974 10.2103 36.4083C10.1675 36.3192 9.78902 32.5183 9.41357 31.532L9.49294 31.4644Z" fill="#FFA422"/>
<path d="M9.38942 31.3292C9.38942 31.3292 9.83203 32.6381 10.0457 33.9778C10.2502 35.2561 10.2991 35.8767 10.2991 35.9781C10.2991 36.0795 10.1647 36.396 10.119 36.3069C10.0762 36.2178 9.68856 32.3923 9.31006 31.3968L9.38942 31.3292Z" fill="#DDD6CE"/>
<path d="M8.34531 31.9099C8.13164 32.3555 7.48147 34.617 7.73177 37.2103C7.75619 37.4561 7.82334 37.6743 7.91187 37.8003C7.98207 37.9017 8.07365 37.9508 8.17438 37.8095C8.17438 37.8095 7.82029 34.4787 8.3972 32.1189C8.36973 32.0666 8.36668 31.9867 8.34531 31.9099Z" fill="#FFA422"/>
<path d="M8.32971 32.4384C8.04278 33.1912 7.58492 34.8874 7.87795 37.324C7.90542 37.5606 7.96647 37.7726 8.04889 37.8955C8.08857 37.8955 8.13131 37.874 8.17709 37.8095C8.17404 37.8095 7.85353 34.7829 8.32971 32.4384Z" fill="#DDD6CE"/>
<path d="M7.95475 37.3885C7.97917 37.5852 8.02495 37.7634 8.086 37.8894C8.11347 37.8771 8.144 37.8556 8.17452 37.8125C8.17452 37.8125 7.91812 35.379 8.21115 33.1605C7.9639 34.0639 7.73497 35.5172 7.95475 37.3885Z" fill="#A8A3CB"/>
<path d="M8.36655 31.9683C8.36655 31.9683 8.11015 33.1021 8.01247 35.1055C7.927 36.8232 8.11625 37.9508 8.27803 37.9969C8.29635 38.0031 8.31466 38.0031 8.32992 38C8.39097 37.9908 8.43065 37.8218 8.40318 37.6681C8.31771 37.1642 7.96973 34.832 8.46423 32.0113L8.36655 31.9683Z" fill="#DDD6CE"/>
<path d="M8.10128 35.0226C8.04938 36.6757 8.22032 37.8064 8.376 37.9601C8.40957 37.8986 8.42484 37.7788 8.40652 37.6681C8.3241 37.1857 8.0036 35.041 8.40652 32.3923C8.29053 32.8901 8.14096 33.7781 8.10128 35.0226Z" fill="#FFA422"/>
<path d="M8.46744 31.5873C8.46744 31.5873 8.13778 33.4032 8.18356 35.253C8.21103 36.2762 8.28735 37.2625 8.40334 37.7019C8.45523 37.9017 8.64753 37.8986 8.62922 37.7603C8.55291 37.1642 8.24461 34.2544 8.53459 31.7655L8.46744 31.5873Z" fill="#DDD6CE"/>
<path d="M8.52864 31.8853C8.52864 31.8853 8.25697 33.4217 8.31802 35.1209C8.35465 36.1164 8.44012 37.1243 8.55916 37.5944C8.61411 37.8095 8.80336 37.8248 8.78505 37.6743C8.69958 37.0444 8.36686 34.1929 8.59579 32.0359L8.52864 31.8853Z" fill="#A8A3CB"/>
<path d="M8.76342 31.7686C8.76342 31.7686 8.90994 36.1471 9.20297 37.3701C9.21518 37.4254 9.23655 37.4745 9.21518 37.5053C9.16329 37.5821 9.0473 37.7357 8.99846 37.6558C8.96793 37.6067 8.78479 36.2516 8.72069 34.491C8.69016 33.649 8.67795 32.7365 8.74205 31.7931L8.76342 31.7686Z" fill="#DDD6CE"/>
<path d="M8.58352 31.8024C8.58352 31.8024 8.27217 35.3206 8.74225 37.493C8.74225 37.493 8.8094 37.7849 8.9315 37.4653C8.9315 37.4653 8.45532 34.1192 8.69646 31.8147L8.58352 31.8024Z" fill="#DDD6CE"/>
<path d="M8.65666 31.8546C8.65666 31.8546 8.3392 35.3667 8.80623 37.536C8.80623 37.536 8.87033 37.8249 8.99548 37.5114C8.99548 37.5114 8.5254 34.1684 8.7696 31.87L8.65666 31.8546Z" fill="#FFA422"/>
<path d="M8.80021 31.4459C8.80021 31.4459 8.53465 35.3298 8.9742 37.4346C8.9742 37.4346 9.03525 37.7142 9.15429 37.407C9.15429 37.407 8.66285 33.8088 8.9101 31.4551L8.80021 31.4459Z" fill="#DDD6CE"/>
<path d="M8.84575 31.3875C8.84575 31.3875 8.63208 35.3206 9.06858 37.4285C9.06858 37.4285 9.12962 37.7081 9.24867 37.4008C9.24867 37.4008 8.70534 33.7597 8.95869 31.3968L8.84575 31.3875Z" fill="#FFA422"/>
<path d="M9.01098 31.8085C8.95909 31.827 8.95298 31.8608 8.9072 31.7962C8.88278 32.334 8.89499 34.4941 9.02319 35.8491C9.10255 36.6818 9.22465 37.2718 9.28875 37.45C9.28875 37.45 9.33149 37.6528 9.54821 37.1427C9.55126 37.1427 9.01403 34.4449 9.01098 31.8085Z" fill="#DDD6CE"/>
<path d="M9.1453 31.7747C9.09646 31.7932 9.04763 31.7624 9.00794 31.701C8.99268 32.1988 9.02015 33.2404 9.09952 34.5125C9.18499 35.8645 9.28266 36.8478 9.44444 37.3056C9.44444 37.3056 9.48718 37.5115 9.69475 37.0045C9.69475 37.0075 9.16362 34.322 9.1453 31.7747Z" fill="#A8A3CB"/>
<path d="M9.14498 31.7686C9.13582 31.7747 9.12972 31.7778 9.12361 31.7808C9.1114 32.3401 9.09919 33.4493 9.19076 34.4479C9.30981 35.7723 9.38307 36.7402 9.5418 37.2103C9.5418 37.2103 9.55095 37.2533 9.57842 37.2533C9.60895 37.2011 9.64558 37.1243 9.69137 37.0106C9.68831 37.0075 9.16329 34.3158 9.14498 31.7686Z" fill="#DDD6CE"/>
<path d="M9.44441 34.789C9.33452 33.944 9.27958 33.1021 9.24905 32.4784C9.21548 32.1404 9.188 31.8147 9.17579 31.5197L9.11475 31.532C9.11475 31.532 9.13001 33.1759 9.34978 34.8443C9.61229 36.8662 9.65808 37.1581 9.74355 37.2042C9.77102 37.2195 9.79849 37.1888 9.82596 37.1427C9.74355 37.0751 9.69471 36.734 9.44441 34.789Z" fill="#FFA422"/>
<path d="M9.21526 31.4828C9.21526 31.4828 9.18168 33.013 9.3984 34.6876C9.66092 36.7125 9.74944 37.0966 9.83185 37.1458C9.91427 37.1919 10.0181 36.8109 10.0181 36.8109C10.0181 36.8109 9.36788 33.5077 9.27631 31.4736L9.21526 31.4828Z" fill="#DDD6CE"/>
<path d="M9.34975 31.3783C9.34975 31.3783 10.1098 35.044 10.2105 36.6388C10.2105 36.6388 10.0732 36.9676 9.9694 36.9122C9.9694 36.9122 9.69773 33.9348 9.26123 31.4551L9.34975 31.3783Z" fill="#A8A3CB"/>
<path d="M9.19387 31.4244L9.1084 31.3353C9.1084 31.3353 9.48385 35.8091 9.83183 36.9153C9.83183 36.9153 9.92646 36.7678 9.9875 36.5589C9.9875 36.5558 9.39228 32.8594 9.19387 31.4244Z" fill="#FFA422"/>
<path d="M9.35256 31.2646L9.26709 31.1755C9.26709 31.1755 9.60591 35.5541 9.95084 36.6634C9.95084 36.6634 10.0729 36.691 10.134 36.4821C10.137 36.479 9.54791 32.6996 9.35256 31.2646Z" fill="#DDD6CE"/>
<path d="M10.0699 36.6726C9.72496 35.6678 9.30372 31.5996 9.2671 31.2493L9.24268 31.2216C9.24268 31.2216 9.45329 33.8088 9.69444 35.4804C9.83485 36.4483 9.95084 36.7709 9.95084 36.7709C9.99358 36.7678 10.0699 36.6726 10.0699 36.6726Z" fill="#FFA422"/>
<path d="M8.01564 31.8792C8.01564 31.8792 8.35141 33.2158 8.4613 34.5739C8.57119 35.9106 8.57119 36.5558 8.56203 36.6603C8.55287 36.7648 8.38804 37.0382 8.34836 36.9307C8.31173 36.8231 8.22626 32.9454 7.93018 31.9283L8.01564 31.8792Z" fill="#FFA422"/>
<path d="M7.92385 31.7317C7.92385 31.7317 8.25961 33.0714 8.3695 34.4326C8.47939 35.7723 8.48244 36.4175 8.47329 36.522C8.46413 36.6265 8.2993 36.9 8.25961 36.7924C8.21993 36.6849 8.13447 32.801 7.83838 31.7809L7.92385 31.7317Z" fill="#DDD6CE"/>
<path d="M6.88305 32.0389C6.64801 32.3954 5.85742 34.3097 5.84521 36.8354C5.84521 37.0812 5.88795 37.3178 5.95816 37.4715C6.01615 37.5974 6.09552 37.6804 6.2054 37.579C6.2054 37.579 6.18098 34.2728 6.91968 32.2387C6.89526 32.1895 6.89831 32.1127 6.88305 32.0389Z" fill="#FFA422"/>
<path d="M6.82504 32.5183C6.49538 33.1421 5.92762 34.5893 5.96731 36.9952C5.97036 37.2349 6.00699 37.4653 6.07414 37.6159C6.11077 37.6313 6.15351 37.6251 6.20235 37.579C6.20235 37.5821 6.18098 34.5678 6.82504 32.5183Z" fill="#DDD6CE"/>
<path d="M6.03462 37.0874C6.03767 37.2871 6.06514 37.4776 6.11093 37.6251C6.1384 37.6251 6.16893 37.6128 6.2025 37.5821C6.2025 37.5821 6.18724 35.1455 6.65427 33.1513C6.34597 33.9256 6.0041 35.2223 6.03462 37.0874Z" fill="#A8A3CB"/>
<path d="M6.89814 32.0974C6.89814 32.0974 6.56543 33.0775 6.29681 34.9181C6.06177 36.5312 6.13198 37.6989 6.2846 37.8064C6.30292 37.8187 6.31818 37.8279 6.33344 37.831C6.39449 37.8464 6.44638 37.6897 6.43417 37.5299C6.39754 37.0014 6.2846 34.6508 6.98972 32.1619L6.89814 32.0974Z" fill="#DDD6CE"/>
<path d="M6.38579 34.8658C6.18738 36.4329 6.24233 37.5944 6.37663 37.8064C6.41326 37.7603 6.44073 37.6466 6.43158 37.5268C6.39495 37.0198 6.29116 34.8535 6.89555 32.4937C6.75208 32.9239 6.53231 33.7074 6.38579 34.8658Z" fill="#FFA422"/>
<path d="M7.02335 31.7716C7.02335 31.7716 6.56243 33.3602 6.44338 35.1086C6.37623 36.098 6.36096 37.0843 6.43117 37.5637C6.46169 37.7818 6.64789 37.8525 6.64484 37.705C6.62653 37.0843 6.5899 34.1837 7.07524 31.9499L7.02335 31.7716Z" fill="#DDD6CE"/>
<path d="M7.05679 32.0574C7.05679 32.0574 6.67218 33.4094 6.58061 35.0225C6.52566 35.9904 6.51651 37.0013 6.58976 37.5114C6.62334 37.748 6.80649 37.8371 6.80038 37.6773C6.77291 37.0167 6.70576 34.1591 7.10563 32.211L7.05679 32.0574Z" fill="#A8A3CB"/>
<path d="M7.28577 32.0021C7.28577 32.0021 7.05378 36.2055 7.23693 37.5268C7.24608 37.5882 7.26135 37.6435 7.23693 37.6681C7.17893 37.7265 7.05073 37.8371 7.01104 37.7388C6.98662 37.6773 6.92863 36.2639 7.01715 34.5401C7.05988 33.732 7.12704 32.8778 7.2644 32.0205L7.28577 32.0021Z" fill="#DDD6CE"/>
<path d="M7.11511 31.9929C7.11511 31.9929 6.51988 35.1977 6.77323 37.4776C6.77323 37.4776 6.80986 37.7941 6.95943 37.5206C6.95943 37.5206 6.7946 34.1099 7.21889 32.0297L7.11511 31.9929Z" fill="#DDD6CE"/>
<path d="M7.17906 32.0574C7.17906 32.0574 6.57773 35.2653 6.83414 37.5452C6.83414 37.5452 6.87077 37.8617 7.02034 37.5913C7.02034 37.5913 6.85856 34.1775 7.2859 32.0973L7.17906 32.0574Z" fill="#FFA422"/>
<path d="M7.3471 31.7163C7.3471 31.7163 6.76408 35.2929 7.00522 37.5114C7.00522 37.5114 7.04185 37.8156 7.18532 37.5514C7.18532 37.5514 7.01743 33.8795 7.45088 31.747L7.3471 31.7163Z" fill="#DDD6CE"/>
<path d="M7.39886 31.6702C7.39886 31.6702 6.86163 35.3083 7.10278 37.536C7.10278 37.536 7.13941 37.8433 7.28592 37.5759C7.28592 37.5759 7.0692 33.8396 7.5057 31.701L7.39886 31.6702Z" fill="#FFA422"/>
<path d="M7.52081 32.0912C7.46892 32.0973 7.45976 32.125 7.42314 32.0574C7.35598 32.549 7.18504 34.5923 7.1942 35.9505C7.20031 36.8047 7.27051 37.4407 7.31935 37.6435C7.31935 37.6435 7.34377 37.8648 7.60628 37.4284C7.60628 37.4284 7.30409 34.5831 7.52081 32.0912Z" fill="#DDD6CE"/>
<path d="M7.65243 32.0912C7.60359 32.0973 7.56085 32.0574 7.52423 31.9929C7.46928 32.4507 7.41129 33.434 7.38076 34.6722C7.35024 36.0181 7.36245 37.0321 7.4876 37.5575C7.4876 37.5575 7.51507 37.7818 7.76537 37.3455C7.76842 37.3455 7.46012 34.5063 7.65243 32.0912Z" fill="#A8A3CB"/>
<path d="M7.65221 32.085C7.64305 32.0881 7.63695 32.0881 7.63084 32.0912C7.57284 32.6074 7.47211 33.6521 7.47517 34.6323C7.48127 35.9658 7.47211 36.9583 7.59116 37.4899C7.59116 37.4899 7.59726 37.536 7.62474 37.5483C7.66136 37.5053 7.7041 37.4407 7.7621 37.3424C7.7621 37.3455 7.4599 34.5002 7.65221 32.085Z" fill="#DDD6CE"/>
<path d="M7.69792 35.0441C7.66129 34.1898 7.6735 33.3725 7.69487 32.7733C7.68876 32.4476 7.68876 32.1373 7.70097 31.8607L7.64298 31.8577C7.64298 31.8577 7.52393 33.3971 7.60024 35.0656C7.69487 37.1673 7.71623 37.4838 7.79865 37.5637C7.82612 37.5882 7.85665 37.5698 7.89022 37.5329C7.81086 37.4346 7.78949 37.069 7.69792 35.0441Z" fill="#FFA422"/>
<path d="M7.74362 31.8392C7.74362 31.8392 7.58794 33.265 7.6612 34.9365C7.75583 37.0413 7.81383 37.4653 7.89624 37.5452C7.97866 37.6251 8.11602 37.2718 8.11602 37.2718C8.11602 37.2718 7.72836 33.7842 7.80467 31.8423L7.74362 31.8392Z" fill="#DDD6CE"/>
<path d="M7.88125 31.7686C7.88125 31.7686 8.35132 35.508 8.32996 37.1642C8.32996 37.1642 8.15902 37.45 8.05524 37.3516C8.05524 37.3516 8.02166 34.282 7.78662 31.8177L7.88125 31.7686Z" fill="#A8A3CB"/>
<path d="M7.72865 31.7778L7.65234 31.6764C7.65234 31.6764 7.65234 36.0642 7.91485 37.3025C7.91485 37.3025 8.02169 37.1857 8.10716 36.9952C8.10411 36.9983 7.80497 33.1697 7.72865 31.7778Z" fill="#FFA422"/>
<path d="M7.89349 31.6641L7.81717 31.5627C7.81717 31.5627 7.79886 35.8522 8.05832 37.0935C8.05832 37.0935 8.18042 37.1673 8.26283 36.9768C8.26589 36.9768 7.9698 33.056 7.89349 31.6641Z" fill="#DDD6CE"/>
<path d="M8.18039 37.1467C7.90567 36.0068 7.81715 31.9662 7.81104 31.6313L7.78662 31.6005C7.78662 31.6005 7.78662 34.0956 7.8904 35.807C7.95145 36.8272 8.04608 37.202 8.04608 37.202C8.09492 37.2174 8.18039 37.1467 8.18039 37.1467Z" fill="#FFA422"/>
<path d="M6.44338 32.0175C6.44338 32.0175 6.72115 33.4032 6.76999 34.7952C6.81883 36.1656 6.79136 36.8232 6.77915 36.9276C6.76694 37.0321 6.58379 37.2964 6.55327 37.1827C6.51969 37.069 6.60821 33.1206 6.35791 32.0605L6.44338 32.0175Z" fill="#FFA422"/>
<path d="M6.35805 31.8608C6.35805 31.8608 6.63582 33.2496 6.68771 34.6416C6.73655 36.0151 6.71213 36.6726 6.69687 36.7771C6.68466 36.8816 6.50152 37.1458 6.46794 37.0321C6.43436 36.9184 6.52288 32.9608 6.26953 31.9007L6.35805 31.8608Z" fill="#DDD6CE"/>
<path d="M5.29883 32.0881C5.04853 32.4292 4.16942 34.3005 4.04122 36.86C4.02901 37.1089 4.05953 37.3547 4.12363 37.5176C4.17553 37.6497 4.25184 37.7419 4.36478 37.6497C4.36478 37.6497 4.49298 34.2943 5.32325 32.2971C5.30493 32.2387 5.31104 32.1619 5.29883 32.0881Z" fill="#FFA422"/>
<path d="M5.21929 32.5675C4.86215 33.1728 4.22724 34.5893 4.16009 37.0321C4.15398 37.2748 4.1784 37.5114 4.23945 37.6743C4.27608 37.6927 4.31882 37.6897 4.37071 37.6497C4.36766 37.6466 4.48365 34.5893 5.21929 32.5675Z" fill="#DDD6CE"/>
<path d="M4.22137 37.1273C4.21526 37.3301 4.23358 37.5268 4.27326 37.6804C4.30073 37.6835 4.33125 37.6743 4.36483 37.6436C4.36483 37.6436 4.45946 35.17 5.01805 33.1912C4.67618 33.9533 4.27631 35.2346 4.22137 37.1273Z" fill="#A8A3CB"/>
<path d="M5.31106 32.1465C5.31106 32.1465 4.93255 33.1113 4.58152 34.9519C4.27322 36.565 4.29154 37.7573 4.43806 37.8802C4.45637 37.8955 4.47163 37.9047 4.48384 37.9078C4.54489 37.9293 4.60289 37.7757 4.59678 37.6128C4.58457 37.072 4.57847 34.6784 5.39652 32.2172L5.31106 32.1465Z" fill="#DDD6CE"/>
<path d="M4.67329 34.9058C4.40468 36.4759 4.40773 37.662 4.52983 37.8894C4.56951 37.8433 4.60003 37.7327 4.59698 37.6128C4.58477 37.0966 4.57867 34.8874 5.28989 32.549C5.12811 32.9731 4.87475 33.7474 4.67329 34.9058Z" fill="#FFA422"/>
<path d="M5.45431 31.827C5.45431 31.827 4.92013 33.3971 4.72172 35.1578C4.60878 36.1533 4.54773 37.155 4.59657 37.6466C4.61794 37.871 4.80108 37.9601 4.80414 37.8126C4.81329 37.1827 4.91097 34.2329 5.49704 32.0113L5.45431 31.827Z" fill="#DDD6CE"/>
<path d="M5.47276 32.1189C5.47276 32.1189 5.02405 33.4555 4.85922 35.084C4.76154 36.0581 4.70659 37.0874 4.75543 37.6098C4.7768 37.8525 4.95995 37.9601 4.95995 37.7972C4.963 37.1243 5.0271 34.2175 5.51549 32.2786L5.47276 32.1189Z" fill="#A8A3CB"/>
<path d="M5.70464 32.082C5.70464 32.082 5.2834 36.3285 5.4055 37.6897C5.4116 37.7542 5.42381 37.8126 5.39939 37.831C5.33835 37.8863 5.20404 37.9846 5.16741 37.8802C5.14604 37.8156 5.14909 36.3746 5.32003 34.6323C5.39939 33.815 5.50623 32.9546 5.68327 32.0974L5.70464 32.082Z" fill="#DDD6CE"/>
<path d="M5.53364 32.0574C5.53364 32.0574 4.7919 35.2561 4.94452 37.5913C4.94452 37.5913 4.96894 37.917 5.12767 37.6528C5.12767 37.6528 5.11851 34.1745 5.63742 32.1004L5.53364 32.0574Z" fill="#DDD6CE"/>
<path d="M5.59819 32.1312C5.59819 32.1312 4.85034 35.3298 5.00297 37.6682C5.00297 37.6682 5.02738 37.9939 5.18916 37.7327C5.18916 37.7327 5.18001 34.2513 5.70198 32.1773L5.59819 32.1312Z" fill="#FFA422"/>
<path d="M5.78119 31.7962C5.78119 31.7962 5.03639 35.3728 5.1768 37.6466C5.1768 37.6466 5.19817 37.9601 5.3569 37.705C5.3569 37.705 5.35384 33.9594 5.88497 31.8362L5.78119 31.7962Z" fill="#DDD6CE"/>
<path d="M5.83301 31.7532C5.83301 31.7532 5.13094 35.3974 5.2683 37.6805C5.2683 37.6805 5.28967 37.9939 5.4484 37.7388C5.4484 37.7388 5.39956 33.9226 5.93374 31.7932L5.83301 31.7532Z" fill="#FFA422"/>
<path d="M5.93655 32.1926C5.88465 32.1957 5.8755 32.2233 5.84192 32.1496C5.7534 32.6443 5.48784 34.703 5.43594 36.0796C5.40237 36.9461 5.4451 37.6006 5.48478 37.8126C5.48478 37.8126 5.50005 38.04 5.78392 37.6221C5.78392 37.6221 5.60993 34.703 5.93655 32.1926Z" fill="#DDD6CE"/>
<path d="M6.07088 32.2049C6.02204 32.2049 5.97931 32.1649 5.94573 32.0943C5.86942 32.5521 5.76564 33.5477 5.68017 34.8013C5.5886 36.1656 5.55502 37.1949 5.65575 37.745C5.65575 37.745 5.67101 37.9754 5.94573 37.5575C5.94879 37.5544 5.76564 34.6385 6.07088 32.2049Z" fill="#A8A3CB"/>
<path d="M6.06822 32.1988C6.05906 32.2018 6.05296 32.2018 6.0438 32.2018C5.96139 32.7211 5.81182 33.772 5.77213 34.7675C5.71719 36.1226 5.6653 37.1304 5.75993 37.6835C5.75993 37.6835 5.76298 37.7327 5.7935 37.745C5.83013 37.705 5.87897 37.6436 5.94002 37.5483C5.94307 37.5514 5.76908 34.6323 6.06822 32.1988Z" fill="#DDD6CE"/>
<path d="M5.9826 35.2069C5.9826 34.3374 6.03144 33.5047 6.08028 32.8993C6.08944 32.5675 6.1047 32.2541 6.12607 31.9745L6.06807 31.9652C6.06807 31.9652 5.87882 33.517 5.88187 35.2192C5.88187 37.364 5.88798 37.6866 5.96734 37.7788C5.99176 37.8064 6.02534 37.7911 6.05891 37.7542C5.98871 37.6466 5.9826 37.2749 5.9826 35.2069Z" fill="#FFA422"/>
<path d="M6.17205 31.9529C6.17205 31.9529 5.94922 33.3879 5.94922 35.0902C5.94922 37.238 5.9889 37.6743 6.06826 37.7665C6.14763 37.8556 6.3033 37.5084 6.3033 37.5084C6.3033 37.5084 6.07132 33.9287 6.2331 31.9622L6.17205 31.9529Z" fill="#DDD6CE"/>
<path d="M6.3124 31.8946C6.3124 31.8946 6.61764 35.7354 6.52302 37.4223C6.52302 37.4223 6.33682 37.6989 6.23914 37.5883C6.23914 37.5883 6.34292 34.4633 6.21777 31.9407L6.3124 31.8946Z" fill="#A8A3CB"/>
<path d="M6.15964 31.8915L6.08944 31.784C6.08944 31.784 5.89103 36.2394 6.09859 37.5238C6.09859 37.5238 6.21153 37.4162 6.30311 37.2288C6.30311 37.2288 6.1749 33.3111 6.15964 31.8915Z" fill="#FFA422"/>
<path d="M6.33362 31.7901L6.26341 31.6795C6.26341 31.6795 6.05279 36.0335 6.25731 37.3209C6.25731 37.3209 6.37941 37.407 6.47098 37.2195C6.46793 37.2226 6.34583 33.2097 6.33362 31.7901Z" fill="#DDD6CE"/>
<path d="M6.37338 37.3895C6.15055 36.2034 6.24212 32.0891 6.25128 31.7511L6.22991 31.7173C6.22991 31.7173 6.11697 34.2492 6.14444 36.0007C6.16276 37.0454 6.23907 37.4356 6.23907 37.4356C6.28486 37.454 6.37338 37.3895 6.37338 37.3895Z" fill="#FFA422"/>
<path d="M4.74331 31.8239C4.74331 31.8239 4.97224 33.1974 4.97224 34.577C4.97224 35.9351 4.92035 36.5896 4.90509 36.6941C4.88677 36.7986 4.69447 37.0628 4.66699 36.9522C4.63647 36.8416 4.87151 32.9178 4.65479 31.87L4.74331 31.8239Z" fill="#FFA422"/>
<path d="M4.66433 31.6703C4.66433 31.6703 4.89631 33.0468 4.89631 34.4265C4.89631 35.7877 4.84442 36.4422 4.82916 36.5466C4.81084 36.6511 4.61854 36.9153 4.58802 36.8047C4.55749 36.6941 4.78948 32.7641 4.57275 31.7133L4.66433 31.6703Z" fill="#DDD6CE"/>
<path d="M3.58353 31.9099C3.31491 32.2541 2.35645 34.1253 2.13362 36.6695C2.11225 36.9184 2.13667 37.1611 2.19467 37.3209C2.24351 37.45 2.31676 37.5422 2.43581 37.4469C2.43581 37.4469 2.68611 34.11 3.60184 32.1158C3.58048 32.0605 3.58963 31.9837 3.58353 31.9099Z" fill="#FFA422"/>
<path d="M3.48267 32.3862C3.09807 32.9915 2.40211 34.408 2.24338 36.8385C2.22812 37.0812 2.24338 37.3148 2.29832 37.4745C2.33495 37.493 2.37769 37.4899 2.43263 37.4469C2.43263 37.4469 2.66157 34.408 3.48267 32.3862Z" fill="#DDD6CE"/>
<path d="M2.30441 36.9338C2.29221 37.1366 2.30136 37.3301 2.33799 37.4838C2.36546 37.4868 2.39599 37.4745 2.43262 37.4469C2.43262 37.4469 2.61882 34.9887 3.25678 33.013C2.88133 33.772 2.42957 35.0533 2.30441 36.9338Z" fill="#A8A3CB"/>
<path d="M3.59262 31.9683C3.59262 31.9683 3.17444 32.9331 2.75015 34.7675C2.37775 36.3745 2.35333 37.5606 2.4968 37.6774C2.51511 37.6927 2.53037 37.7019 2.54258 37.705C2.60363 37.7234 2.66773 37.5698 2.67078 37.41C2.67689 36.8754 2.75931 34.4971 3.67809 32.039L3.59262 31.9683Z" fill="#DDD6CE"/>
<path d="M2.84473 34.7214C2.51507 36.2854 2.47539 37.4623 2.59138 37.6866C2.63412 37.6405 2.66769 37.5299 2.67074 37.41C2.67685 36.8969 2.75316 34.703 3.55901 32.3677C3.37586 32.7918 3.08893 33.5661 2.84473 34.7214Z" fill="#FFA422"/>
<path d="M3.74826 31.6487C3.74826 31.6487 3.14998 33.2189 2.88442 34.9703C2.73485 35.9628 2.63717 36.9584 2.6677 37.4438C2.68296 37.6651 2.86611 37.7542 2.87221 37.6036C2.90273 36.9768 3.1103 34.0454 3.78489 31.83L3.74826 31.6487Z" fill="#DDD6CE"/>
<path d="M3.75756 31.9376C3.75756 31.9376 3.25695 33.2711 3.02802 34.8904C2.89066 35.8614 2.79909 36.8815 2.82961 37.4008C2.84487 37.6405 3.02192 37.7449 3.03107 37.5852C3.05855 36.9184 3.22948 34.027 3.79418 32.0943L3.75756 31.9376Z" fill="#A8A3CB"/>
<path d="M3.99573 31.9007C3.99573 31.9007 3.41271 36.1257 3.48902 37.4746C3.49207 37.536 3.50428 37.5944 3.47986 37.6159C3.41576 37.6712 3.2784 37.7726 3.24482 37.6681C3.22346 37.6067 3.28145 36.1717 3.51649 34.4387C3.62638 33.6276 3.76374 32.7703 3.97741 31.9161L3.99573 31.9007Z" fill="#DDD6CE"/>
<path d="M3.82184 31.8761C3.82184 31.8761 2.95189 35.0656 3.0221 37.3824C3.0221 37.3824 3.03431 37.705 3.2083 37.4408C3.2083 37.4408 3.32429 33.9871 3.92562 31.9191L3.82184 31.8761Z" fill="#DDD6CE"/>
<path d="M3.8826 31.9468C3.8826 31.9468 3.00655 35.1362 3.07676 37.4561C3.07676 37.4561 3.08897 37.7787 3.26296 37.5145C3.26296 37.5145 3.382 34.0577 3.98639 31.9898L3.8826 31.9468Z" fill="#FFA422"/>
<path d="M4.08109 31.6149C4.08109 31.6149 3.19588 35.1793 3.25692 37.4346C3.25692 37.4346 3.26913 37.745 3.43702 37.4899C3.43702 37.4899 3.57133 33.772 4.18487 31.6518L4.08109 31.6149Z" fill="#DDD6CE"/>
<path d="M4.13609 31.5719C4.13609 31.5719 3.29056 35.2039 3.34856 37.4684C3.34856 37.4684 3.35771 37.7818 3.5317 37.5237C3.5317 37.5237 3.62328 33.7351 4.24292 31.6088L4.13609 31.5719Z" fill="#FFA422"/>
<path d="M4.22442 32.0052C4.17253 32.0082 4.16032 32.0359 4.1298 31.9652C4.02296 32.4568 3.67804 34.5063 3.5773 35.8737C3.5132 36.7371 3.53152 37.3824 3.56204 37.5944C3.56204 37.5944 3.5712 37.8218 3.87034 37.3977C3.87034 37.4008 3.80013 34.5033 4.22442 32.0052Z" fill="#DDD6CE"/>
<path d="M4.35888 32.0144C4.30699 32.0174 4.26731 31.9744 4.23678 31.9068C4.14216 32.3647 4.00175 33.351 3.87049 34.5985C3.72702 35.9566 3.65682 36.9798 3.73923 37.5206C3.73923 37.5206 3.74839 37.7511 4.04143 37.3271C4.04143 37.3271 3.96206 34.4357 4.35888 32.0144Z" fill="#A8A3CB"/>
<path d="M4.35877 32.0082C4.34962 32.0113 4.34351 32.0113 4.33435 32.0113C4.23362 32.5275 4.04437 33.5753 3.96806 34.5647C3.86428 35.9106 3.7727 36.9123 3.84901 37.4623C3.84901 37.4623 3.85207 37.5114 3.87954 37.5237C3.91922 37.4838 3.97111 37.4223 4.03521 37.3271C4.03521 37.3271 3.96501 34.4326 4.35877 32.0082Z" fill="#DDD6CE"/>
<path d="M4.16038 34.998C4.1909 34.1345 4.27332 33.308 4.34352 32.7057C4.36489 32.377 4.38931 32.0635 4.42289 31.787L4.36184 31.7809C4.36184 31.7809 4.11459 33.3264 4.05354 35.0164C3.97723 37.1458 3.97113 37.4653 4.04744 37.5544C4.07186 37.5821 4.10543 37.5667 4.14206 37.5299C4.07796 37.4223 4.08712 37.0505 4.16038 34.998Z" fill="#FFA422"/>
<path d="M4.47174 31.7655C4.47174 31.7655 4.19397 33.1943 4.13292 34.8843C4.05356 37.0167 4.07798 37.45 4.15429 37.5391C4.2306 37.6282 4.40154 37.2779 4.40154 37.2779C4.40154 37.2779 4.29775 33.7259 4.53279 31.7716L4.47174 31.7655Z" fill="#DDD6CE"/>
<path d="M4.61835 31.704C4.61835 31.704 4.78929 35.5142 4.63056 37.1888C4.63056 37.1888 4.43215 37.4653 4.33447 37.3578C4.33447 37.3578 4.5512 34.2544 4.52067 31.7501L4.61835 31.704Z" fill="#A8A3CB"/>
<path d="M4.45935 31.704L4.39219 31.5965C4.39219 31.5965 4.02895 36.0242 4.19378 37.2963C4.19378 37.2963 4.31283 37.1888 4.41356 37.0014C4.41356 37.0014 4.42272 33.1113 4.45935 31.704Z" fill="#FFA422"/>
<path d="M4.63979 31.5996L4.57264 31.492C4.57264 31.492 4.20024 35.8184 4.36202 37.0936C4.36202 37.0936 4.48106 37.1765 4.58179 36.9891C4.57874 36.9891 4.60011 33.0099 4.63979 31.5996Z" fill="#DDD6CE"/>
<path d="M4.47791 37.159C4.29477 35.9852 4.53896 31.8985 4.56033 31.5605L4.53896 31.5267C4.53896 31.5267 4.33139 34.0433 4.29782 35.7793C4.27645 36.8179 4.34055 37.202 4.34055 37.202C4.38329 37.2235 4.47791 37.159 4.47791 37.159Z" fill="#FFA422"/>
<path d="M2.91521 31.5904C2.91521 31.5904 3.00068 33.0868 2.86943 34.5156C2.73817 35.9259 2.62828 36.5835 2.60081 36.6849C2.57334 36.7863 2.36882 36.986 2.35051 36.857C2.3322 36.731 2.93048 32.758 2.82669 31.6027L2.91521 31.5904Z" fill="#FFA422"/>
<path d="M2.85406 31.4029C2.85406 31.4029 2.93953 32.9024 2.80827 34.3312C2.68007 35.7416 2.56713 36.4022 2.54271 36.5036C2.51829 36.605 2.31072 36.8047 2.29241 36.6787C2.27409 36.5528 2.86932 32.5767 2.76554 31.4183L2.85406 31.4029Z" fill="#DDD6CE"/>
<path d="M1.81922 31.2708C1.5384 31.5289 0.479197 33.0898 0.0335396 35.5941C-0.00919469 35.8399 -0.0122471 36.0949 0.0243822 36.2793C0.0549067 36.4298 0.115956 36.5527 0.231949 36.5005C0.231949 36.5005 0.781389 33.1943 1.81617 31.4859C1.80396 31.4244 1.81922 31.3476 1.81922 31.2708Z" fill="#FFA422"/>
<path d="M1.68175 31.7225C1.26967 32.2049 0.494352 33.3971 0.118901 35.8061C0.082272 36.0458 0.0731147 36.2916 0.109744 36.4759C0.140268 36.5097 0.183003 36.522 0.234894 36.5005C0.231842 36.5005 0.735496 33.4862 1.68175 31.7225Z" fill="#DDD6CE"/>
<path d="M0.164553 35.929C0.134029 36.1318 0.124871 36.3315 0.143186 36.5005C0.167606 36.5128 0.19813 36.5159 0.234759 36.5005C0.234759 36.5005 0.640735 34.0639 1.41606 32.2817C0.994819 32.9208 0.457588 34.0608 0.164553 35.929Z" fill="#A8A3CB"/>
<path d="M1.82531 31.3322C1.82531 31.3322 1.34608 32.168 0.781377 33.8857C0.28688 35.3851 0.152573 36.5835 0.271618 36.7586C0.28688 36.7801 0.29909 36.7955 0.3113 36.8047C0.363192 36.8477 0.439503 36.7156 0.454765 36.5497C0.512761 36.0058 0.814954 33.6091 1.89857 31.4306L1.82531 31.3322Z" fill="#DDD6CE"/>
<path d="M0.872769 33.8734C0.421007 35.3452 0.271437 36.5312 0.356905 36.8047C0.39964 36.774 0.442374 36.6726 0.454584 36.5527C0.509528 36.0304 0.790353 33.8211 1.75493 31.7317C1.54431 32.0973 1.20549 32.7856 0.872769 33.8734Z" fill="#FFA422"/>
<path d="M1.99646 31.0619C1.99646 31.0619 1.29134 32.4508 0.879264 34.1408C0.647278 35.0964 0.461079 36.0766 0.442764 36.5866C0.433607 36.8171 0.592334 36.9799 0.613701 36.8294C0.702222 36.1995 1.1723 33.2835 2.01172 31.2616L1.99646 31.0619Z" fill="#DDD6CE"/>
<path d="M1.98118 31.3599C1.98118 31.3599 1.389 32.546 1.02576 34.1161C0.809036 35.0563 0.625889 36.0673 0.60147 36.6081C0.592313 36.86 0.744935 37.0352 0.766302 36.8723C0.854823 36.1994 1.28827 33.3049 1.99949 31.532L1.98118 31.3599Z" fill="#A8A3CB"/>
<path d="M2.20371 31.4029C2.20371 31.4029 1.2605 35.5173 1.19946 36.9338C1.1964 37.0014 1.20251 37.0628 1.17504 37.0751C1.11093 37.1058 0.973574 37.155 0.952207 37.0382C0.939997 36.9645 1.1323 35.5173 1.51386 33.8304C1.69395 33.0376 1.90457 32.2141 2.18234 31.4121L2.20371 31.4029Z" fill="#DDD6CE"/>
<path d="M2.04511 31.3199C2.04511 31.3199 0.937068 34.2636 0.778341 36.6603C0.778341 36.6603 0.760026 36.9952 0.943173 36.7924C0.943173 36.7924 1.38273 33.2988 2.13668 31.3998L2.04511 31.3199Z" fill="#DDD6CE"/>
<path d="M2.09418 31.4152C2.09418 31.4152 0.980037 34.3589 0.82131 36.7617C0.82131 36.7617 0.802995 37.0966 0.986142 36.8938C0.986142 36.8938 1.42569 33.3971 2.18575 31.4951L2.09418 31.4152Z" fill="#FFA422"/>
<path d="M2.31381 31.1417C2.31381 31.1417 1.15083 34.4695 0.989046 36.8047C0.989046 36.8047 0.967679 37.1273 1.15083 36.9307C1.15083 36.9307 1.63311 33.1666 2.40843 31.2155L2.31381 31.1417Z" fill="#DDD6CE"/>
<path d="M2.36593 31.1172C2.36593 31.1172 1.23347 34.5309 1.06864 36.8754C1.06864 36.8754 1.04727 37.2011 1.23042 37.0044C1.23042 37.0044 1.67607 33.1513 2.4575 31.194L2.36593 31.1172Z" fill="#FFA422"/>
<path d="M2.40852 31.5934C2.35968 31.5781 2.34441 31.6026 2.32305 31.5197C2.17653 31.9837 1.66067 33.9625 1.43479 35.3268C1.29132 36.1871 1.24553 36.86 1.25774 37.0905C1.25774 37.0905 1.24248 37.3271 1.56299 37.0106C1.56299 37.0106 1.77361 34.0024 2.40852 31.5934Z" fill="#DDD6CE"/>
<path d="M2.53364 31.6487C2.4848 31.6334 2.45123 31.578 2.42986 31.4951C2.29861 31.9314 2.07272 32.8932 1.83158 34.1253C1.56907 35.4681 1.40424 36.4913 1.42866 37.0812C1.42866 37.0812 1.4134 37.3209 1.7278 37.0014C1.7278 37.0014 1.93231 33.9932 2.53364 31.6487Z" fill="#A8A3CB"/>
<path d="M2.53361 31.6426C2.52446 31.6426 2.51835 31.6395 2.51225 31.6395C2.36878 32.1342 2.09101 33.139 1.92312 34.1284C1.69724 35.4742 1.51715 36.4698 1.53546 37.0659C1.53546 37.0659 1.53241 37.115 1.55683 37.1396C1.59651 37.115 1.65146 37.072 1.72166 36.9983C1.72166 36.9983 1.93533 33.9901 2.53361 31.6426Z" fill="#DDD6CE"/>
<path d="M2.06365 34.6446C2.17659 33.7658 2.32921 32.9454 2.45436 32.3524C2.50625 32.0205 2.56119 31.7102 2.61614 31.4367L2.56119 31.4091C2.56119 31.4091 2.18269 32.9085 1.96291 34.62C1.68514 36.7863 1.65157 37.1151 1.71567 37.2349C1.73703 37.2748 1.77061 37.2687 1.80724 37.2472C1.75535 37.112 1.79808 36.731 2.06365 34.6446Z" fill="#FFA422"/>
<path d="M2.66451 31.4306C2.66451 31.4306 2.26769 32.7979 2.04791 34.5125C1.77014 36.6818 1.75183 37.1396 1.81288 37.2595C1.87698 37.3824 2.06928 37.0874 2.06928 37.0874C2.06928 37.0874 2.31043 33.3817 2.71945 31.4582L2.66451 31.4306Z" fill="#DDD6CE"/>
<path d="M2.80536 31.4214C2.80536 31.4214 2.60084 35.4128 2.29255 37.0874C2.29255 37.0874 2.07888 37.2963 1.99951 37.1458C1.99951 37.1458 2.50317 34.0209 2.71073 31.4306L2.80536 31.4214Z" fill="#A8A3CB"/>
<path d="M2.65854 31.366L2.6036 31.2308C2.6036 31.2308 1.84048 35.6524 1.87101 37.029C1.87101 37.029 1.99311 36.9645 2.10605 36.8078C2.1091 36.8108 2.49066 32.801 2.65854 31.366Z" fill="#FFA422"/>
<path d="M2.83872 31.323L2.78377 31.1878C2.78377 31.1878 2.02066 35.505 2.05118 36.8846C2.05118 36.8846 2.15497 37.0167 2.26791 36.8631C2.26486 36.8631 2.66778 32.758 2.83872 31.323Z" fill="#DDD6CE"/>
<path d="M2.15493 36.9983C2.09388 35.7139 2.71353 31.5934 2.76542 31.2554L2.75016 31.2155C2.75016 31.2155 2.31671 33.7289 2.11525 35.508C1.9962 36.5712 2.02062 36.9952 2.02062 36.9952C2.0603 37.026 2.15493 36.9983 2.15493 36.9983Z" fill="#FFA422"/>
<path d="M31.2475 30.9973C31.2475 30.9973 31.8396 31.9868 32.2853 33.1267C32.7676 34.3589 32.969 35.0134 32.9965 35.124C33.0209 35.2346 32.9507 35.5787 32.8805 35.4743C32.8103 35.3729 31.6687 31.787 31.1895 31.0465L31.2475 30.9973Z" fill="#FFA422"/>
<path d="M31.141 30.9021C31.141 30.9021 31.7271 31.8853 32.1697 33.0222C32.6459 34.2482 32.8443 34.8996 32.8717 35.0072C32.8962 35.1178 32.8229 35.4589 32.7527 35.3544C32.6825 35.253 31.5592 31.6887 31.083 30.9512L31.141 30.9021Z" fill="#DDD6CE"/>
<path d="M30.3165 31.3415C30.1792 31.6733 29.8129 33.5323 30.3318 36.1748C30.3868 36.4606 30.4905 36.7279 30.6035 36.8877C30.6951 37.0198 30.8049 37.0936 30.8935 36.9307C30.8935 36.9307 30.1151 33.4186 30.3837 31.4982C30.3562 31.4583 30.344 31.3968 30.3165 31.3415Z" fill="#FFA422"/>
<path d="M30.3562 31.7379C30.1823 32.3309 29.932 33.7843 30.4967 36.3162C30.5577 36.5958 30.6523 36.857 30.7622 37.0198C30.808 37.026 30.8507 37.0014 30.8904 36.9307C30.8935 36.9276 30.1761 33.6952 30.3562 31.7379Z" fill="#DDD6CE"/>
<path d="M30.591 36.3991C30.6429 36.6327 30.7192 36.8539 30.8077 37.0137C30.8382 37.0045 30.8657 36.9768 30.8932 36.9276C30.8932 36.9276 30.301 34.2544 30.3285 32.3002C30.2003 33.0561 30.1392 34.3865 30.591 36.3991Z" fill="#A8A3CB"/>
<path d="M30.341 31.3845C30.341 31.3845 30.2342 32.2571 30.3624 34.0024C30.4876 35.7539 30.8508 37.0936 31.0401 37.1704C31.0614 37.1796 31.0828 37.1827 31.0981 37.1827C31.1683 37.1796 31.1774 36.9706 31.1225 36.7832C30.9454 36.1779 30.2892 33.7474 30.4296 31.4152L30.341 31.3845Z" fill="#DDD6CE"/>
<path d="M30.4356 33.9256C30.5944 35.6033 30.9424 36.9276 31.1408 37.1366C31.1682 37.0659 31.1652 36.9184 31.1224 36.7801C30.9515 36.1994 30.3441 33.9379 30.4173 31.701C30.3715 32.0881 30.3319 32.8133 30.4356 33.9256Z" fill="#FFA422"/>
<path d="M30.3867 31.1049C30.3867 31.1049 30.289 32.503 30.5424 34.1499C30.7041 35.1824 30.93 36.2885 31.1284 36.8232C31.22 37.0751 31.4398 37.0966 31.394 36.9184C31.2047 36.1963 30.4813 33.2281 30.466 31.2309L30.3867 31.1049Z" fill="#DDD6CE"/>
<path d="M30.4724 31.32C30.4724 31.32 30.3992 32.5183 30.6586 34.027C30.8296 35.0256 31.0738 36.138 31.2844 36.7064C31.3851 36.9768 31.6049 37.0198 31.553 36.8293C31.3424 36.0704 30.5884 33.1759 30.5457 31.4275L30.4724 31.32Z" fill="#A8A3CB"/>
<path d="M30.6583 31.2339C30.6583 31.2339 31.4092 35.0994 31.9617 36.5067C31.9892 36.5743 32.0228 36.6357 32.0045 36.6695C31.9617 36.7586 31.864 36.9338 31.7908 36.8324C31.7481 36.7678 31.2993 35.1946 30.9636 33.4524C30.8201 32.7088 30.698 31.9652 30.6431 31.2493L30.6583 31.2339Z" fill="#DDD6CE"/>
<path d="M30.5088 31.2585C30.5088 31.2585 30.637 34.2175 31.4673 36.6019C31.4673 36.6019 31.5955 36.9645 31.6718 36.5896C31.6718 36.5896 30.6584 33.1113 30.6034 31.2647L30.5088 31.2585Z" fill="#DDD6CE"/>
<path d="M30.5762 31.2954C30.5762 31.2954 30.7105 34.2667 31.5469 36.6634C31.5469 36.6634 31.6781 37.029 31.7544 36.6511C31.7544 36.6511 30.7318 33.1574 30.6739 31.3015L30.5762 31.2954Z" fill="#FFA422"/>
<path d="M30.6523 31.0004C30.6523 31.0004 30.8996 34.2421 31.7177 36.562C31.7177 36.562 31.8428 36.9123 31.9161 36.5466C31.9161 36.5466 30.8141 32.8471 30.747 31.0035L30.6523 31.0004Z" fill="#DDD6CE"/>
<path d="M30.6855 30.9543C30.6855 30.9543 30.9938 34.2329 31.8211 36.5589C31.8211 36.5589 31.9493 36.9092 32.0195 36.5435C32.0195 36.5435 30.8473 32.801 30.7802 30.9574L30.6855 30.9543Z" fill="#FFA422"/>
<path d="M30.8751 31.2554C30.8324 31.2708 30.8294 31.2954 30.7866 31.2493C30.8324 31.6518 31.1315 33.4616 31.4795 34.789C31.7176 35.6955 31.971 36.393 32.0809 36.6111C32.0809 36.6111 32.1755 36.8631 32.3067 36.267C32.3067 36.267 31.2384 33.4217 30.8751 31.2554Z" fill="#DDD6CE"/>
<path d="M30.9881 31.2309C30.9484 31.2462 30.9026 31.2247 30.8599 31.1786C30.9087 31.5473 31.0705 32.3739 31.333 33.4862C31.6474 34.8167 31.9435 35.8983 32.2274 36.4575C32.2274 36.4575 32.325 36.7125 32.441 36.1226C32.441 36.1195 31.3635 33.3111 30.9881 31.2309Z" fill="#A8A3CB"/>
<path d="M30.9851 31.2247C30.979 31.2278 30.9729 31.2308 30.9668 31.2339C31.0278 31.6549 31.1713 32.546 31.4064 33.4247C31.7574 34.7214 32.026 35.7815 32.3068 36.3438C32.3068 36.3438 32.3282 36.396 32.3587 36.3991C32.3831 36.3377 32.4076 36.2516 32.432 36.1195C32.432 36.1195 31.3636 33.308 30.9851 31.2247Z" fill="#DDD6CE"/>
<path d="M31.7175 33.7535C31.4672 32.9761 31.284 32.2602 31.168 31.7594C31.0917 31.4982 31.0246 31.2554 30.9757 31.0403L30.9238 31.0496C30.9238 31.0496 31.1558 32.3155 31.6259 33.7996C32.3066 35.9444 32.4256 36.2916 32.5325 36.3561C32.566 36.3776 32.5935 36.3438 32.6118 36.2885C32.5111 36.2086 32.3768 35.803 31.7175 33.7535Z" fill="#FFA422"/>
<path d="M31.0098 31.0158C31.0098 31.0158 31.1838 32.1895 31.6538 33.6583C32.3315 35.7785 32.5207 36.2363 32.6276 36.3008C32.7375 36.3653 32.7558 35.9198 32.7558 35.9198C32.7558 35.9198 31.428 32.5982 31.0556 31.0066L31.0098 31.0158Z" fill="#DDD6CE"/>
<path d="M31.1101 30.939C31.1101 30.939 32.4471 34.027 32.9355 35.7385C32.9355 35.7385 32.8622 36.1103 32.7279 36.0335C32.7279 36.0335 31.8152 32.9731 31.043 30.9943L31.1101 30.939Z" fill="#A8A3CB"/>
<path d="M30.9854 30.9758L30.8999 30.9144C30.8999 30.9144 31.9499 34.7767 32.5726 36.0273C32.5726 36.0273 32.6428 35.8645 32.6642 35.6279C32.6642 35.6248 31.3547 32.0636 30.9854 30.9758Z" fill="#FFA422"/>
<path d="M31.101 30.8591L31.0186 30.7976C31.0186 30.7976 32.032 34.5156 32.6516 35.7446C32.6516 35.7446 32.7951 35.7877 32.8134 35.5511C32.8134 35.5511 31.4734 31.9345 31.101 30.8591Z" fill="#DDD6CE"/>
<path d="M32.786 35.7639C32.1786 34.6393 31.1011 31.0995 31.0278 30.8476L31.0034 30.8291C31.0034 30.8291 31.5651 32.8602 32.1115 34.4457C32.4716 35.4873 32.6792 35.8683 32.6792 35.8683C32.7219 35.8714 32.786 35.7639 32.786 35.7639Z" fill="#FFA422"/>
<path d="M30.0358 31.3968C30.0358 31.3968 30.5394 32.6597 30.8386 34.0055C31.1438 35.3698 31.2415 36.0489 31.2507 36.1595C31.2598 36.2701 31.1316 36.5835 31.0767 36.4729C31.0217 36.3623 30.3807 32.4077 29.9595 31.449L30.0358 31.3968Z" fill="#FFA422"/>
<path d="M29.9289 31.2677C29.9289 31.2677 30.4325 32.5306 30.7316 33.8734C31.0369 35.2346 31.1346 35.9136 31.1407 36.0243C31.1468 36.1349 31.0216 36.4483 30.9667 36.3377C30.9117 36.2271 30.2738 32.2756 29.8525 31.3169L29.9289 31.2677Z" fill="#DDD6CE"/>
<path d="M28.9706 31.6703C28.7875 32.0421 28.235 34.0362 28.525 36.688C28.5555 36.9553 28.6257 37.2072 28.7203 37.367C28.7936 37.4961 28.8882 37.579 28.9859 37.4531C28.9859 37.4531 28.5524 33.9625 29.0286 31.8608C28.9981 31.8147 28.992 31.7409 28.9706 31.6703Z" fill="#FFA422"/>
<path d="M28.9705 32.1404C28.7263 32.7887 28.3356 34.3128 28.6714 36.8447C28.7049 37.1059 28.7721 37.3517 28.8606 37.5084C28.9003 37.5207 28.943 37.5084 28.9888 37.45C28.9858 37.4531 28.589 34.2636 28.9705 32.1404Z" fill="#DDD6CE"/>
<path d="M28.7509 36.9338C28.7784 37.1519 28.8303 37.3578 28.8974 37.5114C28.9249 37.5084 28.9554 37.4899 28.9859 37.4531C28.9859 37.4531 28.6624 34.8536 28.8821 32.7826C28.6715 33.5907 28.4884 34.958 28.7509 36.9338Z" fill="#A8A3CB"/>
<path d="M28.9919 31.7225C28.9919 31.7225 28.7874 32.715 28.7477 34.6047C28.7111 36.3284 28.9308 37.5883 29.0987 37.6866C29.1201 37.6989 29.1354 37.705 29.1506 37.705C29.2147 37.7142 29.2483 37.536 29.2147 37.3609C29.1079 36.7924 28.6989 34.3312 29.0835 31.7716L28.9919 31.7225Z" fill="#DDD6CE"/>
<path d="M28.8272 34.5432C28.8241 36.2086 29.0286 37.4623 29.1935 37.6774C29.2271 37.619 29.2362 37.493 29.2118 37.364C29.108 36.817 28.7326 34.5401 29.0347 32.1096C28.9493 32.549 28.8302 33.351 28.8272 34.5432Z" fill="#FFA422"/>
<path d="M29.0715 31.3968C29.0715 31.3968 28.8151 33.0007 28.9128 34.786C28.9708 35.8276 29.0807 36.8908 29.215 37.4008C29.2761 37.6344 29.4775 37.6897 29.4531 37.5299C29.3493 36.857 28.9433 33.8211 29.1418 31.5627L29.0715 31.3968Z" fill="#DDD6CE"/>
<path d="M29.1386 31.6703C29.1386 31.6703 28.931 33.0376 29.0409 34.6846C29.108 35.7016 29.2301 36.7832 29.3705 37.3271C29.4346 37.579 29.6361 37.6559 29.6086 37.4807C29.4926 36.7679 29.0561 33.7843 29.2027 31.8116L29.1386 31.6703Z" fill="#A8A3CB"/>
<path d="M29.3523 31.5934C29.3523 31.5934 29.6698 35.8645 30.0391 37.2656C30.0574 37.3302 30.0788 37.3916 30.0605 37.4193C30.0086 37.4899 29.8926 37.6282 29.8377 37.5268C29.8041 37.4654 29.5507 35.9444 29.4164 34.1407C29.3554 33.3172 29.3126 32.463 29.3371 31.615L29.3523 31.5934Z" fill="#DDD6CE"/>
<path d="M29.1872 31.5996C29.1872 31.5996 29.001 34.872 29.5566 37.2656C29.5566 37.2656 29.639 37.6067 29.7519 37.2902C29.7519 37.2902 29.1384 33.7259 29.291 31.6242L29.1872 31.5996Z" fill="#DDD6CE"/>
<path d="M29.2574 31.658C29.2574 31.658 29.0682 34.9365 29.6268 37.3332C29.6268 37.3332 29.7092 37.6743 29.8252 37.3578C29.8252 37.3578 29.2086 33.7873 29.3643 31.6825L29.2574 31.658Z" fill="#FFA422"/>
<path d="M29.3767 31.3107C29.3767 31.3107 29.2607 34.9396 29.801 37.2718C29.801 37.2718 29.8803 37.6005 29.9902 37.2933C29.9902 37.2933 29.3309 33.4678 29.4805 31.3292L29.3767 31.3107Z" fill="#DDD6CE"/>
<path d="M29.4195 31.2616C29.4195 31.2616 29.3585 34.9457 29.9018 37.2871C29.9018 37.2871 29.9812 37.619 30.0941 37.3086C30.0941 37.3086 29.3738 33.4217 29.5264 31.28L29.4195 31.2616Z" fill="#FFA422"/>
<path d="M29.5904 31.6549C29.5415 31.6672 29.5354 31.6948 29.4927 31.6334C29.4927 32.1188 29.5873 34.1745 29.7796 35.5787C29.9017 36.4851 30.0604 37.1642 30.1398 37.3793C30.1398 37.3793 30.1978 37.619 30.4023 37.1089C30.4023 37.1089 29.7033 34.1499 29.5904 31.6549Z" fill="#DDD6CE"/>
<path d="M29.7154 31.6395C29.6696 31.6487 29.6238 31.618 29.5811 31.5565C29.5872 32.0052 29.6574 32.9792 29.7917 34.2298C29.9443 35.6309 30.0969 36.7064 30.2984 37.2625C30.2984 37.2625 30.3564 37.5053 30.5517 36.9983C30.5517 36.9983 29.8466 34.0516 29.7154 31.6395Z" fill="#A8A3CB"/>
<path d="M29.7152 31.6334C29.7091 31.6364 29.7 31.6395 29.6938 31.6426C29.7061 32.1496 29.7427 33.1912 29.877 34.1806C30.0662 35.5603 30.1945 36.6173 30.3929 37.1796C30.3929 37.1796 30.4051 37.2318 30.4356 37.238C30.4661 37.1888 30.5028 37.112 30.5455 36.9983C30.5455 36.9983 29.8465 34.0485 29.7152 31.6334Z" fill="#DDD6CE"/>
<path d="M30.1551 34.577C29.9995 33.7105 29.9048 32.8901 29.8438 32.2971C29.7949 31.9806 29.7553 31.6795 29.7308 31.4121L29.6729 31.4152C29.6729 31.4152 29.7583 32.93 30.0575 34.6077C30.4482 36.8109 30.5153 37.1519 30.613 37.2287C30.6435 37.2533 30.6741 37.2287 30.7015 37.1827C30.6099 37.0874 30.5336 36.6972 30.1551 34.577Z" fill="#FFA422"/>
<path d="M29.7705 31.3876C29.7705 31.3876 29.8041 32.7918 30.1032 34.4664C30.4939 36.6665 30.616 37.1181 30.7107 37.195C30.8053 37.2718 30.8938 36.8723 30.8938 36.8723C30.8938 36.8723 30.0147 33.2957 29.8285 31.3845L29.7705 31.3876Z" fill="#DDD6CE"/>
<path d="M29.8925 31.3077C29.8925 31.3077 30.8693 34.9795 31.0951 36.7341C31.0951 36.7341 30.9639 37.0628 30.8448 36.9707C30.8448 36.9707 30.3656 33.7658 29.8101 31.3661L29.8925 31.3077Z" fill="#A8A3CB"/>
<path d="M29.749 31.3322L29.6636 31.2431C29.6636 31.2431 30.2527 35.6432 30.6953 36.9338C30.6953 36.9338 30.7869 36.7955 30.8418 36.5804C30.8418 36.5804 30.0054 32.675 29.749 31.3322Z" fill="#FFA422"/>
<path d="M29.8926 31.2063L29.8071 31.1172C29.8071 31.1172 30.3688 35.4005 30.8114 36.688C30.8114 36.688 30.9457 36.7525 31.0006 36.5374C31.0037 36.5343 30.149 32.546 29.8926 31.2063Z" fill="#DDD6CE"/>
<path d="M30.9425 36.7319C30.4999 35.552 29.862 31.5022 29.8101 31.1827L29.7856 31.155C29.7856 31.155 30.1153 33.6009 30.4572 35.3431C30.6678 36.4155 30.8174 36.8057 30.8174 36.8057C30.8662 36.818 30.9425 36.7319 30.9425 36.7319Z" fill="#FFA422"/>
<path d="M28.7171 31.2001C28.7171 31.2001 29.1536 32.4999 29.3642 33.8304C29.5656 35.1025 29.6114 35.717 29.6114 35.8184C29.6114 35.9198 29.4771 36.2332 29.4344 36.1441C29.3916 36.055 29.0131 32.2541 28.6377 31.2677L28.7171 31.2001Z" fill="#FFA422"/>
<path d="M28.6135 31.068C28.6135 31.068 29.0561 32.377 29.2698 33.7167C29.4743 34.9949 29.5232 35.6156 29.5232 35.717C29.5232 35.8184 29.3889 36.1349 29.3431 36.0458C29.3003 35.9566 28.9127 32.1311 28.5342 31.1356L28.6135 31.068Z" fill="#DDD6CE"/>
<path d="M27.5694 31.6487C27.3558 32.0943 26.7056 34.3558 26.9559 36.9491C26.9803 37.195 27.0475 37.4131 27.136 37.5391C27.2062 37.6405 27.2978 37.6897 27.3985 37.5483C27.3985 37.5483 27.0444 34.2175 27.6213 31.8577C27.5939 31.8055 27.5908 31.7225 27.5694 31.6487Z" fill="#FFA422"/>
<path d="M27.5538 32.1772C27.2669 32.9301 26.809 34.6262 27.1021 37.0628C27.1295 37.2994 27.1906 37.5114 27.273 37.6344C27.3127 37.6344 27.3554 37.6128 27.4012 37.5483C27.3982 37.5483 27.0777 34.5217 27.5538 32.1772Z" fill="#DDD6CE"/>
<path d="M27.1789 37.1243C27.2033 37.3209 27.2491 37.4991 27.3101 37.6251C27.3376 37.6128 27.3681 37.5913 27.3986 37.5483C27.3986 37.5483 27.1422 35.1147 27.4353 32.8962C27.188 33.7996 26.9591 35.2561 27.1789 37.1243Z" fill="#A8A3CB"/>
<path d="M27.5906 31.704C27.5906 31.704 27.3342 32.8379 27.2365 34.8413C27.1541 36.5589 27.3403 37.6866 27.5021 37.7296C27.5204 37.7357 27.5387 37.7357 27.5539 37.7327C27.618 37.7235 27.6547 37.5514 27.6272 37.4008C27.5417 36.8969 27.1938 34.5647 27.6883 31.744L27.5906 31.704Z" fill="#DDD6CE"/>
<path d="M27.3254 34.7614C27.2735 36.4145 27.4444 37.5453 27.6001 37.6989C27.6337 37.6374 27.649 37.5176 27.6306 37.407C27.5482 36.9246 27.2277 34.7798 27.6306 32.1312C27.5146 32.6289 27.3651 33.5139 27.3254 34.7614Z" fill="#FFA422"/>
<path d="M27.6916 31.3261C27.6916 31.3261 27.3619 33.1421 27.4077 34.9918C27.4352 36.015 27.5115 37.0014 27.6275 37.4408C27.6794 37.6405 27.8717 37.6374 27.8533 37.4992C27.777 36.9031 27.4687 33.9932 27.7587 31.5043L27.6916 31.3261Z" fill="#DDD6CE"/>
<path d="M27.7528 31.6241C27.7528 31.6241 27.4811 33.1605 27.5421 34.8597C27.5788 35.8552 27.6642 36.8631 27.7833 37.3332C27.8382 37.5483 28.0275 37.5637 28.0092 37.4131C27.9237 36.7832 27.591 33.9317 27.8199 31.7747L27.7528 31.6241Z" fill="#A8A3CB"/>
<path d="M27.9875 31.5074C27.9875 31.5074 28.1341 35.886 28.4271 37.1089C28.4393 37.1642 28.4607 37.2134 28.4393 37.2441C28.3874 37.3209 28.2714 37.4746 28.2226 37.3947C28.1921 37.3455 28.0089 35.9874 27.9448 34.2298C27.9143 33.3879 27.9021 32.4753 27.9662 31.532L27.9875 31.5074Z" fill="#DDD6CE"/>
<path d="M27.8076 31.5381C27.8076 31.5381 27.4963 35.0564 27.9664 37.2288C27.9664 37.2288 28.0335 37.5207 28.1556 37.2011C28.1556 37.2011 27.6794 33.8549 27.9206 31.5504L27.8076 31.5381Z" fill="#DDD6CE"/>
<path d="M27.8808 31.5934C27.8808 31.5934 27.5633 35.1055 28.0304 37.2749C28.0304 37.2749 28.0945 37.5637 28.2196 37.2503C28.2196 37.2503 27.7495 33.9072 27.9937 31.6088L27.8808 31.5934Z" fill="#FFA422"/>
<path d="M28.0243 31.1848C28.0243 31.1848 27.7588 35.0686 28.1983 37.1734C28.1983 37.1734 28.2594 37.4531 28.3784 37.1458C28.3784 37.1458 27.887 33.5477 28.1342 31.194L28.0243 31.1848Z" fill="#DDD6CE"/>
<path d="M28.0699 31.1233C28.0699 31.1233 27.8562 35.0564 28.2927 37.1642C28.2927 37.1642 28.3538 37.4439 28.4728 37.1366C28.4728 37.1366 27.9295 33.4954 28.1828 31.1325L28.0699 31.1233Z" fill="#FFA422"/>
<path d="M28.2351 31.5443C28.1832 31.5627 28.1771 31.5965 28.1313 31.532C28.1069 32.0697 28.1191 34.2298 28.2473 35.5849C28.3267 36.4176 28.4488 37.0075 28.5129 37.1857C28.5129 37.1857 28.5556 37.3885 28.7723 36.8785C28.7754 36.8785 28.2382 34.1837 28.2351 31.5443Z" fill="#DDD6CE"/>
<path d="M28.3694 31.5135C28.3206 31.532 28.2717 31.5012 28.2321 31.4398C28.2168 31.9376 28.2443 32.9792 28.3236 34.2513C28.4091 35.6033 28.5068 36.5866 28.6686 37.0444C28.6686 37.0444 28.7113 37.2503 28.9189 36.7433C28.9189 36.7433 28.3877 34.0608 28.3694 31.5135Z" fill="#A8A3CB"/>
<path d="M28.3691 31.5074C28.3599 31.5135 28.3538 31.5166 28.3477 31.5197C28.3355 32.0789 28.3233 33.1881 28.4149 34.1868C28.5339 35.5111 28.6072 36.479 28.7659 36.9491C28.7659 36.9491 28.7751 36.9921 28.8025 36.9921C28.8331 36.9399 28.8697 36.8631 28.9155 36.7494C28.9124 36.7433 28.3874 34.0546 28.3691 31.5074Z" fill="#DDD6CE"/>
<path d="M28.6685 34.5279C28.5586 33.6829 28.5037 32.8409 28.4732 32.2172C28.4396 31.8792 28.4121 31.5535 28.3999 31.2585L28.3389 31.2708C28.3389 31.2708 28.3541 32.9147 28.5739 34.5832C28.8364 36.605 28.8822 36.8969 28.9677 36.943C28.9951 36.9584 29.0226 36.9276 29.0501 36.8815C28.9677 36.8139 28.9188 36.4729 28.6685 34.5279Z" fill="#FFA422"/>
<path d="M28.4394 31.2216C28.4394 31.2216 28.4058 32.7518 28.6225 34.4264C28.885 36.4513 28.9736 36.8354 29.056 36.8846C29.1384 36.9307 29.2422 36.5497 29.2422 36.5497C29.2422 36.5497 28.592 33.2465 28.5004 31.2124L28.4394 31.2216Z" fill="#DDD6CE"/>
<path d="M28.5739 31.1172C28.5739 31.1172 29.3339 34.7829 29.4347 36.3776C29.4347 36.3776 29.2973 36.7064 29.1935 36.6511C29.1935 36.6511 28.9219 33.6736 28.4854 31.194L28.5739 31.1172Z" fill="#A8A3CB"/>
<path d="M28.418 31.1633L28.3325 31.0742C28.3325 31.0742 28.708 35.548 29.056 36.6542C29.056 36.6542 29.1475 36.5067 29.2116 36.2977C29.2116 36.2947 28.6164 32.5982 28.418 31.1633Z" fill="#FFA422"/>
<path d="M28.5767 31.0035L28.4912 30.9144C28.4912 30.9144 28.83 35.293 29.175 36.4022C29.175 36.4022 29.2971 36.4299 29.3581 36.2209C29.3612 36.2178 28.772 32.4354 28.5767 31.0035Z" fill="#DDD6CE"/>
<path d="M29.2941 36.4084C28.9492 35.4036 28.528 31.3353 28.4913 30.9851L28.4639 30.9574C28.4639 30.9574 28.6745 33.5446 28.9156 35.2162C29.056 36.1841 29.172 36.5067 29.172 36.5067C29.2178 36.5067 29.2941 36.4084 29.2941 36.4084Z" fill="#FFA422"/>
<path d="M27.2403 31.618C27.2403 31.618 27.576 32.9547 27.6859 34.3128C27.7958 35.6494 27.7958 36.2947 27.7866 36.3991C27.7775 36.5036 27.6127 36.7771 27.573 36.6695C27.5363 36.562 27.4509 32.6843 27.1548 31.6672L27.2403 31.618Z" fill="#FFA422"/>
<path d="M27.1485 31.4706C27.1485 31.4706 27.4842 32.8102 27.5941 34.1715C27.704 35.5111 27.7071 36.1564 27.6979 36.2609C27.6887 36.3654 27.5239 36.6388 27.4842 36.5313C27.4445 36.4237 27.3591 32.5398 27.063 31.5197L27.1485 31.4706Z" fill="#DDD6CE"/>
<path d="M26.1077 31.7778C25.8726 32.1342 25.082 34.0485 25.0698 36.5743C25.0698 36.8201 25.1126 37.0567 25.1828 37.2103C25.2408 37.3363 25.3201 37.4193 25.43 37.3179C25.43 37.3179 25.4056 34.0116 26.1443 31.9775C26.1199 31.9253 26.1229 31.8515 26.1077 31.7778Z" fill="#FFA422"/>
<path d="M26.0497 32.2572C25.72 32.8809 25.1522 34.3282 25.1919 36.7341C25.195 36.9738 25.2316 37.2042 25.2988 37.3548C25.3354 37.3701 25.3781 37.364 25.427 37.3179C25.427 37.321 25.4056 34.3067 26.0497 32.2572Z" fill="#DDD6CE"/>
<path d="M25.2592 36.8232C25.2623 37.0229 25.2898 37.2134 25.3355 37.3609C25.363 37.3609 25.3935 37.3486 25.4271 37.3179C25.4271 37.3179 25.4119 34.8812 25.8789 32.8871C25.5706 33.6644 25.2287 34.9611 25.2592 36.8232Z" fill="#A8A3CB"/>
<path d="M26.1228 31.8331C26.1228 31.8331 25.79 32.8133 25.5214 34.6539C25.2864 36.267 25.3566 37.4347 25.5092 37.5422C25.5275 37.5545 25.5428 37.5637 25.5581 37.5668C25.6191 37.5821 25.671 37.4254 25.6588 37.2657C25.6222 36.7371 25.5092 34.3865 26.2143 31.8977L26.1228 31.8331Z" fill="#DDD6CE"/>
<path d="M25.6104 34.6016C25.412 36.1656 25.4669 37.3302 25.6012 37.5422C25.6379 37.4961 25.6653 37.3824 25.6562 37.2626C25.6196 36.7556 25.5188 34.5893 26.1202 32.2295C25.9767 32.6627 25.7569 33.4463 25.6104 34.6016Z" fill="#FFA422"/>
<path d="M26.248 31.5105C26.248 31.5105 25.787 33.0991 25.668 34.8474C25.6008 35.8338 25.5856 36.8232 25.6558 37.2995C25.6863 37.5176 25.8725 37.5883 25.8695 37.4408C25.8511 36.8201 25.8145 33.9195 26.2998 31.6856L26.248 31.5105Z" fill="#DDD6CE"/>
<path d="M26.2814 31.7963C26.2814 31.7963 25.8968 33.1482 25.8052 34.7614C25.7503 35.7293 25.7411 36.7402 25.8144 37.2503C25.848 37.4838 26.0311 37.576 26.025 37.4162C25.9975 36.7556 25.9304 33.898 26.3302 31.9499L26.2814 31.7963Z" fill="#A8A3CB"/>
<path d="M26.5104 31.7409C26.5104 31.7409 26.2784 35.9444 26.4615 37.2656C26.4707 37.3271 26.486 37.3824 26.4615 37.407C26.4035 37.4654 26.2753 37.576 26.2357 37.4777C26.2112 37.4162 26.1532 36.0028 26.2418 34.279C26.2845 33.4709 26.3516 32.6167 26.489 31.7594L26.5104 31.7409Z" fill="#DDD6CE"/>
<path d="M26.3397 31.7317C26.3397 31.7317 25.7445 34.9365 25.9978 37.2165C25.9978 37.2165 26.0345 37.533 26.184 37.2595C26.184 37.2595 26.0192 33.8488 26.4435 31.7686L26.3397 31.7317Z" fill="#DDD6CE"/>
<path d="M26.4037 31.7963C26.4037 31.7963 25.8023 35.0042 26.0587 37.2841C26.0587 37.2841 26.0954 37.6006 26.2449 37.3302C26.2449 37.3302 26.0832 33.9164 26.5105 31.8362L26.4037 31.7963Z" fill="#FFA422"/>
<path d="M26.5717 31.4521C26.5717 31.4521 25.9887 35.0287 26.2298 37.2472C26.2298 37.2472 26.2665 37.5514 26.4099 37.2872C26.4099 37.2872 26.242 33.6153 26.6755 31.4828L26.5717 31.4521Z" fill="#DDD6CE"/>
<path d="M26.6205 31.406C26.6205 31.406 26.0833 35.0441 26.3245 37.2718C26.3245 37.2718 26.3611 37.579 26.5076 37.3117C26.5076 37.3117 26.2909 33.5753 26.7274 31.4367L26.6205 31.406Z" fill="#FFA422"/>
<path d="M26.7454 31.8301C26.6935 31.8362 26.6844 31.8639 26.6477 31.7963C26.5806 32.2879 26.4097 34.3312 26.4188 35.6894C26.4249 36.5436 26.4951 37.1796 26.544 37.3824C26.544 37.3824 26.5684 37.6037 26.8309 37.1673C26.8309 37.1673 26.5287 34.322 26.7454 31.8301Z" fill="#DDD6CE"/>
<path d="M26.877 31.83C26.8282 31.8362 26.7855 31.7962 26.7488 31.7317C26.6939 32.1896 26.6359 33.1728 26.6054 34.4111C26.5748 35.7569 26.5871 36.7709 26.7122 37.2964C26.7122 37.2964 26.7397 37.5207 26.99 37.0844C26.993 37.0844 26.6847 34.2452 26.877 31.83Z" fill="#A8A3CB"/>
<path d="M26.8768 31.8239C26.8677 31.827 26.8616 31.827 26.8555 31.83C26.7975 32.3462 26.6967 33.391 26.6998 34.3711C26.7059 35.7047 26.6967 36.6972 26.8158 37.2288C26.8158 37.2288 26.8219 37.2748 26.8493 37.2871C26.886 37.2441 26.9287 37.1796 26.9867 37.0813C26.9867 37.0843 26.6845 34.239 26.8768 31.8239Z" fill="#DDD6CE"/>
<path d="M26.9225 34.7829C26.8859 33.9287 26.8981 33.1083 26.9195 32.5122C26.9134 32.1865 26.9134 31.8761 26.9256 31.5996L26.8676 31.5965C26.8676 31.5965 26.7485 33.1359 26.8249 34.8044C26.9195 36.9061 26.9408 37.2196 27.0233 37.3025C27.0507 37.3271 27.0813 37.3087 27.1148 37.2718C27.0355 37.1735 27.0141 36.8078 26.9225 34.7829Z" fill="#FFA422"/>
<path d="M26.9682 31.575C26.9682 31.575 26.8126 33.0007 26.8858 34.6723C26.9804 36.7771 27.0384 37.2011 27.1209 37.281C27.2033 37.3609 27.3406 37.0075 27.3406 37.0075C27.3406 37.0075 26.953 33.52 27.0293 31.5781L26.9682 31.575Z" fill="#DDD6CE"/>
<path d="M27.1059 31.5074C27.1059 31.5074 27.5759 35.2469 27.5546 36.9031C27.5546 36.9031 27.3836 37.1888 27.2798 37.0905C27.2798 37.0905 27.2463 34.0209 27.0112 31.5566L27.1059 31.5074Z" fill="#A8A3CB"/>
<path d="M26.9533 31.5166L26.877 31.4152C26.877 31.4152 26.877 35.803 27.1395 37.0413C27.1395 37.0413 27.2463 36.9246 27.3287 36.7341C27.3287 36.7341 27.0296 32.9086 26.9533 31.5166Z" fill="#FFA422"/>
<path d="M27.1181 31.4029L27.0418 31.3015C27.0418 31.3015 27.0235 35.591 27.2829 36.8324C27.2829 36.8324 27.405 36.9061 27.4874 36.7156C27.4905 36.7126 27.1944 32.7949 27.1181 31.4029Z" fill="#DDD6CE"/>
<path d="M27.405 36.8856C27.1333 35.7456 27.0418 31.705 27.0357 31.3701L27.0112 31.3394C27.0112 31.3394 27.0112 33.8344 27.115 35.5459C27.1761 36.566 27.2707 36.9409 27.2707 36.9409C27.3195 36.9563 27.405 36.8856 27.405 36.8856Z" fill="#FFA422"/>
<path d="M25.6675 31.7563C25.6675 31.7563 25.9453 33.1421 25.9941 34.534C26.0429 35.9044 26.0155 36.562 26.0033 36.6665C25.9911 36.7709 25.8079 37.0352 25.7774 36.9215C25.7438 36.8078 25.8323 32.8594 25.582 31.7993L25.6675 31.7563Z" fill="#FFA422"/>
<path d="M25.5822 31.5996C25.5822 31.5996 25.8599 32.9884 25.9118 34.3804C25.9607 35.7539 25.9363 36.4114 25.921 36.5159C25.9088 36.6204 25.7256 36.8846 25.6921 36.7709C25.6585 36.6572 25.747 32.6996 25.4937 31.6395L25.5822 31.5996Z" fill="#DDD6CE"/>
<path d="M24.5229 31.8239C24.2726 32.165 23.3935 34.0362 23.2653 36.5958C23.2531 36.8447 23.2837 37.0905 23.3478 37.2533C23.3996 37.3855 23.476 37.4776 23.5889 37.3855C23.5889 37.3855 23.7171 34.0301 24.5474 32.0328C24.5291 31.9775 24.5352 31.9007 24.5229 31.8239Z" fill="#FFA422"/>
<path d="M24.4434 32.3032C24.0863 32.9085 23.4514 34.3251 23.3842 36.7679C23.3781 37.0106 23.4025 37.2472 23.4636 37.41C23.5002 37.4285 23.5429 37.4254 23.5948 37.3855C23.5918 37.3855 23.7078 34.3251 24.4434 32.3032Z" fill="#DDD6CE"/>
<path d="M23.4455 36.8662C23.4394 37.069 23.4577 37.2656 23.4974 37.4193C23.5249 37.4223 23.5554 37.4131 23.589 37.3824C23.589 37.3824 23.6836 34.9089 24.2422 32.9301C23.9003 33.689 23.5004 34.9734 23.4455 36.8662Z" fill="#A8A3CB"/>
<path d="M24.5352 31.8823C24.5352 31.8823 24.1567 32.8471 23.8056 34.6876C23.4973 36.3008 23.5157 37.493 23.6622 37.6159C23.6805 37.6313 23.6958 37.6405 23.708 37.6436C23.769 37.6651 23.827 37.5114 23.8209 37.3486C23.8087 36.8078 23.8026 34.4142 24.6206 31.9529L24.5352 31.8823Z" fill="#DDD6CE"/>
<path d="M23.8974 34.6446C23.6288 36.2147 23.6319 37.4008 23.7539 37.6282C23.7936 37.5852 23.8242 37.4715 23.8211 37.3516C23.8089 36.8354 23.8028 34.6262 24.514 32.2878C24.3522 32.7088 24.0989 33.4862 23.8974 34.6446Z" fill="#FFA422"/>
<path d="M24.6784 31.5658C24.6784 31.5658 24.1442 33.1359 23.9458 34.8966C23.8329 35.8921 23.7719 36.8938 23.8207 37.3854C23.8421 37.6098 24.0252 37.6989 24.0283 37.5514C24.0374 36.9215 24.1351 33.9717 24.7212 31.7501L24.6784 31.5658Z" fill="#DDD6CE"/>
<path d="M24.6969 31.8577C24.6969 31.8577 24.2482 33.1943 24.0833 34.8228C23.9857 35.8 23.9307 36.8262 23.9796 37.3486C24.0009 37.5913 24.1841 37.6989 24.1841 37.536C24.1871 36.8631 24.2512 33.9563 24.7396 32.0175L24.6969 31.8577Z" fill="#A8A3CB"/>
<path d="M24.9288 31.8208C24.9288 31.8208 24.5075 36.0673 24.6296 37.4285C24.6357 37.493 24.6479 37.5514 24.6235 37.5698C24.5625 37.6251 24.4282 37.7234 24.3915 37.619C24.3702 37.5544 24.3732 36.1134 24.5442 34.3711C24.6235 33.5538 24.7304 32.6934 24.9074 31.8362L24.9288 31.8208Z" fill="#DDD6CE"/>
<path d="M24.7578 31.7962C24.7578 31.7962 24.016 34.9949 24.1686 37.3302C24.1686 37.3302 24.1931 37.6559 24.3548 37.3916C24.3548 37.3916 24.3426 33.9133 24.8646 31.8393L24.7578 31.7962Z" fill="#DDD6CE"/>
<path d="M24.8223 31.8669C24.8223 31.8669 24.0745 35.0656 24.2271 37.4039C24.2271 37.4039 24.2515 37.7296 24.4133 37.4684C24.4133 37.4684 24.4041 33.987 24.9261 31.913L24.8223 31.8669Z" fill="#FFA422"/>
<path d="M25.0053 31.535C25.0053 31.535 24.2605 35.1117 24.4009 37.3854C24.4009 37.3854 24.4223 37.6989 24.581 37.4438C24.581 37.4438 24.578 33.6982 25.1091 31.575L25.0053 31.535Z" fill="#DDD6CE"/>
<path d="M25.0571 31.492C25.0571 31.492 24.3551 35.1362 24.4924 37.4193C24.4924 37.4193 24.5138 37.7327 24.6725 37.4776C24.6725 37.4776 24.6237 33.6614 25.1579 31.532L25.0571 31.492Z" fill="#FFA422"/>
<path d="M25.1607 31.9314C25.1088 31.9345 25.0996 31.9621 25.066 31.8884C24.9775 32.3831 24.712 34.4418 24.6601 35.8184C24.6265 36.6849 24.6692 37.3394 24.7089 37.5514C24.7089 37.5514 24.7242 37.7787 25.008 37.3609C25.008 37.3609 24.8341 34.4418 25.1607 31.9314Z" fill="#DDD6CE"/>
<path d="M25.295 31.9406C25.2462 31.9406 25.2034 31.9007 25.1699 31.83C25.0935 32.2909 24.9898 33.2834 24.9043 34.5371C24.8127 35.9013 24.7791 36.9307 24.8799 37.4807C24.8799 37.4807 24.8951 37.7112 25.1699 37.2902C25.1729 37.2902 24.9898 34.3773 25.295 31.9406Z" fill="#A8A3CB"/>
<path d="M25.2923 31.9345C25.2832 31.9376 25.2771 31.9376 25.2679 31.9376C25.1855 32.4569 25.0359 33.5077 24.9963 34.5033C24.9413 35.8583 24.8894 36.8662 24.984 37.4193C24.984 37.4193 24.9871 37.4684 25.0176 37.4807C25.0543 37.4408 25.1031 37.3793 25.1641 37.2841C25.1672 37.2902 24.9932 34.3712 25.2923 31.9345Z" fill="#DDD6CE"/>
<path d="M25.2067 34.9457C25.2067 34.0762 25.2556 33.2435 25.3044 32.6381C25.3136 32.3063 25.3288 31.9929 25.3502 31.7133L25.2922 31.704C25.2922 31.704 25.1029 33.2557 25.106 34.958C25.106 37.1028 25.1121 37.4254 25.1945 37.5176C25.2189 37.5452 25.2525 37.5299 25.2861 37.493C25.2128 37.3854 25.2067 37.0106 25.2067 34.9457Z" fill="#FFA422"/>
<path d="M25.3957 31.6917C25.3957 31.6917 25.1729 33.1267 25.1729 34.829C25.1729 36.9768 25.2125 37.4131 25.2919 37.5053C25.3713 37.5944 25.5269 37.2472 25.5269 37.2472C25.5269 37.2472 25.2949 33.6675 25.4567 31.701L25.3957 31.6917Z" fill="#DDD6CE"/>
<path d="M25.5365 31.6334C25.5365 31.6334 25.8418 35.4742 25.7471 37.1611C25.7471 37.1611 25.5609 37.4377 25.4633 37.3271C25.4633 37.3271 25.567 34.2021 25.4419 31.6795L25.5365 31.6334Z" fill="#A8A3CB"/>
<path d="M25.3838 31.6303L25.3136 31.5228C25.3136 31.5228 25.1151 35.9782 25.3227 37.2626C25.3227 37.2626 25.4357 37.155 25.5272 36.9676C25.5272 36.9676 25.399 33.0499 25.3838 31.6303Z" fill="#FFA422"/>
<path d="M25.5577 31.5289L25.4875 31.4214C25.4875 31.4214 25.2769 35.7754 25.4814 37.0628C25.4814 37.0628 25.6035 37.1489 25.6951 36.9614C25.692 36.9583 25.5699 32.9485 25.5577 31.5289Z" fill="#DDD6CE"/>
<path d="M25.5975 37.1251C25.3747 35.939 25.4662 31.8247 25.4754 31.4867L25.454 31.4529C25.454 31.4529 25.3411 33.9848 25.3686 35.7362C25.3838 36.7809 25.4632 37.1712 25.4632 37.1712C25.509 37.1896 25.5975 37.1251 25.5975 37.1251Z" fill="#FFA422"/>
<path d="M23.9674 31.5627C23.9674 31.5627 24.1964 32.9362 24.1964 34.3158C24.1964 35.6739 24.1445 36.3284 24.1292 36.4329C24.1109 36.5374 23.9186 36.8016 23.8911 36.691C23.8606 36.5804 24.0956 32.6566 23.8789 31.6088L23.9674 31.5627Z" fill="#FFA422"/>
<path d="M23.888 31.4091C23.888 31.4091 24.1169 32.7856 24.1199 34.1653C24.1199 35.5265 24.0681 36.181 24.0528 36.2854C24.0345 36.3899 23.8422 36.6542 23.8116 36.5435C23.7811 36.4329 24.0131 32.5029 23.7964 31.4521L23.888 31.4091Z" fill="#DDD6CE"/>
<path d="M22.8075 31.6456C22.5389 31.9898 21.5804 33.861 21.3607 36.4052C21.3393 36.6541 21.3637 36.8969 21.4217 37.0566C21.4706 37.1857 21.5438 37.2779 21.6629 37.1826C21.6629 37.1826 21.9132 33.8457 22.8289 31.8515C22.8045 31.7962 22.8136 31.7224 22.8075 31.6456Z" fill="#FFA422"/>
<path d="M22.7068 32.125C22.3222 32.7303 21.6262 34.1468 21.4675 36.5773C21.4522 36.8201 21.4675 37.0536 21.5224 37.2134C21.5591 37.2318 21.6018 37.2287 21.6568 37.1857C21.6568 37.1857 21.8857 34.1438 22.7068 32.125Z" fill="#DDD6CE"/>
<path d="M21.5285 36.6726C21.5163 36.8754 21.5255 37.0689 21.5621 37.2226C21.5896 37.2256 21.6201 37.2133 21.6567 37.1857C21.6567 37.1857 21.8429 34.7275 22.4809 32.7518C22.1055 33.5108 21.6537 34.789 21.5285 36.6726Z" fill="#A8A3CB"/>
<path d="M22.8167 31.704C22.8167 31.704 22.3986 32.6689 21.9743 34.5033C21.6019 36.1103 21.5775 37.2963 21.7209 37.4131C21.7392 37.4285 21.7545 37.4346 21.7667 37.4408C21.8278 37.4592 21.8919 37.3056 21.8919 37.1458C21.898 36.6111 21.9804 34.2329 22.8992 31.7747L22.8167 31.704Z" fill="#DDD6CE"/>
<path d="M22.0689 34.4572C21.7392 36.0212 21.6995 37.198 21.8155 37.4223C21.8582 37.3762 21.8918 37.2656 21.8949 37.1458C21.901 36.6326 21.9773 34.4387 22.7831 32.1035C22.6 32.5306 22.3131 33.3018 22.0689 34.4572Z" fill="#FFA422"/>
<path d="M22.9724 31.3875C22.9724 31.3875 22.3741 32.9577 22.1085 34.7091C21.959 35.7016 21.8613 36.6972 21.8918 37.1826C21.9071 37.4039 22.0902 37.4899 22.0963 37.3424C22.1299 36.7156 22.3344 33.7842 23.009 31.5688L22.9724 31.3875Z" fill="#DDD6CE"/>
<path d="M22.9812 31.6764C22.9812 31.6764 22.4806 33.0099 22.2517 34.6292C22.1143 35.6002 22.0227 36.6203 22.0532 37.1396C22.0685 37.3793 22.2455 37.4838 22.2547 37.324C22.2822 36.6572 22.4531 33.7658 23.0178 31.8331L22.9812 31.6764Z" fill="#A8A3CB"/>
<path d="M23.2199 31.6364C23.2199 31.6364 22.6368 35.8614 22.7131 37.2103C22.7162 37.2717 22.7284 37.3301 22.704 37.3516C22.6399 37.4069 22.5025 37.5083 22.4689 37.4039C22.4476 37.3424 22.5056 35.9075 22.7406 34.1745C22.8505 33.3633 22.9879 32.506 23.2015 31.6518L23.2199 31.6364Z" fill="#DDD6CE"/>
<path d="M23.0455 31.6149C23.0455 31.6149 22.1755 34.8044 22.2457 37.1212C22.2457 37.1212 22.2579 37.4438 22.4319 37.1796C22.4319 37.1796 22.5479 33.7259 23.1493 31.6579L23.0455 31.6149Z" fill="#DDD6CE"/>
<path d="M23.1067 31.6856C23.1067 31.6856 22.2307 34.8751 22.3009 37.1949C22.3009 37.1949 22.3131 37.5176 22.4871 37.2533C22.4871 37.2533 22.6061 33.7965 23.2105 31.7286L23.1067 31.6856Z" fill="#FFA422"/>
<path d="M23.3052 31.3507C23.3052 31.3507 22.42 34.915 22.481 37.1704C22.481 37.1704 22.4933 37.4807 22.6611 37.2257C22.6611 37.2257 22.7954 33.5077 23.409 31.3876L23.3052 31.3507Z" fill="#DDD6CE"/>
<path d="M23.3573 31.3076C23.3573 31.3076 22.5118 34.9396 22.5697 37.2042C22.5697 37.2042 22.5789 37.5176 22.7498 37.2595C22.7498 37.2595 22.8414 33.4708 23.4611 31.3445L23.3573 31.3076Z" fill="#FFA422"/>
<path d="M23.4485 31.744C23.3967 31.7471 23.3844 31.7747 23.3539 31.704C23.2471 32.1957 22.9022 34.2452 22.8014 35.6125C22.7373 36.4759 22.7556 37.1212 22.7862 37.3332C22.7862 37.3332 22.7953 37.5606 23.0945 37.1366C23.0945 37.1366 23.0243 34.2421 23.4485 31.744Z" fill="#DDD6CE"/>
<path d="M23.5825 31.7532C23.5306 31.7562 23.4909 31.7132 23.4604 31.6456C23.3658 32.1035 23.2254 33.0898 23.0941 34.3373C22.9507 35.6954 22.8805 36.7187 22.9629 37.2594C22.9629 37.2594 22.972 37.4899 23.2651 37.0659C23.2651 37.0659 23.1857 34.1745 23.5825 31.7532Z" fill="#A8A3CB"/>
<path d="M23.5829 31.7471C23.5737 31.7501 23.5676 31.7501 23.5585 31.7501C23.4577 32.2664 23.2685 33.3141 23.1922 34.3036C23.0884 35.6494 22.9968 36.6511 23.0731 37.2011C23.0731 37.2011 23.0762 37.2503 23.1037 37.2626C23.1433 37.2226 23.1952 37.1612 23.2593 37.0659C23.2593 37.0628 23.1891 34.1684 23.5829 31.7471Z" fill="#DDD6CE"/>
<path d="M23.3845 34.7368C23.415 33.8734 23.4974 33.0468 23.5676 32.4446C23.589 32.1158 23.6134 31.8024 23.647 31.5258L23.586 31.5197C23.586 31.5197 23.3387 33.0652 23.2777 34.7552C23.2014 36.8846 23.1952 37.2042 23.2716 37.2933C23.296 37.3209 23.3296 37.3056 23.3662 37.2687C23.3021 37.1581 23.3082 36.7863 23.3845 34.7368Z" fill="#FFA422"/>
<path d="M23.6959 31.5012C23.6959 31.5012 23.4181 32.93 23.357 34.62C23.2777 36.7525 23.3021 37.1857 23.3784 37.2748C23.4547 37.3639 23.6257 37.0136 23.6257 37.0136C23.6257 37.0136 23.5219 33.4616 23.7569 31.5074L23.6959 31.5012Z" fill="#DDD6CE"/>
<path d="M23.8425 31.4429C23.8425 31.4429 24.0134 35.253 23.8547 36.9276C23.8547 36.9276 23.6563 37.2042 23.5586 37.0966C23.5586 37.0966 23.7753 33.9932 23.7448 31.489L23.8425 31.4429Z" fill="#A8A3CB"/>
<path d="M23.6835 31.4398L23.6163 31.3322C23.6163 31.3322 23.2531 35.76 23.4179 37.0321C23.4179 37.0321 23.537 36.9245 23.6377 36.7371C23.6377 36.7371 23.6468 32.8501 23.6835 31.4398Z" fill="#FFA422"/>
<path d="M23.8639 31.3384L23.7968 31.2308C23.7968 31.2308 23.4244 35.5572 23.5861 36.8324C23.5861 36.8324 23.7052 36.9153 23.8059 36.7279C23.8029 36.7279 23.8242 32.7457 23.8639 31.3384Z" fill="#DDD6CE"/>
<path d="M23.702 36.8946C23.5189 35.7208 23.7631 31.6342 23.7845 31.2962L23.7631 31.2624C23.7631 31.2624 23.5555 33.7789 23.5219 35.515C23.5006 36.5535 23.5647 36.9376 23.5647 36.9376C23.6074 36.9591 23.702 36.8946 23.702 36.8946Z" fill="#FFA422"/>
<path d="M22.1393 31.3261C22.1393 31.3261 22.2248 32.8225 22.0935 34.2513C21.9623 35.6617 21.8524 36.3192 21.8249 36.4206C21.7975 36.522 21.5899 36.7218 21.5746 36.5927C21.5563 36.4667 22.1546 32.4937 22.0508 31.3384L22.1393 31.3261Z" fill="#FFA422"/>
<path d="M22.0782 31.1418C22.0782 31.1418 22.1636 32.6412 22.0324 34.07C21.9042 35.4804 21.7912 36.141 21.7668 36.2424C21.7424 36.3438 21.5348 36.5435 21.5165 36.4176C21.4982 36.2916 22.0934 32.3155 21.9897 31.1571L22.0782 31.1418Z" fill="#DDD6CE"/>
<path d="M21.0433 31.0066C20.7625 31.2647 19.7033 32.8256 19.2577 35.3298C19.2149 35.5757 19.2119 35.8276 19.2485 36.0151C19.279 36.1656 19.3401 36.2885 19.4561 36.2363C19.4561 36.2363 20.0055 32.9301 21.0403 31.2216C21.0281 31.1602 21.0433 31.0865 21.0433 31.0066Z" fill="#FFA422"/>
<path d="M20.9059 31.4613C20.4938 31.9437 19.7185 33.1359 19.343 35.5449C19.3064 35.7846 19.2972 36.0304 19.3339 36.2148C19.3644 36.2486 19.4071 36.2609 19.459 36.2393C19.456 36.2363 19.9596 33.225 20.9059 31.4613Z" fill="#DDD6CE"/>
<path d="M19.3887 35.6648C19.3581 35.8676 19.349 36.0673 19.3673 36.2363C19.3917 36.2486 19.4223 36.2517 19.4589 36.2363C19.4589 36.2363 19.8649 33.7997 20.6402 32.0175C20.2189 32.6597 19.6817 33.7966 19.3887 35.6648Z" fill="#A8A3CB"/>
<path d="M21.0497 31.0711C21.0497 31.0711 20.5704 31.9068 20.0057 33.6245C19.5112 35.124 19.3739 36.3223 19.4929 36.4974C19.5082 36.519 19.5204 36.5343 19.5326 36.5435C19.5845 36.5866 19.6608 36.4544 19.6761 36.2885C19.7341 35.7446 20.0362 33.3479 21.1199 31.1694L21.0497 31.0711Z" fill="#DDD6CE"/>
<path d="M20.0969 33.6122C19.6451 35.084 19.4956 36.2701 19.581 36.5435C19.6238 36.5128 19.6665 36.4114 19.6787 36.2916C19.7336 35.7692 20.0145 33.56 20.9791 31.4705C20.7684 31.8362 20.4296 32.5214 20.0969 33.6122Z" fill="#FFA422"/>
<path d="M21.2206 30.8008C21.2206 30.8008 20.5155 32.1896 20.1034 33.8796C19.8714 34.8352 19.6852 35.8154 19.6669 36.3255C19.6577 36.5559 19.8165 36.7188 19.8378 36.5682C19.9263 35.9383 20.3964 33.0223 21.2358 31.0005L21.2206 30.8008Z" fill="#DDD6CE"/>
<path d="M21.2053 31.0987C21.2053 31.0987 20.6131 32.2848 20.2499 33.8549C20.0301 34.7952 19.85 35.8061 19.8256 36.3469C19.8164 36.5988 19.9691 36.774 19.9904 36.6111C20.0789 35.9382 20.5124 33.0437 21.2236 31.2708L21.2053 31.0987Z" fill="#A8A3CB"/>
<path d="M21.4278 31.1418C21.4278 31.1418 20.4846 35.2561 20.4236 36.6726C20.4205 36.7371 20.4266 36.8017 20.3992 36.8139C20.3351 36.8447 20.1977 36.8938 20.1763 36.7771C20.1641 36.7033 20.3564 35.2561 20.738 33.5692C20.9181 32.7764 21.1287 31.9529 21.4065 31.151L21.4278 31.1418Z" fill="#DDD6CE"/>
<path d="M21.2692 31.0588C21.2692 31.0588 20.1612 34.0024 20.0025 36.3991C20.0025 36.3991 19.9841 36.7341 20.1673 36.5313C20.1673 36.5313 20.6068 33.0376 21.3608 31.1387L21.2692 31.0588Z" fill="#DDD6CE"/>
<path d="M21.3183 31.151C21.3183 31.151 20.2042 34.0946 20.0454 36.4975C20.0454 36.4975 20.0271 36.8324 20.2103 36.6296C20.2103 36.6296 20.6498 33.1329 21.4099 31.2309L21.3183 31.151Z" fill="#FFA422"/>
<path d="M21.5379 30.8806C21.5379 30.8806 20.3749 34.2083 20.2132 36.5436C20.2132 36.5436 20.1918 36.8662 20.3749 36.6695C20.3749 36.6695 20.8572 32.9055 21.6326 30.9543L21.5379 30.8806Z" fill="#DDD6CE"/>
<path d="M21.59 30.8529C21.59 30.8529 20.4576 34.2636 20.2928 36.6111C20.2928 36.6111 20.2714 36.9368 20.4545 36.7402C20.4545 36.7402 20.9002 32.887 21.6816 30.9297L21.59 30.8529Z" fill="#FFA422"/>
<path d="M21.6326 31.3323C21.5838 31.3169 21.5685 31.3415 21.5472 31.2585C21.4006 31.7256 20.8848 33.7013 20.6589 35.0656C20.5154 35.9259 20.4697 36.5988 20.4819 36.8293C20.4819 36.8293 20.4666 37.0659 20.7871 36.7494C20.7871 36.7463 20.9977 33.7382 21.6326 31.3323Z" fill="#DDD6CE"/>
<path d="M21.7578 31.3876C21.7089 31.3722 21.6753 31.3169 21.654 31.2339C21.5227 31.6703 21.2968 32.632 21.0557 33.8642C20.7932 35.2069 20.6284 36.2301 20.6528 36.8201C20.6528 36.8201 20.6375 37.0598 20.9519 36.7402C20.9519 36.7402 21.1564 33.732 21.7578 31.3876Z" fill="#A8A3CB"/>
<path d="M21.7577 31.3814C21.7486 31.3814 21.7425 31.3784 21.7364 31.3784C21.5929 31.8731 21.3151 32.8778 21.1472 33.8672C20.9214 35.2131 20.7413 36.2086 20.7596 36.8047C20.7596 36.8047 20.7565 36.8539 20.781 36.8785C20.8206 36.8539 20.8756 36.8078 20.9458 36.7371C20.9458 36.7341 21.1595 33.7259 21.7577 31.3814Z" fill="#DDD6CE"/>
<path d="M21.2878 34.3834C21.4007 33.5046 21.5533 32.6842 21.6785 32.0912C21.7304 31.7594 21.7853 31.449 21.8403 31.1755L21.7853 31.1479C21.7853 31.1479 21.4068 32.6474 21.187 34.3589C20.9093 36.5251 20.8757 36.8539 20.9398 36.9768C20.9612 37.0167 20.9947 37.0106 21.0314 36.9891C20.9795 36.8508 21.0222 36.4698 21.2878 34.3834Z" fill="#FFA422"/>
<path d="M21.889 31.1694C21.889 31.1694 21.4922 32.5368 21.2724 34.2513C20.9946 36.4206 20.9763 36.8785 21.0404 36.9983C21.1045 37.1212 21.2968 36.8262 21.2968 36.8262C21.2968 36.8262 21.538 33.1206 21.947 31.1971L21.889 31.1694Z" fill="#DDD6CE"/>
<path d="M22.0295 31.1602C22.0295 31.1602 21.825 35.1516 21.5167 36.8262C21.5167 36.8262 21.303 37.0352 21.2236 36.8846C21.2236 36.8846 21.7273 33.7597 21.9349 31.1694L22.0295 31.1602Z" fill="#A8A3CB"/>
<path d="M21.8827 31.1049L21.8277 30.9697C21.8277 30.9697 21.0646 35.3913 21.0951 36.7679C21.0951 36.7679 21.2172 36.7033 21.3302 36.5466C21.3332 36.5466 21.7148 32.5368 21.8827 31.1049Z" fill="#FFA422"/>
<path d="M22.0628 31.0588L22.0079 30.9236C22.0079 30.9236 21.2448 35.2407 21.2753 36.6204C21.2753 36.6204 21.3791 36.7525 21.492 36.5988C21.489 36.6019 21.8919 32.4968 22.0628 31.0588Z" fill="#DDD6CE"/>
<path d="M21.3791 36.7341C21.318 35.4497 21.9377 31.3292 21.9895 30.9912L21.9743 30.9513C21.9743 30.9513 21.5408 33.4647 21.3394 35.2438C21.2203 36.307 21.2447 36.731 21.2447 36.731C21.2844 36.7648 21.3791 36.7341 21.3791 36.7341Z" fill="#FFA422"/>
<path d="M11.23 3.3308C11.23 3.3308 4.54816 2.74699 2.88153 10.6622C1.21489 18.5806 2.64954 19.4225 2.12452 23.3156C1.60255 27.2087 1.14469 31.323 1.4133 31.5228C1.68192 31.7225 5.66536 32.2541 7.12748 32.1434C8.59266 32.0359 12.2892 31.7194 12.1762 30.9881C12.0602 30.2568 12.6036 27.9431 13.2171 24.5262C13.8307 21.1094 14.1389 15.7445 13.211 11.6793C12.2831 7.61413 12.1121 3.72103 11.23 3.3308Z" fill="#DDD6CE"/>
<path d="M18.815 2.68246C18.815 2.68246 24.1019 7.87224 22.2948 15.3358C20.4908 22.7994 19.92 29.8942 20.7411 31.32C21.5622 32.7457 31.3606 31.7932 31.3606 31.0588C31.3606 30.3244 30.8874 24.01 31.5742 21.1985C32.261 18.387 33.4637 7.35603 25.1916 3.02967C16.9225 -1.29668 18.815 2.68246 18.815 2.68246Z" fill="#DDD6CE"/>
<path d="M23.9859 16.6479C24.572 13.8363 24.8131 11.1815 23.7936 8.38845C23.4121 7.33759 22.6276 6.1884 21.8279 5.4233C21.4097 5.02385 20.8938 4.78418 20.3413 4.64284C21.7424 6.80601 23.4365 10.6162 22.2949 15.3358C20.4909 22.7994 19.9201 29.8942 20.7412 31.32C20.8694 31.5412 21.2143 31.7071 21.7058 31.8239C21.9469 30.9758 22.0598 30.0509 22.0995 29.6607C22.2216 28.49 21.9896 27.4883 21.8279 26.3821C21.6783 25.3466 21.6783 24.2374 21.8431 23.1896C22.2002 20.9343 23.5128 18.9155 23.9859 16.6479Z" fill="#A8A3CB"/>
<path d="M22.2949 15.3358C22.0507 16.3437 21.8309 17.3423 21.6325 18.3225C22.359 17.7387 23.0427 17.1088 23.5861 16.2853C23.8333 15.9104 24.0592 15.5294 24.2637 15.1392C24.6178 12.8746 24.63 10.6776 23.7936 8.38845C23.4121 7.33759 22.6276 6.1884 21.8279 5.4233C21.4097 5.02385 20.8938 4.78418 20.3413 4.64284C21.7424 6.80909 23.4365 10.6162 22.2949 15.3358Z" fill="#141551"/>
<path d="M22.9725 32.0021C24.0165 32.0851 25.2954 32.0666 26.5378 31.9867C26.6873 31.5904 26.8644 31.1848 26.9865 30.7761C27.2734 29.8051 27.3741 28.5791 27.3223 27.5313C27.2704 26.4682 26.7637 25.4849 26.4676 24.4802C25.7991 22.2217 25.9822 20.0463 26.5347 17.8001C27.2398 14.9333 27.0781 11.541 26.4706 8.665C26.1562 7.16245 25.6068 5.17134 24.3064 4.24953C23.2167 3.47829 21.7454 2.66402 20.4237 2.42128C20.1368 2.36905 19.4103 2.28301 18.6777 2.27994C18.7327 2.51039 18.812 2.67939 18.812 2.67939C18.812 2.67939 18.8181 2.68553 18.8243 2.69168C20.3749 2.91599 21.9347 4.18501 22.7924 5.29425C24.2912 7.23312 24.1904 9.69742 24.2912 12.0388C24.3431 13.2648 24.4926 14.4939 24.3553 15.726C24.2271 16.8937 23.8791 18.0275 23.5647 19.1767C23.2747 20.2398 22.8657 21.346 22.9359 22.4675C23.0092 23.5983 23.4395 24.686 23.7234 25.7799C24.0348 26.9813 24.1599 28.0107 23.9646 29.2182C23.8058 30.2261 23.2106 31.0342 22.9725 32.0021Z" fill="#FFA422"/>
<path d="M30.4849 31.1725C30.9091 29.0523 30.6558 26.8646 30.5459 24.7444C30.4818 23.503 30.8206 22.3784 30.9824 21.1709C31.1381 20.0094 31.19 18.8756 31.19 17.6711C31.19 11.8975 29.5325 5.1314 23.7298 2.6671C22.7194 2.23692 21.5778 2.05256 20.5552 1.84055C19.9112 1.70535 19.3251 1.55786 18.7177 1.46875C18.6719 1.56093 18.6444 1.65618 18.6353 1.75758C20.7109 1.8344 22.8476 2.86683 24.3555 4.17887C26.2297 5.80739 28.0276 7.97671 28.6076 10.4226C29.1326 12.638 29.0716 14.9702 29.1876 17.287C29.2395 18.3532 29.2944 19.4655 29.1906 20.5317C29.0838 21.6287 28.7083 22.6673 28.4947 23.7243C28.284 24.7751 28.2016 25.7983 28.1436 26.8891C28.0887 27.9246 28.3604 28.9356 28.4153 30.0049C28.4367 30.3951 28.3268 31.154 28.342 31.83C29.1601 31.7348 29.8866 31.6149 30.4208 31.489C30.4482 31.3661 30.4665 31.2616 30.4849 31.1725Z" fill="#A8A3CB"/>
<path d="M22.2951 15.3358C21.7182 17.7233 21.2664 20.0678 20.949 22.2064C22.9514 21.7209 25.3018 21.5949 26.889 20.5287C28.0948 19.7205 29.1997 18.6574 29.7797 17.2931C30.3994 15.8336 30.671 13.4615 29.8011 12.0357C29.2089 11.0648 28.6595 10.1553 29.0776 9.00914C29.3005 8.40074 29.74 8.23789 30.1918 8.01666C29.1417 6.04091 27.5575 4.26182 25.198 3.02967C16.9228 -1.29668 18.8153 2.68246 18.8153 2.68246C18.8153 2.68246 24.0991 7.87224 22.2951 15.3358Z" fill="#928E86"/>
<path d="M11.6724 3.92996C9.29459 5.1744 7.15787 6.74455 5.46682 8.91694C3.95586 10.8558 3.30569 13.526 3.08896 15.9196C2.8234 18.8448 3.29653 21.5734 3.66893 24.4371C3.82155 25.614 3.91312 26.7908 3.79408 27.9892C3.65977 29.3442 3.09507 30.5211 2.66162 31.7932C3.21717 31.8792 3.89176 31.9621 4.56635 32.0297C4.89906 30.9543 5.06084 29.8297 5.29283 28.7205C5.59502 27.264 5.65912 25.8936 5.47292 24.4218C5.29283 23.0052 4.82275 21.7239 4.82581 20.2675C4.83191 17.3361 5.32946 14.4785 6.5016 11.7838C7.41428 9.67897 8.8764 7.48507 10.6255 6.0071C10.946 5.73671 11.4862 5.411 11.9899 5.03306C11.8922 4.58752 11.7884 4.21572 11.6724 3.92996Z" fill="#A8A3CB"/>
<path d="M11.529 13.2003C11.9777 12.4075 12.5332 11.7254 13.0644 11.0187C12.866 10.0815 12.7072 9.16584 12.5638 8.30856C11.9808 9.28875 11.4222 10.2997 10.8849 11.2461C9.98445 12.8223 9.34344 14.5215 8.62611 16.1777C7.58828 18.5806 6.74886 21.0449 7.27083 23.6413C7.70733 25.8198 7.92405 28.2073 7.6768 30.5026C7.6127 31.0895 7.41124 31.5811 7.26472 32.1342C7.84774 32.0912 8.70548 32.0175 9.5449 31.9038C9.57848 31.5197 9.56016 31.111 9.59374 30.7792C9.7372 29.335 9.9814 27.9246 9.9814 26.4497C9.9814 25.0148 9.72499 23.7949 9.45027 22.4061C9.09009 20.5778 9.13587 18.6267 9.7891 16.8414C10.247 15.5939 10.8758 14.3526 11.529 13.2003Z" fill="#FFA422"/>
<path d="M11.1444 20.6608C10.9583 22.0066 11.3459 23.0698 11.5138 24.3572C11.6756 25.5832 11.7 26.9905 11.5291 28.1858C11.4283 28.8864 11.407 29.6085 11.2727 30.3152C11.2177 30.604 10.9857 31.237 11.0468 31.6426C11.7397 31.4767 12.222 31.2616 12.1792 30.9912C12.0632 30.2599 12.6066 27.9461 13.2201 24.5293C13.7146 21.7762 14.0076 17.7571 13.62 14.1713C13.2506 14.9302 12.866 15.6646 12.5669 16.359C11.9625 17.7387 11.352 19.1736 11.1444 20.6608Z" fill="#A8A3CB"/>
<path d="M5.19192 6.62166C3.91905 9.31026 3.16815 12.7025 4.98741 15.2744C6.45869 17.3484 8.59235 19.7205 10.958 20.7683C11.7974 21.1401 12.707 21.3122 13.6197 21.472C13.9036 18.3655 13.8914 14.6752 13.2107 11.6824C12.2828 7.61721 12.1118 3.72411 11.2327 3.33387C11.2327 3.33387 9.20589 3.15873 7.10581 4.32328C6.53805 5.03922 5.68337 5.58001 5.19192 6.62166Z" fill="#928E86"/>
<path d="M7.50582 6.66159C7.64013 7.70631 7.82633 8.75717 7.88127 9.8111C7.93927 10.8804 7.82938 12.0818 8.11326 13.1235C8.46124 14.414 9.28234 15.8551 10.5522 16.445C11.5808 16.9244 12.6919 16.7984 13.7786 16.6478C13.7298 14.9241 13.5558 13.2095 13.2078 11.6824C12.2798 7.6172 12.1089 3.7241 11.2298 3.33387C11.2298 3.33387 9.46244 3.1833 7.52108 4.10818C7.42951 4.94396 7.39288 5.78895 7.50582 6.66159Z" fill="#929286"/>
<path d="M21.1991 4.9532C21.8737 5.22667 22.5911 6.46804 22.9543 7.07951C23.5251 8.03819 23.7846 8.95692 23.8426 10.0815C23.9006 11.16 23.9006 12.3338 23.5068 13.3263C23.0398 14.5062 22.1729 14.5615 21.0038 14.5584C19.7889 14.5584 18.9922 14.3034 17.9727 13.6674C17.0509 13.0897 16.0375 12.257 14.8806 12.4168C13.6169 12.5919 12.9453 13.7257 11.7854 14.0269C10.4454 14.3741 9.40755 13.566 9.40144 12.2386C9.39228 10.6469 10.3233 9.62677 11.413 8.6558C12.405 7.77086 13.3605 7.03342 14.6211 6.56329C15.8421 6.10853 17.1638 5.86886 18.4214 5.6845C19.5875 5.51243 20.7352 5.20516 21.9043 5.08533C23.4091 4.93477 24.8285 5.67221 26.2387 6.17306C27.5757 6.64933 28.8608 6.90436 30.0818 7.65717C28.1435 4.02218 23.7144 0.451706 19.5234 0.0737645C14.9935 -0.337976 9.30987 0.955628 6.64508 4.96856C5.46684 6.74458 4.7373 8.47144 4.7373 10.5516C4.7373 11.9067 5.74461 13.4584 6.50162 14.6076C7.36241 15.9135 8.00953 16.9613 9.27019 17.9169C11.1902 19.3734 13.1437 19.5854 15.4575 19.8127C16.1351 19.8803 16.8158 19.8496 17.5087 19.8773C18.3665 19.9111 19.1876 20.1446 20.0392 20.203C21.5288 20.3013 22.7712 20.2675 24.1631 19.6837C26.1655 18.8448 29.1447 17.4468 29.8193 15.1945C30.5946 12.6104 28.9768 10.7145 28.0122 8.47451C27.7772 7.92757 27.6551 7.11023 27.3071 6.64318C26.9805 6.20686 26.1746 6.05323 25.6954 5.88116C25.0117 5.63227 24.2974 5.2574 23.5831 5.10376C22.8047 4.92862 21.9104 4.89175 21.1991 4.9532Z" fill="#DDD6CE"/>
<path d="M27.1148 7.5496C27.0019 7.11635 26.8981 6.59399 26.66 6.05319C26.66 6.05319 26.2327 5.71827 25.9 5.58307C25.4909 5.41715 25.1704 5.2758 25.1704 5.2758C25.3078 6.01018 25.842 6.81522 26.019 7.49736C26.2876 8.52671 26.5593 9.42394 26.6142 10.5332C26.7119 12.5888 26.7882 15.0623 25.0025 16.4389C24.0715 17.1579 23.1009 17.5635 21.9715 17.7356C20.7932 17.9138 19.8164 17.1948 18.684 16.9551C17.6431 16.7339 16.4069 16.8291 15.3324 16.8291C14.206 16.8291 13.2598 16.654 12.2372 16.4266C10.2226 15.978 8.39113 14.0729 7.5456 12.2723C6.32157 9.67283 8.25682 7.86916 10.0425 6.17303C11.468 4.82104 15.543 2.80536 17.5118 2.48887C19.2853 2.20618 21.6052 1.79751 25.323 2.69781C25.494 2.74083 25.6313 2.72854 25.7595 2.73161C25.1002 2.23076 24.4043 1.78522 23.6869 1.40421C22.5392 0.970959 21.3457 0.666762 20.2316 0.608381C17.579 0.467037 14.8196 1.45337 12.3044 2.27378C9.75863 3.10648 7.61581 4.54757 6.5505 7.09484C6.10179 8.16721 5.7996 9.31025 5.7935 10.4687C5.78739 11.6424 6.48945 12.4659 6.96869 13.5198C7.95768 15.683 9.89904 17.1518 12.0937 17.9169C13.4521 18.3901 15.0455 18.2549 16.4923 18.2549C17.6278 18.2549 18.51 18.5806 19.5173 19.0323C23.9952 21.0449 29.3279 15.8766 28.4671 11.246C28.229 9.96473 27.4506 8.83091 27.1148 7.5496Z" fill="#A8A3CB"/>
<path d="M28.632 5.50012C28.516 5.35878 28.4 5.21743 28.2779 5.07916C25.8787 3.76098 22.6919 3.2294 21.4771 3.16795C18.4429 3.01431 16.2421 3.67187 13.4858 4.95625C11.4528 5.90572 8.39124 7.9214 7.85706 10.2751C7.32288 12.6257 9.5237 14.0238 11.1262 15.2897C12.2251 16.1593 13.0462 16.0517 14.316 15.6154C15.3997 15.2436 16.3032 15.1299 17.396 15.6154C19.3526 16.4819 21.6969 16.8138 23.7145 15.8735C26.2755 14.6783 26.5075 11.7961 25.8909 9.31948C25.5826 8.08118 25.2346 6.98423 24.6333 5.85041C24.5509 5.6937 24.4624 5.38643 24.3494 5.03614C24.3403 5.00849 23.7847 4.90709 23.3879 4.87637C22.9056 4.84257 22.5637 4.88251 22.5821 4.88251C23.2139 5.54314 23.8091 6.16075 24.1541 7.09792C24.4746 7.97364 24.9843 9.07059 25.0729 10.017C25.256 11.9497 24.7768 14.7489 22.7499 15.4833C21.7518 15.8459 20.4942 16.0302 19.4625 15.6154C18.507 15.2344 17.6798 14.5799 16.6908 14.245C15.7843 13.9377 14.5816 13.6612 13.6598 14.0207C12.625 14.4232 11.7978 14.8073 10.7111 14.1528C10.5951 14.0822 10.4883 14.0053 10.3875 13.9224C7.16415 10.7544 9.35581 9.24573 10.2563 8.30856C11.0743 7.4605 14.6884 5.35263 17.1762 4.85486C24.6241 3.37075 27.2981 6.09008 28.632 5.50012Z" fill="#FFA422"/>
<path d="M26.0222 5.64454C25.1279 5.17135 23.6047 4.72888 22.46 4.88558C22.0815 4.93782 21.3184 5.16213 21.5016 5.13447C21.9655 5.49398 22.4204 6.19455 22.7439 6.72613C23.3788 6.67082 24.0473 6.75378 24.7799 6.91356C25.778 7.12865 26.822 7.32838 27.7652 7.73704C27.6431 7.33452 27.5179 6.91971 27.3043 6.63702C27.2585 6.57249 27.1974 6.51719 27.1333 6.46495C27.231 6.49568 27.3287 6.5264 27.4264 6.55713C26.938 6.29288 26.5259 5.91186 26.0222 5.64454Z" fill="#928E86"/>
</g>
<defs>
<clipPath id="clip0_201_2248">
<rect width="33" height="38" fill="white"/>
</clipPath>
</defs>
</svg>
