<svg width="44" height="24" viewBox="0 0 44 24" fill="none" xmlns="http://www.w3.org/2000/svg">
<g clip-path="url(#clip0_201_2613)">
<path d="M22.0578 22.0953C22.0582 22.0953 22.0734 22.0909 22.0931 22.0768L21.8608 21.7631C21.9613 21.6902 22.11 21.684 22.9903 21.6778C25.71 21.6584 32.9349 21.6075 37.4668 17.8746C39.8896 15.8794 41.4874 13.9818 42.2163 12.2335C42.6932 11.0896 42.7906 10.0279 42.5052 9.0767C42.0408 7.52857 40.8158 6.16026 38.8646 5.00977C37.2846 4.07797 35.2312 3.288 32.7607 2.66106C28.5396 1.5901 24.5189 1.3683 24.4787 1.3661L24.4997 0.977737C24.5404 0.979947 28.5945 1.20306 32.8527 2.28287C35.3612 2.91864 37.4507 3.7232 39.0638 4.67443C41.1038 5.87706 42.3887 7.32092 42.8821 8.96625C43.4256 10.7786 42.9715 13.847 37.7183 18.1733C33.0782 21.9946 25.7515 22.0467 22.9929 22.0662C22.5535 22.0697 22.1382 22.0723 22.0578 22.0953Z" fill="#F7CBBC"/>
<path d="M21.9419 22.2393C21.8611 22.2164 21.4462 22.2137 21.0063 22.2106C18.2482 22.1912 10.9211 22.1391 6.28101 18.3178C1.02825 13.991 0.573628 10.9226 1.11757 9.11028C1.61105 7.46495 2.89588 6.02109 4.93589 4.81846C6.54896 3.86766 8.63899 3.06311 11.147 2.4269C15.4052 1.34753 19.4598 1.12397 19.5 1.12177L19.521 1.51012C19.4808 1.51233 15.4602 1.73413 11.239 2.80509C8.7685 3.43203 6.71465 4.222 5.13462 5.1538C3.18348 6.30429 1.95849 7.67304 1.49404 9.22073C1.20867 10.1715 1.30603 11.2337 1.78299 12.3775C2.51182 14.1254 4.11015 16.0234 6.53244 18.0187C11.0644 21.7511 18.2893 21.8024 21.009 21.8218C21.8892 21.828 22.0379 21.8342 22.1384 21.9071L21.9062 22.2208C21.9258 22.2345 21.941 22.2389 21.9419 22.2393Z" fill="#F7CBBC"/>
<path d="M20.1167 0.713527C20.3092 0.676856 20.5133 0.645929 20.6964 0.718387C20.8795 0.790845 21.0264 1.00468 20.9643 1.19908C20.9004 1.39834 20.6705 1.4708 20.4717 1.50129C20.1694 1.54812 19.8635 1.56623 19.558 1.55563C19.3923 1.54989 19.2253 1.53487 19.0681 1.48141C19.0132 1.46241 18.9502 1.42618 18.9489 1.36565C18.9475 1.31705 18.9904 1.27729 19.0355 1.26624C19.0806 1.2552 19.1279 1.26624 19.173 1.2764C19.5848 1.36653 20.0117 1.3789 20.4271 1.31219C20.5101 1.29894 20.5977 1.28038 20.6606 1.22206C20.7236 1.16374 20.7504 1.05284 20.6946 0.98657C20.666 0.95255 20.6222 0.936645 20.5798 0.925599C20.1225 0.802774 19.6504 1.01087 19.215 1.20174C19.1605 1.22559 19.1038 1.24989 19.0449 1.25034C18.9185 1.25122 18.8564 1.13856 18.9194 1.02722C18.9783 0.92339 19.0726 0.957852 19.1623 0.932668C19.4772 0.845188 19.7969 0.774498 20.1167 0.713527Z" fill="#8E704D"/>
<path d="M22.6848 0.806318C22.6701 0.721489 22.5817 0.677307 22.504 0.648589C22.4169 0.616778 22.3289 0.587176 22.24 0.559784C22.211 0.445353 22.1574 0.337549 22.1043 0.231955C22.0668 0.158171 22.0279 0.0817367 21.964 0.0313695C21.9359 0.00927859 21.8993 -0.00751049 21.8653 0.00309314C21.8051 0.0220913 21.7957 0.10692 21.8033 0.172309C21.8135 0.25758 21.8327 0.363175 21.8676 0.460375C21.6273 0.406031 21.3835 0.368477 21.1383 0.349478C20.9565 0.33534 20.7699 0.331364 20.5979 0.394544C20.426 0.457724 20.2706 0.599547 20.2331 0.786436C20.1826 1.03827 20.3653 1.29188 20.5917 1.39084C20.8181 1.48981 21.0749 1.46949 21.3178 1.43193C21.4741 1.40763 21.6867 1.3988 21.8305 1.32722C22.0118 1.23665 21.8645 1.15138 21.7251 1.18717C21.4902 1.24769 21.2486 1.28216 21.007 1.29011C20.9195 1.29276 20.8297 1.29188 20.7471 1.26095C20.6645 1.23002 20.5899 1.16287 20.5689 1.07362C20.5358 0.934003 20.6421 0.797924 20.7614 0.726791C20.9909 0.590269 21.2705 0.600431 21.534 0.614127C21.6121 0.618104 21.6947 0.623847 21.7595 0.669354C21.9078 0.774065 21.8787 1.00469 21.9149 1.18805C21.9216 1.22295 21.9346 1.26095 21.9654 1.27597C21.9917 1.28922 22.0225 1.28127 22.0502 1.27244C22.2289 1.21633 22.3995 1.13105 22.5535 1.02104C22.6245 0.970674 22.7 0.895123 22.6848 0.806318Z" fill="#8E704D"/>
<path d="M22.7922 1.33959C22.8396 1.35196 22.8891 1.35461 22.9378 1.35108C22.995 1.3471 23.053 1.33385 23.1021 1.30248C23.1919 1.24592 23.2406 1.13768 23.262 1.03032C23.2794 0.941953 23.2817 0.84873 23.2571 0.761692C23.2325 0.675095 23.1798 0.595126 23.1053 0.549619C23.0486 0.515157 22.982 0.501461 22.9168 0.499694C22.7958 0.496159 22.6712 0.533714 22.5801 0.616775C22.5542 0.640634 22.5296 0.670235 22.527 0.706464C22.5229 0.760366 22.5716 0.805873 22.6221 0.81471C22.6725 0.823988 22.7239 0.805873 22.7721 0.787317C22.8204 0.768319 22.8699 0.747995 22.9213 0.751088C23.0182 0.757273 23.0977 0.863752 23.0803 0.964044C23.0646 1.05418 22.9829 1.12045 22.8967 1.13503C22.7869 1.15403 22.7132 1.09526 22.6788 0.994088C22.6542 0.921188 22.6757 0.835475 22.5663 0.902632C22.3693 1.02546 22.6654 1.30601 22.7922 1.33959Z" fill="#8E704D"/>
<path d="M23.614 0.830163C23.5635 0.928689 23.5689 1.04886 23.593 1.15799C23.6024 1.19996 23.6144 1.2415 23.6363 1.27772C23.6877 1.36255 23.785 1.40364 23.8792 1.42132C23.9458 1.43369 24.0141 1.43722 24.0815 1.43104C24.1503 1.42485 24.2222 1.40674 24.2713 1.35548C24.3196 1.30556 24.3379 1.23178 24.3473 1.16153C24.3598 1.06698 24.3584 0.965801 24.3138 0.88274C24.2441 0.753287 24.0896 0.703804 23.948 0.693642C23.9114 0.690991 23.8725 0.690991 23.8413 0.710873C23.81 0.730754 23.7917 0.777587 23.8127 0.808956C23.8323 0.837674 23.8712 0.839 23.9047 0.84386C24.0101 0.858882 24.1048 0.940176 24.1396 1.04577C24.153 1.0873 24.1579 1.13413 24.1409 1.1739C24.1325 1.19422 24.1186 1.21145 24.103 1.22647C24.0373 1.28965 23.9355 1.30688 23.8538 1.26977C23.7721 1.23222 23.7158 1.14164 23.7153 1.04842C23.7153 1.01042 23.7247 0.970661 23.7497 0.942827C23.7962 0.891134 23.877 0.896878 23.9333 0.857114C24.0257 0.791725 23.919 0.711756 23.8511 0.698944C23.7564 0.680829 23.6582 0.743567 23.614 0.830163Z" fill="#8E704D"/>
<path d="M24.8249 0.968454C24.7744 1.06698 24.7798 1.18715 24.8039 1.29628C24.8133 1.33826 24.8254 1.37979 24.8472 1.41602C24.8986 1.50085 24.996 1.54193 25.0902 1.55961C25.1567 1.57198 25.225 1.57551 25.2925 1.56933C25.3613 1.56314 25.4332 1.54503 25.4823 1.49378C25.5305 1.44385 25.5488 1.37007 25.5582 1.29982C25.5707 1.20527 25.5694 1.10409 25.5247 1.02103C25.455 0.891578 25.3005 0.842094 25.159 0.831932C25.1223 0.829281 25.0835 0.829281 25.0522 0.849163C25.021 0.869045 25.0026 0.915878 25.0236 0.947247C25.0433 0.975965 25.0821 0.97729 25.1156 0.98215C25.221 0.997172 25.3157 1.07847 25.3505 1.18406C25.3639 1.22559 25.3688 1.27243 25.3519 1.31219C25.3434 1.33251 25.3295 1.34974 25.3139 1.36477C25.2483 1.42795 25.1464 1.44518 25.0647 1.40806C24.983 1.37051 24.9267 1.27994 24.9263 1.18671C24.9263 1.14872 24.9357 1.10895 24.9607 1.08112C25.0071 1.02943 25.0879 1.03517 25.1442 0.995405C25.2367 0.930016 25.1299 0.850047 25.062 0.837234C24.9674 0.81912 24.8691 0.881858 24.8249 0.968454Z" fill="#8E704D"/>
<path d="M23.5574 0.84697C23.5118 0.83725 23.4654 0.834157 23.4189 0.831506C23.3515 0.82753 23.2836 0.823554 23.2162 0.819577C23.1684 0.816926 23.1188 0.814276 23.0755 0.835483C23.0322 0.85669 22.9996 0.91015 23.0161 0.956983C23.0281 0.990561 23.0608 1.01088 23.0925 1.02414C23.1693 1.05639 23.2532 1.06434 23.3358 1.07186C23.4886 1.08599 23.6409 1.10013 23.7936 1.11427C23.8025 1.11515 23.8124 1.1156 23.8199 1.11029C23.8266 1.10499 23.8298 1.09571 23.8311 1.08732C23.8552 0.954774 23.6547 0.868177 23.5574 0.84697Z" fill="#8E704D"/>
<path d="M24.2458 1.00027C24.1793 1.00601 24.1011 1.02501 24.0761 1.08996C24.0534 1.14916 24.0909 1.21897 24.1436 1.25122C24.1963 1.28347 24.2601 1.28701 24.3209 1.2901C24.4906 1.29894 24.6607 1.30733 24.8309 1.30645C24.897 1.306 25.0426 1.29584 25.0412 1.1929C25.0403 1.11691 24.959 1.11293 24.9023 1.09393C24.688 1.02059 24.4718 0.981268 24.2458 1.00027Z" fill="#8E704D"/>
<path d="M21.9768 24C23.0729 24 23.9615 23.0687 23.9615 21.9199C23.9615 20.7711 23.0729 19.8398 21.9768 19.8398C20.8807 19.8398 19.9922 20.7711 19.9922 21.9199C19.9922 23.0687 20.8807 24 21.9768 24Z" fill="#F9D7C0"/>
<path d="M22.6801 19.9746C22.9101 20.3139 23.0454 20.7288 23.0454 21.1768C23.0454 22.3255 22.1567 23.2569 21.0608 23.2569C20.8129 23.2569 20.5762 23.2087 20.3574 23.1221C20.7169 23.6532 21.3078 24 21.9763 24C23.0722 24 23.9609 23.0686 23.9609 21.9199C23.9609 21.0305 23.4286 20.2724 22.6801 19.9746Z" fill="#F7CBBC"/>
<g opacity="0.32">
<path opacity="0.32" d="M20.8481 20.8834C20.6967 21.0447 20.5655 21.2263 20.4583 21.4229C20.4016 21.5272 20.3502 21.6509 20.389 21.7635C20.41 21.8241 20.4543 21.8722 20.5002 21.9146C20.6012 22.0083 20.7427 22.0878 20.866 22.0308C20.9696 21.9831 21.0161 21.8594 21.0652 21.7525C21.1884 21.4852 21.8396 20.9956 21.7846 20.7447C21.6699 20.222 21.0062 20.7151 20.8481 20.8834Z" fill="white"/>
</g>
<path d="M25.779 23.8255C26.7831 23.8255 27.5971 22.9723 27.5971 21.9199C27.5971 20.8675 26.7831 20.0144 25.779 20.0144C24.7749 20.0144 23.9609 20.8675 23.9609 21.9199C23.9609 22.9723 24.7749 23.8255 25.779 23.8255Z" fill="#F9D7C0"/>
<path d="M26.4234 20.1381C26.6338 20.4491 26.7584 20.8291 26.7584 21.2391C26.7584 22.2915 25.9447 23.1446 24.9403 23.1446C24.7135 23.1446 24.4964 23.1009 24.2959 23.0209C24.6255 23.5074 25.1667 23.8251 25.779 23.8251C26.7829 23.8251 27.5971 22.9719 27.5971 21.9195C27.5971 21.1052 27.1094 20.4107 26.4234 20.1381Z" fill="#F7CBBC"/>
<g opacity="0.32">
<path opacity="0.32" d="M24.7457 20.9705C24.6073 21.118 24.4867 21.2846 24.3884 21.4644C24.3362 21.5599 24.2893 21.6734 24.325 21.7768C24.3442 21.832 24.3849 21.8762 24.4268 21.9155C24.5193 22.0012 24.6488 22.0741 24.7618 22.022C24.8569 21.9783 24.8993 21.8652 24.9444 21.7671C25.0574 21.5223 25.6541 21.0734 25.6032 20.8437C25.4982 20.3643 24.8904 20.8163 24.7457 20.9705Z" fill="white"/>
</g>
<path d="M29.4147 23.1862C30.4188 23.1862 31.2328 22.333 31.2328 21.2806C31.2328 20.2282 30.4188 19.375 29.4147 19.375C28.4106 19.375 27.5967 20.2282 27.5967 21.2806C27.5967 22.333 28.4106 23.1862 29.4147 23.1862Z" fill="#F9D7C0"/>
<path d="M30.0592 19.4987C30.27 19.8098 30.3941 20.1898 30.3941 20.5998C30.3941 21.6522 29.5804 22.5053 28.5761 22.5053C28.3492 22.5053 28.1322 22.4616 27.9316 22.3816C28.2612 22.8681 28.8025 23.1857 29.4148 23.1857C30.4187 23.1857 31.2328 22.3326 31.2328 21.2802C31.2328 20.4663 30.7451 19.7714 30.0592 19.4987Z" fill="#F7CBBC"/>
<g opacity="0.32">
<path opacity="0.32" d="M28.3814 20.3311C28.243 20.4787 28.1224 20.6453 28.0242 20.8251C27.9719 20.9205 27.925 21.0341 27.9608 21.1374C27.98 21.1927 28.0206 21.2369 28.0626 21.2762C28.155 21.3619 28.2845 21.4348 28.398 21.3827C28.4931 21.3389 28.5355 21.2258 28.5806 21.1277C28.6936 20.883 29.2902 20.4341 29.2393 20.2043C29.1339 19.725 28.5261 20.1769 28.3814 20.3311Z" fill="white"/>
</g>
<path d="M33.051 21.9199C34.0551 21.9199 34.869 21.0668 34.869 20.0144C34.869 18.9619 34.0551 18.1088 33.051 18.1088C32.0469 18.1088 31.2329 18.9619 31.2329 20.0144C31.2329 21.0668 32.0469 21.9199 33.051 21.9199Z" fill="#F9D7C0"/>
<path d="M33.6949 18.2325C33.9053 18.5435 34.0299 18.9235 34.0299 19.3335C34.0299 20.3859 33.2162 21.2391 32.2118 21.2391C31.9849 21.2391 31.7679 21.1953 31.5674 21.1154C31.897 21.6018 32.4382 21.9195 33.0505 21.9195C34.0544 21.9195 34.8686 21.0663 34.8686 20.0139C34.8686 19.1996 34.3809 18.5051 33.6949 18.2325Z" fill="#F7CBBC"/>
<g opacity="0.32">
<path opacity="0.32" d="M32.0172 19.0649C31.8787 19.2125 31.7582 19.379 31.6599 19.5588C31.6077 19.6543 31.5608 19.7678 31.5965 19.8712C31.6157 19.9264 31.6563 19.9706 31.6983 20.0099C31.7908 20.0956 31.9203 20.1685 32.0333 20.1164C32.1284 20.0727 32.1708 19.9596 32.2159 19.8615C32.3289 19.6167 32.9255 19.1678 32.8746 18.9381C32.7701 18.4587 32.1623 18.9107 32.0172 19.0649Z" fill="white"/>
</g>
<path d="M36.3524 20.6289C37.2575 20.6289 37.9913 19.8599 37.9913 18.9111C37.9913 17.9624 37.2575 17.1934 36.3524 17.1934C35.4472 17.1934 34.7134 17.9624 34.7134 18.9111C34.7134 19.8599 35.4472 20.6289 36.3524 20.6289Z" fill="#F9D7C0"/>
<path d="M36.9332 17.3047C37.123 17.5852 37.2351 17.9277 37.2351 18.2975C37.2351 19.2465 36.5014 20.0152 35.5961 20.0152C35.3916 20.0152 35.196 19.9755 35.0151 19.9039C35.3121 20.3426 35.8002 20.6289 36.3522 20.6289C37.2575 20.6289 37.9912 19.8597 37.9912 18.9111C37.9912 18.1768 37.5518 17.5503 36.9332 17.3047Z" fill="#F7CBBC"/>
<g opacity="0.32">
<path opacity="0.32" d="M35.4207 18.0553C35.2956 18.1883 35.1871 18.3385 35.0987 18.5007C35.0518 18.5868 35.0094 18.6889 35.0415 18.7821C35.0589 18.8321 35.0955 18.8718 35.1335 18.9072C35.217 18.9845 35.3336 19.0503 35.4358 19.003C35.5216 18.9633 35.56 18.8617 35.6006 18.7733C35.7025 18.5524 36.2402 18.1481 36.1946 17.9409C36.099 17.5088 35.5511 17.9162 35.4207 18.0553Z" fill="white"/>
</g>
<path d="M38.889 18.3832C39.7942 18.3832 40.528 17.6141 40.528 16.6654C40.528 15.7167 39.7942 14.9476 38.889 14.9476C37.9838 14.9476 37.25 15.7167 37.25 16.6654C37.25 17.6141 37.9838 18.3832 38.889 18.3832Z" fill="#F9D7C0"/>
<path d="M39.4699 15.0589C39.6597 15.3395 39.7717 15.6819 39.7717 16.0517C39.7717 17.0007 39.038 17.7695 38.1328 17.7695C37.9282 17.7695 37.7326 17.7297 37.5518 17.6581C37.8487 18.0969 38.3369 18.3832 38.8888 18.3832C39.7941 18.3832 40.5278 17.614 40.5278 16.6654C40.5283 15.9311 40.0884 15.3046 39.4699 15.0589Z" fill="#F7CBBC"/>
<g opacity="0.32">
<path opacity="0.32" d="M37.9573 15.8096C37.8322 15.9426 37.7237 16.0928 37.6353 16.2549C37.5884 16.3411 37.546 16.4431 37.5781 16.5364C37.5955 16.5863 37.6322 16.6261 37.6701 16.6614C37.7536 16.7387 37.8702 16.8045 37.9725 16.7573C38.0582 16.7175 38.0966 16.6159 38.1373 16.5275C38.2391 16.3066 38.7768 15.9024 38.7312 15.6951C38.6361 15.263 38.0881 15.6704 37.9573 15.8096Z" fill="white"/>
</g>
<path d="M41.1874 15.9231C42.0025 15.9231 42.6634 15.2304 42.6634 14.3759C42.6634 13.5214 42.0025 12.8286 41.1874 12.8286C40.3722 12.8286 39.7114 13.5214 39.7114 14.3759C39.7114 15.2304 40.3722 15.9231 41.1874 15.9231Z" fill="#F9D7C0"/>
<path d="M41.7108 12.9289C41.8819 13.1816 41.9828 13.49 41.9828 13.8232C41.9828 14.6776 41.3219 15.3704 40.5068 15.3704C40.3224 15.3704 40.1464 15.3346 39.9839 15.2701C40.2514 15.6651 40.6908 15.9231 41.1883 15.9231C42.0034 15.9231 42.6643 15.2304 42.6643 14.3759C42.6639 13.7145 42.2677 13.1503 41.7108 12.9289Z" fill="#F7CBBC"/>
<g opacity="0.32">
<path opacity="0.32" d="M40.3484 13.6049C40.2359 13.7246 40.1381 13.8598 40.0586 14.0061C40.0162 14.0834 39.9782 14.1757 40.0073 14.2597C40.0229 14.3047 40.0559 14.3405 40.0899 14.3723C40.1649 14.4421 40.2703 14.5013 40.3618 14.4589C40.4391 14.4231 40.4735 14.3317 40.5101 14.2522C40.6017 14.0533 41.0862 13.6888 41.0451 13.5024C40.9598 13.1127 40.4659 13.4794 40.3484 13.6049Z" fill="white"/>
</g>
<path d="M42.5233 13.1905C43.3385 13.1905 43.9993 12.4977 43.9993 11.6432C43.9993 10.7887 43.3385 10.096 42.5233 10.096C41.7082 10.096 41.0474 10.7887 41.0474 11.6432C41.0474 12.4977 41.7082 13.1905 42.5233 13.1905Z" fill="#F9D7C0"/>
<path d="M43.0468 10.1963C43.2178 10.449 43.3188 10.7574 43.3188 11.0905C43.3188 11.945 42.6578 12.6378 41.8428 12.6378C41.6583 12.6378 41.4824 12.602 41.3198 12.5375C41.5873 12.9325 42.0268 13.1905 42.5243 13.1905C43.3393 13.1905 44.0003 12.4977 44.0003 11.6432C43.9998 10.9818 43.6037 10.4176 43.0468 10.1963Z" fill="#F7CBBC"/>
<g opacity="0.32">
<path opacity="0.32" d="M41.6844 10.8723C41.5719 10.992 41.474 11.1272 41.3946 11.2734C41.3521 11.3507 41.3142 11.4431 41.3432 11.527C41.3588 11.5721 41.3919 11.6079 41.4258 11.6397C41.5008 11.7095 41.6062 11.7687 41.6978 11.7263C41.775 11.6905 41.8094 11.599 41.8461 11.5195C41.9376 11.3207 42.4222 10.9562 42.3811 10.7698C42.2958 10.3801 41.8018 10.7468 41.6844 10.8723Z" fill="white"/>
</g>
<path d="M42.664 9.96697C43.3258 9.96697 43.8622 9.4048 43.8622 8.71132C43.8622 8.01785 43.3258 7.45567 42.664 7.45567C42.0023 7.45567 41.4658 8.01785 41.4658 8.71132C41.4658 9.4048 42.0023 9.96697 42.664 9.96697Z" fill="#F9D7C0"/>
<path d="M43.0883 7.53697C43.2272 7.74198 43.3089 7.99204 43.3089 8.26288C43.3089 8.95653 42.7726 9.51853 42.1107 9.51853C41.9611 9.51853 41.8182 9.48937 41.686 9.43723C41.9031 9.75799 42.2599 9.96741 42.6636 9.96741C43.3255 9.96741 43.8618 9.40498 43.8618 8.71177C43.8618 8.17452 43.5407 7.71679 43.0883 7.53697Z" fill="#F7CBBC"/>
<g opacity="0.32">
<path opacity="0.32" d="M41.9825 8.0857C41.8909 8.1829 41.8119 8.29292 41.7471 8.41132C41.7127 8.47406 41.6819 8.54917 41.7056 8.61721C41.7181 8.65388 41.7449 8.6826 41.7726 8.70867C41.8338 8.76522 41.9191 8.81338 41.9936 8.77892C42.0562 8.7502 42.0843 8.67553 42.1142 8.61103C42.1888 8.44976 42.5818 8.15419 42.5483 8.00264C42.4786 7.6863 42.0781 7.98408 41.9825 8.0857Z" fill="white"/>
</g>
<path d="M41.4658 7.68631C42.1275 7.68631 42.664 7.12414 42.664 6.43067C42.664 5.73719 42.1275 5.17502 41.4658 5.17502C40.804 5.17502 40.2676 5.73719 40.2676 6.43067C40.2676 7.12414 40.804 7.68631 41.4658 7.68631Z" fill="#F9D7C0"/>
<path d="M41.8906 5.25632C42.0295 5.46132 42.1112 5.71139 42.1112 5.98222C42.1112 6.67588 41.5748 7.23787 40.913 7.23787C40.7634 7.23787 40.6205 7.20871 40.4883 7.15658C40.7053 7.47734 41.0621 7.68676 41.4659 7.68676C42.1277 7.68676 42.6641 7.12432 42.6641 6.43111C42.6641 5.89386 42.3425 5.43614 41.8906 5.25632Z" fill="#F7CBBC"/>
<g opacity="0.32">
<path opacity="0.32" d="M40.7847 5.80505C40.6932 5.90225 40.6141 6.01226 40.5494 6.13067C40.515 6.19341 40.4842 6.26852 40.5078 6.33656C40.5204 6.37323 40.5471 6.40195 40.5748 6.42801C40.636 6.48457 40.7213 6.53272 40.7959 6.49826C40.8584 6.46954 40.8866 6.39488 40.9165 6.33037C40.9911 6.16911 41.3841 5.87353 41.3506 5.72199C41.2809 5.40564 40.8803 5.70343 40.7847 5.80505Z" fill="white"/>
</g>
<path d="M39.5166 6.04495C40.1404 6.04495 40.646 5.51502 40.646 4.86132C40.646 4.20762 40.1404 3.67769 39.5166 3.67769C38.8929 3.67769 38.3872 4.20762 38.3872 4.86132C38.3872 5.51502 38.8929 6.04495 39.5166 6.04495Z" fill="#F9D7C0"/>
<path d="M39.9167 3.75412C40.0475 3.94719 40.1248 4.18312 40.1248 4.43805C40.1248 5.09194 39.6192 5.62168 38.9954 5.62168C38.8542 5.62168 38.7194 5.59429 38.5952 5.54481C38.7998 5.84701 39.136 6.0445 39.5165 6.0445C40.1404 6.0445 40.6459 5.51476 40.6459 4.86087C40.6459 4.35499 40.3427 3.92334 39.9167 3.75412Z" fill="#F7CBBC"/>
<g opacity="0.32">
<path opacity="0.32" d="M38.8745 4.27149C38.7883 4.36339 38.7138 4.46677 38.6526 4.57855C38.6204 4.63775 38.5909 4.70845 38.6133 4.77251C38.6253 4.80697 38.6503 4.83436 38.6767 4.85866C38.7343 4.91212 38.8147 4.95719 38.8848 4.92494C38.9438 4.89754 38.9701 4.82729 38.9982 4.76677C39.0683 4.61478 39.439 4.33599 39.4078 4.19329C39.3426 3.89506 38.9647 4.17561 38.8745 4.27149Z" fill="white"/>
</g>
<path d="M37.5664 4.93776C38.1902 4.93776 38.6959 4.40783 38.6959 3.75413C38.6959 3.10043 38.1902 2.5705 37.5664 2.5705C36.9427 2.5705 36.437 3.10043 36.437 3.75413C36.437 4.40783 36.9427 4.93776 37.5664 4.93776Z" fill="#F9D7C0"/>
<path d="M37.9665 2.64737C38.0973 2.84044 38.1746 3.07637 38.1746 3.3313C38.1746 3.98519 37.669 4.51493 37.0452 4.51493C36.904 4.51493 36.7692 4.48754 36.645 4.43806C36.8496 4.74026 37.1858 4.93775 37.5663 4.93775C38.1902 4.93775 38.6958 4.40801 38.6958 3.75412C38.6958 3.24824 38.393 2.81659 37.9665 2.64737Z" fill="#F7CBBC"/>
<g opacity="0.32">
<path opacity="0.32" d="M36.9248 3.1643C36.8386 3.25619 36.764 3.35958 36.7029 3.47136C36.6707 3.53056 36.6412 3.60125 36.6636 3.66532C36.6756 3.69978 36.7006 3.72717 36.727 3.75147C36.7846 3.80493 36.865 3.85 36.9351 3.81775C36.994 3.79035 37.0204 3.7201 37.0485 3.65957C37.1186 3.50759 37.4893 3.2288 37.458 3.08609C37.3924 2.78787 37.0146 3.06842 36.9248 3.1643Z" fill="white"/>
</g>
<path d="M35.5229 4.26486C36.0892 4.26486 36.5483 3.78379 36.5483 3.19036C36.5483 2.59693 36.0892 2.11586 35.5229 2.11586C34.9566 2.11586 34.4976 2.59693 34.4976 3.19036C34.4976 3.78379 34.9566 4.26486 35.5229 4.26486Z" fill="#F9D7C0"/>
<path d="M35.886 2.18523C36.0048 2.36063 36.0749 2.57491 36.0749 2.80642C36.0749 3.39978 35.6158 3.88092 35.0496 3.88092C34.9214 3.88092 34.799 3.85618 34.686 3.81112C34.8718 4.08549 35.1773 4.26486 35.5225 4.26486C36.0888 4.26486 36.5479 3.78372 36.5479 3.19036C36.5483 2.73087 36.2732 2.33898 35.886 2.18523Z" fill="#F7CBBC"/>
<g opacity="0.32">
<path opacity="0.32" d="M34.9395 2.65488C34.8613 2.73839 34.7935 2.83205 34.7381 2.93367C34.7086 2.98757 34.6823 3.05164 34.7024 3.10996C34.7131 3.14133 34.7363 3.16607 34.76 3.18816C34.8122 3.23632 34.8855 3.27785 34.9489 3.24825C35.0025 3.22351 35.0266 3.15988 35.052 3.10466C35.1159 2.96637 35.4522 2.71365 35.4236 2.58375C35.3642 2.31292 35.0212 2.56785 34.9395 2.65488Z" fill="white"/>
</g>
<path d="M33.688 3.53676C34.2543 3.53676 34.7133 3.05569 34.7133 2.46226C34.7133 1.86883 34.2543 1.38776 33.688 1.38776C33.1217 1.38776 32.6626 1.86883 32.6626 2.46226C32.6626 3.05569 33.1217 3.53676 33.688 3.53676Z" fill="#F9D7C0"/>
<path d="M34.0515 1.45757C34.1703 1.63297 34.2404 1.84725 34.2404 2.07876C34.2404 2.67212 33.7814 3.15326 33.2151 3.15326C33.0869 3.15326 32.9645 3.12852 32.8516 3.08346C33.0373 3.35783 33.3428 3.5372 33.688 3.5372C34.2543 3.5372 34.7134 3.05606 34.7134 2.4627C34.7134 2.00277 34.4383 1.61132 34.0515 1.45757Z" fill="#F7CBBC"/>
<g opacity="0.32">
<path opacity="0.32" d="M33.105 1.92678C33.0269 2.01029 32.959 2.10395 32.9036 2.20557C32.8741 2.25947 32.8478 2.32353 32.8679 2.38185C32.8786 2.41322 32.9018 2.43797 32.9255 2.46006C32.9777 2.50821 33.051 2.54975 33.1144 2.52014C33.168 2.4954 33.1921 2.43178 33.2176 2.37655C33.2814 2.23826 33.6177 1.98554 33.5891 1.85565C33.5297 1.58526 33.1867 1.83974 33.105 1.92678Z" fill="white"/>
</g>
<path d="M31.8594 3.06975C32.3734 3.06975 32.7901 2.63279 32.7901 2.09377C32.7901 1.55476 32.3734 1.1178 31.8594 1.1178C31.3454 1.1178 30.9287 1.55476 30.9287 2.09377C30.9287 2.63279 31.3454 3.06975 31.8594 3.06975Z" fill="#F9D7C0"/>
<path d="M32.1888 1.18098C32.2965 1.34004 32.3603 1.53488 32.3603 1.74474C32.3603 2.28376 31.9437 2.72072 31.4296 2.72072C31.3135 2.72072 31.2023 2.69819 31.0996 2.65754C31.2684 2.90673 31.5453 3.06931 31.8593 3.06931C32.3733 3.06931 32.7899 2.63236 32.7899 2.09334C32.7899 1.6767 32.5403 1.3206 32.1888 1.18098Z" fill="#F7CBBC"/>
<g opacity="0.32">
<path opacity="0.32" d="M31.3301 1.60733C31.2591 1.68288 31.1974 1.76816 31.1474 1.8605C31.1206 1.90954 31.0965 1.96742 31.1148 2.02043C31.1246 2.04871 31.1456 2.07124 31.1671 2.09157C31.2144 2.13531 31.2809 2.17286 31.3385 2.14635C31.3872 2.12382 31.4091 2.06594 31.4319 2.01602C31.4895 1.89054 31.795 1.66079 31.7695 1.54327C31.7155 1.29718 31.4042 1.52869 31.3301 1.60733Z" fill="white"/>
</g>
<path d="M29.9976 2.71054C30.5116 2.71054 30.9283 2.27358 30.9283 1.73457C30.9283 1.19555 30.5116 0.758591 29.9976 0.758591C29.4836 0.758591 29.0669 1.19555 29.0669 1.73457C29.0669 2.27358 29.4836 2.71054 29.9976 2.71054Z" fill="#F9D7C0"/>
<path d="M30.327 0.821777C30.4346 0.980832 30.4985 1.17567 30.4985 1.38554C30.4985 1.92456 30.0818 2.36151 29.5678 2.36151C29.4517 2.36151 29.3405 2.33898 29.2378 2.29833C29.4066 2.54752 29.6835 2.71011 29.9974 2.71011C30.5115 2.71011 30.9281 2.27315 30.9281 1.73413C30.9281 1.3175 30.6785 0.961392 30.327 0.821777Z" fill="#F7CBBC"/>
<g opacity="0.32">
<path opacity="0.32" d="M29.4682 1.24813C29.3972 1.32368 29.3356 1.40895 29.2856 1.50129C29.2588 1.55033 29.2347 1.60821 29.253 1.66123C29.2628 1.6895 29.2838 1.71203 29.3052 1.73236C29.3526 1.7761 29.4191 1.81365 29.4767 1.78714C29.5254 1.76461 29.5473 1.70673 29.5701 1.65681C29.6277 1.53133 29.9331 1.30159 29.9077 1.18406C29.8537 0.93797 29.5424 1.16948 29.4682 1.24813Z" fill="white"/>
</g>
<path d="M28.3617 2.36328C28.784 2.36328 29.1263 2.00445 29.1263 1.56182C29.1263 1.11919 28.784 0.760361 28.3617 0.760361C27.9395 0.760361 27.5972 1.11919 27.5972 1.56182C27.5972 2.00445 27.9395 2.36328 28.3617 2.36328Z" fill="#F9D7C0"/>
<path d="M28.6328 0.812057C28.7212 0.942836 28.7734 1.10277 28.7734 1.27552C28.7734 1.71823 28.4309 2.07698 28.0089 2.07698C27.9133 2.07698 27.8222 2.05843 27.7378 2.02485C27.8762 2.22941 28.104 2.36328 28.3617 2.36328C28.7841 2.36328 29.1262 2.00452 29.1262 1.56182C29.1267 1.21897 28.9213 0.92693 28.6328 0.812057Z" fill="#F7CBBC"/>
<g opacity="0.32">
<path opacity="0.32" d="M27.9266 1.16242C27.8681 1.22471 27.8176 1.29452 27.7765 1.37007C27.7547 1.41027 27.735 1.45799 27.7497 1.50129C27.7578 1.52471 27.7748 1.54326 27.7926 1.55961C27.8315 1.59584 27.886 1.62632 27.9337 1.60423C27.9735 1.58568 27.9918 1.5384 28.0106 1.49687C28.0579 1.39393 28.3089 1.20527 28.2879 1.10851C28.2437 0.907487 27.9878 1.09747 27.9266 1.16242Z" fill="white"/>
</g>
<path d="M26.8324 2.11674C27.2547 2.11674 27.597 1.75791 27.597 1.31528C27.597 0.872649 27.2547 0.513824 26.8324 0.513824C26.4102 0.513824 26.0679 0.872649 26.0679 1.31528C26.0679 1.75791 26.4102 2.11674 26.8324 2.11674Z" fill="#F9D7C0"/>
<path d="M27.1034 0.565964C27.1919 0.696742 27.2441 0.85668 27.2441 1.02943C27.2441 1.47213 26.9016 1.83089 26.4796 1.83089C26.384 1.83089 26.2929 1.81233 26.2085 1.77875C26.3469 1.98332 26.5747 2.11719 26.8324 2.11719C27.2548 2.11719 27.5969 1.75843 27.5969 1.31573C27.5974 0.972878 27.3919 0.680395 27.1034 0.565964Z" fill="#F7CBBC"/>
<g opacity="0.32">
<path opacity="0.32" d="M26.3978 0.915875C26.3393 0.978171 26.2888 1.04798 26.2477 1.12353C26.2258 1.16373 26.2062 1.21145 26.2209 1.25475C26.229 1.27817 26.2459 1.29672 26.2638 1.31307C26.3027 1.3493 26.3571 1.37978 26.4049 1.35769C26.4447 1.33914 26.463 1.29186 26.4817 1.25033C26.5291 1.14739 26.7801 0.958731 26.7591 0.861973C26.7144 0.660946 26.4585 0.85137 26.3978 0.915875Z" fill="white"/>
</g>
<path d="M25.3026 1.98243C25.7249 1.98243 26.0672 1.62361 26.0672 1.18097C26.0672 0.738342 25.7249 0.379517 25.3026 0.379517C24.8804 0.379517 24.5381 0.738342 24.5381 1.18097C24.5381 1.62361 24.8804 1.98243 25.3026 1.98243Z" fill="#F9D7C0"/>
<path d="M25.5737 0.431656C25.6621 0.562434 25.7143 0.722372 25.7143 0.894681C25.7143 1.33738 25.3718 1.69614 24.9498 1.69614C24.8542 1.69614 24.7631 1.67758 24.6787 1.644C24.8172 1.84857 25.0449 1.98244 25.3026 1.98244C25.7251 1.98244 26.0671 1.62368 26.0671 1.18098C26.0676 0.83857 25.8622 0.546087 25.5737 0.431656Z" fill="#F7CBBC"/>
<g opacity="0.32">
<path opacity="0.32" d="M24.868 0.781567C24.8095 0.843863 24.759 0.913671 24.7179 0.989221C24.6961 1.02943 24.6764 1.07714 24.6911 1.12044C24.6992 1.14386 24.7162 1.16241 24.734 1.17876C24.7729 1.21499 24.8274 1.24548 24.8751 1.22338C24.9149 1.20483 24.9332 1.15755 24.952 1.11602C24.9993 1.01308 25.2503 0.824423 25.2293 0.727665C25.1846 0.526638 24.9287 0.717062 24.868 0.781567Z" fill="white"/>
</g>
<path d="M18.2209 23.9695C19.225 23.9695 20.0389 23.1164 20.0389 22.0639C20.0389 21.0115 19.225 20.1584 18.2209 20.1584C17.2168 20.1584 16.4028 21.0115 16.4028 22.0639C16.4028 23.1164 17.2168 23.9695 18.2209 23.9695Z" fill="#F9D7C0"/>
<path d="M17.5765 20.2816C17.3661 20.5927 17.2415 20.9727 17.2415 21.3827C17.2415 22.4351 18.0552 23.2882 19.0596 23.2882C19.2864 23.2882 19.5035 23.2445 19.704 23.1645C19.3744 23.651 18.8332 23.9686 18.2209 23.9686C17.217 23.9686 16.4028 23.1155 16.4028 22.0631C16.4028 21.2492 16.8905 20.5542 17.5765 20.2816Z" fill="#F7CBBC"/>
<g opacity="0.32">
<path opacity="0.32" d="M19.2545 21.1145C19.393 21.262 19.5135 21.4286 19.6118 21.6084C19.664 21.7039 19.7109 21.8174 19.6752 21.9208C19.656 21.976 19.6154 22.0202 19.5734 22.0595C19.4809 22.1452 19.3514 22.2181 19.238 22.166C19.1429 22.1223 19.1005 22.0092 19.0553 21.9111C18.9424 21.6663 18.3457 21.2174 18.3966 20.9877C18.502 20.5083 19.1098 20.9603 19.2545 21.1145Z" fill="white"/>
</g>
<path d="M14.5847 23.3302C15.5887 23.3302 16.4027 22.477 16.4027 21.4246C16.4027 20.3722 15.5887 19.5191 14.5847 19.5191C13.5806 19.5191 12.7666 20.3722 12.7666 21.4246C12.7666 22.477 13.5806 23.3302 14.5847 23.3302Z" fill="#F9D7C0"/>
<path d="M13.9407 19.6428C13.7304 19.9538 13.6058 20.3338 13.6058 20.7438C13.6058 21.7962 14.4195 22.6493 15.4238 22.6493C15.6507 22.6493 15.8677 22.6056 16.0683 22.5256C15.7387 23.0121 15.1974 23.3297 14.5851 23.3297C13.5812 23.3297 12.7671 22.4766 12.7671 21.4242C12.7671 20.6099 13.2548 19.9154 13.9407 19.6428Z" fill="#F7CBBC"/>
<g opacity="0.32">
<path opacity="0.32" d="M15.6183 20.4752C15.7568 20.6227 15.8774 20.7893 15.9756 20.9691C16.0279 21.0646 16.0747 21.1781 16.039 21.2815C16.0198 21.3367 15.9792 21.3809 15.9372 21.4202C15.8448 21.5059 15.7152 21.5788 15.6023 21.5267C15.5071 21.483 15.4647 21.3699 15.4196 21.2718C15.3066 21.027 14.71 20.5781 14.7609 20.3484C14.8654 19.869 15.4732 20.321 15.6183 20.4752Z" fill="white"/>
</g>
<path d="M10.9489 22.064C11.953 22.064 12.767 21.2108 12.767 20.1584C12.767 19.106 11.953 18.2528 10.9489 18.2528C9.94483 18.2528 9.13086 19.106 9.13086 20.1584C9.13086 21.2108 9.94483 22.064 10.9489 22.064Z" fill="#F9D7C0"/>
<path d="M10.305 18.3765C10.0946 18.6876 9.97004 19.0675 9.97004 19.4776C9.97004 20.53 10.7837 21.3831 11.7881 21.3831C12.015 21.3831 12.232 21.3394 12.4325 21.2594C12.1029 21.7458 11.5617 22.0635 10.9494 22.0635C9.94548 22.0635 9.13135 21.2104 9.13135 20.158C9.13135 19.3437 9.61902 18.6491 10.305 18.3765Z" fill="#F7CBBC"/>
<g opacity="0.32">
<path opacity="0.32" d="M11.983 19.2089C12.1215 19.3565 12.2421 19.5231 12.3403 19.7029C12.3926 19.7983 12.4395 19.9119 12.4037 20.0153C12.3845 20.0705 12.3439 20.1147 12.3019 20.154C12.2095 20.2397 12.08 20.3126 11.9665 20.2605C11.8714 20.2167 11.829 20.1036 11.7839 20.0055C11.6709 19.7608 11.0742 19.3119 11.1251 19.0821C11.2301 18.6028 11.8379 19.0547 11.983 19.2089Z" fill="white"/>
</g>
<path d="M7.64728 20.773C8.55246 20.773 9.28625 20.0039 9.28625 19.0552C9.28625 18.1065 8.55246 17.3374 7.64728 17.3374C6.7421 17.3374 6.0083 18.1065 6.0083 19.0552C6.0083 20.0039 6.7421 20.773 7.64728 20.773Z" fill="#F9D7C0"/>
<path d="M7.06676 17.4487C6.87696 17.7293 6.76486 18.0717 6.76486 18.4415C6.76486 19.3905 7.49861 20.1593 8.40384 20.1593C8.60838 20.1593 8.80398 20.1195 8.98485 20.0479C8.68787 20.4867 8.19975 20.773 7.64777 20.773C6.74253 20.773 6.00879 20.0037 6.00879 19.0552C6.00834 18.3209 6.44823 17.6944 7.06676 17.4487Z" fill="#F7CBBC"/>
<g opacity="0.32">
<path opacity="0.32" d="M8.5794 18.1994C8.70445 18.3324 8.81297 18.4826 8.9014 18.6447C8.94829 18.7309 8.99071 18.8329 8.95856 18.9262C8.94114 18.9761 8.90452 19.0159 8.86656 19.0512C8.78305 19.1285 8.66649 19.1944 8.56422 19.1471C8.47848 19.1078 8.44007 19.0057 8.39943 18.9173C8.29761 18.6964 7.75991 18.2922 7.80547 18.085C7.90059 17.6529 8.449 18.0602 8.5794 18.1994Z" fill="white"/>
</g>
<path d="M5.11114 18.5272C6.01632 18.5272 6.75012 17.7581 6.75012 16.8094C6.75012 15.8607 6.01632 15.0916 5.11114 15.0916C4.20596 15.0916 3.47217 15.8607 3.47217 16.8094C3.47217 17.7581 4.20596 18.5272 5.11114 18.5272Z" fill="#F9D7C0"/>
<path d="M4.53013 15.203C4.34033 15.4835 4.22824 15.8259 4.22824 16.1957C4.22824 17.1448 4.96198 17.9135 5.86722 17.9135C6.07175 17.9135 6.26736 17.8738 6.44823 17.8022C6.15125 18.2409 5.66313 18.5272 5.11114 18.5272C4.20591 18.5272 3.47217 17.758 3.47217 16.8094C3.47217 16.0751 3.91206 15.4486 4.53013 15.203Z" fill="#F7CBBC"/>
<g opacity="0.32">
<path opacity="0.32" d="M6.04278 15.9531C6.16783 16.0861 6.27635 16.2364 6.36477 16.3985C6.41166 16.4847 6.45409 16.5867 6.42193 16.6799C6.40452 16.7299 6.3679 16.7696 6.32994 16.805C6.24643 16.8823 6.12987 16.9481 6.0276 16.9008C5.94185 16.8615 5.90345 16.7595 5.86281 16.6711C5.76098 16.4502 5.22329 16.0459 5.26885 15.8387C5.36442 15.4071 5.91238 15.8144 6.04278 15.9531Z" fill="white"/>
</g>
<path d="M2.81386 16.0672C3.62902 16.0672 4.28983 15.3744 4.28983 14.5199C4.28983 13.6654 3.62902 12.9727 2.81386 12.9727C1.99871 12.9727 1.33789 13.6654 1.33789 14.5199C1.33789 15.3744 1.99871 16.0672 2.81386 16.0672Z" fill="#F9D7C0"/>
<path d="M2.28891 13.073C2.11787 13.3257 2.01694 13.6341 2.01694 13.9672C2.01694 14.8217 2.67789 15.5144 3.49291 15.5144C3.67735 15.5144 3.85331 15.4787 4.01587 15.4141C3.74836 15.8091 3.30892 16.0672 2.81142 16.0672C1.9964 16.0672 1.33545 15.3744 1.33545 14.5199C1.3359 13.8585 1.73202 13.2943 2.28891 13.073Z" fill="#F7CBBC"/>
<g opacity="0.32">
<path opacity="0.32" d="M3.65129 13.7489C3.76383 13.8687 3.86163 14.0039 3.94113 14.1501C3.98355 14.2274 4.02151 14.3198 3.99248 14.4037C3.97685 14.4488 3.94381 14.4846 3.90986 14.5164C3.83484 14.5862 3.72944 14.6454 3.63789 14.603C3.56063 14.5672 3.52625 14.4757 3.48963 14.3962C3.39808 14.1974 2.91353 13.8329 2.95461 13.6464C3.03991 13.2568 3.53339 13.6235 3.65129 13.7489Z" fill="white"/>
</g>
<path d="M1.47597 13.3341C2.29113 13.3341 2.95194 12.6413 2.95194 11.7868C2.95194 10.9323 2.29113 10.2396 1.47597 10.2396C0.660815 10.2396 0 10.9323 0 11.7868C0 12.6413 0.660815 13.3341 1.47597 13.3341Z" fill="#F9D7C0"/>
<path d="M0.953017 10.3399C0.781974 10.5926 0.681045 10.901 0.681045 11.2341C0.681045 12.0886 1.34199 12.7814 2.15702 12.7814C2.34146 12.7814 2.51741 12.7456 2.67997 12.6811C2.41246 13.0761 1.97302 13.3341 1.47552 13.3341C0.660949 13.3341 0 12.6413 0 11.7868C0 11.1254 0.396123 10.5612 0.953017 10.3399Z" fill="#F7CBBC"/>
<g opacity="0.32">
<path opacity="0.32" d="M2.31535 11.0159C2.42789 11.1356 2.5257 11.2708 2.60519 11.417C2.64761 11.4943 2.68557 11.5867 2.65655 11.6706C2.64092 11.7157 2.60787 11.7515 2.57393 11.7833C2.4989 11.8531 2.39351 11.9123 2.30196 11.8699C2.2247 11.8341 2.19031 11.7426 2.15369 11.6631C2.06214 11.4643 1.57759 11.0998 1.61868 10.9134C1.70398 10.5241 2.19745 10.8908 2.31535 11.0159Z" fill="white"/>
</g>
<path d="M1.33638 10.111C1.99812 10.111 2.53457 9.54884 2.53457 8.85536C2.53457 8.16189 1.99812 7.59972 1.33638 7.59972C0.674633 7.59972 0.138184 8.16189 0.138184 8.85536C0.138184 9.54884 0.674633 10.111 1.33638 10.111Z" fill="#F9D7C0"/>
<path d="M0.911672 7.68102C0.772784 7.88602 0.691058 8.13609 0.691058 8.40692C0.691058 9.10058 1.22741 9.66257 1.88925 9.66257C2.03886 9.66257 2.18177 9.63341 2.31396 9.58127C2.09691 9.90203 1.74009 10.1115 1.33638 10.1115C0.674535 10.1115 0.138184 9.54902 0.138184 8.85581C0.138184 8.31856 0.459726 7.86039 0.911672 7.68102Z" fill="#F7CBBC"/>
<g opacity="0.32">
<path opacity="0.32" d="M2.01755 8.22975C2.1091 8.32695 2.18815 8.43696 2.2529 8.55536C2.28729 8.6181 2.31811 8.69321 2.29444 8.76125C2.28193 8.79792 2.25514 8.82664 2.22745 8.85271C2.16627 8.90926 2.08097 8.95742 2.00639 8.92296C1.94387 8.89424 1.91573 8.81957 1.88581 8.75507C1.81123 8.5938 1.41823 8.29823 1.45173 8.14668C1.5214 7.83034 1.92243 8.12813 2.01755 8.22975Z" fill="white"/>
</g>
<path d="M2.53462 7.83034C3.19636 7.83034 3.73281 7.26817 3.73281 6.57469C3.73281 5.88122 3.19636 5.31905 2.53462 5.31905C1.87288 5.31905 1.33643 5.88122 1.33643 6.57469C1.33643 7.26817 1.87288 7.83034 2.53462 7.83034Z" fill="#F9D7C0"/>
<path d="M2.10991 5.40034C1.97103 5.60535 1.8893 5.85542 1.8893 6.12625C1.8893 6.81991 2.42565 7.3819 3.08749 7.3819C3.2371 7.3819 3.38001 7.35274 3.5122 7.3006C3.29516 7.62136 2.93833 7.83079 2.53462 7.83079C1.87278 7.83079 1.33643 7.26835 1.33643 6.57514C1.33643 6.03789 1.65797 5.58016 2.10991 5.40034Z" fill="#F7CBBC"/>
<g opacity="0.32">
<path opacity="0.32" d="M3.2158 5.94908C3.30735 6.04628 3.38639 6.15629 3.45115 6.2747C3.48553 6.33743 3.51635 6.41254 3.49268 6.48058C3.48018 6.51725 3.45338 6.54597 3.42569 6.57204C3.36451 6.62859 3.27921 6.67675 3.20463 6.64229C3.14211 6.61357 3.11397 6.5389 3.08405 6.4744C3.00947 6.31313 2.61648 6.01756 2.64997 5.86601C2.71964 5.54967 3.12023 5.84746 3.2158 5.94908Z" fill="white"/>
</g>
<path d="M4.48538 6.18854C5.10914 6.18854 5.6148 5.65861 5.6148 5.0049C5.6148 4.3512 5.10914 3.82127 4.48538 3.82127C3.86162 3.82127 3.35596 4.3512 3.35596 5.0049C3.35596 5.65861 3.86162 6.18854 4.48538 6.18854Z" fill="#F9D7C0"/>
<path d="M4.08279 3.89815C3.95194 4.09122 3.87468 4.32715 3.87468 4.58208C3.87468 5.23597 4.38022 5.76571 5.0041 5.76571C5.14522 5.76571 5.28009 5.73832 5.40424 5.68884C5.19971 5.99104 4.86343 6.18853 4.48293 6.18853C3.85905 6.18853 3.35352 5.65879 3.35352 5.0049C3.35396 4.49902 3.65675 4.06736 4.08279 3.89815Z" fill="#F7CBBC"/>
<g opacity="0.32">
<path opacity="0.32" d="M5.12542 4.41507C5.21162 4.50697 5.2862 4.61036 5.34738 4.72214C5.37953 4.78134 5.40901 4.85203 5.38668 4.91609C5.37462 4.95056 5.34961 4.97795 5.32326 5.00225C5.26565 5.05571 5.18527 5.10077 5.11515 5.06852C5.0562 5.04113 5.02985 4.97088 5.00172 4.91035C4.9316 4.75837 4.56094 4.47958 4.5922 4.33687C4.65785 4.03865 5.03566 4.3192 5.12542 4.41507Z" fill="white"/>
</g>
<path d="M6.43313 5.08178C7.05689 5.08178 7.56255 4.55185 7.56255 3.89815C7.56255 3.24445 7.05689 2.71452 6.43313 2.71452C5.80937 2.71452 5.30371 3.24445 5.30371 3.89815C5.30371 4.55185 5.80937 5.08178 6.43313 5.08178Z" fill="#F9D7C0"/>
<path d="M6.03299 2.79095C5.90214 2.98403 5.82488 3.21996 5.82488 3.47489C5.82488 4.12878 6.33041 4.65852 6.95429 4.65852C7.09542 4.65852 7.23028 4.63113 7.35444 4.58164C7.1499 4.88385 6.81362 5.08134 6.43313 5.08134C5.80925 5.08134 5.30371 4.55116 5.30371 3.89771C5.30416 3.39227 5.60694 2.96061 6.03299 2.79095Z" fill="#F7CBBC"/>
<g opacity="0.32">
<path opacity="0.32" d="M7.07562 3.30832C7.16181 3.40022 7.23639 3.50361 7.29757 3.61539C7.32972 3.67459 7.3592 3.74528 7.33687 3.80934C7.32481 3.84381 7.2998 3.8712 7.27345 3.8955C7.21584 3.94896 7.13546 3.99402 7.06534 3.96177C7.0064 3.93438 6.98005 3.86413 6.95191 3.8036C6.8818 3.65162 6.51113 3.37283 6.54239 3.23012C6.60804 2.93189 6.98585 3.21245 7.07562 3.30832Z" fill="white"/>
</g>
<path d="M8.47702 4.40846C9.04332 4.40846 9.50239 3.92739 9.50239 3.33396C9.50239 2.74053 9.04332 2.25946 8.47702 2.25946C7.91073 2.25946 7.45166 2.74053 7.45166 3.33396C7.45166 3.92739 7.91073 4.40846 8.47702 4.40846Z" fill="#F9D7C0"/>
<path d="M8.1135 2.32927C7.99471 2.50467 7.9246 2.71895 7.9246 2.95047C7.9246 3.54383 8.38369 4.02497 8.94996 4.02497C9.07813 4.02497 9.20049 4.00023 9.31348 3.95516C9.1277 4.22953 8.82224 4.40891 8.47702 4.40891C7.91075 4.40891 7.45166 3.92777 7.45166 3.33441C7.45166 2.87491 7.72676 2.48302 8.1135 2.32927Z" fill="#F7CBBC"/>
<g opacity="0.32">
<path opacity="0.32" d="M9.06004 2.79893C9.13819 2.88243 9.20608 2.9761 9.26145 3.07771C9.29093 3.13162 9.31727 3.19568 9.29718 3.254C9.28646 3.28537 9.26324 3.31011 9.23957 3.3322C9.18732 3.38036 9.11408 3.42189 9.05066 3.39229C8.99707 3.36755 8.97296 3.30392 8.9475 3.2487C8.88364 3.11041 8.54736 2.85769 8.57594 2.72779C8.63578 2.45696 8.97831 2.71189 9.06004 2.79893Z" fill="white"/>
</g>
<path d="M10.3115 3.68079C10.8778 3.68079 11.3369 3.19972 11.3369 2.60629C11.3369 2.01285 10.8778 1.53178 10.3115 1.53178C9.7452 1.53178 9.28613 2.01285 9.28613 2.60629C9.28613 3.19972 9.7452 3.68079 10.3115 3.68079Z" fill="#F9D7C0"/>
<path d="M9.94847 1.60115C9.82967 1.77655 9.75956 1.99083 9.75956 2.22235C9.75956 2.81571 10.2187 3.29685 10.7849 3.29685C10.9131 3.29685 11.0355 3.27211 11.1484 3.22704C10.9627 3.50141 10.6572 3.68079 10.312 3.68079C9.74571 3.68079 9.28662 3.19965 9.28662 2.60629C9.28618 2.1468 9.56127 1.7549 9.94847 1.60115Z" fill="#F7CBBC"/>
<g opacity="0.32">
<path opacity="0.32" d="M10.895 2.07081C10.9732 2.15431 11.041 2.24798 11.0964 2.3496C11.1259 2.4035 11.1522 2.46756 11.1321 2.52588C11.1214 2.55725 11.0982 2.58199 11.0745 2.60408C11.0223 2.65224 10.949 2.69377 10.8856 2.66417C10.832 2.63943 10.8079 2.57581 10.7825 2.52058C10.7186 2.38229 10.3823 2.12957 10.4109 1.99968C10.4703 1.72884 10.8133 1.98377 10.895 2.07081Z" fill="white"/>
</g>
<path d="M12.1426 3.21334C12.6566 3.21334 13.0733 2.77638 13.0733 2.23736C13.0733 1.69834 12.6566 1.26138 12.1426 1.26138C11.6286 1.26138 11.2119 1.69834 11.2119 2.23736C11.2119 2.77638 11.6286 3.21334 12.1426 3.21334Z" fill="#F9D7C0"/>
<path d="M11.8106 1.325C11.703 1.48405 11.6391 1.67889 11.6391 1.88876C11.6391 2.42778 12.0558 2.86473 12.5698 2.86473C12.6859 2.86473 12.7971 2.8422 12.8998 2.80155C12.731 3.05074 12.4541 3.21333 12.1402 3.21333C11.6261 3.21333 11.2095 2.77637 11.2095 2.23735C11.2099 1.82028 11.4596 1.46461 11.8106 1.325Z" fill="#F7CBBC"/>
<g opacity="0.32">
<path opacity="0.32" d="M12.67 1.75135C12.741 1.8269 12.8026 1.91217 12.8526 2.00451C12.8794 2.05355 12.9035 2.11143 12.8852 2.16445C12.8754 2.19273 12.8544 2.21526 12.833 2.23558C12.7856 2.27932 12.7191 2.31688 12.6615 2.29037C12.6128 2.26784 12.5909 2.20996 12.5681 2.16003C12.5105 2.03456 12.2051 1.80481 12.2305 1.68729C12.2845 1.44119 12.5958 1.67227 12.67 1.75135Z" fill="white"/>
</g>
<path d="M14.003 2.85414C14.517 2.85414 14.9336 2.41718 14.9336 1.87817C14.9336 1.33915 14.517 0.902191 14.003 0.902191C13.4889 0.902191 13.0723 1.33915 13.0723 1.87817C13.0723 2.41718 13.4889 2.85414 14.003 2.85414Z" fill="#F9D7C0"/>
<path d="M13.6724 0.965805C13.5648 1.12486 13.5009 1.3197 13.5009 1.52956C13.5009 2.06858 13.9176 2.50554 14.4316 2.50554C14.5477 2.50554 14.6589 2.48301 14.7616 2.44236C14.5928 2.69155 14.3159 2.85414 14.002 2.85414C13.488 2.85414 13.0713 2.41718 13.0713 1.87816C13.0717 1.46108 13.3214 1.10542 13.6724 0.965805Z" fill="#F7CBBC"/>
<g opacity="0.32">
<path opacity="0.32" d="M14.5318 1.39216C14.6028 1.46771 14.6644 1.55298 14.7144 1.64532C14.7412 1.69436 14.7653 1.75224 14.747 1.80526C14.7372 1.83354 14.7162 1.85607 14.6948 1.87639C14.6474 1.92013 14.5809 1.95769 14.5233 1.93118C14.4746 1.90864 14.4527 1.85077 14.4299 1.80084C14.3723 1.67536 14.0669 1.44562 14.0923 1.3281C14.1464 1.082 14.4576 1.31307 14.5318 1.39216Z" fill="white"/>
</g>
<path d="M15.6381 2.50732C16.0603 2.50732 16.4027 2.14849 16.4027 1.70586C16.4027 1.26323 16.0603 0.904404 15.6381 0.904404C15.2158 0.904404 14.8735 1.26323 14.8735 1.70586C14.8735 2.14849 15.2158 2.50732 15.6381 2.50732Z" fill="#F9D7C0"/>
<path d="M15.367 0.9561C15.2786 1.08688 15.2263 1.24682 15.2263 1.41913C15.2263 1.86183 15.5689 2.22058 15.9909 2.22058C16.0865 2.22058 16.1776 2.20203 16.262 2.16845C16.1235 2.37301 15.8958 2.50688 15.6381 2.50688C15.2156 2.50688 14.8735 2.14813 14.8735 1.70542C14.8731 1.36301 15.0785 1.07097 15.367 0.9561Z" fill="#F7CBBC"/>
<g opacity="0.32">
<path opacity="0.32" d="M16.0725 1.30646C16.131 1.36875 16.1815 1.43856 16.2225 1.51411C16.2444 1.55432 16.2641 1.60203 16.2493 1.64533C16.2413 1.66875 16.2243 1.6873 16.2065 1.70365C16.1676 1.73988 16.1131 1.77037 16.0653 1.74828C16.0256 1.72972 16.0073 1.68244 15.9885 1.64091C15.9412 1.53797 15.6902 1.34931 15.7112 1.25256C15.7559 1.05153 16.0118 1.24151 16.0725 1.30646Z" fill="white"/>
</g>
<path d="M17.1674 2.26078C17.5896 2.26078 17.9319 1.90196 17.9319 1.45933C17.9319 1.01669 17.5896 0.657867 17.1674 0.657867C16.7451 0.657867 16.4028 1.01669 16.4028 1.45933C16.4028 1.90196 16.7451 2.26078 17.1674 2.26078Z" fill="#F9D7C0"/>
<path d="M16.8968 0.709564C16.8084 0.840342 16.7561 1.00028 16.7561 1.17259C16.7561 1.61529 17.0987 1.97405 17.5207 1.97405C17.6163 1.97405 17.7074 1.95549 17.7918 1.92191C17.6533 2.12647 17.4256 2.26034 17.1679 2.26034C16.7454 2.26034 16.4033 1.90159 16.4033 1.45889C16.4029 1.11692 16.6083 0.824437 16.8968 0.709564Z" fill="#F7CBBC"/>
<g opacity="0.32">
<path opacity="0.32" d="M17.6023 1.05992C17.6608 1.12222 17.7113 1.19203 17.7523 1.26758C17.7742 1.30778 17.7939 1.3555 17.7791 1.3988C17.7711 1.42221 17.7541 1.44077 17.7363 1.45712C17.6974 1.49335 17.6429 1.52383 17.5951 1.50174C17.5554 1.48318 17.5371 1.43591 17.5183 1.39438C17.471 1.29144 17.22 1.10278 17.241 1.00602C17.2856 0.804993 17.5415 0.994975 17.6023 1.05992Z" fill="white"/>
</g>
<path d="M18.6967 2.12646C19.1189 2.12646 19.4612 1.76763 19.4612 1.325C19.4612 0.882369 19.1189 0.523544 18.6967 0.523544C18.2744 0.523544 17.9321 0.882369 17.9321 1.325C17.9321 1.76763 18.2744 2.12646 18.6967 2.12646Z" fill="#F9D7C0"/>
<path d="M18.4256 0.575241C18.3372 0.706019 18.2849 0.865957 18.2849 1.03827C18.2849 1.48097 18.6275 1.83972 19.0495 1.83972C19.1451 1.83972 19.2362 1.82117 19.3206 1.78759C19.1821 1.99215 18.9544 2.12602 18.6967 2.12602C18.2742 2.12602 17.9321 1.76727 17.9321 1.32456C17.9321 0.982597 18.1371 0.690114 18.4256 0.575241Z" fill="#F7CBBC"/>
<g opacity="0.32">
<path opacity="0.32" d="M19.1316 0.925599C19.1901 0.987896 19.2405 1.0577 19.2816 1.13325C19.3035 1.17346 19.3232 1.22118 19.3084 1.26447C19.3004 1.28789 19.2834 1.30645 19.2656 1.32279C19.2267 1.35902 19.1722 1.38951 19.1244 1.36742C19.0847 1.34886 19.0664 1.30159 19.0476 1.26006C19.0003 1.15711 18.7493 0.968456 18.7703 0.871697C18.8149 0.67067 19.0708 0.860652 19.1316 0.925599Z" fill="white"/>
</g>
</g>
<defs>
<clipPath id="clip0_201_2613">
<rect width="44" height="24" fill="white"/>
</clipPath>
</defs>
</svg>
