<svg width="19" height="21" viewBox="0 0 19 21" fill="none" xmlns="http://www.w3.org/2000/svg">
<g clip-path="url(#clip0_201_2892)">
<path d="M5.9274 18.5294C6.30871 16.9515 5.30874 15.3703 3.69391 14.9977C2.07907 14.6251 0.460885 15.6022 0.079578 17.1801C-0.301729 18.758 0.698238 20.3392 2.31307 20.7118C3.9279 21.0843 5.54609 20.1073 5.9274 18.5294Z" fill="#F9D7C0"/>
<path d="M4.06879 15.1091C4.41652 15.5885 4.62195 16.1734 4.62195 16.8053C4.62195 18.4263 3.27699 19.741 1.61752 19.741C1.24266 19.741 0.883853 19.6734 0.552734 19.5505C1.09703 20.2999 1.99183 20.7895 3.00401 20.7895C4.66292 20.7895 6.00844 19.4753 6.00844 17.8538C6.00844 16.5992 5.20279 15.529 4.06879 15.1091Z" fill="#F7CBBC"/>
<g opacity="0.32">
<path opacity="0.32" d="M1.0152 16.9649C0.785968 17.1921 0.587186 17.4491 0.424949 17.7262C0.339124 17.8733 0.261604 18.0481 0.320298 18.2071C0.351859 18.2926 0.418858 18.3603 0.488626 18.4203C0.64145 18.5523 0.855735 18.6649 1.04234 18.5842C1.19904 18.5166 1.26936 18.3424 1.34411 18.192C1.53071 17.8143 2.51631 17.1234 2.4327 16.7696C2.25884 16.0311 1.25441 16.7274 1.0152 16.9649Z" fill="white"/>
</g>
<path d="M2.65135 12.7735C2.60207 12.8936 2.60705 13.0267 2.61314 13.156C2.63031 13.5401 2.64692 13.9242 2.66408 14.3089C2.67128 14.4723 2.68069 14.6433 2.76541 14.7845C2.85013 14.9257 3.03562 15.0236 3.18844 14.9576C3.35733 14.8846 3.39553 14.6714 3.40882 14.4918C3.4426 14.0265 3.45976 13.5601 3.46032 13.0932C3.46032 12.959 3.45699 12.8173 3.38501 12.7037C3.2189 12.4429 2.76541 12.4954 2.65135 12.7735Z" fill="#FED85B"/>
<path d="M0.412882 2.80475C0.466591 3.35662 0.691398 3.87602 0.894609 4.39379C1.70358 6.45354 2.20469 8.62853 2.37744 10.8279C2.41897 11.3592 2.44278 11.898 2.6017 12.4082C2.65098 12.5668 2.72407 12.734 2.87246 12.8135C3.09118 12.9304 3.37966 12.7924 3.50646 12.5825C3.63326 12.3725 3.64212 12.1161 3.6471 11.8726C3.69804 9.48716 3.74898 7.10171 3.79993 4.71626C3.82816 3.38259 4.4522 -0.0324693 2.03857 0.743926C1.03138 1.06801 0.305462 1.69562 0.412882 2.80475Z" fill="#FED85B"/>
<path d="M5.68249 2.02998C6.8342 2.09653 7.9909 2.03539 9.13376 1.84711C9.31925 1.81681 9.56178 1.82114 9.62822 2.03756C9.6764 2.19392 9.5867 2.373 9.46654 2.44983C9.34639 2.52666 9.20574 2.52882 9.07008 2.53315C8.65757 2.54614 8.24616 2.59537 7.83531 2.64515C6.91117 2.7566 5.98703 2.86752 5.06289 2.97897C4.3857 3.06067 3.70298 3.14345 3.05181 3.38746C2.99423 3.4091 2.99921 2.21556 3.0125 2.10356C3.90342 1.93043 4.77773 1.9775 5.68249 2.02998Z" fill="#FED85B"/>
<path d="M7.23484 8.49273C8.14957 7.24401 7.91147 5.55542 7.98013 4.02102C8.02775 2.96058 8.24204 1.90771 8.61468 0.91057C8.74425 0.563762 8.92144 0.193148 9.26529 0.0400333C9.34447 0.00486553 9.43694 -0.0167762 9.51668 0.0156864C9.75477 0.112533 9.60693 0.4588 9.45632 0.663314C8.74425 1.63286 8.76862 2.92649 8.82897 4.11895C8.86884 4.91049 8.91203 5.70258 8.97072 6.49304C9.01557 7.09738 9.06928 7.7093 8.95411 8.30445C8.72764 9.47148 7.85887 10.4491 6.819 11.0648C5.77858 11.68 4.57593 11.9765 3.38047 12.1935C3.26142 12.2151 3.12355 12.2319 3.03108 12.1545C2.80073 11.9624 2.75865 10.7083 2.92089 10.4556C3.16507 10.0758 3.77194 10.1186 4.17283 10.052C5.33063 9.86103 6.51779 9.45579 7.23484 8.49273Z" fill="#FED85B"/>
<path d="M2.65383 0.631391C3.13833 1.52736 2.93678 3.24841 2.94951 4.10434C2.98495 6.49033 3.02039 8.87579 3.05582 11.2618C3.0597 11.5058 3.06025 11.7622 2.94065 11.9765C2.86258 12.1166 2.71419 12.2281 2.55859 12.2578C2.57188 12.3082 2.58573 12.3585 2.60123 12.4088C2.65051 12.5673 2.7236 12.7345 2.87199 12.814C3.09071 12.9309 3.37919 12.7929 3.50599 12.583C3.63279 12.3731 3.64165 12.1166 3.64663 11.8732C3.69757 9.4877 3.74852 7.10225 3.79946 4.7168C3.82493 3.51082 4.33711 0.605963 2.65383 0.631391Z" fill="#F9BF4B"/>
<path d="M0.788282 17.0006C1.08673 16.9817 1.37964 16.8837 1.62715 16.7193C1.80766 16.9557 2.10943 17.0991 2.41065 17.0915C2.71242 17.0839 3.00589 16.9259 3.17422 16.6808C3.27665 16.9806 3.55517 17.2154 3.87355 17.2711C4.19194 17.3269 4.53634 17.2008 4.739 16.9541C4.94111 17.1094 5.18695 17.2094 5.44221 17.2408C5.59393 17.2598 5.76281 17.2495 5.87798 17.151C6.10445 16.9579 5.97765 16.5943 5.81043 16.3503C5.16647 15.4105 4.09504 14.7255 2.93889 14.666C2.141 14.6249 1.32372 14.9106 0.736787 15.4408C0.500353 15.6545 0.136012 16.0175 0.0784264 16.3405C0.000353314 16.7777 0.389611 17.0255 0.788282 17.0006Z" fill="#FED85B"/>
<g opacity="0.62">
<path opacity="0.62" d="M1.02184 15.7405C0.915532 15.8596 0.814757 15.9959 0.801468 16.1539C0.797038 16.2074 0.804236 16.2648 0.838566 16.3065C0.898367 16.3784 1.01631 16.3746 1.09936 16.3297C1.18187 16.2843 1.24167 16.2085 1.31033 16.1447C1.5523 15.9202 2.64754 15.6599 2.48419 15.2049C2.24554 14.5416 1.21343 15.5257 1.02184 15.7405Z" fill="white"/>
</g>
<path d="M4.67735 15.9678C4.85509 16.1923 5.00625 16.4433 5.06882 16.7198C5.10592 16.8843 5.12087 17.0737 5.25487 17.1802C5.416 17.3096 5.65742 17.2452 5.84568 17.157C5.9088 17.1272 5.97303 17.0942 6.01456 17.039C6.05941 16.9801 6.07159 16.9032 6.07215 16.8302C6.07491 16.5516 5.92929 16.2913 5.75542 16.0706C5.40548 15.6269 4.92984 15.2904 4.42375 15.0269C4.17126 14.8954 3.90714 14.7807 3.63139 14.7034C3.52619 14.6741 2.88333 14.501 2.81689 14.6195C2.74214 14.7526 3.26318 14.8998 3.33184 14.9301C3.57602 15.0388 3.80803 15.1746 4.02176 15.3331C4.26761 15.516 4.48854 15.7292 4.67735 15.9678Z" fill="#F9BF4B"/>
<path d="M18.898 18.5353C19.1638 16.9349 18.0515 15.4269 16.4136 15.1672C14.7757 14.9074 13.2325 15.9943 12.9667 17.5947C12.7008 19.1951 13.8131 20.7031 15.451 20.9628C17.0889 21.2226 18.6322 20.1357 18.898 18.5353Z" fill="#F9D7C0"/>
<path d="M16.996 15.3196C17.3438 15.7989 17.5492 16.3838 17.5492 17.0157C17.5492 18.6367 16.2042 19.9514 14.5448 19.9514C14.1699 19.9514 13.8111 19.8838 13.48 19.761C14.0243 20.5103 14.9191 21 15.9313 21C17.5902 21 18.9357 19.6858 18.9357 18.0643C18.9357 16.8096 18.1295 15.7394 16.996 15.3196Z" fill="#F7CBBC"/>
<g opacity="0.32">
<path opacity="0.32" d="M13.9425 17.1753C13.7132 17.4026 13.5144 17.6596 13.3522 17.9366C13.2664 18.0838 13.1889 18.2585 13.2475 18.4176C13.2791 18.5031 13.3461 18.5707 13.4159 18.6307C13.5687 18.7628 13.783 18.8753 13.9696 18.7947C14.1263 18.7271 14.1966 18.5528 14.2714 18.4024C14.458 18.0248 15.4436 17.3339 15.3599 16.98C15.1861 16.2421 14.1817 16.9378 13.9425 17.1753Z" fill="white"/>
</g>
<path d="M15.5791 12.9839C15.5298 13.104 15.5348 13.2371 15.5409 13.3664C15.558 13.7506 15.5747 14.1347 15.5918 14.5194C15.599 14.6828 15.6084 14.8538 15.6931 14.995C15.7779 15.1362 15.9634 15.2341 16.1162 15.1681C16.2851 15.0951 16.3233 14.8819 16.3366 14.7023C16.3703 14.237 16.3875 13.7706 16.3881 13.3037C16.3881 13.1695 16.3847 13.0277 16.3127 12.9141C16.1466 12.6533 15.6926 12.7058 15.5791 12.9839Z" fill="#FED85B"/>
<path d="M13.716 17.2111C14.0145 17.1921 14.3074 17.0942 14.5549 16.9297C14.7354 17.1662 15.0372 17.3096 15.3384 17.302C15.6402 17.2944 15.9336 17.1364 16.102 16.8913C16.2044 17.1911 16.4829 17.4259 16.8013 17.4816C17.1197 17.5373 17.4641 17.4113 17.6667 17.1646C17.8688 17.3198 18.1147 17.4199 18.37 17.4513C18.5217 17.4702 18.6906 17.46 18.8057 17.3615C19.0322 17.1683 18.9054 16.8048 18.7382 16.5608C18.0942 15.621 17.0228 14.936 15.8666 14.8765C15.0687 14.8354 14.2515 15.121 13.6645 15.6513C13.4281 15.865 13.0637 16.228 13.0062 16.551C12.9281 16.9882 13.3173 17.2365 13.716 17.2111Z" fill="#FED85B"/>
<g opacity="0.62">
<path opacity="0.62" d="M13.9491 15.9515C13.8428 16.0706 13.742 16.2069 13.7287 16.3649C13.7243 16.4184 13.7315 16.4758 13.7658 16.5175C13.8256 16.5894 13.9436 16.5856 14.0266 16.5407C14.1091 16.4953 14.1689 16.4195 14.2376 16.3557C14.4795 16.1312 15.5753 15.8709 15.4114 15.4159C15.1722 14.7526 14.1407 15.7367 13.9491 15.9515Z" fill="white"/>
</g>
<path d="M17.6046 16.1782C17.7823 16.4028 17.9335 16.6538 17.9961 16.9303C18.0332 17.0947 18.0481 17.2841 18.1821 17.3907C18.3432 17.52 18.5847 17.4556 18.7729 17.3674C18.8361 17.3377 18.9003 17.3047 18.9418 17.2495C18.9867 17.1905 18.9988 17.1142 18.9994 17.0406C19.0022 16.762 18.8565 16.5018 18.6827 16.281C18.3327 15.8374 17.8571 15.5008 17.351 15.2374C17.0985 15.1059 16.8344 14.9912 16.5586 14.9138C16.4534 14.8846 15.8106 14.7115 15.7441 14.8299C15.6694 14.963 16.1904 15.1102 16.2591 15.1405C16.5033 15.2493 16.7353 15.3851 16.949 15.5436C17.1943 15.727 17.4158 15.9402 17.6046 16.1782Z" fill="#F9BF4B"/>
<path d="M16.9639 0.989551C16.5442 0.854291 16.2169 0.846175 15.9617 0.93166C15.7064 0.846175 15.3792 0.854291 14.9595 0.989551C13.9528 1.31364 13.2264 1.94124 13.3338 3.05038C13.3875 3.60224 13.6123 4.12164 13.8155 4.63942C14.6245 6.69917 15.1256 8.87415 15.2983 11.0735C15.3399 11.6048 15.3637 12.1437 15.5226 12.6539C15.5719 12.8124 15.645 12.9796 15.7934 13.0591C15.8465 13.0878 15.9041 13.1008 15.9617 13.1019C16.0198 13.1008 16.0769 13.0878 16.13 13.0591C16.2784 12.9796 16.3515 12.8124 16.4008 12.6539C16.5591 12.1437 16.5829 11.6048 16.625 11.0735C16.7978 8.87361 17.2989 6.69917 18.1079 4.63942C18.3111 4.12218 18.5359 3.60224 18.5896 3.05038C18.697 1.9407 17.9705 1.31364 16.9639 0.989551Z" fill="#FED85B"/>
<path d="M17.447 1.18054C17.9558 1.54466 18.2576 2.0711 18.1856 2.81341C18.1319 3.36527 17.9071 3.88467 17.7039 4.40245C16.8949 6.46219 16.3938 8.63718 16.2211 10.8365C16.1795 11.3678 16.1557 11.9067 15.9968 12.4169C15.9475 12.5754 15.8744 12.7426 15.726 12.8221C15.6878 12.8427 15.6474 12.8546 15.6064 12.8606C15.6513 12.9428 15.71 13.0147 15.793 13.0591C15.8462 13.0878 15.9038 13.1008 15.9614 13.1019C16.0195 13.1008 16.0765 13.0878 16.1297 13.0591C16.2781 12.9796 16.3512 12.8124 16.4005 12.6539C16.5588 12.1437 16.5826 11.6048 16.6247 11.0735C16.7975 8.87362 17.2986 6.69917 18.1076 4.63942C18.3108 4.12219 18.5356 3.60225 18.5893 3.05038C18.679 2.12791 18.1923 1.53871 17.447 1.18054Z" fill="#F9BF4B"/>
<g opacity="0.41">
<path opacity="0.41" d="M14.6606 1.61013C14.2996 1.87849 14.061 2.29942 14.0194 2.74091C13.9856 3.1007 14.0765 3.45941 14.1662 3.81001C14.3013 4.33482 14.4358 4.86017 14.5709 5.38498C14.6014 5.50401 14.6335 5.62629 14.7093 5.72421C14.7852 5.82214 14.9164 5.88923 15.0371 5.85461C15.1567 5.81998 15.2298 5.69554 15.2415 5.57435C15.2536 5.45315 15.2177 5.33304 15.185 5.21509C15.0643 4.77523 14.9917 4.32292 14.9679 3.8679C14.9557 3.62822 14.9574 3.38313 15.0377 3.15589C15.118 2.92865 15.2874 2.72143 15.5205 2.64677C15.793 2.55966 16.0986 2.66462 16.3744 2.58834C16.7343 2.48824 16.9452 2.04513 16.7913 1.71185C16.4652 1.00363 15.1363 1.25629 14.6606 1.61013Z" fill="white"/>
</g>
<g opacity="0.41">
<path opacity="0.41" d="M0.900884 2.41195C0.899777 2.66949 1.07364 2.89077 1.21761 3.10665C1.43134 3.42694 1.59468 3.7797 1.69933 4.14815C1.87707 4.77089 1.89092 5.43908 2.15171 6.03314C2.14452 4.88668 2.10243 3.74075 2.02492 2.59699C2.00055 2.23503 2.13621 1.51761 1.67552 1.55819C1.32835 1.58902 0.901992 2.09003 0.900884 2.41195Z" fill="white"/>
</g>
</g>
<defs>
<clipPath id="clip0_201_2892">
<rect width="19" height="21" fill="white"/>
</clipPath>
</defs>
</svg>
