<svg width="43" height="33" viewBox="0 0 43 33" fill="none" xmlns="http://www.w3.org/2000/svg">
<g clip-path="url(#clip0_201_1487)">
<path d="M16.0317 27.1876C16.0317 27.1876 15.4246 24.488 16.7196 22.0539C18.0146 19.6165 24.4605 15.3503 21.5088 10.5565C18.5603 5.76265 14.5009 12.955 14.5009 12.955C14.5009 12.955 17.2556 4.09566 12.8281 1.41552C8.39729 -1.26462 -1.74961 1.61621 0.262332 11.9548C2.27427 22.2902 5.31964 26.0191 5.41006 28.3658C5.41006 28.3658 14.1069 28.2169 16.0317 27.1876Z" fill="#0E99AE"/>
<path opacity="0.55" d="M21.182 14.9965C19.5221 17.1134 17.2131 18.6056 15.4756 20.661C14.1289 22.2503 12.511 23.2246 10.4248 23.4318C6.08441 23.8623 3.63003 19.3727 2.37378 15.9481C1.37588 13.2291 1.25962 10.5717 0.797815 7.75234C0.662178 6.92693 0.665408 6.23101 0.742914 5.5901C0.0130607 7.27004 -0.242065 9.38049 0.258498 11.9506C2.27044 22.2859 5.3158 26.0148 5.40623 28.3616C5.40623 28.3616 14.1031 28.2127 16.0279 27.1833C16.0279 27.1833 15.4207 24.4838 16.7157 22.0496C17.7685 20.0687 22.2284 16.8771 22.2704 13.1741C22.0056 13.7859 21.6535 14.3912 21.182 14.9965Z" fill="#0E99AE"/>
<path opacity="0.55" d="M13.2569 1.71556C13.8931 2.76107 14.3032 3.96519 14.4324 5.15637C14.5809 6.56765 14.5809 7.83327 14.1546 9.2057C13.8059 10.3321 12.3591 13.4687 13.5249 14.6534C14.2257 14.443 14.9265 14.1776 15.3011 13.7535C16.0988 12.8472 16.6607 11.8276 17.397 10.8856C18.03 10.0797 18.7857 9.25426 19.7868 9.00178C17.1903 8.18932 14.5002 12.954 14.5002 12.954C14.5002 12.954 17.0644 4.69997 13.2569 1.71556Z" fill="#0E99AE"/>
<path d="M4.912 27.4714C5.38995 26.7528 13.5378 25.8853 14.3904 25.8012C15.0718 25.7364 15.9405 25.8595 16.3604 26.4971C16.7673 27.1121 17.0321 30.7439 16.4831 31.2489C15.7984 31.8768 6.6236 34.0002 5.46746 32.2976C5.02503 31.647 4.26288 28.449 4.912 27.4714Z" fill="#E3F3F5"/>
<path d="M16.2248 26.3353C16.1247 27.439 15.7889 28.5007 15.0525 29.3844C13.4863 31.2553 10.6411 32.0095 8.31593 31.278C6.60433 30.7374 4.86689 29.3941 4.84428 27.6074C4.3308 28.7144 5.04451 31.6729 5.46756 32.2976C6.62693 34.0002 15.8018 31.8768 16.4832 31.2488C17.0322 30.7439 16.7641 27.1121 16.3605 26.4971C16.3185 26.4356 16.2733 26.3838 16.2248 26.3353Z" fill="#D2ECEF"/>
<path d="M7.6958 13.009L7.78945 9.98903L10.1663 8.13106L10.0727 11.1511L7.6958 13.009Z" fill="#E3F3F5"/>
<path d="M7.55048 13.0188L4.92495 11.533L4.39209 8.56157L7.0144 10.0473L7.55048 13.0188Z" fill="#E3F3F5"/>
<path d="M7.56641 13.255L7.47599 16.275L5.09912 18.133L5.18955 15.113L7.56641 13.255Z" fill="#E3F3F5"/>
<path d="M7.71484 13.2453L10.3371 14.7311L10.8732 17.7058L8.2477 16.22L7.71484 13.2453Z" fill="#E3F3F5"/>
<path d="M7.7085 13.1741L10.3243 11.6722L13.1469 12.7307L10.531 14.2326L7.7085 13.1741Z" fill="#E3F3F5"/>
<path d="M7.55996 13.145L4.94411 14.6469L2.12158 13.5884L4.73743 12.0865L7.55996 13.145Z" fill="#E3F3F5"/>
<path d="M7.27243 9.28015C6.9075 9.30604 6.59101 9.03415 6.56518 8.66838C6.53934 8.30261 6.81062 7.9854 7.17554 7.9595C7.54047 7.93361 7.85695 8.2055 7.88279 8.57127C7.91185 8.9338 7.63735 9.25425 7.27243 9.28015Z" fill="#E3F3F5"/>
<path d="M7.83806 16.903C8.20299 16.8771 8.51947 17.149 8.54531 17.5148C8.57114 17.8805 8.29987 18.1977 7.93494 18.2236C7.57002 18.2495 7.25353 17.9776 7.2277 17.6119C7.19863 17.2493 7.47314 16.9289 7.83806 16.903Z" fill="#E3F3F5"/>
<path d="M11.6809 11.232C11.3741 11.4294 10.9639 11.3388 10.7669 11.0313C10.5699 10.7238 10.6603 10.3127 10.9671 10.1153C11.2739 9.91781 11.6841 10.0084 11.8811 10.3159C12.0781 10.6234 11.9876 11.0345 11.6809 11.232Z" fill="#E3F3F5"/>
<path d="M3.42955 14.9512C3.73634 14.7537 4.14648 14.8444 4.34348 15.1519C4.54048 15.4594 4.45005 15.8704 4.14325 16.0679C3.83646 16.2653 3.42632 16.1747 3.22932 15.8672C3.03233 15.5597 3.12275 15.1486 3.42955 14.9512Z" fill="#E3F3F5"/>
<path d="M11.9103 14.3232C12.243 14.4721 12.3915 14.8638 12.243 15.2004C12.0944 15.5338 11.7036 15.6827 11.3678 15.5338C11.0352 15.3849 10.8866 14.9932 11.0352 14.6566C11.1837 14.3232 11.5745 14.1711 11.9103 14.3232Z" fill="#E3F3F5"/>
<path d="M3.20323 11.8599C2.8706 11.711 2.72205 11.3194 2.8706 10.9827C3.01916 10.6493 3.40992 10.5004 3.74578 10.6493C4.07841 10.7982 4.22697 11.1899 4.07841 11.5265C3.92663 11.8632 3.53587 12.0121 3.20323 11.8599Z" fill="#E3F3F5"/>
<path opacity="0.55" d="M21.5116 10.5555C20.588 9.0568 19.5578 8.73312 18.576 8.99207C18.3887 10.9666 18.5405 13.0026 19.4738 14.5433C19.9582 15.3493 20.4749 16.0711 20.9723 16.7994C22.2124 14.922 22.8905 12.7986 21.5116 10.5555Z" fill="#007F93"/>
<path opacity="0.32" d="M21.5086 15.8996C22.0286 14.9123 22.3612 13.8085 22.2514 12.6821C22.1158 11.2741 21.1922 9.3902 19.7098 8.98235C17.4686 8.36735 15.4502 11.3097 14.4975 12.954C15.3889 9.97608 16.0186 5.99148 14.4523 3.14302C12.9248 0.359303 9.16895 0.0647472 6.41747 0.831888C3.33981 1.68642 0.92742 4.0364 0.226632 7.18912C-0.193196 9.07622 0.0490124 10.9763 0.436545 12.844C0.87252 14.9415 1.40538 17.0228 2.06095 19.062C2.60996 20.7743 3.25262 22.4543 3.95018 24.1115C4.38938 25.1538 4.88349 26.1929 5.2032 27.2804C5.01912 27.3614 4.92547 27.4196 4.8415 27.6009C4.37323 28.6108 4.74139 30.0901 5.02235 31.1291C5.22258 31.8671 5.41311 32.508 6.19464 32.7475C7.92885 33.2751 10.07 32.8382 11.8074 32.5307C13.251 32.2749 15.0982 32.071 16.39 31.3071C16.9422 30.9802 16.8034 29.6984 16.7904 29.174C16.7678 28.3551 16.826 26.9762 16.2253 26.3256C16.1316 26.222 16.0218 26.1346 15.9023 26.0634C15.799 23.9723 16.4417 22.15 17.8109 20.5866C19.1221 19.1008 20.5721 17.6799 21.5086 15.8996Z" fill="url(#paint0_radial_201_1487)"/>
<path d="M25.6708 26.1677C25.6708 26.1677 26.475 23.52 25.3608 20.9952C24.2467 18.4704 18.1333 13.7381 21.4306 9.17733C24.7278 4.61657 28.2479 12.0873 28.2479 12.0873C28.2479 12.0873 26.152 3.04992 30.7669 0.703178C35.3818 -1.64356 45.2865 1.98175 42.5221 12.1391C39.7544 22.2996 36.4443 25.789 36.1794 28.126C36.1762 28.126 27.5149 27.3362 25.6708 26.1677Z" fill="#0E99AE"/>
<path opacity="0.55" d="M39.9159 18.4891C38.9471 19.9878 38.1849 21.4767 36.8673 22.7067C34.794 24.6391 30.6183 23.9497 28.629 22.5805C26.7979 21.3181 26.2974 17.8352 24.4114 16.7832C22.0636 15.4755 22.1088 13.3716 21.6405 11.8599C21.1884 10.3969 21.6437 9.5391 22.3865 8.17961C22.0668 8.41267 21.7503 8.73959 21.4306 9.17657C18.1333 13.7373 24.2467 18.4697 25.3608 20.9944C26.475 23.5192 25.6708 26.167 25.6708 26.167C27.5149 27.3355 36.1794 28.1253 36.1794 28.1253C36.3958 26.2058 38.6726 23.4965 41.0107 16.9548C40.6328 17.4403 40.2679 17.9453 39.9159 18.4891Z" fill="#0E99AE"/>
<path opacity="0.55" d="M25.0122 8.07926C25.2124 8.39 27.008 11.4262 27.205 11.7628C27.9219 12.9864 28.2804 14.0384 29.0103 14.0934C29.682 14.1452 29.0232 11.2029 28.8552 10.6008C27.7928 6.73919 28.6227 4.46043 29.8693 1.31094C26.4235 4.44425 28.232 12.1577 28.2416 12.0865C28.2481 12.0865 26.8594 9.1442 25.0122 8.07926Z" fill="#0E99AE"/>
<path d="M36.7383 27.2707C36.3153 26.5198 28.2546 25.0502 27.4085 24.9046C26.7335 24.788 25.8583 24.8495 25.3933 25.4516C24.9444 26.0342 24.4115 29.6369 24.9186 30.1807C25.5548 30.8572 34.5488 33.6539 35.8276 32.0419C36.3217 31.4301 37.3164 28.2968 36.7383 27.2707Z" fill="#E3F3F5"/>
<path d="M35.1397 30.2228C33.8189 31.155 32.3366 31.0805 30.822 30.7504C29.7886 30.5238 28.7196 30.4299 27.7992 29.857C26.6431 29.1384 25.6 27.7854 25.7388 26.3385C25.7873 25.8336 25.9261 25.3933 26.1038 24.9725C25.8293 25.0632 25.5774 25.2153 25.3933 25.4548C24.9444 26.0375 24.4115 29.6401 24.9186 30.1839C25.5548 30.8604 34.5488 33.6571 35.8276 32.0451C36.1958 31.579 36.8546 29.679 36.9062 28.3357C36.4347 29.0834 35.7501 29.7923 35.1397 30.2228Z" fill="#D2ECEF"/>
<path d="M35.0268 12.6433L35.1559 9.62326L32.9244 7.59697L32.792 10.6137L35.0268 12.6433Z" fill="#E3F3F5"/>
<path d="M35.1719 12.6659L37.8975 11.3776L38.65 8.45151L35.9243 9.73979L35.1719 12.6659Z" fill="#E3F3F5"/>
<path d="M35.1365 12.899L35.0073 15.919L37.2421 17.9453L37.3713 14.9285L35.1365 12.899Z" fill="#E3F3F5"/>
<path d="M34.9908 12.8796L32.2652 14.1678L31.5127 17.0907L34.2383 15.8025L34.9908 12.8796Z" fill="#E3F3F5"/>
<path d="M35.0008 12.8083L32.5044 11.1187L29.6108 11.9635L32.1104 13.6564L35.0008 12.8083Z" fill="#E3F3F5"/>
<path d="M35.1523 12.7922L37.6519 14.4818L40.5455 13.6337L38.0459 11.9441L35.1523 12.7922Z" fill="#E3F3F5"/>
<path d="M35.724 8.95646C36.0857 9.01148 36.4215 8.75901 36.4764 8.39971C36.5313 8.03718 36.2794 7.70055 35.921 7.64552C35.5593 7.59049 35.2234 7.84297 35.1685 8.20226C35.1104 8.56479 35.3623 8.90143 35.724 8.95646Z" fill="#E3F3F5"/>
<path d="M34.6003 16.5178C34.2386 16.4628 33.9028 16.7153 33.8479 17.0745C33.793 17.4371 34.0448 17.7737 34.4033 17.8287C34.765 17.8838 35.1009 17.6313 35.1558 17.272C35.2107 16.9095 34.962 16.5696 34.6003 16.5178Z" fill="#E3F3F5"/>
<path d="M31.1833 10.5781C31.474 10.7982 31.8906 10.7367 32.1102 10.4454C32.3298 10.1541 32.2684 9.73655 31.9778 9.51644C31.6871 9.29633 31.2705 9.35783 31.0509 9.64915C30.8313 9.94371 30.8927 10.358 31.1833 10.5781Z" fill="#E3F3F5"/>
<path d="M39.1379 14.8961C38.8473 14.676 38.4307 14.7375 38.2111 15.0289C37.9915 15.3234 38.0529 15.7377 38.3435 15.9578C38.6342 16.1779 39.0508 16.1164 39.2704 15.8251C39.49 15.5306 39.4318 15.1162 39.1379 14.8961Z" fill="#E3F3F5"/>
<path d="M30.7281 13.6435C30.3857 13.7697 30.2081 14.1484 30.3308 14.4915C30.4568 14.8346 30.8346 15.0127 31.177 14.8897C31.5193 14.7634 31.6969 14.3847 31.5742 14.0416C31.4515 13.6953 31.0736 13.5172 30.7281 13.6435Z" fill="#E3F3F5"/>
<path d="M39.593 11.8308C39.9353 11.7046 40.1129 11.3259 39.9902 10.9827C39.8642 10.6396 39.4864 10.4616 39.1441 10.5846C38.8018 10.7108 38.6241 11.0896 38.7469 11.4327C38.8696 11.779 39.2506 11.957 39.593 11.8308Z" fill="#E3F3F5"/>
<path opacity="0.32" d="M36.6542 26.591C37.3227 25.0632 38.1591 23.6131 38.8761 22.1047C39.6931 20.3794 40.4197 18.6153 41.0624 16.8156C42.296 13.3521 43.7977 9.39344 42.5027 5.73576C41.6146 3.22718 39.5123 1.37568 37.0256 0.534094C34.7844 -0.223336 31.7713 -0.346337 29.8788 1.31095C28.3029 2.68662 27.8798 4.9492 27.7894 6.93988C27.7345 8.1084 27.8055 9.28015 27.9573 10.439C28.0187 10.9018 28.3158 11.6301 28.2544 12.0865C27.3405 10.2027 24.9023 6.33782 22.393 8.17637C19.3799 10.3872 20.5264 14.116 22.2832 16.6732C23.0938 17.8514 24.0465 18.9228 24.8474 20.101C25.8356 21.5512 26.1004 23.3444 25.8873 25.0664C25.0734 25.471 24.9862 26.591 24.8635 27.3905C24.7634 28.0443 24.3985 29.6239 24.9249 30.1839C25.2414 30.5238 25.8776 30.6792 26.2942 30.8345C27.2307 31.1809 28.1866 31.4722 29.1522 31.7279C30.9446 32.2037 33.0825 32.809 34.9491 32.4692C35.7629 32.3203 36.0309 31.8056 36.3054 31.0644C36.6219 30.2098 37.552 27.6462 36.4637 27.0636C36.5218 26.905 36.5832 26.7464 36.6542 26.591Z" fill="url(#paint1_radial_201_1487)"/>
</g>
<defs>
<radialGradient id="paint0_radial_201_1487" cx="0" cy="0" r="1" gradientUnits="userSpaceOnUse" gradientTransform="translate(9.6241 12.0452) rotate(-11.4907) scale(12.9264 12.9538)">
<stop stop-color="#FFF7EA"/>
<stop offset="1" stop-color="#724A47"/>
</radialGradient>
<radialGradient id="paint1_radial_201_1487" cx="0" cy="0" r="1" gradientUnits="userSpaceOnUse" gradientTransform="translate(34.7876 12.9728) rotate(-11.4907) scale(10.6469 10.6695)">
<stop stop-color="#FFF7EA"/>
<stop offset="1" stop-color="#724A47"/>
</radialGradient>
<clipPath id="clip0_201_1487">
<rect width="43" height="33" fill="white"/>
</clipPath>
</defs>
</svg>
