<svg width="45" height="40" viewBox="0 0 45 40" fill="none" xmlns="http://www.w3.org/2000/svg">
<g clip-path="url(#clip0_201_1432)">
<path d="M10.8829 9.77682C10.9261 9.82021 10.9693 9.86361 11.0001 9.90701C11.0371 9.95041 11.0618 10 11.0803 10.0496C11.3826 10.7626 11.8577 11.8661 12.3944 13.0874C13.5419 15.6417 15.0164 18.6795 15.9295 19.659C15.9789 19.7086 16.0282 19.7644 16.0838 19.8264C16.1331 19.8822 16.1886 19.9442 16.2442 20C16.4046 20.186 16.5711 20.3782 16.7439 20.589C16.9722 20.868 17.2066 21.1655 17.4287 21.4817C17.4904 21.5685 17.5521 21.6491 17.6138 21.7421C17.657 21.8041 17.7002 21.8661 17.7372 21.9281C17.9469 22.2443 18.1382 22.5729 18.3109 22.9076C18.348 22.9758 18.3788 23.0378 18.4096 23.1122C18.5762 23.447 18.7181 23.8004 18.8353 24.1476C18.8785 24.2839 18.9217 24.4203 18.9526 24.5567C18.9711 24.6249 18.9834 24.6993 19.0019 24.7675C19.0143 24.8357 19.0266 24.9039 19.0328 24.9721C19.0451 25.0403 19.0574 25.1085 19.0574 25.1829C19.0759 25.3255 19.0821 25.4743 19.0883 25.6169C19.0821 25.6789 19.0821 25.7409 19.0759 25.8029C19.0636 26.0198 19.0389 26.2244 18.9896 26.4352C18.9711 26.4972 18.9587 26.5592 18.9402 26.615C18.9032 26.7514 18.8538 26.8816 18.7922 27.018C18.7551 27.0986 18.7181 27.173 18.6749 27.2536C18.6441 27.3094 18.6132 27.3652 18.5762 27.4148C18.5454 27.4644 18.5145 27.514 18.4837 27.5574C18.422 27.6441 18.3603 27.7247 18.2863 27.8115C18.0518 28.0843 17.7742 28.3943 17.4472 28.7477C17.3423 28.8655 17.2251 28.9833 17.1079 29.1073C16.8673 29.3614 16.6082 29.6342 16.3367 29.9132C16.2195 30.031 16.1023 30.1488 15.9851 30.2666C15.837 30.4216 15.6889 30.5704 15.5347 30.7254C15.3002 30.9609 15.0596 31.2089 14.8129 31.4507C14.6833 31.5809 14.5537 31.7111 14.418 31.8413C13.8874 32.3683 13.3384 32.9076 12.7893 33.4408C12.5487 33.6702 12.3081 33.9058 12.0736 34.1352C11.8762 34.3211 11.6849 34.5133 11.4937 34.6993C11.3024 34.8791 11.1112 35.0651 10.9261 35.2449C10.778 35.3937 10.6238 35.5425 10.4696 35.6851C9.16163 36.9374 8.04496 38.0161 7.41568 38.6423C7.36632 38.6919 7.32314 38.7353 7.27995 38.7787C7.22443 38.8283 7.1689 38.8841 7.11338 38.9399C7.03934 39.0019 6.95914 39.0701 6.87894 39.1259C6.82341 39.1693 6.76172 39.2127 6.70002 39.2498C6.67534 39.2622 6.65067 39.2808 6.62599 39.2994C6.55813 39.3428 6.48409 39.3862 6.41006 39.4234C6.32986 39.4668 6.24348 39.5102 6.15711 39.5474C6.07074 39.5846 5.98437 39.6218 5.89182 39.6528C5.80545 39.6838 5.71908 39.7148 5.62654 39.7458C5.52166 39.7768 5.42912 39.8016 5.3304 39.8264C5.24403 39.845 5.15766 39.8698 5.07129 39.8822C5.05278 39.8822 5.04044 39.8884 5.02193 39.8946C4.8862 39.9194 4.75048 39.938 4.61475 39.9566C4.59007 39.9566 4.56539 39.9628 4.54071 39.9628C4.45434 39.969 4.3618 39.9752 4.27543 39.9814C4.25075 39.9814 4.22607 39.9876 4.19522 39.9876C4.03482 39.9938 3.88058 39.9938 3.72635 39.9814C3.64614 39.9752 3.55977 39.969 3.47957 39.9628C3.39937 39.9566 3.32533 39.9442 3.2513 39.9318C3.15259 39.9194 3.06005 39.9008 2.9675 39.8822C2.85645 39.8574 2.75774 39.8326 2.6652 39.8016C2.60351 39.783 2.53564 39.7644 2.46161 39.7396C2.41225 39.721 2.36907 39.7086 2.31971 39.69C2.22717 39.6528 2.1408 39.6156 2.05442 39.5722C2.04209 39.5722 2.02975 39.566 2.02358 39.5598C1.94337 39.5288 1.89402 39.4978 1.85083 39.473C1.81999 39.4606 1.78914 39.442 1.76446 39.4234C1.6966 39.38 1.6349 39.3366 1.57321 39.2994C1.56087 39.2994 1.5547 39.287 1.54236 39.2808L1.51768 39.256C1.45599 39.2189 1.40663 39.1755 1.35111 39.1321C1.30175 39.1011 1.2524 39.0577 1.21538 39.0143C1.12284 38.9337 1.03646 38.8469 0.950092 38.7477C0.913075 38.6981 0.876059 38.6609 0.845211 38.6113C-0.16041 37.2908 -0.339324 35.8835 0.709483 33.9368C1.1907 33.044 1.93104 32.0459 2.96133 30.8866C3.51042 30.2728 3.96079 29.6218 4.33712 28.9585C5.78694 26.367 5.98437 23.5028 5.19468 21.4817C5.11447 21.2585 5.01576 21.0353 4.91705 20.7936C4.45434 19.721 3.8374 18.4625 3.28215 17.2722C3.20811 17.111 3.14025 16.956 3.06005 16.7948C2.99835 16.6522 2.93049 16.5096 2.86879 16.3608C2.79476 16.212 2.73306 16.0632 2.67137 15.9144C2.37524 15.2263 2.17164 14.6497 2.09144 14.2034C2.05442 14.0112 2.04825 13.8438 2.06676 13.7012C2.19015 12.8394 5.57718 10.0248 9.47628 9.36144C9.66753 9.32424 9.88963 9.33664 10.1117 9.38624C10.303 9.42964 10.4881 9.49783 10.6485 9.59083C10.7348 9.65282 10.815 9.71482 10.8829 9.77682Z" fill="url(#paint0_linear_201_1432)"/>
<path d="M16.0836 19.8326C16.133 19.8884 16.1885 19.9504 16.244 20.0062C16.4044 20.1922 16.571 20.3844 16.7438 20.5952C16.972 20.8741 17.2065 21.1717 17.4286 21.4879C17.4903 21.5747 17.552 21.6615 17.6075 21.7483C17.6568 21.8103 17.6939 21.8723 17.737 21.9343C17.9468 22.2505 18.1381 22.579 18.3108 22.9138C18.3478 22.982 18.3787 23.044 18.4095 23.1184C18.5761 23.4532 18.718 23.8066 18.8352 24.1538C18.8784 24.2901 18.9216 24.4265 18.9524 24.5629C18.9709 24.6311 18.9833 24.7055 19.0018 24.7737C19.0141 24.8419 19.0265 24.9101 19.0326 24.9783C19.045 25.0465 19.0573 25.1147 19.0573 25.1891C19.0758 25.3317 19.082 25.4805 19.0882 25.6231C19.082 25.6851 19.082 25.7471 19.0758 25.8091C19.0635 26.026 19.0388 26.2306 18.9894 26.4414C18.9709 26.5034 18.9586 26.5654 18.9401 26.6212C18.9031 26.7576 18.8537 26.8878 18.792 27.0242C18.755 27.1048 18.718 27.1792 18.6748 27.2598C18.6439 27.3156 18.6131 27.3714 18.5761 27.421C18.5452 27.4706 18.5144 27.5201 18.4835 27.5635C18.4218 27.6503 18.3602 27.7309 18.2861 27.8177C18.0517 28.0905 17.7741 28.4005 17.4471 28.7539C17.3422 28.8717 17.225 28.9957 17.1078 29.1135C16.8671 29.3676 16.608 29.6404 16.3366 29.9194C16.0836 30.186 15.8122 30.4526 15.5345 30.7316C15.3433 30.5208 15.1705 30.3038 15.0225 30.0806C13.221 27.3528 14.3685 23.54 15.4358 21.1531C15.6703 20.6386 15.8924 20.1922 16.0836 19.8326Z" fill="#FF6F48"/>
<path d="M7.41552 38.6485C7.36616 38.6981 7.32298 38.7415 7.27979 38.7849C5.7436 40.341 2.30104 40.5332 0.838882 38.6051C-0.166739 37.2846 -0.345653 35.8773 0.709323 33.9306C1.41264 35.7905 3.15243 38.1401 7.41552 38.6485Z" fill="#FF6F48"/>
<path d="M12.3944 13.0874C12.1847 13.261 11.9749 13.4284 11.7713 13.5834C11.5677 13.7384 11.3703 13.8872 11.1729 14.036C10.6608 14.4079 10.1488 14.7427 9.66136 15.0403C9.44543 15.1705 9.23567 15.2945 9.03208 15.4123C8.39046 15.7719 7.76734 16.0694 7.18741 16.3174C6.95914 16.4166 6.73087 16.5034 6.50877 16.584C5.83013 16.8382 5.20702 17.0056 4.65794 17.111C4.39265 17.1668 4.14587 17.204 3.91143 17.235C3.68316 17.266 3.47957 17.2784 3.28215 17.2846C2.72073 16.0756 2.15931 14.8295 1.96805 14.0484C1.93104 13.881 2.01741 13.8748 1.96188 13.7136C2.15931 12.9076 3.70784 11.5871 5.74993 10.5394C5.91034 10.4588 6.07691 10.3782 6.23115 10.3038C6.32986 10.2542 6.4224 10.2108 6.52111 10.1736C7.1504 9.91321 7.82287 9.67142 8.51385 9.49163C8.52618 9.48543 8.53235 9.48543 8.54469 9.48543C9.25418 9.31804 9.85879 9.27465 10.2783 9.34904C10.5127 9.44204 10.6361 9.43584 10.7904 9.60323C10.7965 9.60323 10.8274 9.63423 10.8767 9.71482C10.9693 9.80782 11.031 9.96281 11.0742 10.0744C11.3826 10.775 11.8577 11.8723 12.3944 13.0874Z" fill="#FF6F48"/>
<path d="M4.66384 17.1048C4.39856 17.1606 4.15178 17.1978 3.91734 17.2288L2.56006 14.1227L3.2387 14.0359L4.66384 17.1048Z" fill="#E54C29"/>
<path d="M7.18737 16.3112C6.9591 16.4104 6.73083 16.4972 6.50873 16.5778L5.12061 13.4036L5.79925 13.3168L7.18737 16.3112Z" fill="#E54C29"/>
<path d="M9.66141 15.0341C9.44548 15.1643 9.23572 15.2883 9.03212 15.4061L7.62549 12.1947L8.30413 12.1079L9.66141 15.0341Z" fill="#E54C29"/>
<path d="M11.7713 13.5834C11.5677 13.7384 11.3703 13.8872 11.1728 14.036L9.73535 10.7564L10.414 10.6696L11.7713 13.5834Z" fill="#E54C29"/>
<path opacity="0.5" d="M10.8825 25.6417C10.3088 26.2244 9.2723 25.3379 8.76023 25.871C8.50112 26.1438 8.58132 26.5902 8.87745 26.832C9.03786 26.9684 9.22911 27.0366 9.4142 27.0676C9.84606 27.1358 9.92626 27.7247 9.51908 27.8921C9.38952 27.9417 9.25379 27.9789 9.11189 28.0037C8.56281 28.0905 7.99522 27.9913 7.4338 27.9851C6.33564 27.9665 5.23748 28.3137 4.33057 28.9523C5.78039 26.3608 5.97781 23.4966 5.19429 21.4755C5.10792 21.2523 5.01538 21.0291 4.9105 20.7874C5.16344 21.1345 5.42256 21.4631 5.71252 21.7855C6.59476 22.765 7.71143 23.5834 8.99467 23.85C9.6548 23.9926 10.3828 23.9988 10.8517 24.5567C11.1293 24.8729 11.1725 25.3503 10.8825 25.6417Z" fill="#FFD4BB"/>
<path opacity="0.5" d="M10.8764 9.77061C10.9257 9.81401 10.9689 9.8636 10.9997 9.9132C11.0368 9.9566 11.0614 10.0062 11.0799 10.0558C11.3823 10.7687 11.8573 11.8723 12.394 13.0936C13.5416 15.6479 15.0161 18.6857 15.9291 19.6652C15.9785 19.7148 16.0279 19.7706 16.0834 19.8326C16.1327 19.8884 16.1883 19.9504 16.2438 20.0062C16.4042 20.1922 16.5708 20.3844 16.7435 20.5952C16.9718 20.8741 17.2062 21.1717 17.4283 21.4879C17.49 21.5747 17.5517 21.6615 17.6072 21.7483C17.6566 21.8103 17.6936 21.8723 17.7368 21.9343C17.9466 22.2505 18.1378 22.579 18.3105 22.9138C18.3476 22.982 18.3784 23.044 18.4093 23.1184C18.5758 23.4532 18.7177 23.8066 18.835 24.1537C18.8781 24.2901 18.9213 24.4265 18.9522 24.5629C18.9707 24.6311 18.983 24.7055 19.0015 24.7737C19.0139 24.8419 19.0262 24.9101 19.0324 24.9783C19.0447 25.0465 19.0571 25.1147 19.0571 25.1891C19.0756 25.3317 19.0817 25.4805 19.0879 25.6231C19.0817 25.6851 19.0817 25.747 19.0756 25.809C19.0632 26.026 19.0385 26.2306 18.9892 26.4414C18.9707 26.5034 18.9583 26.5654 18.9398 26.6212C18.9028 26.7576 18.8535 26.8878 18.7918 27.0242C18.7547 27.1048 18.7177 27.1792 18.6745 27.2598C18.6437 27.3156 18.6129 27.3714 18.5758 27.4209C18.545 27.4705 18.5141 27.5201 18.4833 27.5635C18.4216 27.6503 18.3599 27.7309 18.2859 27.8177C18.0514 28.0905 17.7738 28.4005 17.4468 28.7539C17.3419 28.8717 17.2247 28.9957 17.1075 29.1134C16.8669 29.3676 16.6078 29.6404 16.3363 29.9194C16.0834 30.186 15.8119 30.4526 15.5343 30.7316C15.1765 31.0911 14.8063 31.4631 14.4176 31.8475C13.6526 32.6038 12.8506 33.385 12.0732 34.1413C11.8758 34.3273 11.6846 34.5195 11.4933 34.7055C11.302 34.8853 11.1108 35.0713 10.9257 35.2511C10.7715 35.3999 10.6172 35.5487 10.4692 35.6913C9.16125 36.9436 8.04458 38.0223 7.41529 38.6485C7.36594 38.6981 7.32275 38.7415 7.27957 38.7849C7.22404 38.8345 7.16852 38.8903 7.11299 38.9461C7.03896 39.0081 6.95875 39.0762 6.87855 39.132C6.82303 39.1754 6.76133 39.2188 6.69964 39.256C6.67496 39.2684 6.65028 39.287 6.6256 39.3056C6.55774 39.349 6.48371 39.3924 6.40967 39.4296C6.32947 39.473 6.2431 39.5164 6.15673 39.5536C6.10737 39.5784 6.05801 39.597 6.00866 39.6218C5.94696 39.6466 5.89144 39.6714 5.82358 39.6962C5.76188 39.7148 5.70019 39.7396 5.63232 39.7582C5.57063 39.783 5.50276 39.8016 5.4349 39.8202C5.40405 39.8264 5.3732 39.8388 5.33619 39.845C5.24982 39.8636 5.16344 39.8884 5.07707 39.9008C5.06473 39.907 5.04622 39.9132 5.02772 39.9132C4.89199 39.938 4.75626 39.9566 4.62053 39.9752C4.59585 39.9752 4.57118 39.9814 4.5465 39.9814C4.49714 39.9876 4.44779 39.9938 4.39226 40C4.35525 40 4.31823 40.0062 4.28121 40L4.20718 40.0062C4.04677 40.0124 3.88637 40.0062 3.73213 40C3.68278 40 3.63342 40 3.58406 39.9876C3.54705 39.9876 3.5162 39.9814 3.48535 39.9752C3.47301 39.9752 3.46067 39.9752 3.44834 39.9752C3.38047 39.969 3.31261 39.9566 3.25091 39.9442C3.1522 39.9318 3.05966 39.9132 2.96712 39.8946C2.85607 39.8698 2.75736 39.845 2.66482 39.814C2.60312 39.7954 2.53526 39.7768 2.46122 39.752C2.41187 39.7334 2.36868 39.721 2.31933 39.7024C2.22678 39.6652 2.14041 39.628 2.05404 39.5846C2.0417 39.5846 2.02936 39.5784 2.02319 39.5722C2.00468 39.566 1.99851 39.5598 1.98618 39.5536C1.94299 39.5288 1.89363 39.4978 1.85045 39.473C1.8196 39.4606 1.78875 39.442 1.76407 39.4234C1.69621 39.38 1.63452 39.3366 1.57282 39.2994C1.56048 39.2994 1.55431 39.287 1.54197 39.2808C1.48028 39.2312 1.41242 39.1816 1.35072 39.132C1.30137 39.101 1.25201 39.0577 1.21499 39.0143C1.12245 38.9337 1.03608 38.8469 0.949707 38.7477C2.47356 38.8283 3.83084 38.5803 5.05856 38.1091C9.1921 36.5282 11.8635 32.5046 14.2325 30.7749C14.5225 30.5642 14.7816 30.3348 15.0284 30.0744C17.0335 27.9665 17.4098 24.4637 15.8489 21.5065C15.7564 21.3329 15.6083 21.2089 15.4418 21.1469C15.195 21.0539 14.905 21.0849 14.7014 21.2833C14.4361 21.5499 14.2819 21.8971 14.1647 22.2443C14.0968 22.4488 14.0351 22.6596 13.9056 22.827C13.7822 22.9944 13.5601 23.1184 13.3565 23.0688C13.1097 23.0068 12.974 22.7216 12.9863 22.4612C12.9986 22.2071 13.1282 21.9715 13.2331 21.7421C13.7266 20.62 13.7266 19.3056 13.2948 18.1711C13.2639 18.0843 13.2269 17.9975 13.1837 17.9107C13.048 17.6937 12.9184 17.4581 12.7951 17.235C12.6655 17.08 12.5051 16.9064 12.4681 16.739C12.4557 16.6708 12.4496 16.615 12.4557 16.5654C12.0362 15.7099 11.6722 14.7985 11.3637 13.8872C10.9812 12.796 10.6728 11.7111 10.4322 10.7502C10.426 10.7254 10.4198 10.7006 10.4136 10.6758C10.2964 10.2232 10.1977 9.78921 10.1113 9.40483C10.3026 9.44823 10.4877 9.51642 10.6481 9.60942C10.7345 9.64662 10.8147 9.70861 10.8764 9.77061Z" fill="#FFD4BB"/>
<path d="M7.06364 13.0998C4.74392 14.2839 2.53526 14.7551 2.0417 14.1537C2.02319 14.129 2.00468 14.1042 1.99235 14.0794C1.93682 13.9678 1.93065 13.8438 1.96767 13.7012C2.16509 12.8952 3.71362 11.5747 5.75571 10.527C5.91612 10.4464 6.08269 10.3658 6.23693 10.2914C6.33564 10.2418 6.42818 10.1984 6.52689 10.1612C7.23638 9.85121 7.91502 9.62182 8.51963 9.47923C8.53197 9.47303 8.53814 9.47303 8.55047 9.47303C9.25996 9.30564 9.86457 9.26224 10.2841 9.33664C10.5679 9.39243 10.7653 9.50403 10.8517 9.67142C10.864 9.69002 10.8764 9.71481 10.8764 9.74581C11.0923 10.4774 9.38952 11.9095 7.06364 13.0998Z" fill="#FFA28D"/>
<path d="M10.0188 9.9628C10.247 10.4092 8.80956 11.5995 6.81682 12.6162C4.81792 13.6392 3.02261 14.1104 2.79434 13.664C2.56607 13.2176 4.00355 12.0273 5.99629 11.0105C7.98902 9.9938 9.79667 9.51643 10.0188 9.9628Z" fill="#FF6F48"/>
<path d="M31.6408 0.478039C31.684 0.521436 31.7271 0.564834 31.758 0.608231C31.7888 0.651629 31.8197 0.701226 31.8382 0.750823C32.1405 1.46378 32.6155 2.56731 33.1523 3.78864C34.2998 6.34289 35.7743 9.3807 36.6874 10.3602C36.7367 10.4098 36.7861 10.4656 36.8416 10.5276C36.891 10.5834 36.9465 10.6454 37.002 10.7012C37.1624 10.8872 37.329 11.0794 37.5018 11.2902C37.73 11.5692 37.9645 11.8668 38.1866 12.1829C38.2483 12.2697 38.31 12.3503 38.3717 12.4433C38.4148 12.5053 38.458 12.5673 38.495 12.6293C38.7048 12.9455 38.8961 13.2741 39.0688 13.6089C39.1058 13.677 39.1367 13.739 39.1675 13.8134C39.3341 14.1482 39.476 14.5016 39.5932 14.8488C39.6364 14.9852 39.6796 15.1216 39.7104 15.258C39.7289 15.3261 39.7413 15.4005 39.7598 15.4687C39.7721 15.5369 39.7845 15.6051 39.7906 15.6733C39.803 15.7415 39.8153 15.8097 39.8153 15.8841C39.8338 16.0267 39.84 16.1755 39.8461 16.3181C39.84 16.3801 39.84 16.4421 39.84 16.5041C39.8276 16.7211 39.803 16.9257 39.7536 17.1364C39.7351 17.1984 39.7228 17.2604 39.7043 17.3162C39.6672 17.4526 39.6179 17.5828 39.5562 17.7192C39.5192 17.7998 39.4821 17.8742 39.439 17.9548C39.4081 18.0106 39.3773 18.0664 39.3403 18.116C39.3094 18.1656 39.2786 18.2152 39.2477 18.2586C39.186 18.3454 39.1243 18.426 39.0503 18.5128C38.8159 18.7855 38.5382 19.0955 38.2112 19.4489C38.1064 19.5667 37.9891 19.6845 37.8719 19.8085C37.6313 20.0627 37.3722 20.3354 37.1007 20.6144C36.9835 20.7322 36.8663 20.85 36.7491 20.9678C36.601 21.1228 36.4529 21.2716 36.2987 21.4266C36.0643 21.6622 35.8237 21.9102 35.5769 22.1519C35.4473 22.2821 35.3178 22.4123 35.182 22.5425C34.6515 23.0695 34.1024 23.6089 33.5533 24.142C33.3127 24.3714 33.0721 24.607 32.8376 24.8364C32.6402 25.0224 32.449 25.2146 32.2577 25.4005C32.0665 25.5803 31.8752 25.7663 31.6901 25.9461C31.5421 26.0949 31.3878 26.2437 31.2336 26.3863C29.9257 27.6386 28.809 28.7173 28.1797 29.3435C28.1304 29.3931 28.0872 29.4365 28.044 29.4799C27.9885 29.5295 27.9329 29.5853 27.8774 29.6411C27.8034 29.7031 27.7232 29.7713 27.643 29.8271C27.5874 29.8705 27.5257 29.9139 27.4641 29.9511C27.4394 29.9635 27.4147 29.9821 27.39 30.0007C27.3222 30.0441 27.2481 30.0875 27.1741 30.1247C27.0939 30.1681 27.0075 30.2115 26.9211 30.2487C26.8348 30.2859 26.7484 30.323 26.6559 30.354C26.5695 30.385 26.4831 30.416 26.3967 30.447C26.2919 30.478 26.1993 30.5028 26.1006 30.5276C26.0142 30.5462 25.9279 30.571 25.8415 30.5834C25.823 30.5834 25.8106 30.5896 25.7921 30.5958C25.6564 30.6206 25.5207 30.6392 25.3849 30.6578C25.3603 30.6578 25.3356 30.664 25.3109 30.664C25.2245 30.6702 25.132 30.6764 25.0456 30.6826C25.0209 30.6826 24.9963 30.6888 24.9654 30.6888C24.805 30.695 24.6508 30.695 24.4965 30.6826C24.4163 30.6764 24.33 30.6702 24.2498 30.664C24.1696 30.6578 24.0955 30.6454 24.0215 30.633C23.9228 30.6206 23.8302 30.602 23.7377 30.5834C23.6267 30.5586 23.5279 30.5338 23.4354 30.5028C23.3737 30.4842 23.3058 30.4656 23.2318 30.4408C23.1824 30.4222 23.1393 30.4098 23.0899 30.3912C22.9974 30.354 22.911 30.3168 22.8246 30.2735C22.8123 30.2735 22.7999 30.2673 22.7938 30.2611C22.7136 30.2239 22.6642 30.1929 22.621 30.1681C22.5902 30.1557 22.5593 30.1371 22.5347 30.1185C22.4668 30.0751 22.4051 30.0317 22.3434 29.9945C22.3311 29.9945 22.3249 29.9821 22.3126 29.9759L22.2879 29.9511C22.2262 29.9139 22.1768 29.8705 22.1213 29.8271C22.0781 29.7899 22.0288 29.7527 21.9917 29.7093C21.8992 29.6287 21.8128 29.5419 21.7265 29.4427C21.6894 29.3931 21.6524 29.3559 21.6216 29.3063C20.616 27.9858 20.437 26.5785 21.4859 24.6318C21.9671 23.739 22.7074 22.7409 23.7377 21.5816C24.2868 20.9678 24.7372 20.3169 25.1135 19.6535C26.5633 17.062 26.7607 14.1978 25.971 12.1767C25.8908 11.9536 25.7921 11.7304 25.6934 11.4886C25.2307 10.416 24.6138 9.15752 24.0585 7.96719C23.9845 7.806 23.9166 7.65101 23.8364 7.48982C23.7747 7.34723 23.7069 7.20464 23.6452 7.05584C23.5711 6.90705 23.5094 6.75826 23.4477 6.60947C23.1516 5.92131 22.948 5.34475 22.8678 4.89837C22.8308 4.70619 22.8246 4.5388 22.8431 4.3962C22.9665 3.53446 26.3535 0.719824 30.2526 0.0564643C30.4439 0.0192665 30.666 0.0316657 30.8881 0.0812628C31.0794 0.12466 31.2644 0.192856 31.4248 0.28585C31.4927 0.354046 31.5729 0.416043 31.6408 0.478039Z" fill="url(#paint1_linear_201_1432)"/>
<path d="M36.8416 10.5332C36.891 10.589 36.9465 10.651 37.002 10.7068C37.1624 10.8928 37.329 11.0849 37.5017 11.2957C37.73 11.5747 37.9645 11.8723 38.1866 12.1885C38.2483 12.2753 38.3099 12.3621 38.3655 12.4489C38.4148 12.5109 38.4518 12.5728 38.495 12.6348C38.7048 12.951 38.896 13.2796 39.0688 13.6144C39.1058 13.6826 39.1367 13.7446 39.1675 13.819C39.3341 14.1538 39.476 14.5071 39.5932 14.8543C39.6364 14.9907 39.6796 15.1271 39.7104 15.2635C39.7289 15.3317 39.7413 15.4061 39.7598 15.4743C39.7721 15.5425 39.7844 15.6107 39.7906 15.6789C39.803 15.7471 39.8153 15.8153 39.8153 15.8897C39.8338 16.0322 39.84 16.181 39.8461 16.3236C39.84 16.3856 39.84 16.4476 39.84 16.5096C39.8276 16.7266 39.803 16.9312 39.7536 17.142C39.7351 17.204 39.7228 17.266 39.7042 17.3218C39.6672 17.4582 39.6179 17.5884 39.5562 17.7247C39.5192 17.8053 39.4821 17.8797 39.439 17.9603C39.4081 18.0161 39.3773 18.0719 39.3403 18.1215C39.3094 18.1711 39.2786 18.2207 39.2477 18.2641C39.186 18.3509 39.1243 18.4315 39.0503 18.5183C38.8158 18.7911 38.5382 19.1011 38.2112 19.4544C38.1064 19.5722 37.9891 19.6962 37.8719 19.814C37.6313 20.0682 37.3722 20.341 37.1007 20.62C36.8478 20.8866 36.5763 21.1531 36.2987 21.4321C36.1075 21.2213 35.9347 21.0043 35.7866 20.7812C33.9852 18.0533 35.1327 14.2406 36.2 11.8537C36.4283 11.3391 36.6504 10.8928 36.8416 10.5332Z" fill="#FF6F48"/>
<path d="M28.1733 29.3491C28.124 29.3987 28.0808 29.442 28.0376 29.4854C26.5014 31.0416 23.0589 31.2337 21.5967 29.3057C20.5911 27.9851 20.4122 26.5778 21.4671 24.6311C22.1705 26.491 23.9102 28.8407 28.1733 29.3491Z" fill="#FF6F48"/>
<path d="M33.1522 3.78798C32.9425 3.96157 32.7327 4.12895 32.5291 4.28395C32.3255 4.43894 32.1281 4.58773 31.9307 4.73652C31.4186 5.1085 30.9066 5.44328 30.4192 5.74086C30.2032 5.87105 29.9935 5.99504 29.7899 6.11284C29.1483 6.47861 28.5252 6.77 27.9452 7.01798C27.717 7.11718 27.4887 7.20397 27.2666 7.28457C26.5879 7.53875 25.9648 7.70614 25.4157 7.81773C25.1505 7.87353 24.9037 7.91073 24.6692 7.94173C24.441 7.97272 24.2374 7.98512 24.04 7.99132C23.4785 6.7824 22.9171 5.53627 22.7259 4.75512C22.6888 4.58773 22.7752 4.58153 22.7197 4.42034C22.9171 3.61439 24.4657 2.29386 26.5077 1.24613C26.6681 1.16553 26.8347 1.08494 26.989 1.01054C27.0877 0.960945 27.1802 0.917547 27.2789 0.88035C27.9082 0.619965 28.5807 0.37818 29.2717 0.198391C29.284 0.192191 29.2902 0.192191 29.3025 0.192191C30.012 0.0248009 30.6166 -0.0185964 31.0361 0.0557991C31.2706 0.148794 31.394 0.142594 31.5482 0.309984C31.5544 0.309984 31.5852 0.340982 31.6346 0.421577C31.7271 0.514572 31.7888 0.669562 31.832 0.781156C32.1405 1.47551 32.6155 2.57285 33.1522 3.78798Z" fill="#FF6F48"/>
<path d="M25.4217 7.80533C25.1564 7.86112 24.9096 7.89832 24.6751 7.92932L23.3179 4.82331L23.9965 4.73651L25.4217 7.80533Z" fill="#E54C29"/>
<path d="M27.9452 7.01179C27.7169 7.11098 27.4886 7.19777 27.2665 7.27837L25.8784 4.10416L26.5571 4.01736L27.9452 7.01179Z" fill="#E54C29"/>
<path d="M30.4192 5.73465C30.2033 5.86484 29.9935 5.98884 29.7899 6.10663L28.3833 2.89522L29.0619 2.80843L30.4192 5.73465Z" fill="#E54C29"/>
<path d="M32.5291 4.28394C32.3255 4.43893 32.1281 4.58772 31.9306 4.73652L30.4932 1.45691L31.1718 1.37012L32.5291 4.28394Z" fill="#E54C29"/>
<path opacity="0.5" d="M31.6403 16.3422C31.0666 16.925 30.0301 16.0384 29.518 16.5716C29.2589 16.8444 29.3391 17.2908 29.6353 17.5326C29.7957 17.6689 29.9869 17.7371 30.172 17.7681C30.6039 17.8363 30.6841 18.4253 30.2769 18.5927C30.1473 18.6423 30.0116 18.6795 29.8697 18.7043C29.3206 18.7911 28.753 18.6919 28.1916 18.6857C27.0935 18.6671 25.9953 19.0143 25.0884 19.6528C26.5382 17.0614 26.7356 14.1972 25.9521 12.1761C25.8657 11.9529 25.7732 11.7297 25.6683 11.4879C25.9213 11.8351 26.1804 12.1637 26.4703 12.4861C27.3526 13.4656 28.4692 14.2839 29.7525 14.5505C30.4126 14.6931 31.1406 14.6993 31.6095 15.2573C31.8871 15.5735 31.9303 16.0508 31.6403 16.3422Z" fill="#FFD4BB"/>
<path opacity="0.5" d="M31.6345 0.471166C31.6839 0.514563 31.7271 0.56416 31.7579 0.613757C31.7949 0.663354 31.8196 0.706752 31.8381 0.756349C32.1404 1.46931 32.6155 2.57284 33.1522 3.79417C34.2997 6.34841 35.7742 9.38623 36.6873 10.3658C36.7367 10.4154 36.786 10.4712 36.8415 10.5332C36.8909 10.589 36.9464 10.651 37.0019 10.7068C37.1624 10.8927 37.3289 11.0849 37.5017 11.2957C37.7299 11.5747 37.9644 11.8723 38.1865 12.1885C38.2482 12.2753 38.3099 12.3621 38.3654 12.4488C38.4148 12.5108 38.4518 12.5728 38.495 12.6348C38.7047 12.951 38.896 13.2796 39.0687 13.6144C39.1057 13.6826 39.1366 13.7446 39.1674 13.819C39.334 14.1537 39.4759 14.5071 39.5931 14.8543C39.6363 14.9907 39.6795 15.1271 39.7103 15.2635C39.7288 15.3317 39.7412 15.4061 39.7597 15.4743C39.772 15.5425 39.7844 15.6107 39.7905 15.6789C39.8029 15.7471 39.8152 15.8152 39.8152 15.8896C39.8337 16.0322 39.8399 16.181 39.8461 16.3236C39.8399 16.3856 39.8399 16.4476 39.8399 16.5096C39.8276 16.7266 39.8029 16.9312 39.7535 17.142C39.735 17.204 39.7227 17.266 39.7042 17.3218C39.6672 17.4581 39.6178 17.5883 39.5561 17.7247C39.5191 17.8053 39.4821 17.8797 39.4389 17.9603C39.408 18.0161 39.3772 18.0719 39.3402 18.1215C39.3093 18.1711 39.2785 18.2207 39.2476 18.2641C39.1859 18.3509 39.1242 18.4315 39.0502 18.5183C38.8158 18.7911 38.5381 19.101 38.2112 19.4544C38.1063 19.5722 37.9891 19.6962 37.8718 19.814C37.6312 20.0682 37.3721 20.341 37.1007 20.62C36.8477 20.8865 36.5763 21.1531 36.2986 21.4321C35.9408 21.7917 35.5706 22.1637 35.182 22.548C34.4169 23.3044 33.6149 24.0855 32.8376 24.8419C32.6401 25.0279 32.4489 25.2201 32.2576 25.4061C32.0664 25.5859 31.8751 25.7718 31.6901 25.9516C31.5358 26.1004 31.3816 26.2492 31.2335 26.3918C29.9256 27.6441 28.8089 28.7229 28.1796 29.349C28.1303 29.3986 28.0871 29.442 28.0439 29.4854C27.9884 29.535 27.9329 29.5908 27.8773 29.6466C27.8033 29.7086 27.7231 29.7768 27.6429 29.8326C27.5874 29.876 27.5257 29.9194 27.464 29.9566C27.4393 29.969 27.4146 29.9876 27.3899 30.0062C27.3221 30.0496 27.248 30.093 27.174 30.1302C27.0938 30.1736 27.0074 30.217 26.9211 30.2542C26.8717 30.279 26.8224 30.2976 26.773 30.3224C26.7113 30.3472 26.6558 30.372 26.5879 30.3968C26.5262 30.4154 26.4645 30.4402 26.3967 30.4588C26.335 30.4836 26.2671 30.5022 26.1992 30.5208C26.1684 30.527 26.1375 30.5394 26.1005 30.5456C26.0142 30.5642 25.9278 30.589 25.8414 30.6014C25.8291 30.6076 25.8106 30.6138 25.7921 30.6138C25.6563 30.6386 25.5206 30.6572 25.3849 30.6758C25.3602 30.6758 25.3355 30.682 25.3108 30.682C25.2615 30.6882 25.2121 30.6944 25.1566 30.7006C25.1196 30.7006 25.0826 30.7068 25.0455 30.7006L24.9715 30.7068C24.8111 30.713 24.6507 30.7068 24.4965 30.7006C24.4471 30.7006 24.3978 30.7006 24.3484 30.6882C24.3114 30.6882 24.2805 30.682 24.2497 30.6758C24.2374 30.6758 24.225 30.6758 24.2127 30.6758C24.1448 30.6696 24.0769 30.6572 24.0152 30.6448C23.9165 30.6324 23.824 30.6138 23.7315 30.5952C23.6204 30.5704 23.5217 30.5456 23.4292 30.5146C23.3675 30.496 23.2996 30.4774 23.2256 30.4526C23.1762 30.434 23.133 30.4216 23.0837 30.403C22.9911 30.3658 22.9047 30.3286 22.8184 30.2852C22.806 30.2852 22.7937 30.279 22.7875 30.2728C22.769 30.2666 22.7629 30.2604 22.7505 30.2542C22.7073 30.2356 22.658 30.2046 22.6148 30.1798C22.5839 30.1674 22.5531 30.1488 22.5284 30.1302C22.4605 30.0868 22.3989 30.0434 22.3372 30.0062C22.3248 30.0062 22.3186 29.9938 22.3063 29.9876C22.2446 29.938 22.1768 29.8884 22.1151 29.8388C22.0719 29.8016 22.0225 29.7644 21.9855 29.721C21.893 29.6404 21.8066 29.5536 21.7202 29.4544C23.2441 29.535 24.6013 29.287 25.8291 28.8159C29.9626 27.235 32.634 23.2114 35.003 21.4817C35.293 21.2709 35.5521 21.0415 35.7989 20.7811C37.804 18.6733 38.1803 15.1705 36.6194 12.2133C36.5269 12.0397 36.3788 11.9157 36.2123 11.8537C35.9655 11.7607 35.6755 11.7917 35.4719 11.9901C35.2066 12.2567 35.0524 12.6038 34.9352 12.951C34.8673 13.1556 34.8056 13.3664 34.6761 13.5338C34.5527 13.7012 34.3306 13.8252 34.127 13.7756C33.8802 13.7136 33.7445 13.4284 33.7568 13.168C33.7692 12.9138 33.8987 12.6782 34.0036 12.4488C34.4972 11.3267 34.4972 10.0124 34.0653 8.87786C34.0344 8.79107 33.9974 8.70427 33.9542 8.61748C33.8185 8.40049 33.689 8.1649 33.5656 7.94172C33.436 7.78673 33.2756 7.61314 33.2386 7.44575C33.2262 7.37755 33.2201 7.32175 33.2262 7.27216C32.8067 6.41661 32.4427 5.50526 32.1342 4.59392C31.7517 3.50278 31.4433 2.41785 31.2027 1.45691C31.1965 1.43211 31.1903 1.40731 31.1842 1.38251C31.0669 0.929938 30.9682 0.495964 30.8819 0.111588C31.0731 0.154985 31.2582 0.223181 31.4186 0.316175C31.4926 0.347173 31.5728 0.40917 31.6345 0.471166Z" fill="#FFD4BB"/>
<path d="M27.8215 3.80037C25.5017 4.9845 23.2931 5.45567 22.7995 4.85431C22.781 4.82951 22.7625 4.80471 22.7502 4.77991C22.6946 4.66832 22.6885 4.54433 22.7255 4.40174C22.9229 3.59579 24.4714 2.27526 26.5135 1.22753C26.6739 1.14693 26.8405 1.06634 26.9947 0.991941C27.0935 0.942344 27.186 0.898947 27.2847 0.861749C27.9942 0.551768 28.6728 0.322382 29.2774 0.17979C29.2898 0.17359 29.296 0.17359 29.3083 0.17359C30.0178 0.00620048 30.6224 -0.0371969 31.0419 0.0371986C31.3257 0.0929953 31.5231 0.204589 31.6095 0.371979C31.6218 0.390577 31.6342 0.415376 31.6342 0.446374C31.8501 1.17793 30.1473 2.61004 27.8215 3.80037Z" fill="#FFA28D"/>
<path d="M30.7766 0.663362C31.0049 1.10974 29.5674 2.30006 27.5746 3.3168C25.5757 4.33974 23.7804 4.81091 23.5522 4.36454C23.3239 3.91817 24.7614 2.72784 26.7541 1.7111C28.7468 0.69436 30.5545 0.216989 30.7766 0.663362Z" fill="#FF6F48"/>
</g>
<defs>
<linearGradient id="paint0_linear_201_1432" x1="-2.34468" y1="36.1102" x2="15.8806" y2="13.87" gradientUnits="userSpaceOnUse">
<stop offset="0.0108" stop-color="#FFEBE3"/>
<stop offset="0.9074" stop-color="#FFD6BE"/>
<stop offset="0.9784" stop-color="#FFD4BB"/>
</linearGradient>
<linearGradient id="paint1_linear_201_1432" x1="18.4132" y1="26.8114" x2="36.6384" y2="4.5712" gradientUnits="userSpaceOnUse">
<stop offset="0.0108" stop-color="#FFEBE3"/>
<stop offset="0.9074" stop-color="#FFD6BE"/>
<stop offset="0.9784" stop-color="#FFD4BB"/>
</linearGradient>
<clipPath id="clip0_201_1432">
<rect width="45" height="40" fill="white"/>
</clipPath>
</defs>
</svg>
