<svg width="33" height="30" viewBox="0 0 33 30" fill="none" xmlns="http://www.w3.org/2000/svg">
<path d="M11 1.5C10.1151 0.443878 7.91815 0.306325 4.48129 3.96755C1.03929 7.62877 0 8.83113 0 8.83113C0 8.83113 1.02385 13.386 5.95276 15L11 1.5Z" fill="#315095"/>
<path d="M22 1.5C22.8849 0.443878 25.0819 0.306295 28.5187 3.96752C31.9607 7.62874 33 8.8311 33 8.8311C33 8.8311 31.9761 13.386 27.0472 14.9999L22 1.5Z" fill="#315095"/>
<path d="M26.7374 11.5C24.9397 5.64148 22.7011 3.4073 22 1.5C21.9842 1.54203 21.2232 3.88656 16.8688 3.88656C12.5196 3.88656 10.8951 1.21129 10.874 1.164C10.1676 3.0713 8.79779 5.63623 7.00014 11.5C4.57516 19.4077 3.87402 23.7477 3.87402 27.9774C3.87402 27.9774 8.94539 29.664 16.874 29.664C24.8027 29.664 29.874 27.9774 29.874 27.9774C29.8635 23.6741 29.1623 19.4077 26.7374 11.5Z" fill="#E73555"/>
</svg>
