<svg width="32" height="10" viewBox="0 0 32 10" fill="none" xmlns="http://www.w3.org/2000/svg">
<path d="M0.325648 5.47281C0.325648 5.47281 -0.348206 3.67413 0.912449 3.33215C2.1731 2.99017 6.37099 2.30292 7.04484 2.4772C6.87718 3.84841 7.54781 3.9339 8.97613 4.44687C10.4044 4.95984 13.5125 5.90358 17.2075 5.5616C19.977 5.30511 24.1652 3.74976 26.6866 2.62517C27.5313 2.25031 29.6173 0.685089 31.3165 0.593018C32.0742 1.79324 32.4449 6.53492 31.1005 7.21888C29.756 7.90284 21.9083 7.78776 21.9083 7.78776L14.9376 8.73149L8.3861 8.475L5.63265 8.19221L3.09522 7.10051L0.325648 5.47281Z" fill="#FFA515"/>
<path d="M31.1036 7.21571C32.4481 6.53175 32.0773 1.79006 31.3196 0.589844C30.8134 0.61615 30.2717 0.777275 29.7365 0.997589C28.4533 2.24713 27.0347 4.36478 26.7542 7.73526C28.65 7.66292 30.5103 7.51823 31.1036 7.21571Z" fill="#FF7F00"/>
<path d="M31.4487 6.93627C30.591 7.13685 27.844 7.33415 25.5 7.18289C19.2064 6.785 17.0817 7.34401 14.9376 7.76162C13.8575 7.97207 12.7291 8.19896 11.1879 8.3009C3.82065 8.8336 0.351436 5.04222 0.203123 4.93042C0.0999496 5.01263 0.0515869 5.10141 0 5.24281C0.0677078 5.30528 0.625491 5.88402 1.38317 6.48577C2.68897 7.52815 5.72292 9.52413 11.4297 9.21504C13.045 9.12954 14.0187 9.09995 15.0892 8.89279C16.698 8.5804 18.3488 8.25815 21.889 8.31405L21.8535 9.28738C21.8535 9.28738 28.5211 10.0634 31.5551 9.12297C31.8033 7.63996 31.4487 6.93627 31.4487 6.93627Z" fill="#D83068"/>
<path d="M31.639 8.25488C27.6152 8.86979 23.2625 8.53767 21.8794 8.43245L21.8503 9.29069C21.8503 9.29069 28.518 10.0667 31.5519 9.12628C31.6099 8.79416 31.6325 8.50808 31.639 8.25488Z" fill="#66042C"/>
<path d="M5.90658 2.54314C5.88723 2.42147 5.85177 2.30638 5.8034 2.19458C4.42023 2.3294 2.34386 2.68124 1.23151 2.93773C1.21539 3.06268 1.21862 3.19421 1.23796 3.32246C1.39595 4.30565 2.56955 4.93042 3.85922 4.71668C5.14567 4.49966 6.06456 3.52962 5.90658 2.54314Z" fill="#FF7F00"/>
<path d="M2.1312 3.17111C2.18923 3.54269 2.72767 3.83206 3.34994 3.83206C3.46923 3.83206 3.59175 3.82219 3.71105 3.80246C4.13664 3.73012 4.52354 3.5394 4.7718 3.27634C4.8782 3.16454 5.05231 2.93765 5.01362 2.69103C4.99105 2.55292 4.90077 2.42468 4.76536 2.31616C3.93996 2.43125 3.03397 2.57922 2.26661 2.72391C2.16022 2.87517 2.10863 3.03301 2.1312 3.17111Z" fill="#D83068"/>
</svg>
