<svg width="32" height="10" viewBox="0 0 32 10" fill="none" xmlns="http://www.w3.org/2000/svg">
<path d="M31.6744 5.47281C31.6744 5.47281 32.3482 3.67413 31.0876 3.33215C29.8269 2.99017 25.629 2.30292 24.9552 2.4772C25.1228 3.84841 24.4522 3.9339 23.0239 4.44687C21.5956 4.95984 18.4875 5.90358 14.7925 5.5616C12.023 5.30511 7.83476 3.74976 5.31345 2.62517C4.46871 2.25031 2.38267 0.685089 0.683523 0.593018C-0.0741596 1.79324 -0.444942 6.53492 0.899542 7.21888C2.24403 7.90284 10.0917 7.78776 10.0917 7.78776L17.0624 8.73149L23.6139 8.475L26.3674 8.19221L28.9048 7.10051L31.6744 5.47281Z" fill="#FFA515"/>
<path d="M0.896432 7.21571C-0.448051 6.53175 -0.07727 1.79006 0.680412 0.589844C1.18661 0.61615 1.72827 0.777275 2.26348 0.997589C3.54671 2.24713 4.96535 4.36478 5.24585 7.73526C3.35003 7.66292 1.48968 7.51823 0.896432 7.21571Z" fill="#FF7F00"/>
<path d="M0.551336 6.93627C1.40897 7.13685 4.15597 7.33415 6.49995 7.18289C12.7936 6.785 14.9183 7.34401 17.0624 7.76162C18.1425 7.97207 19.2709 8.19896 20.8121 8.3009C28.1793 8.8336 31.6486 5.04222 31.7969 4.93042C31.9001 5.01263 31.9484 5.10141 32 5.24281C31.9323 5.30528 31.3745 5.88402 30.6168 6.48577C29.311 7.52815 26.2771 9.52413 20.5703 9.21504C18.955 9.12954 17.9813 9.09995 16.9108 8.89279C15.302 8.5804 13.6512 8.25815 10.111 8.31405L10.1465 9.28738C10.1465 9.28738 3.47889 10.0634 0.444937 9.12297C0.196676 7.63996 0.551336 6.93627 0.551336 6.93627Z" fill="#D83068"/>
<path d="M0.36104 8.25488C4.38482 8.86979 8.73747 8.53767 10.1206 8.43245L10.1497 9.29069C10.1497 9.29069 3.48205 10.0667 0.448092 9.12628C0.390057 8.79416 0.367489 8.50808 0.36104 8.25488Z" fill="#66042C"/>
<path d="M26.0934 2.54314C26.1128 2.42147 26.1482 2.30638 26.1966 2.19458C27.5798 2.3294 29.6561 2.68124 30.7685 2.93773C30.7846 3.06268 30.7814 3.19421 30.762 3.32246C30.6041 4.30565 29.4305 4.93042 28.1408 4.71668C26.8543 4.49966 25.9354 3.52962 26.0934 2.54314Z" fill="#FF7F00"/>
<path d="M29.8688 3.17111C29.8108 3.54269 29.2723 3.83206 28.6501 3.83206C28.5308 3.83206 28.4082 3.82219 28.289 3.80246C27.8634 3.73012 27.4765 3.5394 27.2282 3.27634C27.1218 3.16454 26.9477 2.93765 26.9864 2.69103C27.009 2.55292 27.0992 2.42468 27.2346 2.31616C28.06 2.43125 28.966 2.57922 29.7334 2.72391C29.8398 2.87517 29.8914 3.03301 29.8688 3.17111Z" fill="#D83068"/>
</svg>
