<svg width="66" height="36" viewBox="0 0 66 36" fill="none" xmlns="http://www.w3.org/2000/svg">
<path d="M65.6555 30.7756C60.9098 31.4513 49.9614 33.009 38.465 34.6698H38.4516C38.104 34.7156 37.7431 34.7728 37.3955 34.8187C36.0988 35.0134 34.8021 35.1966 33.5188 35.3799H33.425L0.580078 32.631C0.620182 32.1271 0.673654 31.6117 0.740494 31.0505C0.927646 29.4355 1.22174 27.477 1.74309 24.6479C2.09066 22.7352 2.55854 20.4331 3.1601 17.5582C3.32052 16.8252 3.46756 16.1265 3.62798 15.4737C3.69482 15.1988 3.74829 14.9468 3.81513 14.6834C4.18944 13.1715 4.57711 11.9002 4.92467 10.8236V10.8121C5.32571 9.66676 5.68665 8.75048 6.02085 8.02891C6.90314 6.08181 7.5047 5.5435 7.5047 5.5435C7.5047 5.42896 7.51807 5.29152 7.53143 5.13117C7.65175 3.53913 8.33351 0.137442 8.33351 0.137442C8.33351 0.137442 25.4579 0.985001 32.6499 0.538315C39.8285 0.0801745 52.9826 0 52.9826 0L53.3836 4.11181L53.4237 4.51268C53.4237 4.51268 53.8649 5.0739 54.5333 6.02454C54.7873 6.3796 55.068 6.80338 55.3755 7.26152C56.6989 9.26589 58.4234 12.1636 59.6532 15.2561C61.2708 19.3221 64.1449 26.8012 65.6555 30.7756Z" fill="url(#paint0_linear_163_3714)"/>
<path d="M53.4237 4.43251C51.5923 4.46687 49.4802 4.63867 46.8734 4.85629C42.3952 5.2457 36.4464 5.79547 27.8909 6.16199C19.1349 6.53995 10.459 5.37169 7.51807 5.11972C7.63838 3.52768 8.32015 0.125989 8.32015 0.125989C8.32015 0.125989 8.81476 0.148896 9.67031 0.183256C9.8441 0.19471 10.0446 0.206163 10.2451 0.206163C10.713 0.22907 11.2611 0.251977 11.8627 0.274884C12.0498 0.286338 12.2503 0.297791 12.4509 0.297791C12.9054 0.320698 13.4134 0.332152 13.9347 0.355059C14.1219 0.366512 14.3224 0.366512 14.5095 0.377966C15.2047 0.412326 15.9533 0.435233 16.7152 0.45814C16.9158 0.45814 17.1029 0.469594 17.3034 0.481047C22.5838 0.65285 28.947 0.755931 32.6499 0.526861C34.4813 0.412326 36.7004 0.320698 38.9729 0.251977C39.1601 0.240524 39.3606 0.240524 39.5478 0.22907C40.4301 0.206163 41.3124 0.183256 42.1946 0.160349C42.3952 0.160349 42.5823 0.148896 42.7695 0.148896C43.3844 0.137442 43.9993 0.125989 44.5875 0.114535C44.8549 0.103082 45.1222 0.103082 45.3896 0.103082C45.5901 0.103082 45.7773 0.091628 45.9778 0.091628C47.1274 0.068721 48.1835 0.0572675 49.1326 0.045814C49.3331 0.045814 49.5203 0.045814 49.7208 0.0343605C50.4427 0.022907 51.0844 0.022907 51.5923 0.0114535C51.8062 0.0114535 52.0067 0 52.1805 0C52.7019 0 52.996 0 52.996 0L53.4237 4.43251Z" fill="#AE801B"/>
<g opacity="0.6">
<path opacity="0.6" d="M25.6317 22.2198C25.8055 22.3687 28.5593 24.2242 28.0915 27.225C27.6236 30.2258 25.3376 32.4822 25.3376 32.4822C25.3376 32.4822 30.7784 31.8293 30.8319 28.0726C30.8854 24.3158 25.6317 22.2198 25.6317 22.2198Z" fill="white"/>
<path opacity="0.6" d="M10.312 16.9054C10.312 16.9054 16.9826 22.6665 11.1275 26.9272C11.1275 26.9272 16.5682 25.7704 16.2741 22.0709C15.98 18.36 10.312 16.9054 10.312 16.9054Z" fill="white"/>
<path opacity="0.6" d="M23.172 6.23071C23.172 6.23071 26.3269 10.835 22.0625 15.0957C22.0625 15.0957 26.9151 13.6869 27.1423 10.4914C27.383 7.28444 23.172 6.23071 23.172 6.23071Z" fill="white"/>
<path opacity="0.6" d="M7.26395 11.0985C7.1169 13.5724 4.72403 14.9698 3.64122 15.4852C3.32039 15.6341 3.11987 15.7142 3.11987 15.7142C3.4006 15.3821 3.62786 15.0385 3.84174 14.7063C4.65719 13.3663 4.93792 12.0262 4.95129 10.8465V10.835C5.32559 9.66678 5.68653 8.7505 6.02073 8.02893C6.7426 8.69323 7.35753 9.68969 7.26395 11.0985Z" fill="white"/>
<path opacity="0.6" d="M41.3523 14.0535C41.5261 14.1565 46.6193 18.2111 41.9405 23.5255C41.9405 23.5255 47.7823 21.0745 46.9669 17.6155C46.1514 14.1451 41.3523 14.0535 41.3523 14.0535Z" fill="white"/>
<path opacity="0.6" d="M37.262 27.2709C37.262 27.2709 42.0611 31.6805 37.3823 34.8416C37.3823 34.8416 42.8899 34.5324 41.8873 30.0312C41.2991 27.4312 37.262 27.2709 37.262 27.2709Z" fill="white"/>
<path opacity="0.6" d="M0.740479 31.0505C0.92763 29.4355 1.22173 27.477 1.74308 24.6479C2.50505 25.0603 3.18682 25.6788 3.40071 26.6294C4.01564 29.3439 2.25106 30.5351 0.740479 31.0505Z" fill="white"/>
<path opacity="0.6" d="M49.4802 20.6164C49.4802 20.6164 54.6269 23.5256 51.5255 28.9774C51.5255 28.9774 55.8434 26.7211 54.8007 23.0674C54.0387 20.4102 49.4802 20.6164 49.4802 20.6164Z" fill="white"/>
<path opacity="0.6" d="M51.6458 5.02812C51.6458 5.02812 55.1482 8.53289 51.873 13.1945C51.873 13.1945 55.9636 11.1443 55.5626 8.04039C55.1482 4.93649 51.6458 5.02812 51.6458 5.02812Z" fill="white"/>
</g>
<path d="M10.245 0.217609L9.72369 4.83337L9.1355 4.68448L9.67022 0.194702C9.844 0.194702 10.0445 0.206156 10.245 0.217609Z" fill="#986D14"/>
<path d="M12.4507 0.309284L11.9427 4.74179L11.3545 4.58144L11.8625 0.286377C12.063 0.286377 12.2501 0.29783 12.4507 0.309284Z" fill="#986D14"/>
<path d="M17.6508 4.75319L17.0493 4.68447L16.7151 0.45813C16.9156 0.45813 17.1028 0.469583 17.3033 0.481037L17.6508 4.75319Z" fill="#986D14"/>
<path d="M14.5094 0.389463L14.3757 4.67307L13.7742 4.55854L13.9212 0.355103C14.1217 0.37801 14.3223 0.37801 14.5094 0.389463Z" fill="#986D14"/>
<path d="M49.7209 0.0335693L49.7075 3.97357L49.106 3.87049L49.1327 0.0450228C49.3332 0.0335693 49.5337 0.0335693 49.7209 0.0335693Z" fill="#986D14"/>
<path d="M39.8552 4.04312L39.2536 3.9744L38.9729 0.240558C39.1601 0.229105 39.3606 0.229105 39.5477 0.217651L39.8552 4.04312Z" fill="#986D14"/>
<path d="M43.0769 3.84841L42.4753 3.77969L42.1946 0.160379C42.3951 0.160379 42.5823 0.148926 42.7694 0.148926L43.0769 3.84841Z" fill="#986D14"/>
<path d="M46.2985 3.89424L45.6969 3.83697L45.4028 0.103128C45.6034 0.103128 45.7905 0.0916748 45.991 0.0916748L46.2985 3.89424Z" fill="#986D14"/>
<path d="M52.1804 0L52.167 3.9171L51.5654 3.81402L51.5922 0.0114535C51.8061 0.0114535 52.0066 0 52.1804 0Z" fill="#986D14"/>
<path opacity="0.2" d="M53.4236 4.43251C51.5922 4.46687 49.4801 4.63867 46.8733 4.85629C46.2985 3.65367 45.3093 1.54622 44.5874 0.103082C44.8548 0.091628 45.1221 0.091628 45.3895 0.091628C45.59 0.091628 45.7772 0.0801745 45.9777 0.0801745C47.1273 0.0572675 48.1834 0.045814 49.1325 0.0343605C49.333 0.0343605 49.5202 0.0343605 49.7207 0.022907C50.4426 0.0114535 51.0842 0.0114535 51.5922 0C51.8061 0.0114535 52.0066 0 52.1804 0C52.7018 0 52.9959 0 52.9959 0L53.4236 4.43251Z" fill="#AE801B"/>
<path d="M18.5466 14.9468C18.5466 14.9468 23.3457 15.5997 26.6209 14.8438C26.6209 14.8438 24.99 16.5503 22.7575 16.5503C19.0145 16.5618 18.5466 14.9468 18.5466 14.9468Z" fill="#9E9890"/>
<path d="M37.9036 23.6744C37.9036 23.6744 41.7001 23.9263 45.149 22.9757C45.149 22.9757 44.5608 24.3845 43.224 24.7281C41.8739 25.0717 38.719 24.877 38.719 24.877L37.9036 23.6744Z" fill="#9E9890"/>
<path d="M48.8921 29.2293C48.8921 29.2293 52.9827 29.1262 55.4424 28.1298C55.4424 28.1298 54.4532 29.6302 54.0388 29.8363C53.6244 30.0425 50.0685 30.2372 50.0685 30.2372L48.8921 29.2293Z" fill="#9E9890"/>
<path d="M7.50464 26.5722C7.50464 26.5722 11.5418 27.477 15.2848 26.3774L13.5871 27.729C13.5871 27.729 10.3788 28.2787 8.78797 27.9809L7.50464 26.5722Z" fill="#9E9890"/>
<path d="M21.4741 31.9324C21.6479 31.9324 26.9684 33.135 30.8852 32.5394C30.8852 32.5394 29.0671 33.7878 28.8399 33.8451C28.6126 33.8909 24.1076 33.8451 22.704 33.2381L21.4741 31.9324Z" fill="#9E9890"/>
<path d="M48.491 13.2517C48.491 13.2517 52.7019 13.6526 55.8567 12.4042C55.8567 12.4042 54.5066 14.2596 54.3328 14.3513C54.159 14.4544 51.7661 14.901 50.416 14.6491C49.0658 14.3971 48.491 13.2517 48.491 13.2517Z" fill="#9E9890"/>
<path d="M3.64126 15.4736C3.64126 15.4736 5.80688 16.1494 6.91642 15.9432C6.91642 15.9432 5.339 17.5009 3.34717 17.1458L3.64126 15.4736Z" fill="#9E9890"/>
<path d="M0.740543 31.0504C0.740543 31.0504 2.3447 31.2909 2.98637 31.0848C2.98637 31.0848 2.3447 32.2874 0.700439 32.1843L0.740543 31.0504Z" fill="#9E9890"/>
<defs>
<linearGradient id="paint0_linear_163_3714" x1="28.2633" y1="0.605203" x2="32.3384" y2="36.1632" gradientUnits="userSpaceOnUse">
<stop offset="1.993e-05" stop-color="#BC8E22"/>
<stop offset="1" stop-color="#AE801B"/>
</linearGradient>
</defs>
</svg>
