<svg width="50" height="57" viewBox="0 0 50 57" fill="none" xmlns="http://www.w3.org/2000/svg">
<path d="M48.9795 50.4638C48.9795 50.484 48.9795 50.484 48.9795 50.494C48.84 51.6641 48.7005 52.7232 48.5736 53.6209C48.2819 55.7089 48.0663 56.9596 48.0663 56.9596L29 56.5C29 56.5 28.5835 48.5851 28 44.5C27.4039 40.4149 24.1186 24.1641 24.3093 25.832C24.5 27.5 24 30.7664 24 31C24 31.2336 21.6457 57 21.6457 57L2.20125 56.4553C2.20125 56.4553 2.03636 54.9524 1.78268 52.5618C1.2119 47.0545 0.235241 36.8165 0.0322983 29.3725C-0.0184374 27.4863 -0.00575345 25.4487 0.0449822 23.3406C0.0449822 23.1691 0.0576661 22.9977 0.0576661 22.8161C0.07035 22.3319 0.083034 21.8478 0.108402 21.3636C0.108402 21.2426 0.121086 21.1215 0.121086 20.9904C0.184505 19.4068 0.260609 17.803 0.36208 16.2295C0.666494 11.3879 1.08506 6.84885 1.40216 3.85309C1.40216 3.84301 1.41485 3.82283 1.41485 3.81275C1.56705 2.50147 1.91121 1.6052 2 1C2.01268 0.878959 2.48732 0.59078 2.5 0.5C2.5 0.5 15.6335 -0.0706374 24.1571 0.0100562C29.4717 0.0604898 37.323 0.0403164 42.4854 0.020143C45.5802 0.020143 46 0 46 0C46 0 46.9619 0.515838 47 1C47.0507 1.57494 47.5 2 48.0029 3.33867C48.0282 3.55049 48.0409 3.76231 48.0663 3.98422C48.3327 6.96989 48.7005 11.3374 49.0429 16.0076C49.2078 18.2771 49.3727 20.6172 49.5123 22.9069C49.5123 22.9977 49.5123 23.0985 49.5376 23.1893C49.5884 24.0971 49.6391 24.9948 49.6898 25.8724C49.7025 25.9833 49.7025 26.0943 49.7025 26.2052C49.842 28.8177 49.9435 31.2789 49.9816 33.3769C50.083 39.5096 49.5249 45.8945 48.9795 50.4638Z" fill="url(#paint0_linear_163_3031)"/>
<defs>
<linearGradient id="paint0_linear_163_3031" x1="32.3292" y1="1.75448" x2="22.0445" y2="61.1497" gradientUnits="userSpaceOnUse">
<stop stop-color="#9DCDCE"/>
<stop offset="1" stop-color="#95C1B9"/>
</linearGradient>
</defs>
</svg>
