<svg width="83" height="51" viewBox="0 0 83 51" fill="none" xmlns="http://www.w3.org/2000/svg">
<path d="M51.3679 46.9123C50.4889 46.9329 49.4225 46.9534 48.2505 46.974C45.1684 47.0357 41.3127 47.118 37.7969 47.1591C36.8594 47.1694 35.9452 47.1796 35.078 47.1796L40.7736 10.6384C36.0038 8.60263 33.5779 6.3715 32.3474 4.53107C32.6873 4.63389 33.449 4.84981 34.5389 5.06572C37.6328 5.68263 43.623 5.46823 49.4944 3.49414C49.0373 4.23442 48.1216 5.88826 47.3364 6.7108C46.0473 8.06799 44.266 9.43545 41.7932 10.5253C41.7932 10.5253 44.5941 25.2179 46.0356 30.6055C47.1138 34.6565 50.0905 42.9539 51.3679 46.9123Z" fill="url(#paint0_linear_163_3654)"/>
<path opacity="0.4" d="M51.3679 46.9124C50.4889 46.9329 49.4225 46.9535 48.2505 46.9741C47.3013 44.5579 45.5785 39.9722 44.3949 33.1966C42.7542 23.8402 41.4768 15.2138 41.4768 15.2138C41.4768 15.2138 39.379 25.6806 38.4649 33.5975C37.8555 38.9543 37.7735 44.2803 37.7969 47.1591C36.8594 47.1694 35.9452 47.1797 35.078 47.1797L40.7736 10.6385C36.0038 8.60269 33.5779 6.37156 32.3474 4.53113C32.6873 4.63395 33.449 4.84986 34.5389 5.06578C36.8359 6.60804 42.0745 8.12973 46.8559 6.82395L47.3481 6.70057C46.059 8.05776 44.2777 9.42523 41.8049 10.5151C41.8049 10.5151 44.6058 25.2077 46.0473 30.5953C47.1138 34.6566 50.0905 42.9539 51.3679 46.9124Z" fill="#B38484"/>
<path d="M40.7852 10.6487L34.5622 50.9324C34.5622 50.9324 34.1872 50.953 33.5192 50.9736C30.3667 51.0558 20.6631 51.0558 12.1548 48.2386L13.6198 40.0338L14.5456 34.8107C14.5456 34.8107 9.13125 34.9238 6.30689 31.6234C6.27173 31.5822 4.0293 30.025 3.99414 29.9941C3.99414 29.9941 13.7955 16.17 18.1669 10.7823C21.3311 6.87528 25.6672 5.04513 27.8353 4.33569C28.1166 5.31246 29.476 9.1681 34.0583 12.4891C34.0583 12.4891 37.5389 9.70275 38.5702 9.61021C39.0624 9.86726 39.5781 10.114 40.1406 10.3711C40.2226 10.4122 40.3047 10.443 40.3867 10.4842C40.5039 10.5253 40.6445 10.587 40.7852 10.6487Z" fill="url(#paint1_linear_163_3654)"/>
<path d="M75.7439 33.762C73.2945 35.0369 70.728 35.078 70.728 35.078L73.1773 39.5814L76.1775 45.1027C68.4779 49.0817 56.8171 50.2333 53.3482 50.4903C52.6919 50.5417 52.3286 50.5623 52.3286 50.5623C52.3286 50.5623 47.1135 34.6565 46.0354 30.6055C44.7697 25.8656 42.461 13.9491 41.9219 11.1319C41.8398 10.7412 41.8047 10.5253 41.8047 10.5253C42.0039 10.4327 42.2031 10.3402 42.4024 10.2477C46.0002 8.51006 48.0511 6.1864 49.1879 4.32541C49.2113 4.32541 49.223 4.31512 49.2347 4.31512C49.2347 4.31512 49.4105 4.05808 49.6332 3.63653C49.7973 3.33836 49.9731 2.96822 50.1371 2.54667C50.3012 2.14568 50.4418 1.70357 50.5356 1.24089C50.5473 1.19976 50.5473 1.1792 50.5473 1.1792C50.5473 1.1792 55.3054 2.87568 59.2079 5.15822C63.0987 7.43048 67.1536 10.772 70.0248 15.0287C72.8492 19.2133 79.2362 30.2353 79.4472 30.6055V30.6158C79.4472 30.6158 78.4276 32.3637 75.7439 33.762Z" fill="url(#paint2_linear_163_3654)"/>
<path d="M28.9604 43.9717C21.167 44.2904 15.9285 42.7893 15.9285 42.7893C16.3855 40.188 16.8895 36.1987 16.8895 36.1987C17.1473 36.2913 17.4285 36.3838 17.7098 36.4661C20.9561 37.3811 25.8899 37.3297 27.6009 37.2783C27.9877 37.268 28.2103 37.2577 28.2103 37.2577L28.9604 43.9717Z" fill="url(#paint3_linear_163_3654)"/>
<path opacity="0.4" d="M28.9604 43.9717C21.167 44.2904 15.9285 42.7893 15.9285 42.7893C16.3855 40.188 16.8895 36.1987 16.8895 36.1987C17.1473 36.2913 17.4285 36.3838 17.7098 36.4661L16.7957 42.3575C20.417 43.4987 27.8705 43.2623 27.8705 43.2623C27.6947 41.0928 27.6244 38.1831 27.6009 37.2886C27.9877 37.2783 28.2103 37.268 28.2103 37.268L28.9604 43.9717Z" fill="#8F1C1C"/>
<path d="M69.9077 39.201C69.9077 39.201 69.3218 40.1572 64.3996 41.5966C59.4775 43.0361 56.7703 43.2006 56.7703 43.2006C56.5828 42.193 55.0593 36.7848 55.0593 36.7848C55.2937 36.7539 55.5281 36.7231 55.7625 36.6923C60.6026 36.0342 64.4817 34.8313 65.9349 34.3377C66.3333 34.2041 66.5443 34.1218 66.5443 34.1218C67.7748 35.5201 69.9077 39.201 69.9077 39.201Z" fill="url(#paint4_linear_163_3654)"/>
<path opacity="0.4" d="M69.9077 39.201C69.9077 39.201 69.3218 40.1572 64.3996 41.5966C59.4775 43.0361 56.7703 43.2006 56.7703 43.2006C56.5828 42.193 55.0593 36.7848 55.0593 36.7848C55.2937 36.7539 55.5281 36.7231 55.7625 36.6923C56.2078 38.1625 57.4501 42.2958 57.4501 42.2958C57.4501 42.2958 63.4621 41.8125 68.6538 39.1804L65.9231 34.3377C66.3216 34.2041 66.5326 34.1218 66.5326 34.1218C67.7748 35.5201 69.9077 39.201 69.9077 39.201Z" fill="#8F1C1C"/>
<path opacity="0.6" d="M52.738 31.8907L53.8982 38.286C53.8982 38.286 64.2816 37.3915 68.0435 34.3275C68.0435 34.3275 62.7346 36.8671 54.5663 37.2475L52.738 31.8907Z" fill="#8F1C1C"/>
<path d="M68.0896 34.1219C68.0896 34.1219 64.8199 35.9212 59.5228 36.7849C58.0227 37.0316 56.3586 37.1961 54.5655 37.2373L52.7373 31.8805C52.7373 31.8805 52.8897 31.8599 53.1709 31.8291C54.8351 31.6234 61.0229 30.8112 65.359 29.4026L68.0896 34.1219Z" fill="#B32929"/>
<path opacity="0.4" d="M59.5128 36.7951C58.0127 37.0419 56.3486 37.2064 54.5555 37.2475L52.7273 31.8908C52.7273 31.8908 52.8796 31.8702 53.1609 31.8394C54.0047 33.2891 55.8915 35.9829 59.5128 36.7951Z" fill="#A61F1F"/>
<path d="M38.5586 9.58051C37.5391 9.67362 33.9529 12.7461 33.9529 12.7461C29.359 9.40465 28.105 5.24593 27.8237 4.26315C27.7769 4.11832 27.7651 4.02521 27.7651 4.02521L28.4449 3.38382L31.9944 0.994141C31.9827 1.15966 31.5856 2.93898 32.5232 4.53212C32.7576 4.92524 33.0037 5.308 33.2732 5.64939C33.4607 5.89767 33.66 6.12526 33.8592 6.32182C34.1522 6.61148 34.5038 6.90114 34.8553 7.18046C34.9491 7.25287 35.0428 7.32529 35.1366 7.39771C36.0507 8.12186 37.1758 8.85636 38.5586 9.58051Z" fill="#C22C2C"/>
<path opacity="0.3" d="M34.8436 7.18049C31.6559 7.06669 29.148 4.82182 28.4331 3.38385L31.9944 0.994141C31.9827 1.15966 31.5739 2.93901 32.5114 4.53215C32.7458 4.92527 32.9919 5.30803 33.2615 5.64942C33.449 5.8977 33.6482 6.12529 33.8474 6.32185C34.1404 6.61151 34.492 6.90117 34.8436 7.18049Z" fill="#C22C2C"/>
<path opacity="0.3" d="M21.0266 10.042C21.0266 10.042 21.0266 14.4837 20.0656 17.4757C19.1046 20.4677 16.9248 23.1101 16.9248 23.1101L12.2839 34.5639C13.1043 35.0471 14.534 34.8004 14.534 34.8004L17.4053 23.1717C22.3274 19.2236 21.3078 11.4814 21.0266 10.042Z" fill="#A32A28"/>
<path d="M49.6803 34.5125C49.3521 34.5742 49.024 34.5125 48.7779 34.3686C48.5435 34.2246 48.3677 34.019 48.2974 33.762C48.1685 33.2273 48.5669 32.7029 49.1998 32.5796C49.6217 32.4973 50.0436 32.631 50.3131 32.8777C50.442 33.0011 50.5358 33.1553 50.5827 33.3301C50.7233 33.8545 50.3131 34.3891 49.6803 34.5125Z" fill="#39323F"/>
<path d="M49.5514 34.1424C49.2467 34.2041 48.9537 34.091 48.7896 33.8956C48.731 33.8237 48.6841 33.7517 48.6607 33.6592C48.5787 33.3096 48.8365 32.9703 49.2467 32.888C49.4693 32.8469 49.692 32.888 49.8561 33.0011C49.9967 33.0834 50.1022 33.217 50.1373 33.3713C50.2194 33.7208 49.9615 34.0704 49.5514 34.1424Z" fill="#4B4651"/>
<path opacity="0.1" d="M49.399 34.0087C49.1764 34.0499 48.9654 34.0087 48.7896 33.8956C48.731 33.8237 48.6841 33.7517 48.6607 33.6592C48.5787 33.3096 48.8365 32.9703 49.2467 32.888C49.4693 32.8469 49.692 32.888 49.8561 33.0011C49.9147 33.0731 49.9615 33.1451 49.985 33.2376C50.067 33.5872 49.7975 33.9265 49.399 34.0087Z" fill="#4B4651"/>
<path opacity="0.4" d="M49.6802 34.5125C49.3521 34.5742 49.0239 34.5125 48.7778 34.3685C49.2583 34.4302 49.8443 34.3685 50.2076 34.0704C50.6178 33.7311 50.4889 33.2273 50.3248 32.8777C50.4537 33.0011 50.5475 33.1553 50.5943 33.3301C50.7232 33.8544 50.3131 34.3891 49.6802 34.5125Z" fill="#39323F"/>
<path d="M52.7977 44.0437C52.4696 44.1054 52.1531 44.0437 51.8953 43.8998C51.6609 43.7558 51.4851 43.5502 51.4148 43.2931C51.2859 42.7585 51.6844 42.2341 52.3172 42.1107C52.7391 42.0285 53.161 42.1519 53.4306 42.4089C53.5595 42.5323 53.6532 42.6865 53.7001 42.8613C53.829 43.3857 53.4306 43.9203 52.7977 44.0437Z" fill="#39323F"/>
<path d="M52.6688 43.6736C52.3641 43.7353 52.0594 43.6222 51.9071 43.4269C51.8485 43.3549 51.8016 43.2829 51.7781 43.1904C51.6961 42.8408 51.9539 42.5015 52.3641 42.4295C52.5868 42.3884 52.8094 42.4295 52.9735 42.5426C53.1141 42.6249 53.2196 42.7585 53.2548 42.9128C53.3368 43.2521 53.0673 43.6016 52.6688 43.6736Z" fill="#4B4651"/>
<path opacity="0.1" d="M52.5047 43.54C52.2821 43.5811 52.0711 43.54 51.9071 43.4269C51.8485 43.3549 51.8016 43.2829 51.7781 43.1904C51.6961 42.8408 51.9539 42.5015 52.3641 42.4295C52.5868 42.3884 52.8094 42.4295 52.9735 42.5426C53.0321 42.6146 53.079 42.6866 53.1024 42.7791C53.1727 43.1184 52.9149 43.4577 52.5047 43.54Z" fill="#4B4651"/>
<path opacity="0.4" d="M52.7977 44.0437C52.4695 44.1054 52.1531 44.0437 51.8953 43.8998C52.3758 43.9615 52.9617 43.8998 53.325 43.6016C53.7352 43.2623 53.6063 42.7585 53.4422 42.4089C53.5711 42.5323 53.6649 42.6865 53.7118 42.8613C53.829 43.3857 53.4305 43.9203 52.7977 44.0437Z" fill="#39323F"/>
<path d="M47.2777 24.4982C46.9495 24.5599 46.6214 24.4982 46.3753 24.3542C46.1409 24.2103 45.9651 24.0046 45.8948 23.7476C45.7659 23.2129 46.1643 22.6886 46.7972 22.5652C47.2191 22.4829 47.641 22.6063 47.9105 22.8634C48.0394 22.9868 48.1332 23.141 48.1801 23.3158C48.3207 23.8504 47.9105 24.3748 47.2777 24.4982Z" fill="#39323F"/>
<path d="M47.1488 24.1381C46.8441 24.1998 46.5394 24.0867 46.387 23.8913C46.3284 23.8194 46.2816 23.7474 46.2581 23.6549C46.1761 23.3053 46.4339 22.966 46.8441 22.894C47.0668 22.8529 47.2894 22.894 47.4535 23.0071C47.5941 23.0894 47.6996 23.223 47.7348 23.3772C47.8168 23.7165 47.559 24.0558 47.1488 24.1381Z" fill="#4B4651"/>
<path opacity="0.1" d="M46.9964 23.9944C46.7738 24.0355 46.5628 23.9944 46.387 23.8813C46.3284 23.8094 46.2816 23.7374 46.2581 23.6448C46.1761 23.2953 46.4339 22.956 46.8441 22.884C47.0668 22.8429 47.2894 22.884 47.4535 22.9971C47.5121 23.0691 47.5472 23.141 47.5707 23.2336C47.6644 23.5729 47.3949 23.9225 46.9964 23.9944Z" fill="#4B4651"/>
<path opacity="0.4" d="M47.2776 24.4982C46.9495 24.5599 46.6214 24.4982 46.3752 24.3542C46.8557 24.4159 47.4417 24.3543 47.805 24.0561C48.2152 23.7168 48.0863 23.213 47.9222 22.8634C48.0511 22.9868 48.1449 23.141 48.1917 23.3158C48.3207 23.8504 47.9105 24.3748 47.2776 24.4982Z" fill="#39323F"/>
<path d="M45.1449 15.111C44.8167 15.1726 44.5003 15.111 44.2425 14.967C44.0081 14.8333 43.8323 14.6174 43.762 14.3604C43.6331 13.8257 44.0315 13.3014 44.6644 13.178C45.0863 13.0957 45.5082 13.2191 45.7777 13.4762C45.9066 13.5995 46.0004 13.7538 46.0473 13.9286C46.1762 14.4529 45.7777 14.9876 45.1449 15.111Z" fill="#39323F"/>
<path d="M45.0143 14.7408C44.7096 14.8025 44.4049 14.6894 44.2525 14.494C44.1939 14.422 44.147 14.3501 44.1236 14.2575C44.0416 13.908 44.2994 13.5687 44.7096 13.4864C44.9322 13.4453 45.1549 13.4864 45.319 13.5995C45.4596 13.6818 45.5651 13.8154 45.6002 13.9697C45.6823 14.3192 45.4244 14.6688 45.0143 14.7408Z" fill="#4B4651"/>
<path opacity="0.1" d="M44.8519 14.6071C44.6292 14.6482 44.4183 14.6071 44.2425 14.494C44.1839 14.422 44.137 14.3501 44.1136 14.2575C44.0316 13.908 44.2894 13.5687 44.6996 13.4864C44.9222 13.4453 45.1449 13.4864 45.309 13.5995C45.3676 13.6612 45.4144 13.7435 45.4379 13.836C45.5199 14.1856 45.2621 14.5249 44.8519 14.6071Z" fill="#4B4651"/>
<path opacity="0.4" d="M45.1448 15.111C44.8167 15.1727 44.5003 15.111 44.2424 14.967C44.7229 15.0287 45.3089 14.967 45.6722 14.6689C46.0707 14.3296 45.9535 13.8258 45.7894 13.4762C45.9183 13.5996 46.0121 13.7538 46.0589 13.9286C46.1761 14.453 45.7777 14.9876 45.1448 15.111Z" fill="#39323F"/>
<path d="M14.5456 33.6336L13.6197 38.8567C12.5416 38.8978 11.522 38.8362 10.5727 38.7025C6.23657 38.0959 0.705811 33.6233 0.705811 33.6233L3.99438 29.4941L5.49438 29.9941L6.20141 30.3434C6.20141 30.3434 6.23657 30.3846 6.29516 30.4463C7.99438 31.4941 9.63517 32.8419 11.311 33.2429C12.4361 33.5102 13.4205 33.5925 14.0065 33.6233C14.3463 33.6439 14.5456 33.6336 14.5456 33.6336Z" fill="#A61F1F"/>
<path opacity="0.3" d="M14.5456 33.6339L13.6198 38.857C12.5416 38.8981 11.522 38.8364 10.5728 38.7028C10.8071 37.0166 11.147 34.6415 11.3111 33.2432C12.4361 33.5105 13.4206 33.5927 14.0065 33.6236C14.3464 33.6442 14.5456 33.6339 14.5456 33.6339Z" fill="#A61F1F"/>
<path opacity="0.4" d="M14.0065 33.6236C9.58833 34.7237 6.44755 31.4747 5.63892 30.1381L5.68579 29.9941L6.21316 30.3334C6.21316 30.3334 6.24832 30.3746 6.30692 30.4363C8.58047 33.1198 12.5533 33.5516 14.0065 33.6236Z" fill="#A61F1F"/>
<path d="M82.4942 35.8283C82.4942 35.8283 80.4785 37.6585 78.0878 38.5221C77.6542 38.6764 77.2205 38.81 76.7869 38.9334C75.1228 39.3858 73.5875 39.5503 73.1774 39.5914L70.728 35.088C70.728 35.088 71.0327 35.088 71.5249 35.0263C72.1695 34.9441 73.1422 34.7796 74.2087 34.4197C74.7126 34.2449 75.2283 34.029 75.7439 33.772C78.4276 32.3737 79.4589 30.6155 79.4589 30.6155C79.4589 30.6155 79.4589 30.6155 79.4589 30.6052C79.6464 30.4099 79.7636 30.2968 79.7636 30.2968L80.0097 30.8006L82.4942 35.8283Z" fill="#A61F1F"/>
<path opacity="0.4" d="M79.998 30.7905C78.9315 32.7338 76.2126 35.6024 71.5366 35.0163C72.4859 34.9032 74.1383 34.5948 75.7439 33.762C78.4276 32.3637 79.4589 30.6055 79.4589 30.6055C79.4589 30.6055 79.4589 30.6055 79.4589 30.5952C79.6464 30.3998 79.7636 30.2867 79.7636 30.2867L79.998 30.7905Z" fill="#A61F1F"/>
<path opacity="0.3" d="M76.7869 38.9337C75.1228 39.3861 73.5875 39.5506 73.1774 39.5918L70.728 35.0884C70.728 35.0884 71.0327 35.0884 71.5249 35.0267C72.1695 34.9444 73.1422 34.7799 74.2087 34.42L76.7869 38.9337Z" fill="#A61F1F"/>
<defs>
<linearGradient id="paint0_linear_163_3654" x1="45.5124" y1="5.62998" x2="41.2809" y2="35.8954" gradientUnits="userSpaceOnUse">
<stop offset="0.00510204" stop-color="#B38484"/>
<stop offset="1" stop-color="#A57979"/>
</linearGradient>
<linearGradient id="paint1_linear_163_3654" x1="25.8347" y1="4.58348" x2="20.9789" y2="49.0207" gradientUnits="userSpaceOnUse">
<stop offset="0.00510204" stop-color="#B32929"/>
<stop offset="1" stop-color="#A31B1F"/>
</linearGradient>
<linearGradient id="paint2_linear_163_3654" x1="58.3191" y1="4.0954" x2="63.2448" y2="49.7319" gradientUnits="userSpaceOnUse">
<stop offset="0.00510204" stop-color="#B32929"/>
<stop offset="1" stop-color="#A31B1F"/>
</linearGradient>
<linearGradient id="paint3_linear_163_3654" x1="30.4386" y1="35.1999" x2="23.1084" y2="41.3958" gradientUnits="userSpaceOnUse">
<stop offset="0.00510204" stop-color="#B32929"/>
<stop offset="1" stop-color="#A31B1F"/>
</linearGradient>
<linearGradient id="paint4_linear_163_3654" x1="55.0593" y1="38.6614" x2="69.9099" y2="38.6614" gradientUnits="userSpaceOnUse">
<stop offset="0.00510204" stop-color="#B32929"/>
<stop offset="1" stop-color="#A31B1F"/>
</linearGradient>
</defs>
</svg>
