<svg width="57" height="57" viewBox="0 0 57 57" fill="none" xmlns="http://www.w3.org/2000/svg">
<path d="M37.0993 3.58691L27.7004 7.58653L18.3016 3.58691C18.3016 3.58691 3.67988 19.2439 0 49C0 49 1.64728 56.5 27.7004 56.5C53.7536 56.5 55.5 50.5 55.5 50.5C51.8296 20.7534 37.0993 3.58691 37.0993 3.58691Z" fill="#EC5E76"/>
<path d="M46.2095 23L40.2095 11.5C37.5429 8.66664 33.2095 2.69997 37.2095 1.49997C42.2095 -3.03984e-05 50.2095 7.49997 51.7095 8.99997L56.7095 14L46.2095 23Z" fill="#EC5E76"/>
<path d="M9.65511 21L15.0525 10.3996C17.4513 7.78787 21.3494 2.28794 17.7512 1.18181C13.2534 -0.200858 6.05687 6.71247 4.70752 8.09513L0.209717 12.704L9.65511 21Z" fill="#EC5E76"/>
<path d="M37.9863 0C37.9863 0 43.5564 1.63851 43.1926 5.9033C42.8289 10.1681 34.5873 14.2702 27.2097 7.077L37.9863 0Z" fill="#F7F9F9"/>
<path d="M16.4332 0C16.4332 0 10.863 1.63851 11.2268 5.9033C11.5906 10.1681 19.8207 14.2702 27.2097 7.077L16.4332 0Z" fill="#F7F9F9"/>
<rect x="26.2097" y="7" width="2" height="37" rx="1" fill="#F7F9F9"/>
<circle cx="30.2097" cy="17" r="1" fill="#8C3A48"/>
<circle cx="30.2097" cy="22" r="1" fill="#8C3A48"/>
<circle cx="30.2097" cy="27" r="1" fill="#8C3A48"/>
<circle cx="30.2097" cy="32" r="1" fill="#8C3A48"/>
<circle cx="30.2097" cy="37" r="1" fill="#8C3A48"/>
</svg>
