<svg width="51" height="58" viewBox="0 0 51 58" fill="none" xmlns="http://www.w3.org/2000/svg">
<path d="M49.4739 50.5476C49.4739 50.5678 49.4739 50.5678 49.4739 50.5779C49.3344 51.748 49.1949 52.8071 49.068 53.7048C48.7763 55.7927 48.5607 57.0435 48.5607 57.0435L29.4944 56.5839C29.4944 56.5839 29.0778 48.669 28.4944 44.5839C27.8982 40.4987 24.613 24.248 24.8037 25.9159C24.9944 27.5838 24.4944 30.8502 24.4944 31.0838C24.4944 31.3174 22.1401 57.0838 22.1401 57.0838L2.69563 56.5392C2.69563 56.5392 2.53074 55.0362 2.27706 52.6457C1.70629 47.1383 0.729626 36.9003 0.526683 29.4563C0.475947 27.5701 0.488631 25.5326 0.539367 23.4245C0.539367 23.253 0.552051 23.0815 0.552051 22.9C0.564735 22.4158 0.577419 21.9316 0.602787 21.4475C0.602787 21.3264 0.61547 21.2054 0.61547 21.0743C0.67889 19.4907 0.754994 17.8869 0.856465 16.3133C1.16088 11.4717 1.57945 6.93271 1.89655 3.93696C1.89655 3.92687 1.90923 3.9067 1.90923 3.89661C2.06144 2.58534 2.17559 1.56658 2.26438 0.961376C2.27706 0.840335 2.30243 0.729381 2.31512 0.638601C2.31512 0.638601 16.1279 0.0132249 24.6515 0.0939185C29.9661 0.144352 37.8174 0.124179 42.9798 0.104005C46.0746 0.104005 46.4944 0.0838623 46.4944 0.0838623C46.4944 0.0838623 48.2309 0.346086 48.2689 0.830248C48.3197 1.40519 48.3958 2.29282 48.4973 3.42253C48.5226 3.63435 48.5353 3.84617 48.5607 4.06808C48.827 7.05375 49.1949 11.4213 49.5373 16.0914C49.7022 18.361 49.8671 20.7011 50.0066 22.9907C50.0066 23.0815 50.0066 23.1824 50.032 23.2732C50.0827 24.181 50.1335 25.0787 50.1842 25.9562C50.1969 26.0672 50.1969 26.1782 50.1969 26.2891C50.3364 28.9016 50.4379 31.3627 50.4759 33.4608C50.5774 39.5935 50.0193 45.9784 49.4739 50.5476Z" fill="url(#paint0_linear_201_1282)"/>
<path d="M11.2829 4.35055C11.2829 4.35055 11.0419 12.6116 0.843994 16.3235C1.14841 11.4819 1.56698 6.94284 1.88408 3.94709C1.88408 3.937 1.89676 3.91682 1.89676 3.90674L11.2829 4.35055Z" fill="#8FBFBF"/>
<path d="M49.5375 16.0914C48.5101 15.8998 40.2529 14.0842 37.7415 4.39085L48.5101 3.43262C48.5355 3.64444 48.5482 3.85626 48.5735 4.07817C48.8272 7.05375 49.195 11.4213 49.5375 16.0914Z" fill="#8FBFBF"/>
<path d="M0.818604 16.8681L0.856655 16.3234C6.08243 14.2658 8.0738 12.0063 9.45635 9.53509C10.9657 6.84194 11.2828 4.41104 11.2828 4.39087L11.8663 4.4413C11.8536 4.53208 10.7247 14.3666 0.818604 16.8681Z" fill="#BEE7E8"/>
<path d="M49.4614 16.5757C38.2234 13.8825 37.7415 4.48173 37.7415 4.39095L38.363 4.38086C38.363 4.47164 38.845 13.5295 49.6517 16.1218L49.4614 16.5757Z" fill="#BEE7E8"/>
<path d="M23.0535 19.4807L21.95 4.85498L22.5715 4.86507L23.5989 18.9764C24.4741 18.8654 27.0869 18.1896 27.5689 14.1045C28.1524 9.0914 27.5689 4.98611 27.5689 4.94576L28.1651 4.93567C28.1651 4.97602 28.7485 9.08131 28.1524 14.1448C27.5436 19.4 23.3579 19.4605 23.3198 19.4605H23.0535V19.4807Z" fill="#BEE7E8"/>
<g opacity="0.4">
<path opacity="0.4" d="M16.7116 21.4475H0.590332C0.590332 21.3265 0.603016 21.2054 0.603016 21.0743C4.09109 20.3985 10.1286 19.6117 16.7116 21.4475Z" fill="#4B869B"/>
<path opacity="0.4" d="M14.2509 22.9706C14.2509 22.9706 5.3087 23.717 0.539551 23.4144C0.539551 23.2429 0.552235 23.0715 0.552235 22.8899C2.9495 22.5066 7.7567 22.0325 14.2509 22.9706Z" fill="#4B869B"/>
</g>
<g opacity="0.4">
<path opacity="0.4" d="M50.0323 23.2732C46.4427 23.3639 35.0779 23.6262 31.2981 23.2429C30.2961 23.142 39.5553 20.812 50.0069 22.9907C50.0069 23.0815 50.0196 23.1723 50.0323 23.2732Z" fill="#4B869B"/>
<path opacity="0.4" d="M50.1971 26.289C47.394 26.4302 39.2509 26.8035 34.8369 26.5513C34.8369 26.5513 42.498 23.9489 50.1718 25.9562C50.1845 26.0671 50.1971 26.1781 50.1971 26.289Z" fill="#4B869B"/>
</g>
<path d="M48.5609 4.06811C32.0718 5.89381 7.92158 4.37071 1.88403 3.93699C2.03624 2.60554 2.16308 1.5767 2.25187 0.961406C2.26455 0.840366 2.28992 0.729412 2.3026 0.638631C2.3026 0.638631 16.1154 0.0132553 24.639 0.093949C33.1499 0.164556 46.4944 0.0838623 46.4944 0.0838623C46.4944 0.0838623 48.2311 0.346117 48.2691 0.830279C48.3325 1.51618 48.434 2.6358 48.5609 4.06811Z" fill="#B0D7DA"/>
<path d="M22.3433 54.4007L22.1404 57.0838L19.7178 57.0132L2.69594 56.5391L2.30273 53.7854C2.30273 53.7854 9.98919 52.4338 17.422 53.3719C19.1089 53.5837 20.7705 53.9166 22.3433 54.4007Z" fill="#C1E5E6"/>
<path d="M49.195 54.3303V57.094L36.0544 57.0638L30.8287 57.0537L29.4944 55.0839C29.4944 55.0839 32.1858 53.9066 35.027 53.6141C38.7307 53.2005 44.096 53.0291 49.195 54.3303Z" fill="#C1E5E6"/>
<path d="M2.6958 56.5392C2.6958 56.5392 13.7562 54.1083 22.1402 57.0839L2.6958 56.5392Z" fill="#81B3AB"/>
<path d="M30.8289 57.0435C30.8289 57.0435 41.0901 54.2596 49.1825 57.0839L30.8289 57.0435Z" fill="#81B3AB"/>
<path d="M21.1509 1.97009V4.91541L21.95 5.03645V2.0407L21.1509 1.97009Z" fill="#C1E5E6"/>
<path opacity="0.5" d="M25.7134 3.60559C25.7134 4.16473 25.2641 4.60559 24.7185 4.60559C24.1729 4.60559 23.7236 4.16473 23.7236 3.60559C23.7236 3.0572 24.1729 2.60559 24.7185 2.60559C25.2641 2.60559 25.7134 3.0572 25.7134 3.60559Z" fill="#5B9394"/>
<path d="M25.5099 3.60561C25.5099 4.10023 25.1141 4.50883 24.622 4.50883C24.408 4.50883 24.2155 4.43357 24.0657 4.31529C23.8625 4.154 23.7234 3.89593 23.7234 3.61636C23.7234 3.12174 24.1192 2.71313 24.622 2.71313C24.6434 2.71313 24.6648 2.71313 24.6969 2.72389C25.1568 2.74539 25.5099 3.13249 25.5099 3.60561Z" fill="#EAB200"/>
<path opacity="0.3" d="M25.0182 3.41108C25.0182 3.90571 24.6224 4.31431 24.1196 4.31431C24.0982 4.31431 24.0768 4.31431 24.0555 4.31431C23.8522 4.15302 23.7131 3.89495 23.7131 3.61538C23.7131 3.12076 24.1089 2.71216 24.6117 2.71216C24.6331 2.71216 24.6545 2.71216 24.6866 2.72291C24.8899 2.8842 25.0182 3.13151 25.0182 3.41108Z" fill="#EAB200"/>
<path d="M11.2701 1.06226L10.5979 4.91538L12.843 5.03642L13.2615 1.06226H11.2701Z" fill="#BEE7E8"/>
<path d="M36.6506 1.06226V5.6618H39.0479L38.4264 1.06226H36.6506Z" fill="#BEE7E8"/>
<path opacity="0.5" d="M13.4519 1.69775L13.5787 4.59264L12.8938 4.56238L13.1855 1.69775H13.4519Z" fill="#5B9394"/>
<path opacity="0.5" d="M38.921 1.72803L39.6694 4.73387L38.921 4.76413L38.5151 1.7482L38.921 1.72803Z" fill="#5B9394"/>
<path d="M48.6244 4.86491L48.5863 4.42109L48.5609 4.06806C49.1064 2.62566 48.2692 0.830223 48.2692 0.830223L48.3002 0.900738L48.2612 0.733154C51.2166 3.54735 48.6244 4.86491 48.6244 4.86491Z" fill="#6FA5A5"/>
<path d="M2.30256 0.638672L2.26451 0.89084L2.25182 0.961447C2.25182 0.961447 1.18638 2.14159 1.88399 3.94711L1.84594 4.43127L1.78252 4.9457C1.78252 4.9457 -0.361063 1.88942 2.30256 0.638672Z" fill="#6FA5A5"/>
<path opacity="0.5" d="M2.25185 0.961476C2.25185 0.961476 1.1864 2.14162 1.88402 3.94714L1.84596 4.4313C1.74449 4.31026 1.47813 3.9068 1.28787 2.89812C1.03419 1.54651 2.26453 0.890869 2.26453 0.890869L2.25185 0.961476Z" fill="#5B9394"/>
<path d="M22.3432 54.4009L22.1403 57.084L19.7177 57.0134C18.5888 56.4586 17.6502 55.9845 17.6502 55.9845L17.4219 53.3721C19.1088 53.5839 20.7704 53.9167 22.3432 54.4009Z" fill="#C1E5E6"/>
<path d="M35.2022 57.5336H29.4944V54.8102C29.4944 54.8102 31.3336 54.3765 34.1748 54.084C34.4411 55.0523 34.9358 56.6964 35.2022 57.5336Z" fill="#C1E5E6"/>
<defs>
<linearGradient id="paint0_linear_201_1282" x1="32.8236" y1="1.83834" x2="22.5389" y2="61.2336" gradientUnits="userSpaceOnUse">
<stop stop-color="#9DCDCE"/>
<stop offset="1" stop-color="#95C1B9"/>
</linearGradient>
</defs>
</svg>
