<svg width="26" height="26" viewBox="0 0 26 26" fill="none" xmlns="http://www.w3.org/2000/svg">
<path opacity="0.32" d="M13.0782 4.28397C11.9398 5.08326 10.6763 5.75284 9.50079 6.51686C8.15894 7.39203 6.88549 8.33491 5.67574 9.34032C3.35044 11.2766 0.609588 13.4493 0.508296 16.64C0.438761 18.8283 1.69875 21.0817 3.65905 22.7813C5.42625 24.3123 8.1141 25.7295 10.4069 25.3774C12.3147 25.0873 13.4868 23.6536 14.2626 22.2678C14.7197 21.4551 15.0637 20.5846 15.3301 19.6878C15.4358 19.3292 15.4204 18.6766 15.6351 18.3768C15.8067 20.1291 16.6693 23.9725 19.5843 23.7626C23.0857 23.5084 23.3464 20.3322 22.6456 17.7259C22.3216 16.5245 21.8317 15.337 21.5165 14.1399C21.1264 12.6655 21.5114 11.2644 22.3048 10.1252C23.1834 10.1944 23.6528 9.43075 24.0427 8.9123C24.3614 8.48819 25.2427 7.51791 24.9608 6.88467C24.7925 6.50166 24.27 6.10976 23.9466 5.81472C23.2186 5.15357 22.4538 4.52328 21.6678 3.91422C20.2093 2.78284 18.4827 1.40631 16.6725 0.826348C15.8831 0.574004 15.4608 0.824355 14.9536 1.23413C14.3689 1.70652 12.6324 3.13223 13.4156 4.02956C13.3077 4.11751 13.1968 4.20403 13.0782 4.28397Z" fill="url(#paint0_radial_272_96)"/>
<defs>
<radialGradient id="paint0_radial_272_96" cx="0" cy="0" r="1" gradientUnits="userSpaceOnUse" gradientTransform="translate(10.0231 14.8603) rotate(-163.173) scale(10.6511 8.56217)">
<stop stop-color="#FFF7EA"/>
<stop offset="1" stop-color="#724A47"/>
</radialGradient>
</defs>
</svg>
