<svg width="28" height="28" viewBox="0 0 28 28" fill="none" xmlns="http://www.w3.org/2000/svg">
<path opacity="0.32" d="M13.2353 4.74806C14.4828 5.6095 15.8654 6.32851 17.153 7.15118C18.6228 8.09359 20.0187 9.11036 21.3456 10.1958C23.8962 12.2863 26.9017 14.6309 27.0391 18.1074C27.1334 20.4917 25.7794 22.9581 23.6574 24.827C21.7445 26.5106 18.8272 28.0778 16.3255 27.7135C14.2438 27.4136 12.9543 25.8609 12.097 24.3573C11.592 23.4755 11.2097 22.5297 10.9118 21.5546C10.7935 21.1647 10.8048 20.4533 10.5683 20.1284C10.3961 22.0396 9.4886 26.2355 6.30998 26.0315C2.49199 25.7841 2.18089 22.3248 2.92261 19.4785C3.26546 18.1665 3.78935 16.8681 4.12267 15.5608C4.53536 13.9507 4.10383 12.427 3.22949 11.1922C2.27257 11.275 1.75452 10.4468 1.3252 9.88509C0.974339 9.42559 0.0056219 8.37562 0.307453 7.68311C0.487689 7.26427 1.05372 6.83274 1.40367 6.50846C2.19151 5.78175 3.01966 5.08836 3.87108 4.41792C5.45103 3.17256 7.32101 1.65775 9.28886 1.01034C10.1471 0.728637 10.6095 0.997894 11.1657 1.44017C11.8069 1.95004 13.7115 3.48909 12.8655 4.47367C12.9839 4.5686 13.1055 4.66195 13.2353 4.74806Z" fill="url(#paint0_radial_272_117)"/>
<defs>
<radialGradient id="paint0_radial_272_117" cx="0" cy="0" r="1" gradientUnits="userSpaceOnUse" gradientTransform="translate(16.6546 16.2484) rotate(-17.2726) scale(11.6082 9.33153)">
<stop stop-color="#FFF7EA"/>
<stop offset="1" stop-color="#724A47"/>
</radialGradient>
</defs>
</svg>
