<svg width="96" height="163" viewBox="0 0 96 163" fill="none" xmlns="http://www.w3.org/2000/svg">
<path d="M66.083 91.5422C62.1189 79.6693 57.2606 76.7852 56.9029 72.8276C56.5651 69.1337 56.4757 64.9941 56.4757 64.9941H38.4932C38.4932 64.9941 38.3938 69.1337 38.066 72.8276C37.7083 76.7852 32.8401 79.6693 28.8859 91.5422C24.3158 105.235 22.9944 121.153 22.9944 121.153C22.9944 121.153 32.552 122.994 47.4944 122.994C62.4368 122.994 71.9944 120.693 71.9944 120.693C71.9944 120.693 70.6531 105.235 66.083 91.5422Z" fill="#FFC8AC"/>
<path d="M39.4944 74.4941C36.6044 73.2341 30.1644 74.1541 21.0744 84.3441C18.4544 87.2841 15.8944 90.2641 13.3944 93.2941C11.5244 95.5641 9.68438 97.8541 7.89438 100.184C7.23438 101.044 6.61438 101.954 5.78438 102.664C4.85438 103.464 3.63438 103.764 2.48438 104.074C1.75438 104.264 0.854382 104.394 0.304382 104.954C-0.265618 105.534 0.0143816 106.404 0.734382 106.694C1.51438 107.004 2.48438 106.794 3.30438 106.864C3.44438 106.874 3.57438 106.924 3.66438 107.034C3.79438 107.204 3.65438 107.444 3.57438 107.574C3.02438 108.384 2.68438 108.794 2.35438 109.274C1.82438 110.044 0.294382 111.734 0.964382 112.744C1.22438 113.144 1.93438 113.274 2.29438 113.104C2.87438 112.824 3.38438 112.444 3.85438 112.014C4.09438 111.804 4.32438 111.574 4.54438 111.344C4.72438 111.154 4.97438 110.824 5.27438 110.854C5.52438 110.884 5.52438 111.194 5.48438 111.384C5.44438 111.594 5.33438 111.794 5.23438 111.974C4.84438 112.684 4.38438 113.384 4.08438 114.134C3.94438 114.504 3.80438 114.874 3.77438 115.274C3.74438 115.584 3.79438 115.914 4.01438 116.134C4.17438 116.294 4.39438 116.364 4.62438 116.374C5.12438 116.414 5.60438 116.194 5.99438 115.884C6.48438 115.494 6.87438 115.004 7.24438 114.514C7.64438 114.004 8.03438 113.494 8.45438 112.994C8.54438 112.884 8.65438 112.774 8.78438 112.764C8.93438 112.754 9.06438 112.884 9.10438 113.024C9.14438 113.164 9.12438 113.324 9.09438 113.464C9.00438 113.854 8.83438 114.184 8.68438 114.554C8.53438 114.934 8.39438 115.324 8.28438 115.724C8.16438 116.154 8.05438 116.624 8.22438 117.034C8.53438 117.794 9.42438 117.944 10.0944 117.444C10.7544 116.954 12.2044 114.174 12.4344 113.744C13.8744 111.094 15.7444 108.714 17.5044 106.254C20.2744 102.374 27.5144 92.4541 29.2544 92.4741C30.9944 92.4942 39.4944 74.4941 39.4944 74.4941Z" fill="#FFC8AC"/>
<path d="M56.9944 74.4942C59.8844 73.2342 65.7743 74.1542 74.8643 84.3442C77.4843 87.2842 80.0443 90.2642 82.5443 93.2942C84.4143 95.5642 86.2543 97.8542 88.0443 100.184C88.7043 101.044 89.3243 101.954 90.1543 102.664C91.0843 103.464 92.3043 103.764 93.4643 104.074C94.1843 104.264 95.0943 104.394 95.6443 104.954C96.2143 105.534 95.9343 106.404 95.2143 106.694C94.4343 107.004 93.4643 106.794 92.6443 106.864C92.5043 106.874 92.3743 106.924 92.2843 107.034C92.1543 107.204 92.2943 107.444 92.3743 107.574C92.9243 108.384 93.2643 108.794 93.5943 109.274C94.1243 110.044 95.6543 111.734 94.9843 112.744C94.7243 113.144 94.0143 113.274 93.6543 113.104C93.0843 112.824 92.5643 112.444 92.0943 112.014C91.8543 111.804 91.6243 111.574 91.4043 111.344C91.2243 111.154 90.9743 110.824 90.6743 110.854C90.4243 110.884 90.4243 111.194 90.4643 111.384C90.5043 111.594 90.6143 111.794 90.7143 111.974C91.1043 112.684 91.5643 113.384 91.8643 114.134C92.0043 114.504 92.1343 114.874 92.1743 115.274C92.2043 115.584 92.1543 115.914 91.9343 116.134C91.7743 116.294 91.5543 116.364 91.3243 116.374C90.8243 116.414 90.3443 116.194 89.9543 115.884C89.4643 115.494 89.0843 115.004 88.7043 114.514C88.3043 114.004 87.9143 113.494 87.4943 112.994C87.4043 112.884 87.3043 112.774 87.1643 112.764C87.0143 112.754 86.8843 112.884 86.8443 113.024C86.8043 113.164 86.8243 113.324 86.8543 113.464C86.9443 113.854 87.1243 114.184 87.2643 114.554C87.4143 114.934 87.5543 115.324 87.6643 115.724C87.7843 116.154 87.8943 116.624 87.7243 117.034C87.4143 117.794 86.5243 117.944 85.8543 117.444C85.1943 116.954 83.7443 114.174 83.5143 113.744C82.0743 111.094 80.5443 108.454 78.7943 105.994C74.1243 99.4542 68.0244 94.7342 65.4944 92.4942L56.9944 74.4942Z" fill="#FFC8AC"/>
<path d="M44.0745 66.8242C53.7045 66.8242 64.9545 65.6741 71.8345 59.2542C78.7145 52.8342 79.4045 36.3141 75.2745 20.0241C71.1445 3.73415 55.3145 0.0641479 44.0745 0.0641479C32.8345 0.0641479 17.0045 3.73415 12.8745 20.0241C8.74448 36.3141 9.43447 52.8342 16.3145 59.2542C23.1945 65.6842 34.4345 66.8242 44.0745 66.8242Z" fill="#FFC8AC"/>
<path d="M11.7344 49.1541C11.7344 45.3341 14.8344 42.2341 18.6544 42.2341C22.4744 42.2341 25.5744 45.3341 25.5744 49.1541C25.5744 52.9741 22.4744 56.0741 18.6544 56.0741C14.8344 56.0841 11.7344 52.9841 11.7344 49.1541Z" fill="#FCA39A"/>
<path d="M61.0144 49.1541C61.0144 45.3341 64.1144 42.2341 67.9344 42.2341C71.7544 42.2341 74.8544 45.3341 74.8544 49.1541C74.8544 52.9741 71.7544 56.0741 67.9344 56.0741C64.1144 56.0841 61.0144 52.9841 61.0144 49.1541Z" fill="#FCA39A"/>
<path d="M42.4143 45.4642C39.8943 45.3742 37.6243 46.9742 37.6343 47.7242C37.6743 49.4742 46.5843 49.8242 46.4943 47.7242C46.4443 46.5442 44.5743 45.5342 42.4143 45.4642Z" fill="#FCA39A"/>
<path d="M37.4044 48.1942C38.9844 47.0142 40.1344 45.8342 42.2944 45.8242C44.2744 45.8142 45.3344 46.8842 46.4244 48.3642C46.6144 48.6142 47.0944 48.6242 47.0444 48.2342C46.4944 43.7642 38.4744 44.1742 37.3144 48.0742C37.3044 48.1142 37.3344 48.2442 37.4044 48.1942Z" fill="#9E5147"/>
<path d="M35.0443 55.8141C40.8443 59.2541 50.4244 57.7741 54.9444 52.8641C55.4244 52.3441 54.3843 51.8341 53.9543 52.3041C49.4143 57.2541 41.0043 57.7341 35.1143 55.3441C34.7943 55.2141 34.8443 55.6941 35.0443 55.8141Z" fill="#9E5147"/>
<path d="M53.8744 50.6342C53.3144 51.2142 53.8944 52.2442 54.3544 52.6742C54.8844 53.1742 55.8144 53.6342 56.5544 53.3842C56.8044 53.2942 57.0744 52.9942 56.8044 52.7442C56.5844 52.5542 56.0544 52.7142 55.7744 52.6642C54.7344 52.4442 54.4344 51.5842 54.1144 50.7142C54.0744 50.6042 53.9644 50.5542 53.8744 50.6342Z" fill="#9E5147"/>
<path d="M60.6745 25.9942C57.3445 25.9842 52.4445 27.9842 51.0345 32.7642C49.3145 38.5842 52.8845 44.2342 60.6745 43.9542C69.0345 43.6542 71.9945 38.6842 71.1045 34.0742C70.1345 29.1442 66.5045 26.0142 60.6745 25.9942Z" fill="white"/>
<path d="M50.8945 33.7942C52.4445 29.1042 57.8045 26.2042 62.5745 27.1642C64.5045 27.5542 66.5845 28.6142 67.8645 30.1442C69.2945 31.8442 69.4945 34.0542 70.8345 35.7542C71.0445 36.0242 71.6045 36.1842 71.7945 35.8042C73.0445 33.3642 71.0945 30.1842 69.3545 28.4342C67.5445 26.6042 64.8245 25.3742 62.2745 25.0842C59.6745 24.7842 56.7845 25.3642 54.5645 26.7742C51.8945 28.4742 51.1245 30.7042 50.6645 33.7242C50.6545 33.8942 50.8245 33.9942 50.8945 33.7942Z" fill="#002030"/>
<path d="M51.5945 36.4742C51.5945 32.3342 54.9545 28.9742 59.0945 28.9742C63.2445 28.9742 66.6045 32.3342 66.6045 36.4742C66.6045 40.6242 63.2445 43.9842 59.0945 43.9842C54.9545 43.9742 51.5945 40.6142 51.5945 36.4742Z" fill="#19313A"/>
<path d="M52.7444 35.7842C52.7444 34.4542 53.8144 33.3842 55.1444 33.3842C56.4744 33.3842 57.5444 34.4542 57.5444 35.7842C57.5444 37.1142 56.4744 38.1842 55.1444 38.1842C53.8144 38.1842 52.7444 37.1142 52.7444 35.7842Z" fill="white"/>
<path d="M26.1645 25.9942C29.4945 25.9842 34.3945 27.9842 35.8045 32.7642C37.5245 38.5842 33.9545 44.2342 26.1645 43.9542C17.8045 43.6542 14.8445 38.6842 15.7345 34.0742C16.7045 29.1442 20.3345 26.0142 26.1645 25.9942Z" fill="white"/>
<path d="M36.1545 33.6642C35.6545 30.5342 34.3645 28.0942 31.5245 26.4642C28.8845 24.9442 25.5345 24.6042 22.6345 25.4742C20.5845 26.0842 18.4845 27.2342 17.0745 28.8642C15.6445 30.5142 13.6845 33.4942 15.0845 35.6042C15.3145 35.9442 15.8745 36.2642 16.1645 35.8042C17.0645 34.3842 17.2945 32.7042 18.1745 31.2642C19.1645 29.6542 20.5445 28.5942 22.2545 27.8342C27.5145 25.4842 34.1445 28.2142 35.9245 33.8142C36.0145 34.0442 36.1845 33.8142 36.1545 33.6642Z" fill="#002030"/>
<path d="M35.2444 36.4742C35.2444 32.3342 31.8844 28.9742 27.7344 28.9742C23.5944 28.9742 20.2344 32.3342 20.2344 36.4742C20.2344 40.6242 23.5944 43.9842 27.7344 43.9842C31.8844 43.9742 35.2444 40.6142 35.2444 36.4742Z" fill="#19313A"/>
<path d="M26.3344 35.7842C26.3344 34.4542 25.2644 33.3842 23.9344 33.3842C22.6044 33.3842 21.5344 34.4542 21.5344 35.7842C21.5344 37.1142 22.6044 38.1842 23.9344 38.1842C25.2644 38.1842 26.3344 37.1142 26.3344 35.7842Z" fill="white"/>
<path d="M67.5244 18.2441C67.5744 18.0841 67.6144 17.9241 67.5744 17.7641C67.3944 16.9241 66.9244 16.3041 66.3544 15.6741C65.5844 14.8241 64.6244 14.1541 63.6344 13.5941C61.6944 12.5041 59.4544 11.9541 57.2344 12.0741C56.8144 12.0941 56.3844 12.1441 56.0144 12.3441C55.5344 12.6041 55.2044 13.1141 55.1644 13.6541C55.0944 14.6541 55.8944 15.1241 56.7744 15.2541C57.4444 15.3541 58.1144 15.4541 58.7744 15.5541C59.2644 15.6241 59.7544 15.7041 60.2344 15.8041C61.8544 16.1341 63.4244 16.7341 64.8544 17.5641C65.4444 17.9141 66.0344 18.3041 66.7044 18.4441C66.9544 18.4941 67.4144 18.5441 67.5244 18.2441Z" fill="#A03717"/>
<path d="M19.1444 17.5142C19.1044 17.3542 19.0844 17.1942 19.1344 17.0242C19.3844 16.2042 19.8944 15.6142 20.5144 15.0342C21.3444 14.2442 22.3544 13.6442 23.3844 13.1642C25.4044 12.2342 27.6744 11.8542 29.8844 12.1442C30.3044 12.1942 30.7244 12.2842 31.0744 12.5042C31.5344 12.7942 31.8244 13.3342 31.8244 13.8742C31.8244 14.8842 30.9844 15.2842 30.0944 15.3542C29.4244 15.4042 28.7444 15.4542 28.0744 15.5042C27.5844 15.5442 27.0844 15.5742 26.5944 15.6342C24.9544 15.8342 23.3444 16.3142 21.8444 17.0342C21.2244 17.3342 20.6144 17.6742 19.9344 17.7642C19.6944 17.8042 19.2344 17.8242 19.1444 17.5142Z" fill="#A03717"/>
<path d="M77.1145 29.4342C78.2245 25.8942 83.0945 20.9242 88.7145 23.0842C94.3345 25.2442 95.6345 33.6842 92.5045 39.9542C89.3645 46.2242 80.8145 48.5242 77.6245 43.9642L77.1145 29.4342Z" fill="#FFC8AC"/>
<path d="M76.7943 33.8541C76.7243 34.0641 77.0143 34.5141 77.2543 34.3541C78.3143 33.6541 79.0743 32.6441 80.1743 32.0141C81.3743 31.3341 82.6943 31.1441 84.0243 31.2841C84.6443 32.1441 85.2043 32.8041 85.0743 34.1241C84.9643 35.2641 84.4743 36.5341 83.6843 37.3741C83.0643 38.0341 82.1243 38.2341 81.3643 38.6841C81.3043 38.7141 81.2443 38.9041 81.3443 38.9241C84.9643 39.8041 87.3843 34.7741 86.2743 31.8641C88.3143 32.7241 90.0043 34.4341 89.8943 36.8241C89.8943 36.9341 90.0043 36.9141 90.0443 36.8341C93.0143 29.3341 79.1443 26.6941 76.7943 33.8541Z" fill="#9E5147"/>
<path d="M23 121L25.7909 156.037C25.7909 156.037 21.0788 157.454 18.6639 158.861C16.249 160.278 16.838 161.994 27.5775 161.994C38.317 161.994 43.196 161.994 43.196 161.994L47 122.5L23 121Z" fill="#FFC8AC"/>
<path d="M72 120.5L70.0944 156.444C70.0944 156.444 74.8944 157.864 77.3544 159.274C79.8144 160.694 79.2144 162.414 68.2744 162.414C57.3344 162.414 52.3644 162.414 52.3644 162.414L49 123L72 120.5Z" fill="#FFC8AC"/>
</svg>
