<svg width="96" height="163" viewBox="0 0 96 163" fill="none" xmlns="http://www.w3.org/2000/svg">
<path d="M66.0827 91.478C62.1186 79.6051 57.2604 76.721 56.9027 72.7633C56.5649 69.0695 56.4755 64.9299 56.4755 64.9299H38.4929C38.4929 64.9299 38.3936 69.0695 38.0657 72.7633C37.708 76.721 32.8398 79.6051 28.8857 91.478C24.3155 105.171 22.9941 121.089 22.9941 121.089C22.9941 121.089 32.5517 122.93 47.4941 122.93C62.4366 122.93 71.9941 120.628 71.9941 120.628C71.9941 120.628 70.6529 105.171 66.0827 91.478Z" fill="#6C3D3D"/>
<path d="M39.4944 74.4299C36.6044 73.1699 30.1644 74.0899 21.0744 84.2799C18.4544 87.2199 15.8944 90.1999 13.3944 93.2299C11.5244 95.4999 9.68438 97.7899 7.89438 100.12C7.23438 100.98 6.61438 101.89 5.78438 102.6C4.85438 103.4 3.63438 103.7 2.48438 104.01C1.75438 104.2 0.854382 104.33 0.304382 104.89C-0.265618 105.47 0.0143816 106.34 0.734382 106.63C1.51438 106.94 2.48438 106.73 3.30438 106.8C3.44438 106.81 3.57438 106.86 3.66438 106.97C3.79438 107.14 3.65438 107.38 3.57438 107.51C3.02438 108.32 2.68438 108.73 2.35438 109.21C1.82438 109.98 0.294382 111.67 0.964382 112.68C1.22438 113.08 1.93438 113.21 2.29438 113.04C2.87438 112.76 3.38438 112.38 3.85438 111.95C4.09438 111.74 4.32438 111.51 4.54438 111.28C4.72438 111.09 4.97438 110.76 5.27438 110.79C5.52438 110.82 5.52438 111.13 5.48438 111.32C5.44438 111.53 5.33438 111.73 5.23438 111.91C4.84438 112.62 4.38438 113.32 4.08438 114.07C3.94438 114.44 3.80438 114.81 3.77438 115.21C3.74438 115.52 3.79438 115.85 4.01438 116.07C4.17438 116.23 4.39438 116.3 4.62438 116.31C5.12438 116.35 5.60438 116.13 5.99438 115.82C6.48438 115.43 6.87438 114.94 7.24438 114.45C7.64438 113.94 8.03438 113.43 8.45438 112.93C8.54438 112.82 8.65438 112.71 8.78438 112.7C8.93438 112.69 9.06438 112.82 9.10438 112.96C9.14438 113.1 9.12438 113.26 9.09438 113.4C9.00438 113.79 8.83438 114.12 8.68438 114.49C8.53438 114.87 8.39438 115.26 8.28438 115.66C8.16438 116.09 8.05438 116.56 8.22438 116.97C8.53438 117.73 9.42438 117.88 10.0944 117.38C10.7544 116.89 12.2044 114.11 12.4344 113.68C13.8744 111.03 15.7444 108.65 17.5044 106.19C20.2744 102.31 27.5144 92.3899 29.2544 92.4099C30.9944 92.43 39.4944 74.4299 39.4944 74.4299Z" fill="#6C3D3D"/>
<path d="M56.9941 74.4299C59.8841 73.1699 65.774 74.0899 74.864 84.2799C77.484 87.2199 80.044 90.1999 82.544 93.2299C84.414 95.4999 86.254 97.7899 88.044 100.12C88.704 100.98 89.324 101.89 90.154 102.6C91.084 103.4 92.304 103.7 93.464 104.01C94.184 104.2 95.094 104.33 95.644 104.89C96.214 105.47 95.934 106.34 95.214 106.63C94.434 106.94 93.464 106.73 92.644 106.8C92.504 106.81 92.374 106.86 92.284 106.97C92.154 107.14 92.294 107.38 92.374 107.51C92.924 108.32 93.264 108.73 93.594 109.21C94.124 109.98 95.654 111.67 94.984 112.68C94.724 113.08 94.014 113.21 93.654 113.04C93.084 112.76 92.564 112.38 92.094 111.95C91.854 111.74 91.624 111.51 91.404 111.28C91.224 111.09 90.974 110.76 90.674 110.79C90.424 110.82 90.424 111.13 90.464 111.32C90.504 111.53 90.614 111.73 90.714 111.91C91.104 112.62 91.564 113.32 91.864 114.07C92.004 114.44 92.134 114.81 92.174 115.21C92.204 115.52 92.154 115.85 91.934 116.07C91.774 116.23 91.554 116.3 91.324 116.31C90.824 116.35 90.344 116.13 89.954 115.82C89.464 115.43 89.084 114.94 88.704 114.45C88.304 113.94 87.914 113.43 87.494 112.93C87.404 112.82 87.304 112.71 87.164 112.7C87.014 112.69 86.884 112.82 86.844 112.96C86.804 113.1 86.824 113.26 86.854 113.4C86.944 113.79 87.124 114.12 87.264 114.49C87.414 114.87 87.554 115.26 87.664 115.66C87.784 116.09 87.894 116.56 87.724 116.97C87.414 117.73 86.524 117.88 85.854 117.38C85.194 116.89 83.744 114.11 83.514 113.68C82.074 111.03 80.544 108.39 78.794 105.93C74.124 99.3899 68.0241 94.6699 65.4941 92.4299L56.9941 74.4299Z" fill="#6C3D3D"/>
<path d="M44.0745 66.76C53.7045 66.76 64.9545 65.61 71.8345 59.19C78.7145 52.77 79.4045 36.25 75.2745 19.96C71.1445 3.67 55.3145 0 44.0745 0C32.8345 0 17.0045 3.67 12.8745 19.96C8.74448 36.25 9.43447 52.77 16.3145 59.19C23.1945 65.62 34.4345 66.76 44.0745 66.76Z" fill="#6C3D3D"/>
<path d="M42.4148 45.3999C39.8948 45.3099 37.6248 46.9099 37.6348 47.6599C37.6748 49.4099 46.5848 49.7599 46.4948 47.6599C46.4448 46.4799 44.5748 45.4699 42.4148 45.3999Z" fill="#FCA39A"/>
<path d="M37.4044 48.1299C38.9844 46.9499 40.1344 45.7699 42.2944 45.7599C44.2744 45.7499 45.3344 46.8199 46.4244 48.2999C46.6144 48.5499 47.0944 48.5599 47.0444 48.1699C46.4944 43.6999 38.4744 44.1099 37.3144 48.0099C37.3044 48.0499 37.3344 48.1799 37.4044 48.1299Z" fill="#9E5147"/>
<path d="M35.0448 55.7501C40.8448 59.1901 50.4248 57.7101 54.9448 52.8001C55.4248 52.2801 54.3848 51.77 53.9548 52.24C49.4148 57.19 41.0048 57.67 35.1148 55.28C34.7948 55.15 34.8448 55.6301 35.0448 55.7501Z" fill="#9E5147"/>
<path d="M53.8749 50.57C53.3149 51.15 53.8949 52.18 54.3549 52.61C54.8849 53.11 55.8149 53.57 56.5549 53.32C56.8049 53.23 57.0749 52.93 56.8049 52.68C56.5849 52.49 56.0549 52.65 55.7749 52.6C54.7349 52.38 54.4349 51.52 54.1149 50.65C54.0749 50.54 53.9649 50.49 53.8749 50.57Z" fill="#9E5147"/>
<path d="M60.6745 25.93C57.3445 25.92 52.4445 27.92 51.0345 32.7C49.3145 38.52 52.8845 44.17 60.6745 43.89C69.0345 43.59 71.9945 38.62 71.1045 34.01C70.1345 29.08 66.5045 25.95 60.6745 25.93Z" fill="white"/>
<path d="M50.8945 33.7301C52.4445 29.0401 57.8045 26.1401 62.5745 27.1001C64.5045 27.4901 66.5845 28.5501 67.8645 30.0801C69.2945 31.7801 69.4945 33.9901 70.8345 35.6901C71.0445 35.9601 71.6045 36.1201 71.7945 35.7401C73.0445 33.3001 71.0945 30.1201 69.3545 28.3701C67.5445 26.5401 64.8245 25.3101 62.2745 25.0201C59.6745 24.7201 56.7845 25.3001 54.5645 26.7101C51.8945 28.4101 51.1245 30.6401 50.6645 33.6601C50.6545 33.8301 50.8245 33.9301 50.8945 33.7301Z" fill="#002030"/>
<path d="M51.5947 36.4102C51.5947 32.2702 54.9547 28.9102 59.0947 28.9102C63.2447 28.9102 66.6047 32.2702 66.6047 36.4102C66.6047 40.5602 63.2447 43.9202 59.0947 43.9202C54.9547 43.9102 51.5947 40.5502 51.5947 36.4102Z" fill="#19313A"/>
<path d="M52.7441 35.7201C52.7441 34.3901 53.8141 33.3201 55.1441 33.3201C56.4741 33.3201 57.5441 34.3901 57.5441 35.7201C57.5441 37.0501 56.4741 38.1201 55.1441 38.1201C53.8141 38.1201 52.7441 37.0501 52.7441 35.7201Z" fill="white"/>
<path d="M26.165 25.93C29.495 25.92 34.395 27.92 35.805 32.7C37.525 38.52 33.955 44.17 26.165 43.89C17.805 43.59 14.845 38.62 15.735 34.01C16.705 29.08 20.335 25.95 26.165 25.93Z" fill="white"/>
<path d="M36.1547 33.6C35.6547 30.47 34.3647 28.03 31.5247 26.4C28.8847 24.88 25.5347 24.54 22.6347 25.41C20.5847 26.02 18.4847 27.17 17.0747 28.8C15.6447 30.45 13.6847 33.43 15.0847 35.54C15.3147 35.88 15.8747 36.2 16.1647 35.74C17.0647 34.32 17.2947 32.64 18.1747 31.2C19.1647 29.59 20.5447 28.53 22.2547 27.77C27.5147 25.42 34.1447 28.15 35.9247 33.75C36.0147 33.98 36.1847 33.75 36.1547 33.6Z" fill="#002030"/>
<path d="M35.2444 36.4099C35.2444 32.2699 31.8844 28.9099 27.7344 28.9099C23.5944 28.9099 20.2344 32.2699 20.2344 36.4099C20.2344 40.5599 23.5944 43.9199 27.7344 43.9199C31.8844 43.9099 35.2444 40.5499 35.2444 36.4099Z" fill="#19313A"/>
<path d="M26.3352 35.7201C26.3352 34.3901 25.2652 33.3201 23.9352 33.3201C22.6052 33.3201 21.5352 34.3901 21.5352 35.7201C21.5352 37.0501 22.6052 38.1201 23.9352 38.1201C25.2652 38.1201 26.3352 37.0501 26.3352 35.7201Z" fill="white"/>
<path d="M67.5244 18.1801C67.5744 18.0201 67.6144 17.8601 67.5744 17.7001C67.3944 16.8601 66.9244 16.2401 66.3544 15.6101C65.5844 14.7601 64.6244 14.0901 63.6344 13.5301C61.6944 12.4401 59.4544 11.8901 57.2344 12.0101C56.8144 12.0301 56.3844 12.0801 56.0144 12.2801C55.5344 12.5401 55.2044 13.0501 55.1644 13.5901C55.0944 14.5901 55.8944 15.0601 56.7744 15.1901C57.4444 15.2901 58.1144 15.3901 58.7744 15.4901C59.2644 15.5601 59.7544 15.6401 60.2344 15.7401C61.8544 16.0701 63.4244 16.6701 64.8544 17.5001C65.4444 17.8501 66.0344 18.2401 66.7044 18.3801C66.9544 18.4301 67.4144 18.4801 67.5244 18.1801Z" fill="#A03717"/>
<path d="M19.1442 17.45C19.1042 17.29 19.0842 17.13 19.1342 16.96C19.3842 16.14 19.8942 15.55 20.5142 14.97C21.3442 14.18 22.3542 13.58 23.3842 13.1C25.4042 12.17 27.6742 11.79 29.8842 12.08C30.3042 12.13 30.7242 12.22 31.0742 12.44C31.5342 12.73 31.8242 13.27 31.8242 13.81C31.8242 14.82 30.9842 15.22 30.0942 15.29C29.4242 15.34 28.7442 15.39 28.0742 15.44C27.5842 15.48 27.0842 15.51 26.5942 15.57C24.9542 15.77 23.3442 16.25 21.8442 16.97C21.2242 17.27 20.6142 17.61 19.9342 17.7C19.6942 17.74 19.2342 17.76 19.1442 17.45Z" fill="#A03717"/>
<path d="M77.1143 29.3699C78.2243 25.8299 83.0943 20.8599 88.7143 23.0199C94.3343 25.1799 95.6343 33.6199 92.5043 39.8899C89.3643 46.1599 80.8143 48.4599 77.6243 43.8999L77.1143 29.3699Z" fill="#6C3D3D"/>
<path d="M76.7948 33.79C76.7248 34 77.0148 34.45 77.2548 34.29C78.3148 33.59 79.0748 32.58 80.1748 31.95C81.3748 31.27 82.6948 31.08 84.0248 31.22C84.6448 32.08 85.2048 32.74 85.0748 34.06C84.9648 35.2 84.4748 36.47 83.6848 37.31C83.0648 37.97 82.1248 38.17 81.3648 38.62C81.3048 38.65 81.2448 38.84 81.3448 38.86C84.9648 39.74 87.3848 34.71 86.2748 31.8C88.3148 32.66 90.0048 34.37 89.8948 36.76C89.8948 36.87 90.0048 36.85 90.0448 36.77C93.0148 29.27 79.1448 26.63 76.7948 33.79Z" fill="#9E5147"/>
<path d="M22.9998 120.936L25.7906 155.973C25.7906 155.973 21.0786 157.39 18.6637 158.797C16.2488 160.214 16.8378 161.93 27.5773 161.93C38.3168 161.93 43.1957 161.93 43.1957 161.93L46.9998 122.436L22.9998 120.936Z" fill="#6C3D3D"/>
<path d="M72 120.436L70.0944 156.38C70.0944 156.38 74.8944 157.8 77.3544 159.21C79.8144 160.63 79.2144 162.35 68.2744 162.35C57.3344 162.35 52.3644 162.35 52.3644 162.35L49 122.936L72 120.436Z" fill="#6C3D3D"/>
</svg>
