<svg width="50" height="31" viewBox="0 0 50 31" fill="none" xmlns="http://www.w3.org/2000/svg">
<path d="M30.9716 28.0713C30.4343 28.0839 29.7823 28.0965 29.0659 28.109C27.1816 28.1467 24.8245 28.197 22.6752 28.2222C22.1021 28.2285 21.5432 28.2347 21.0131 28.2347L24.495 5.89587C21.579 4.65133 20.096 3.28736 19.3438 2.16225C19.5515 2.2251 20.0172 2.3571 20.6835 2.4891C22.5749 2.86623 26.2369 2.73516 29.8263 1.52834C29.5469 1.9809 28.9871 2.99194 28.507 3.49479C27.719 4.32448 26.63 5.16046 25.1183 5.82673C25.1183 5.82673 26.8306 14.8088 27.7118 18.1024C28.3709 20.5789 30.1907 25.6514 30.9716 28.0713Z" fill="url(#paint0_linear_163_2843)"/>
<path opacity="0.4" d="M30.9711 28.0713C30.4338 28.0839 29.7818 28.0965 29.0654 28.109C28.4851 26.6319 27.4319 23.8286 26.7083 19.6864C25.7053 13.9665 24.9243 8.69295 24.9243 8.69295C24.9243 8.69295 23.6419 15.0916 23.0831 19.9315C22.7105 23.2063 22.6604 26.4622 22.6747 28.2222C22.1016 28.2285 21.5427 28.2348 21.0126 28.2348L24.4945 5.89588C21.5786 4.65134 20.0955 3.28737 19.3433 2.16225C19.551 2.22511 20.0167 2.35711 20.683 2.4891C22.0872 3.43194 25.2897 4.3622 28.2128 3.56393L28.5137 3.48851C27.7256 4.3182 26.6366 5.15418 25.1249 5.82045C25.1249 5.82045 26.8372 14.8025 27.7185 18.0961C28.3704 20.5789 30.1902 25.6514 30.9711 28.0713Z" fill="#B38484"/>
<path d="M24.5018 5.90213L20.6975 30.529C20.6975 30.529 20.4683 30.5415 20.0599 30.5541C18.1327 30.6044 12.2005 30.6044 6.99916 28.8821L7.89471 23.8663L8.4607 20.6732C8.4607 20.6732 5.15074 20.7423 3.42411 18.7247C3.40262 18.6995 2.03175 17.7475 2.01025 17.7287C2.01025 17.7287 8.00218 9.27748 10.6745 5.98385C12.6089 3.59533 15.2597 2.4765 16.5852 2.0428C16.7571 2.63993 17.5882 4.99701 20.3895 7.02725C20.3895 7.02725 22.5173 5.32386 23.1478 5.26729C23.4487 5.42443 23.7639 5.57528 24.1078 5.73242C24.1579 5.75757 24.2081 5.77642 24.2582 5.80156C24.3299 5.82671 24.4159 5.86442 24.5018 5.90213Z" fill="url(#paint1_linear_163_2843)"/>
<path d="M45.8731 20.0321C44.3758 20.8115 42.8068 20.8366 42.8068 20.8366L44.3041 23.5897L46.1382 26.965C41.4312 29.3976 34.3026 30.1015 32.182 30.2587C31.7807 30.2901 31.5586 30.3027 31.5586 30.3027C31.5586 30.3027 28.3705 20.5789 27.7114 18.1024C26.9376 15.2048 25.5262 7.9198 25.1966 6.19756C25.1465 5.95871 25.125 5.82671 25.125 5.82671C25.2468 5.77014 25.3686 5.71357 25.4904 5.657C27.6899 4.59474 28.9436 3.1742 29.6386 2.03652C29.6529 2.03652 29.6601 2.03023 29.6672 2.03023C29.6672 2.03023 29.7747 1.87309 29.9108 1.61538C30.0111 1.4331 30.1186 1.20682 30.2189 0.949116C30.3192 0.703979 30.4052 0.4337 30.4625 0.15085C30.4697 0.125707 30.4697 0.113136 30.4697 0.113136C30.4697 0.113136 33.3784 1.15025 35.7642 2.54565C38.1427 3.93476 40.6216 5.97756 42.3769 8.57978C44.1035 11.138 48.0081 17.8761 48.1371 18.1024V18.1087C48.1371 18.1087 47.5138 19.1772 45.8731 20.0321Z" fill="url(#paint2_linear_163_2843)"/>
<path d="M17.273 26.2736C12.5086 26.4685 9.30615 25.5508 9.30615 25.5508C9.58556 23.9605 9.89364 21.5217 9.89364 21.5217C10.0513 21.5783 10.2232 21.6349 10.3951 21.6852C12.3797 22.2446 15.3959 22.2132 16.4419 22.1817C16.6783 22.1754 16.8145 22.1692 16.8145 22.1692L17.273 26.2736Z" fill="url(#paint3_linear_163_2843)"/>
<path opacity="0.4" d="M17.273 26.2736C12.5086 26.4685 9.30615 25.5508 9.30615 25.5508C9.58556 23.9605 9.89364 21.5217 9.89364 21.5217C10.0513 21.5783 10.2232 21.6349 10.3951 21.6852L9.83632 25.2868C12.0501 25.9845 16.6067 25.8399 16.6067 25.8399C16.4992 24.5137 16.4562 22.7349 16.4419 22.188C16.6783 22.1817 16.8145 22.1754 16.8145 22.1754L17.273 26.2736Z" fill="#8F1C1C"/>
<path d="M42.3053 23.3571C42.3053 23.3571 41.9471 23.9417 38.9381 24.8217C35.929 25.7016 34.274 25.8022 34.274 25.8022C34.1594 25.1862 33.228 21.88 33.228 21.88C33.3713 21.8612 33.5146 21.8423 33.6579 21.8234C36.6168 21.4212 38.9882 20.6858 39.8766 20.3841C40.1202 20.3023 40.2492 20.2521 40.2492 20.2521C41.0014 21.1069 42.3053 23.3571 42.3053 23.3571Z" fill="url(#paint4_linear_163_2843)"/>
<path opacity="0.4" d="M42.3053 23.3571C42.3053 23.3571 41.9471 23.9417 38.9381 24.8217C35.929 25.7016 34.274 25.8022 34.274 25.8022C34.1594 25.1862 33.228 21.88 33.228 21.88C33.3713 21.8612 33.5146 21.8423 33.6579 21.8234C33.9301 22.7223 34.6896 25.2491 34.6896 25.2491C34.6896 25.2491 38.3649 24.9537 41.5388 23.3446L39.8694 20.3841C40.113 20.3023 40.242 20.2521 40.242 20.2521C41.0014 21.1069 42.3053 23.3571 42.3053 23.3571Z" fill="#8F1C1C"/>
<path opacity="0.6" d="M31.8091 18.8881L32.5184 22.7977C32.5184 22.7977 38.866 22.2509 41.1658 20.3778C41.1658 20.3778 37.9203 21.9303 32.9267 22.1629L31.8091 18.8881Z" fill="#8F1C1C"/>
<path d="M41.1945 20.2521C41.1945 20.2521 39.1956 21.352 35.9573 21.88C35.0402 22.0309 34.0229 22.1314 32.9267 22.1566L31.8091 18.8818C31.8091 18.8818 31.9022 18.8692 32.0742 18.8504C33.0915 18.7247 36.8743 18.2281 39.5252 17.367L41.1945 20.2521Z" fill="#B32929"/>
<path opacity="0.4" d="M35.9509 21.8863C35.0339 22.0372 34.0165 22.1377 32.9204 22.1629L31.8027 18.8881C31.8027 18.8881 31.8959 18.8755 32.0678 18.8567C32.5837 19.7429 33.7371 21.3897 35.9509 21.8863Z" fill="#A61F1F"/>
<path d="M23.1409 5.24917C22.5176 5.30609 20.3253 7.1844 20.3253 7.1844C17.5168 5.14166 16.7502 2.59929 16.5783 1.99849C16.5496 1.90995 16.5425 1.85303 16.5425 1.85303L16.958 1.46092L19.128 3.05176e-05C19.1208 0.101219 18.8781 1.18898 19.4512 2.16292C19.5945 2.40324 19.745 2.63724 19.9098 2.84594C20.0244 2.99772 20.1462 3.13686 20.268 3.25702C20.4471 3.4341 20.662 3.61118 20.877 3.78193C20.9343 3.8262 20.9916 3.87047 21.0489 3.91474C21.6077 4.35744 22.2955 4.80647 23.1409 5.24917Z" fill="#C22C2C"/>
<path opacity="0.3" d="M20.8696 3.78192C18.9209 3.71236 17.3877 2.33999 16.9507 1.46091L19.1278 0C19.1206 0.101189 18.8707 1.18897 19.4439 2.16291C19.5872 2.40323 19.7376 2.63723 19.9024 2.84593C20.0171 2.99771 20.1388 3.13685 20.2606 3.25701C20.4398 3.43409 20.6547 3.61117 20.8696 3.78192Z" fill="#C22C2C"/>
<path opacity="0.3" d="M12.4228 5.5313C12.4228 5.5313 12.4228 8.24666 11.8353 10.0758C11.2478 11.9049 9.91523 13.5202 9.91523 13.5202L7.07812 20.5224C7.57963 20.8178 8.45369 20.6669 8.45369 20.6669L10.209 13.558C13.218 11.1443 12.5947 6.41127 12.4228 5.5313Z" fill="#A32A28"/>
<path d="M29.9398 20.4909C29.7392 20.5286 29.5386 20.4909 29.3881 20.4029C29.2448 20.3149 29.1374 20.1892 29.0944 20.0321C29.0156 19.7052 29.2592 19.3847 29.646 19.3092C29.904 19.259 30.1619 19.3407 30.3267 19.4915C30.4055 19.567 30.4628 19.6612 30.4914 19.7681C30.5774 20.0887 30.3267 20.4155 29.9398 20.4909Z" fill="#39323F"/>
<path d="M29.8609 20.2647C29.6746 20.3024 29.4955 20.2332 29.3952 20.1138C29.3594 20.0698 29.3307 20.0258 29.3164 19.9692C29.2663 19.7555 29.4239 19.5481 29.6746 19.4978C29.8108 19.4727 29.9469 19.4978 30.0472 19.567C30.1332 19.6173 30.1976 19.699 30.2191 19.7932C30.2693 20.007 30.1117 20.2207 29.8609 20.2647Z" fill="#4B4651"/>
<path opacity="0.1" d="M29.7678 20.183C29.6317 20.2081 29.5027 20.183 29.3952 20.1138C29.3594 20.0698 29.3307 20.0258 29.3164 19.9692C29.2663 19.7555 29.4239 19.5481 29.6746 19.4978C29.8108 19.4727 29.9469 19.4978 30.0472 19.567C30.083 19.611 30.1117 19.655 30.126 19.7115C30.1761 19.9252 30.0114 20.1327 29.7678 20.183Z" fill="#4B4651"/>
<path opacity="0.4" d="M29.9398 20.4909C29.7392 20.5287 29.5386 20.4909 29.3882 20.4029C29.6819 20.4407 30.0401 20.4029 30.2622 20.2207C30.513 20.0132 30.4342 19.7052 30.3339 19.4915C30.4127 19.567 30.47 19.6612 30.4987 19.7681C30.5775 20.0887 30.3267 20.4155 29.9398 20.4909Z" fill="#39323F"/>
<path d="M31.8455 26.3176C31.6449 26.3554 31.4515 26.3176 31.2939 26.2296C31.1506 26.1416 31.0431 26.0159 31.0001 25.8588C30.9213 25.5319 31.1649 25.2114 31.5518 25.136C31.8097 25.0857 32.0676 25.1611 32.2324 25.3182C32.3112 25.3937 32.3686 25.4879 32.3972 25.5948C32.476 25.9154 32.2324 26.2422 31.8455 26.3176Z" fill="#39323F"/>
<path d="M31.7667 26.0914C31.5804 26.1291 31.3941 26.0599 31.301 25.9405C31.2652 25.8965 31.2365 25.8525 31.2222 25.7959C31.172 25.5822 31.3296 25.3748 31.5804 25.3308C31.7165 25.3057 31.8527 25.3308 31.953 25.4C32.0389 25.4502 32.1034 25.5319 32.1249 25.6262C32.175 25.8337 32.0103 26.0474 31.7667 26.0914Z" fill="#4B4651"/>
<path opacity="0.1" d="M31.6664 26.0097C31.5303 26.0348 31.4013 26.0097 31.301 25.9405C31.2652 25.8965 31.2365 25.8525 31.2222 25.7959C31.172 25.5822 31.3296 25.3748 31.5804 25.3308C31.7165 25.3057 31.8527 25.3308 31.953 25.4C31.9888 25.444 32.0174 25.4879 32.0318 25.5445C32.0748 25.7519 31.9171 25.9594 31.6664 26.0097Z" fill="#4B4651"/>
<path opacity="0.4" d="M31.8456 26.3176C31.645 26.3554 31.4516 26.3176 31.2939 26.2297C31.5877 26.2674 31.9459 26.2296 32.168 26.0474C32.4188 25.8399 32.34 25.532 32.2396 25.3182C32.3185 25.3937 32.3758 25.488 32.4044 25.5948C32.4761 25.9154 32.2325 26.2422 31.8456 26.3176Z" fill="#39323F"/>
<path d="M28.471 14.3688C28.2704 14.4065 28.0698 14.3688 27.9194 14.2808C27.7761 14.1928 27.6686 14.0671 27.6256 13.9099C27.5468 13.5831 27.7904 13.2625 28.1773 13.1871C28.4352 13.1368 28.6931 13.2123 28.8579 13.3694C28.9367 13.4448 28.994 13.5391 29.0227 13.646C29.1087 13.9728 28.8579 14.2934 28.471 14.3688Z" fill="#39323F"/>
<path d="M28.3922 14.1489C28.2059 14.1866 28.0196 14.1174 27.9265 13.998C27.8907 13.954 27.862 13.91 27.8477 13.8534C27.7975 13.6397 27.9551 13.4323 28.2059 13.3883C28.342 13.3632 28.4781 13.3883 28.5784 13.4575C28.6644 13.5077 28.7289 13.5895 28.7504 13.6837C28.8005 13.8912 28.6429 14.0986 28.3922 14.1489Z" fill="#4B4651"/>
<path opacity="0.1" d="M28.299 14.0608C28.1629 14.0859 28.0339 14.0608 27.9265 13.9917C27.8907 13.9477 27.862 13.9037 27.8477 13.8471C27.7975 13.6334 27.9551 13.426 28.2059 13.382C28.342 13.3568 28.4781 13.382 28.5784 13.4511C28.6143 13.4951 28.6358 13.5391 28.6501 13.5957C28.7074 13.8031 28.5426 14.0168 28.299 14.0608Z" fill="#4B4651"/>
<path opacity="0.4" d="M28.4711 14.3688C28.2705 14.4065 28.0699 14.3688 27.9194 14.2808C28.2132 14.3185 28.5714 14.2808 28.7935 14.0985C29.0442 13.8911 28.9654 13.5831 28.8651 13.3694C28.9439 13.4448 29.0013 13.5391 29.0299 13.6459C29.1087 13.9728 28.858 14.2934 28.4711 14.3688Z" fill="#39323F"/>
<path d="M27.1673 8.63008C26.9667 8.66779 26.7733 8.63008 26.6157 8.54208C26.4724 8.46037 26.3649 8.32837 26.3219 8.17123C26.2431 7.84438 26.4867 7.52382 26.8736 7.44839C27.1315 7.39811 27.3894 7.47354 27.5542 7.63068C27.633 7.7061 27.6903 7.80039 27.719 7.90724C27.7978 8.2278 27.5542 8.55465 27.1673 8.63008Z" fill="#39323F"/>
<path d="M27.0875 8.4038C26.9012 8.44151 26.7149 8.37237 26.6218 8.25295C26.586 8.20895 26.5573 8.16495 26.543 8.10838C26.4928 7.89467 26.6504 7.68725 26.9012 7.63696C27.0373 7.61182 27.1735 7.63696 27.2738 7.7061C27.3597 7.75639 27.4242 7.8381 27.4457 7.93238C27.4959 8.14609 27.3382 8.3598 27.0875 8.4038Z" fill="#4B4651"/>
<path opacity="0.1" d="M26.988 8.32209C26.8519 8.34723 26.7229 8.32209 26.6154 8.25295C26.5796 8.20895 26.551 8.16495 26.5366 8.10838C26.4865 7.89467 26.6441 7.68725 26.8949 7.63696C27.031 7.61182 27.1671 7.63696 27.2674 7.7061C27.3032 7.74382 27.3319 7.7941 27.3462 7.85067C27.3964 8.06438 27.2387 8.2718 26.988 8.32209Z" fill="#4B4651"/>
<path opacity="0.4" d="M27.1674 8.63008C26.9668 8.66779 26.7733 8.63008 26.6157 8.54208C26.9095 8.5798 27.2677 8.54208 27.4898 8.3598C27.7334 8.15238 27.6617 7.84439 27.5614 7.63068C27.6402 7.7061 27.6976 7.80039 27.7262 7.90724C27.7979 8.2278 27.5543 8.55465 27.1674 8.63008Z" fill="#39323F"/>
<path d="M8.46071 19.9536L7.89472 23.1467C7.23559 23.1718 6.61229 23.1341 6.03197 23.0524C3.38114 22.6815 0 19.9473 0 19.9473L2.01042 17.423L2.92742 17.7287L3.35964 17.9422C3.35964 17.9422 3.38114 17.9674 3.41696 18.0051C4.45575 18.6457 5.45882 19.4696 6.48333 19.7147C7.17111 19.8782 7.77292 19.9285 8.13115 19.9473C8.33891 19.9599 8.46071 19.9536 8.46071 19.9536Z" fill="#A61F1F"/>
<path opacity="0.3" d="M8.46048 19.9538L7.89449 23.1468C7.23536 23.172 6.61206 23.1342 6.03174 23.0525C6.17503 22.0217 6.38279 20.5697 6.4831 19.7149C7.17088 19.8783 7.77269 19.9286 8.13091 19.9475C8.33868 19.96 8.46048 19.9538 8.46048 19.9538Z" fill="#A61F1F"/>
<path opacity="0.4" d="M8.13102 19.9475C5.43003 20.62 3.50997 18.6338 3.01562 17.8167L3.04428 17.7287L3.36668 17.9361C3.36668 17.9361 3.38817 17.9612 3.424 17.999C4.81389 19.6395 7.24263 19.9035 8.13102 19.9475Z" fill="#A61F1F"/>
<path d="M50.0002 21.2955C50.0002 21.2955 48.7679 22.4144 47.3064 22.9423C47.0413 23.0366 46.7762 23.1183 46.5111 23.1938C45.4938 23.4703 44.5552 23.5709 44.3045 23.596L42.8071 20.843C42.8071 20.843 42.9934 20.843 43.2943 20.8053C43.6884 20.755 44.283 20.6544 44.935 20.4344C45.243 20.3276 45.5583 20.1956 45.8735 20.0384C47.5142 19.1836 48.1446 18.1088 48.1446 18.1088C48.1446 18.1088 48.1446 18.1088 48.1446 18.1025C48.2592 17.983 48.3309 17.9139 48.3309 17.9139L48.4813 18.2219L50.0002 21.2955Z" fill="#A61F1F"/>
<path opacity="0.4" d="M48.474 18.2155C47.822 19.4035 46.1599 21.1572 43.3013 20.7989C43.8816 20.7298 44.8918 20.5412 45.8733 20.0321C47.5139 19.1772 48.1444 18.1024 48.1444 18.1024C48.1444 18.1024 48.1444 18.1024 48.1444 18.0961C48.259 17.9767 48.3307 17.9075 48.3307 17.9075L48.474 18.2155Z" fill="#A61F1F"/>
<path opacity="0.3" d="M46.5111 23.1937C45.4938 23.4703 44.5552 23.5708 44.3045 23.596L42.8071 20.8429C42.8071 20.8429 42.9934 20.8429 43.2943 20.8052C43.6884 20.7549 44.283 20.6543 44.935 20.4343L46.5111 23.1937Z" fill="#A61F1F"/>
<defs>
<linearGradient id="paint0_linear_163_2843" x1="27.392" y1="2.83405" x2="24.8051" y2="21.3363" gradientUnits="userSpaceOnUse">
<stop offset="0.00510204" stop-color="#B38484"/>
<stop offset="1" stop-color="#A57979"/>
</linearGradient>
<linearGradient id="paint1_linear_163_2843" x1="15.3621" y1="2.19428" x2="12.3936" y2="29.3602" gradientUnits="userSpaceOnUse">
<stop offset="0.00510204" stop-color="#B32929"/>
<stop offset="1" stop-color="#A31B1F"/>
</linearGradient>
<linearGradient id="paint2_linear_163_2843" x1="35.2208" y1="1.89591" x2="38.232" y2="29.7951" gradientUnits="userSpaceOnUse">
<stop offset="0.00510204" stop-color="#B32929"/>
<stop offset="1" stop-color="#A31B1F"/>
</linearGradient>
<linearGradient id="paint3_linear_163_2843" x1="18.1767" y1="20.9111" x2="13.6955" y2="24.6989" gradientUnits="userSpaceOnUse">
<stop offset="0.00510204" stop-color="#B32929"/>
<stop offset="1" stop-color="#A31B1F"/>
</linearGradient>
<linearGradient id="paint4_linear_163_2843" x1="33.228" y1="23.0273" x2="42.3067" y2="23.0273" gradientUnits="userSpaceOnUse">
<stop offset="0.00510204" stop-color="#B32929"/>
<stop offset="1" stop-color="#A31B1F"/>
</linearGradient>
</defs>
</svg>
