<svg width="82" height="57" viewBox="0 0 82 57" fill="none" xmlns="http://www.w3.org/2000/svg">
<path d="M81.5 29C81.1867 29.7576 74.5 38.5 74.5 38.5L67.5 29.5L61.5 23.4953C61.5 23.4953 63.1096 26.6146 63.6802 32.2517C64.1613 36.9753 66.5 51.5 65.5 56C63.0721 56 64.0941 56.0589 64.0941 56.0589C64.0941 56.0589 61.1111 55.8918 59.5 56.0589C55 56.0589 51.9263 56.0255 46.5 56.0589C41.2639 56.0923 30.9888 55.5852 25 56.0589C22.1917 56.0701 16.5112 56.0589 16.5112 56.0589V54.0295V52L17.5 38.5L20.5 23L14 30L7.01122 40C6.67557 39.5989 4.00336 35.7353 3.49989 35C1.57549 32.2037 0 30 0 30C0 30 9.32522 17.369 10.5 16.5C12.5 13.5 17.5 9.5 20.5 6.5C23 4.5 25.0356 2.59573 26.3894 1.89388C27.3181 1.41484 27.8663 1.15861 27.9894 1.16975C27.9894 1.16975 28.2579 1.16975 28.7054 1.16975C30.6522 1.18089 35.8379 4.5557 40 4.5C44.7998 4.4443 51.6527 0.144826 52.4918 0.0111405C52.5701 0.0111405 52.6037 0 52.6037 0C52.6037 0 53.1855 0.323074 54.1365 0.857817C57.7056 2.84082 64 9 68 12C69.5 13.5 70 14.1688 71.5 15.5C79.5 26 80 26 81.5 29Z" fill="url(#paint0_linear_399_26057)"/>
<defs>
<linearGradient id="paint0_linear_399_26057" x1="58.2932" y1="-1.64222" x2="26.9329" y2="53.8952" gradientUnits="userSpaceOnUse">
<stop stop-color="#655249"/>
<stop offset="1" stop-color="#654D40"/>
</linearGradient>
</defs>
</svg>
