<svg width="84" height="58" viewBox="0 0 84 58" fill="none" xmlns="http://www.w3.org/2000/svg">
<path fill-rule="evenodd" clip-rule="evenodd" d="M63.0483 33.2314C66.0505 44.8201 66.9944 55.6985 66.9944 55.6985C66.9944 55.6985 57.4368 58 42.4944 58C27.552 58 17.9944 56.1587 17.9944 56.1587C17.9944 56.1587 19.051 43.4287 22.543 30.9443C19.8945 33.0398 14.1953 40.8589 11.8101 44.2C11.4326 44.7275 11.0505 45.2505 10.6689 45.7729C9.80688 46.9531 8.94727 48.1299 8.1499 49.3499L0 40.6799C0.0300293 40.6599 0.0600586 40.6399 0.0900879 40.6099C0.772705 40.0259 1.31348 39.3066 1.85132 38.5911L1.85278 38.5889L1.88354 38.5479C1.98877 38.408 2.09375 38.2683 2.19995 38.1299C3.98999 35.8 5.83008 33.51 7.69995 31.24C10.2 28.21 12.76 25.23 15.3799 22.29C22.3977 14.4229 27.8362 12.0813 31.2808 12.0022C32.27 10.4597 32.9414 9.21167 33.0659 7.8335C33.3938 4.13965 33.4932 0 33.4932 0H51.4758C51.4758 0 51.5652 4.13965 51.9028 7.8335C52.0273 9.21118 52.6973 10.459 53.6851 12.001C56.978 12.0522 62.1086 14.3738 69.1702 22.29C71.79 25.23 74.3501 28.21 76.8501 31.24C78.72 33.51 80.5601 35.8 82.3501 38.1299L83.1899 39.24L74.8201 46.53C74.6267 46.2151 74.4285 45.9014 74.2258 45.5898C73.8623 45.031 73.4854 44.4792 73.1001 43.9399C69.8831 39.4351 65.988 35.7935 63.0483 33.2314Z" fill="#FAC7AD"/>
</svg>
